<svg xmlns="http://www.w3.org/2000/svg" xmlns:xlink="http://www.w3.org/1999/xlink" height="230" viewBox="0 0 39 230" width="39"><svg height="26" viewBox="0 0 31 26" width="31" x="4" y="4"><title>audio_mutex2</title><g fill="#FFF"><path d="M8.51 9.872H0v8.61h8.51l6.99 5.273V3.09zM25.581.722L24.363 1.94c6.312 6.312 6.312 16.581 0 22.893l1.218 1.218c6.984-6.984 6.984-18.345 0-25.329"/><path d="M22.137 4.167l-1.218 1.217c4.412 4.414 4.412 11.59 0 16.005l1.218 1.217a12.953 12.953 0 0 0 3.82-9.219c0-3.484-1.358-6.758-3.82-9.22"/></g></svg><svg height="22" viewBox="0 0 27 22" width="27" x="4" y="34"><title>audio_repeatx2</title><defs><path id="a" d="M.217 0h20.792v11.412H.217V0z"/><path id="c" d="M8.21 5.546V1.16H1.314v4.386z"/><path id="e" d="M0 1.201v4.386h6.896V1.2H0z"/></defs><g fill="none" fill-rule="evenodd"><g transform="translate(3.375)"><mask id="b" fill="#fff"><use xlink:href="#a"/></mask><path d="M21.002 11.412l-1.688-.059a9.352 9.352 0 0 0-6.544-9.244A9.32 9.32 0 0 0 1.716 6.728L.217 5.953A11.01 11.01 0 0 1 13.272.497C18 1.97 21.177 6.46 21.002 11.412" fill="#FFF" fill-rule="nonzero" mask="url(#b)"/></g><g transform="translate(18.563 6.75)"><mask id="d" fill="#fff"><use xlink:href="#c"/></mask><path fill="#FFF" fill-rule="nonzero" mask="url(#d)" d="M1.314 1.962l.597-.598 2.94 2.943L7.57 1.16l.64.552-3.315 3.834z"/></g><path d="M13.408 21.938c-1.09 0-2.195-.164-3.282-.501a11.037 11.037 0 0 1-7.729-10.915l1.688.06a9.343 9.343 0 0 0 6.542 9.243 9.311 9.311 0 0 0 11.053-4.617l1.5.775a11 11 0 0 1-9.772 5.955" fill="#FFF" fill-rule="nonzero"/><g transform="translate(0 8.438)"><mask id="f" fill="#fff"><use xlink:href="#e"/></mask><path fill="#FFF" fill-rule="nonzero" mask="url(#f)" d="M6.896 4.785l-.597.598-2.94-2.943L.64 5.587 0 5.035l3.315-3.834z"/></g></g></svg><svg height="20" viewBox="0 0 18 20" width="18" x="4" y="60"><title>audio_playx2</title><path d="M0 0v20L17.95 9.998z" fill="#FFF"/></svg><svg height="20" viewBox="0 0 16 20" width="16" x="4" y="84"><title>audio_pausex2</title><path d="M0 20h5.067V.102H0zm10.133 0H15.2V.102h-5.067z" fill="#FFF"/></svg><svg height="15" viewBox="0 0 18 15" width="18" x="4" y="108"><title>audio_mute</title><g fill="#FFF" fill-rule="evenodd"><path d="M4.941 5.313H0v4.999h4.941L9 13.374v-12zM14.854 0l-.707.707c3.664 3.665 3.664 9.628 0 13.293l.706.707c4.056-4.055 4.056-10.652 0-14.707"/><path d="M12.854 2l-.707.707a6.579 6.579 0 0 1 0 9.293l.706.707a7.521 7.521 0 0 0 2.219-5.353A7.522 7.522 0 0 0 12.854 2"/></g></svg><svg height="18" viewBox="0 0 13 18" width="13" x="4" y="127"><title>Page 1</title><path d="M6.072 7.623a2.267 2.267 0 0 1-2.269-2.265 2.267 2.267 0 0 1 4.536 0 2.265 2.265 0 0 1-2.267 2.265m0-7.622A6.068 6.068 0 0 0 0 6.066C0 9.023 1.676 12.96 6.072 17.35c4.396-4.39 6.072-8.327 6.072-11.284A6.068 6.068 0 0 0 6.072 0" fill="#FFF" fill-rule="evenodd"/></svg><svg height="13" viewBox="0 0 16 13" width="16" x="4" y="149"><title>audio_repeat</title><g fill="#FFF" fill-rule="evenodd"><path d="M12.446 6.763l-1-.035A5.542 5.542 0 0 0 7.568 1.25a5.523 5.523 0 0 0-6.551 2.737l-.888-.46A6.525 6.525 0 0 1 7.865.296a6.545 6.545 0 0 1 4.58 6.468" mask="url(#b)" transform="translate(2)"/><path mask="url(#d)" d="M.778 1.162l.354-.354 1.742 1.744L4.486.687l.38.327L2.9 3.286z" transform="translate(11 4)"/><path d="M7.946 13A6.54 6.54 0 0 1 1.42 6.235l1 .036a5.537 5.537 0 0 0 3.877 5.477 5.518 5.518 0 0 0 6.55-2.736l.889.46A6.519 6.519 0 0 1 7.946 13"/><path mask="url(#f)" d="M4.087 2.836l-.354.354L1.99 1.446.379 3.31l-.38-.327L1.965.712z" transform="translate(0 5)"/></g></svg><svg height="12" viewBox="0 0 12 12" width="12" x="4" y="166"><title>audio_prev</title><path d="M11.392 0L1 6l10.392 6zM0 11.966h1V.001H0z" fill="#FFF" fill-rule="evenodd"/></svg><svg height="12" viewBox="0 0 12 12" width="12" x="4" y="182"><title>audio_next</title><path d="M0 0v12l10.392-6zm10.392 12h1V.034h-1z" fill="#FFF" fill-rule="evenodd"/></svg><svg height="12" viewBox="0 0 11 12" width="11" x="4" y="198"><title>audio_play</title><path d="M0 0v12l10.392-6.001z" fill="#FFF" fill-rule="evenodd"/></svg><svg height="12" viewBox="0 0 9 12" width="9" x="4" y="214"><title>audio_pause</title><path d="M0 12h3.04V.061H0zm6.08 0h3.04V.061H6.08z" fill="#FFF" fill-rule="evenodd"/></svg></svg>