<svg width="396" height="225" viewBox="0 0 396 225" xmlns="http://www.w3.org/2000/svg" xmlns:xlink="http://www.w3.org/1999/xlink"><title>bubble12</title><defs><path id="a" d="M0 224.705h395.291V0H.001v224.705z"/></defs><g fill="none" fill-rule="evenodd"><mask id="b" fill="#fff"><use xlink:href="#a"/></mask><path d="M19.949 1.03C-3.131 135.027-1.011 195.636 4.967 222.94c9.609-7.427 20.475-12.74 28.454-16.643a598.709 598.709 0 0 0 3.028-1.489l.216-.05c6.268-.09 13.725-.135 22.162-.135 98.078 0 312.493 6.037 324.109 6.366.74-9.429 11.98-153.316 11.328-184.41C274.204 10.751 148.704 5.456 19.949 1.03zM4.339 224.704l-.176-.773C-1.97 196.888-4.367 136.16 19.038.43l.074-.43.436.015C148.627 4.451 274.456 9.75 394.82 25.645l.423.054.01.428c.792 31.091-11.236 183.877-11.358 185.416l-.037.474-.476-.013c-2.23-.065-224.251-6.38-324.555-6.38-8.381 0-15.795.045-22.035.132-.923.458-1.903.937-2.932 1.44-8.112 3.968-19.223 9.402-28.9 17.02l-.621.49z" fill="#245DFF" mask="url(#b)"/></g></svg>