<svg xmlns="http://www.w3.org/2000/svg" viewBox="0 0 434.6 295.7"><radialGradient id="a" cx="259.735" cy="225.733" r="175.377" gradientUnits="userSpaceOnUse"><stop offset="0" stop-color="#ff9cbf"/><stop offset="1" stop-color="#ffec2b"/></radialGradient><path fill="url(#a)" d="M286.2 278c6.2 3.4 7.2 11.2 13.9 14 7.4 3.1 16-2.2 20.7-7.7s9.3-12.3 17.4-13.8c13.1-2.4 24.4 10.8 37.7 9.5 13.2-1.4 17.5-14.9 18.7-25.6 5.4-48.4 10.7-98-4.9-144.9l-183.9 8.1 7.2 178.2c3.6-2.2 4.4-6.1 6.2-9.4 1.8-3.3 6.7-6.4 10.4-4.4 1.9 1 2.7 3 4 4.5 5.7 6.5 18.3 2.6 26.1-2.2 7.9-5.1 18.3-10.8 26.5-6.3z"/><path fill="#FFF" d="M373.3 254.8s-305.7 8.5-367.1 4.4C-9 166.9 8.8 101.2 26.6 16 132.3 15.2 406 .5 406 .5l-1.8 56.1 29.5 6.8-35 40.4-25.4 151z"/><path fill="#245DFF" d="M66.1 260.8c-28.6 0-48.8-.4-60-1.1h-.4l-.1-.4C-8 175.9 5.4 113 21 40.2c1.7-7.9 3.4-16 5.2-24.3l.1-.4h.4C131.1 14.7 403.2.2 405.9 0h.5l-1.8 56.3 29.9 6.8-35.4 40.9-25.4 151.3h-.4c-2 .1-199.1 5.5-307.2 5.5zm-59.5-2.1c11.2.7 31.3 1.1 59.5 1.1 105.7 0 296.5-5.2 306.8-5.5l25.3-150.8.1-.1 34.4-39.7-29.1-6.7 1.8-56C391.7 1.8 129.5 15.6 27 16.5c-1.7 8.1-3.4 16.1-5.1 23.9C6.4 113-7 175.7 6.6 258.7z"/></svg>