<svg width="341" height="201" viewBox="0 0 341 201" xmlns="http://www.w3.org/2000/svg" xmlns:xlink="http://www.w3.org/1999/xlink"><title>bubble10</title><defs><path id="a" d="M340.87.833H0V201h340.87V.833z"/></defs><g fill="none" fill-rule="evenodd"><path d="M52.656 4.355s232.498-6.152 279.216-2.913c11.602 70.858 11.639 124.305-1.855 189.785-80.384.502-302.057 8.42-302.057 8.42l1.364-43.12-28.287-6.79 32.405-29.391L52.656 4.355z" fill="#FFF"/><g transform="translate(0 -.833)"><mask id="b" fill="#fff"><use xlink:href="#a"/></mask><path d="M2.073 150.305l27.763 6.665-1.36 42.993c12.18-.432 223.24-7.892 301.132-8.4 13.088-63.72 13.603-116.74 1.834-188.816-9.094-.607-25.64-.914-49.196-.914-80.742 0-220.49 3.618-229.165 3.844L33.906 121.432 2.073 150.305zM27.443 201l1.368-43.247-28.81-6.917 32.976-29.911L52.23 4.7l.412-.012C54.1 4.65 199.3.833 282.246.833c23.924 0 40.632.317 49.66.943l.396.028.063.39c11.882 72.56 11.36 125.822-1.859 189.967l-.08.397-.407.003c-79.457.495-299.825 8.342-302.04 8.42l-.536.019z" fill="#245DFF" mask="url(#b)"/></g></g></svg>