<?xml version="1.0" encoding="utf-8"?>
<!-- Generator: Adobe Illustrator 19.1.0, SVG Export Plug-In . SVG Version: 6.00 Build 0)  -->
<svg version="1.1" id="Layer_1" xmlns="http://www.w3.org/2000/svg" xmlns:xlink="http://www.w3.org/1999/xlink" x="0px" y="0px"
	 viewBox="0 0 276 237.5" style="enable-background:new 0 0 276 237.5;" xml:space="preserve">
<style type="text/css">
	.st0{fill:#FFFFFF;}
	.st1{fill:#07070B;}
</style>
<g>
	<g>
		<path class="st0" d="M31.1,0v128.2c0,30.3,18,58.7,52.1,82.1c25.5,17.4,50.7,25.9,51.7,26.2l3,1l3-1c1.1-0.3,26.3-8.8,51.7-26.2
			c34.1-23.3,52.1-51.7,52.1-82.1V0H31.1z"/>
	</g>
</g>
<g>
	<path class="st1" d="M137.9,198.3c-49,0-88.8-40.8-88.8-91c0-50.2,39.8-91,88.8-91c49,0,88.8,40.8,88.8,91
		C226.6,157.5,186.8,198.3,137.9,198.3z M137.9,19.4c-47.3,0-85.8,39.5-85.8,88c0,48.5,38.5,88,85.8,88c47.3,0,85.8-39.5,85.8-88
		C223.6,58.8,185.2,19.4,137.9,19.4z"/>
</g>
<g>
	<g>
		<rect y="120.2" class="st1" width="217" height="3"/>
	</g>
	<g>
		<rect x="234" y="120.2" class="st1" width="42" height="3"/>
	</g>
</g>
<g>
	<polygon class="st1" points="145.1,121.8 137.9,129.2 130.7,121.8 137.9,114.4 	"/>
</g>
<g>
	<circle class="st1" cx="220.8" cy="22.7" r="12.8"/>
</g>
<g>
	<path class="st1" d="M66.6,92c0-5.2,4.2-9.4,9.4-9.4c3.2,0,5.7,1.3,7.5,3.5l-3.1,2.6c-1.1-1.4-2.3-2.1-4.3-2.1
		c-3,0-5.2,2.5-5.2,5.4c0,3,2.3,5.4,5.2,5.4c1.5,0,2.6-0.3,3.6-0.9v-2.6h-4.4l1.8-3.9h6.7v8.4c-1.8,2.1-4.5,3-7.6,3
		C70.8,101.4,66.6,97.2,66.6,92z"/>
	<path class="st1" d="M88.1,93.7v-11h4.2v11c0,2.2,1.4,3.6,3.4,3.6c2,0,3.4-1.4,3.4-3.6v-11h4.2v11c0,4.6-3.1,7.7-7.6,7.7
		S88.1,98.3,88.1,93.7z"/>
	<path class="st1" d="M114.1,82.5l9.1,18.6h-4.4l-1.3-2.9h-6.8l-1.3,2.9H105L114.1,82.5z M115.8,94.9l-1.7-3.8l-1.7,3.8H115.8z"/>
	<path class="st1" d="M130.4,93.7L130.4,93.7l-0.1,7.5h-4.2V82.7h7c3,0,5.5,2.5,5.5,5.5c0,2.3-1.4,4.3-3.6,5.1l6,7.8h-5L130.4,93.7z
		 M132.7,90.2c1.1,0,1.9-0.8,1.9-1.8s-0.8-1.8-1.9-1.8h-2.3v3.7H132.7z"/>
	<path class="st1" d="M144.1,82.7h6.5c5.2,0,9.4,4.1,9.4,9.2c0,5.1-4.2,9.2-9.4,9.2h-6.5V82.7z M150.6,97.4c3.1,0,5.2-2.5,5.2-5.4
		c0-3-2.1-5.4-5.2-5.4h-2.3v10.9H150.6z"/>
	<path class="st1" d="M164.2,82.7h4.2v18.4h-4.2V82.7z"/>
	<path class="st1" d="M180.5,82.5l9.1,18.6h-4.4l-1.3-2.9H177l-1.3,2.9h-4.4L180.5,82.5z M182.2,94.9l-1.7-3.8l-1.7,3.8H182.2z"/>
	<path class="st1" d="M196.8,91.5v9.6h-4.2V82.5l11.6,9.8v-9.6h4.2v18.6L196.8,91.5z"/>
</g>
<g>
	<path class="st1" d="M119.2,140.4h10.9v4.1h-6.8v3.1h5.2v4h-5.2v7.2h-4.2V140.4z"/>
	<path class="st1" d="M134,140.2l9.2,9.2l9.2-9.2v18.6h-4.2v-9l-5,5l-5-5v9H134V140.2z"/>
</g>
</svg>
