<?xml version="1.0" encoding="UTF-8"?>
<svg width="335px" height="420px" viewBox="0 0 335 420" version="1.1" xmlns="http://www.w3.org/2000/svg" xmlns:xlink="http://www.w3.org/1999/xlink">
    <!-- Generator: Sketch 49 (51002) - http://www.bohemiancoding.com/sketch -->
    <title>Group</title>
    <desc>Created with Sketch.</desc>
    <defs></defs>
    <g id="Page-1" stroke="none" stroke-width="1" fill="none" fill-rule="evenodd">
        <g id="вектор" transform="translate(0.000000, -35.000000)">
            <polygon id="Rectangle-2" fill="#FFFFFF" points="59.544729 204 276.541572 204 305 356 169.018389 441.905143 51 356"></polygon>
            <g id="Group" transform="translate(0.000000, 35.000000)">
                <path d="M334.590584,275.907706 L334.872648,275.851923 L334.872648,354.555334 L334.590584,354.472241 L334.590584,419.199658 L167,310.845115 L203.325028,153.232264 L256.988452,49.3294377 L303.818551,10.306399 L334.590584,2.84217094e-14 L334.590584,86.9446056 L334.590584,275.907706 Z M334.588131,275.908191 L334.588131,219.573882 L315.548228,219.573882 L286.735241,196.032517 L253.534999,196.032517 L233.042385,219.573882 L250.147769,299.339328 L299.150993,365.27134 L334.588131,375.658679 L334.588131,354.471519 L301.851456,344.82778 L285.611887,309.358757 L293.374799,284.058779 L334.588131,275.908191 Z" id="Combined-Shape" fill="#333333" transform="translate(250.936324, 209.599829) scale(-1, 1) translate(-250.936324, -209.599829) "></path>
                <path d="M167.892184,275.932837 L168.174249,275.877054 L168.174249,354.580465 L167.892184,354.497373 L167.892184,419.22479 L0.301600225,310.870247 L36.6266287,153.257395 L90.2900519,49.3545691 L137.120151,10.3315304 L167.892184,0.0251314218 L167.892184,86.969737 L167.892184,275.932837 Z M167.889731,275.933322 L167.889731,219.599014 L148.849828,219.599014 L120.036841,196.057648 L86.8365988,196.057648 L66.3439849,219.599014 L83.4493696,299.36446 L132.452593,365.296471 L167.889731,375.68381 L167.889731,354.49665 L135.153056,344.852912 L118.913488,309.383888 L126.676399,284.083911 L167.889731,275.933322 Z" id="Combined-Shape" fill="#333333"></path>
                <polygon id="Polygon-4" fill="#3F3F3F" points="167.725076 0.124244263 198.480011 10.017071 213.65465 196.447885 188.138085 220.486285 149.510461 220.486285 120.125011 196.447885 136.977292 10.017071"></polygon>
                <polygon id="Polygon-5" fill="#262626" points="167.470751 375.681301 334.581937 311.08076 167.470751 419.125746 152.492363 409.586451 0.611301031 311.08076"></polygon>
                <polygon id="Rectangle" fill="#2C2C2C" points="167.971216 275.443281 207.699732 283.677992 215.727918 309.183 167.394771 353 119.340852 309.183 126.97803 283.677992"></polygon>
                <polygon id="Polygon-6" fill="#F3F3F3" points="150.249128 219.808803 188.967976 219.808803 214.798554 196.11276 249.113234 196.11276 269.842543 219.808803 216.193157 309.53589 207.119631 285.042722 168.102668 276.113699 127.048441 285.042722 118.89865 309.53589 66.3627935 219.808803 86.5102843 196.11276 120.371038 196.11276"></polygon>
            </g>
        </g>
    </g>
</svg>