<?xml version="1.0" encoding="UTF-8" ?>
<!DOCTYPE svg PUBLIC "-//W3C//DTD SVG 1.1//EN" "http://www.w3.org/Graphics/SVG/1.1/DTD/svg11.dtd">
<svg width="221pt" height="220pt" viewBox="0 0 221 220" version="1.1" xmlns="http://www.w3.org/2000/svg">
<path fill="#ffffff" d=" M 0.00 0.00 L 221.00 0.00 L 221.00 51.45 C 214.83 52.75 208.89 55.93 205.37 61.31 C 201.51 66.69 201.21 75.03 206.26 79.77 C 210.19 83.46 215.90 83.82 221.00 83.31 L 221.00 88.87 C 215.82 89.19 210.31 89.04 205.75 86.24 C 198.47 82.22 195.41 72.73 198.05 65.00 C 200.53 56.24 208.08 50.05 216.35 46.93 C 208.86 40.14 200.81 34.01 193.08 27.49 C 185.15 30.19 177.21 32.89 169.28 35.62 C 169.44 32.79 169.59 29.96 169.74 27.13 C 173.56 26.94 177.78 27.61 181.06 25.15 C 177.34 24.72 173.60 24.81 169.87 24.89 C 169.91 23.86 169.95 22.83 170.00 21.81 C 172.39 21.22 174.78 20.64 177.15 19.97 C 174.83 19.50 172.48 19.16 170.14 18.84 C 170.28 16.96 170.42 15.09 170.57 13.22 C 172.56 11.22 175.30 9.16 175.07 6.00 C 175.19 2.48 171.43 -0.59 168.04 0.89 C 164.02 1.58 161.86 6.71 163.94 10.13 C 165.13 11.64 166.84 12.58 168.36 13.72 C 168.27 15.40 168.18 17.08 168.09 18.77 C 165.73 19.34 163.38 19.96 161.14 20.93 C 163.42 21.27 165.71 21.50 168.01 21.68 C 167.95 22.49 167.84 24.11 167.78 24.92 C 163.95 25.11 159.72 24.49 156.45 26.97 C 160.18 27.34 163.93 27.29 167.67 27.20 C 167.49 30.24 167.32 33.29 167.15 36.33 C 145.47 43.74 123.78 51.16 102.08 58.54 C 100.37 70.23 97.78 81.81 96.79 93.60 C 103.60 90.88 111.52 89.39 118.44 92.55 C 125.72 95.67 129.97 104.07 128.52 111.79 C 126.91 122.08 118.28 129.98 108.62 132.95 C 118.31 142.77 128.08 152.51 137.77 162.32 C 150.15 157.51 162.52 152.69 174.91 147.91 C 175.84 151.77 176.78 155.64 177.71 159.50 C 167.06 161.83 156.40 164.13 145.75 166.46 C 147.45 170.91 149.14 175.37 150.86 179.81 C 153.14 179.96 155.48 179.83 157.70 180.47 C 160.37 181.33 161.77 183.94 163.01 186.26 C 162.49 187.87 162.06 189.60 160.93 190.91 C 159.22 192.26 157.00 192.65 154.99 193.38 C 158.11 202.21 160.77 211.21 164.00 220.00 L 0.00 220.00 L 0.00 0.00 Z" />
<path fill="#00b6ed" d=" M 163.94 10.13 C 161.86 6.71 164.02 1.58 168.04 0.89 C 171.43 -0.59 175.19 2.48 175.07 6.00 C 175.30 9.16 172.56 11.22 170.57 13.22 C 170.42 15.09 170.28 16.96 170.14 18.84 C 172.48 19.16 174.83 19.50 177.15 19.97 C 174.78 20.64 172.39 21.22 170.00 21.81 C 169.95 22.83 169.91 23.86 169.87 24.89 C 173.60 24.81 177.34 24.72 181.06 25.15 C 177.78 27.61 173.56 26.94 169.74 27.13 C 169.59 29.96 169.44 32.79 169.28 35.62 C 177.21 32.89 185.15 30.19 193.08 27.49 C 200.81 34.01 208.86 40.14 216.35 46.93 C 208.08 50.05 200.53 56.24 198.05 65.00 C 195.41 72.73 198.47 82.22 205.75 86.24 C 210.31 89.04 215.82 89.19 221.00 88.87 L 221.00 122.38 C 220.59 125.13 220.02 127.85 219.51 130.58 C 208.15 135.00 196.78 139.39 185.43 143.83 C 186.50 148.26 187.57 152.69 188.60 157.13 C 199.39 154.69 210.24 152.56 221.00 150.00 L 221.00 165.74 C 217.97 167.69 215.93 170.63 215.54 174.26 C 214.67 174.48 213.79 174.69 212.92 174.90 L 212.06 175.08 C 211.59 175.01 210.67 174.86 210.20 174.79 C 208.78 174.42 207.39 173.93 205.94 173.66 C 204.57 174.20 204.17 175.84 203.35 176.93 C 189.97 180.31 176.44 183.08 163.01 186.26 C 161.77 183.94 160.37 181.33 157.70 180.47 C 155.48 179.83 153.14 179.96 150.86 179.81 C 149.14 175.37 147.45 170.91 145.75 166.46 C 156.40 164.13 167.06 161.83 177.71 159.50 C 176.78 155.64 175.84 151.77 174.91 147.91 C 162.52 152.69 150.15 157.51 137.77 162.32 C 128.08 152.51 118.31 142.77 108.62 132.95 C 118.28 129.98 126.91 122.08 128.52 111.79 C 129.97 104.07 125.72 95.67 118.44 92.55 C 111.52 89.39 103.60 90.88 96.79 93.60 C 97.78 81.81 100.37 70.23 102.08 58.54 C 123.78 51.16 145.47 43.74 167.15 36.33 C 167.32 33.29 167.49 30.24 167.67 27.20 C 163.93 27.29 160.18 27.34 156.45 26.97 C 159.72 24.49 163.95 25.11 167.78 24.92 C 167.84 24.11 167.95 22.49 168.01 21.68 C 165.71 21.50 163.42 21.27 161.14 20.93 C 163.38 19.96 165.73 19.34 168.09 18.77 C 168.18 17.08 168.27 15.40 168.36 13.72 C 166.84 12.58 165.13 11.64 163.94 10.13 Z" />
<path fill="#00b6ed" d=" M 205.37 61.31 C 208.89 55.93 214.83 52.75 221.00 51.45 L 221.00 54.89 C 217.81 55.80 214.25 56.30 211.74 58.69 C 206.78 63.09 205.63 71.70 210.39 76.67 C 213.02 79.74 217.33 80.00 221.00 80.89 L 221.00 83.31 C 215.90 83.82 210.19 83.46 206.26 79.77 C 201.21 75.03 201.51 66.69 205.37 61.31 Z" />
<path fill="#00418d" d=" M 211.74 58.69 C 214.25 56.30 217.81 55.80 221.00 54.89 L 221.00 61.23 C 219.16 61.94 217.15 62.37 215.55 63.58 C 212.89 65.84 212.48 70.44 215.07 72.90 C 216.60 74.51 218.98 74.28 221.00 74.45 L 221.00 80.89 C 217.33 80.00 213.02 79.74 210.39 76.67 C 205.63 71.70 206.78 63.09 211.74 58.69 Z" />
<path fill="#ffffff" d=" M 215.55 63.58 C 217.15 62.37 219.16 61.94 221.00 61.23 L 221.00 63.50 C 219.29 64.26 217.33 64.79 216.07 66.26 C 214.87 68.33 216.35 70.40 217.28 72.22 C 218.21 72.11 220.07 71.90 221.00 71.79 L 221.00 74.45 C 218.98 74.28 216.60 74.51 215.07 72.90 C 212.48 70.44 212.89 65.84 215.55 63.58 Z" />
<path fill="#00418d" d=" M 216.07 66.26 C 217.33 64.79 219.29 64.26 221.00 63.50 L 221.00 71.79 C 220.07 71.90 218.21 72.11 217.28 72.22 C 216.35 70.40 214.87 68.33 216.07 66.26 Z" />
<path fill="#ff6331" d=" M 17.38 67.58 C 25.70 64.69 35.79 64.35 43.19 69.75 C 51.15 75.55 53.15 87.25 48.86 95.87 C 45.96 102.65 39.66 107.62 37.95 114.95 C 37.01 118.50 38.96 121.76 40.84 124.60 C 36.47 126.81 32.18 129.17 27.84 131.44 C 22.40 125.91 20.13 117.31 22.94 109.97 C 25.12 103.96 30.30 99.68 32.66 93.78 C 34.45 89.50 32.29 83.72 27.53 82.64 C 21.09 80.99 15.07 85.42 11.85 90.68 C 8.14 87.44 4.46 84.19 0.76 80.95 C 4.74 74.90 10.43 69.87 17.38 67.58 Z" />
<path fill="#00b6ed" d=" M 107.15 96.13 C 110.99 95.63 114.94 96.79 118.20 98.81 C 122.43 101.59 124.20 107.08 123.23 111.94 C 120.90 123.45 107.13 131.28 96.13 126.90 C 90.03 124.58 86.49 117.16 88.80 111.01 C 91.03 102.79 98.98 97.28 107.15 96.13 Z" />
<path fill="#00418d" d=" M 103.13 100.97 C 107.94 99.09 114.15 100.68 116.50 105.55 C 120.31 112.72 115.15 122.52 107.08 123.41 C 101.05 124.47 95.07 119.02 95.38 112.96 C 95.01 107.80 98.56 103.03 103.13 100.97 Z" />
<path fill="#00418d" d=" M 200.51 103.50 C 202.01 101.18 203.27 103.73 204.15 105.10 C 203.86 106.07 203.42 106.97 202.81 107.78 C 194.09 118.56 182.28 127.35 168.58 130.43 C 158.53 132.53 147.83 132.27 138.06 129.01 C 135.99 128.28 136.63 125.79 137.34 124.26 C 140.59 124.12 143.69 125.23 146.86 125.74 C 159.38 128.01 172.80 125.66 183.42 118.52 C 190.04 114.63 195.15 108.85 200.51 103.50 Z" />
<path fill="#ffffff" d=" M 105.43 105.55 C 109.92 103.69 114.68 108.52 113.28 113.01 C 112.57 117.67 106.40 120.69 102.64 117.42 C 98.56 114.12 100.57 106.91 105.43 105.55 Z" />
<path fill="#00418d" d=" M 105.22 108.09 C 107.56 106.63 110.88 108.22 111.18 110.96 C 111.94 114.58 107.47 117.91 104.32 115.76 C 101.74 113.77 102.44 109.54 105.22 108.09 Z" />
<path fill="#ffffff" d=" M 219.51 130.58 C 220.02 127.85 220.59 125.13 221.00 122.38 L 221.00 150.00 C 210.24 152.56 199.39 154.69 188.60 157.13 C 187.57 152.69 186.50 148.26 185.43 143.83 C 196.78 139.39 208.15 135.00 219.51 130.58 Z" />
<path fill="#ff6331" d=" M 34.30 138.27 C 40.74 135.83 48.43 141.17 48.41 148.05 C 48.79 154.51 42.31 160.12 35.98 158.87 C 30.49 158.05 26.18 152.44 27.20 146.90 C 27.78 143.03 30.59 139.55 34.30 138.27 Z" />
<path fill="#ffffff" d=" M 215.54 174.26 C 215.93 170.63 217.97 167.69 221.00 165.74 L 221.00 179.35 C 219.38 177.63 217.70 175.97 216.09 174.25 C 215.30 174.41 213.71 174.74 212.92 174.90 C 213.79 174.69 214.67 174.48 215.54 174.26 Z" />
<path fill="#ffffff" d=" M 184.55 168.68 C 188.65 168.44 192.86 167.12 196.93 168.05 C 196.96 168.50 197.01 169.42 197.04 169.88 C 190.21 171.18 183.17 172.05 176.20 172.02 C 176.13 171.54 175.99 170.57 175.92 170.09 C 178.67 169.03 181.67 169.08 184.55 168.68 Z" />
<path fill="#ffffff" d=" M 203.35 176.93 C 204.17 175.84 204.57 174.20 205.94 173.66 C 207.39 173.93 208.78 174.42 210.20 174.79 C 210.67 174.86 211.59 175.01 212.06 175.08 C 211.51 175.20 210.41 175.43 209.86 175.55 C 209.30 176.46 208.73 177.37 208.17 178.29 C 206.57 177.82 204.96 177.36 203.35 176.93 Z" />
<path fill="#00b6ed" d=" M 206.13 176.37 C 203.61 175.15 208.28 173.24 207.58 175.84 C 207.22 175.97 206.49 176.24 206.13 176.37 Z" />
<path fill="#ff6331" d=" M 212.06 175.08 L 212.92 174.90 C 213.71 174.74 215.30 174.41 216.09 174.25 C 217.70 175.97 219.38 177.63 221.00 179.35 L 221.00 220.00 L 164.00 220.00 C 160.77 211.21 158.11 202.21 154.99 193.38 C 157.00 192.65 159.22 192.26 160.93 190.91 C 162.06 189.60 162.49 187.87 163.01 186.26 C 176.44 183.08 189.97 180.31 203.35 176.93 C 204.96 177.36 206.57 177.82 208.17 178.29 C 208.73 177.37 209.30 176.46 209.86 175.55 C 210.41 175.43 211.51 175.20 212.06 175.08 Z" />
<path fill="#ff6331" d=" M 206.13 176.37 C 206.49 176.24 207.22 175.97 207.58 175.84 L 207.89 176.60 L 207.30 177.30 C 207.01 177.07 206.42 176.60 206.13 176.37 Z" />
<path fill="#ffffff" d=" M 183.02 194.38 C 189.54 193.21 196.20 192.32 202.82 192.18 C 203.36 192.68 204.43 193.68 204.96 194.17 C 200.39 195.36 195.66 195.61 191.00 196.21 C 188.23 196.49 185.38 197.10 182.64 196.30 C 182.74 195.82 182.93 194.86 183.02 194.38 Z" />
<path fill="#ffffff" d=" M 192.03 199.91 C 196.30 199.58 200.54 198.70 204.83 198.73 C 205.33 199.31 206.33 200.47 206.83 201.05 C 201.58 201.98 196.25 202.42 190.96 203.07 C 188.65 203.18 185.83 204.20 184.20 201.94 C 186.35 200.03 189.38 200.32 192.03 199.91 Z" />
</svg>
