<svg width="176" height="104" viewBox="0 0 176 104" xmlns="http://www.w3.org/2000/svg" xmlns:xlink="http://www.w3.org/1999/xlink"><title>Page 1</title><defs><path id="a" d="M.643 104h103.453V.548H.643V104z"/><path id="c" d="M0 .213v36.68h36.67V.213H0z"/></defs><g fill="none" fill-rule="evenodd"><g transform="translate(41 -.548)"><mask id="b" fill="#fff"><use xlink:href="#a"/></mask><path fill="#D20911" mask="url(#b)" d="M.643 52.273L52.37.548l51.726 51.725L52.37 104z"/></g><path fill="#0072BB" d="M83.925 30.38L58.833 77.336 11.877 52.243 36.97 5.293z"/><g transform="translate(0 43.452)"><mask id="d" fill="#fff"><use xlink:href="#c"/></mask><path fill="#D20911" mask="url(#d)" d="M36.67 12.993l-12.77 23.9L0 24.113 12.773.213z"/></g><path fill="#71196F" d="M54.047 17.906L89.45 1.83l16.076 35.41-35.404 16.075z"/><path fill="#E60064" d="M155.684 59.38l-36.16 24.172-24.186-36.16 36.172-24.174z"/><path fill="#3F1F71" d="M164.805 68.065l-29.533 13.533-13.361-29.153 29.538-13.535z"/><path fill="#E84E0F" d="M176 46.367l-4.512 22.03-21.754-4.447 4.514-22.033z"/><path fill="#E60064" d="M157.927 48.2l6.089-12.102 11.942 6.008-6.088 12.11z"/><path d="M162.1 49.803c-.07-1.322-1.011-2.422-2.311-2.422-1.37 0-2.28.983-2.517 2.422h4.828zm-4.82 2.17c.07 1.626 1 2.697 2.65 2.697.94 0 1.85-.434 2.209-1.3h3.633c-.705 2.745-3.24 3.934-5.895 3.934-3.865 0-6.493-2.333-6.493-6.313 0-3.63 2.902-6.233 6.4-6.233 4.252 0 6.376 3.2 6.19 7.221h-8.706l.012-.005zm-11.83-6.877h3.769v2.076h.04c.57-1.502 1.9-2.306 3.56-2.306.3 0 .62.023.92.09v3.55c-.5-.14-.97-.23-1.49-.23-1.92 0-2.923 1.32-2.923 2.81v5.872h-3.886V45.106l.01-.01zm-6.981 9.235c1.8 0 2.37-1.786 2.37-3.29 0-1.503-.57-3.316-2.38-3.316-1.808 0-2.353 1.808-2.353 3.316 0 1.507.543 3.292 2.354 3.292l.009-.002zm0-9.576c3.67 0 6.25 2.72 6.25 6.285 0 3.566-2.58 6.263-6.26 6.263-3.685 0-6.24-2.697-6.24-6.265 0-3.567 2.555-6.286 6.24-6.286l.01.003zm-15.201 6.148c0 2.08.592 3.43 2.352 3.43 1.74 0 2.33-1.81 2.33-3.43 0-1.51-.6-3.18-2.317-3.18-1.043 0-2.376.733-2.376 3.18h.01zm-3.746-5.804h3.693v1.37h.05c.76-1.119 1.9-1.714 3.275-1.714 3.724 0 5.3 3.2 5.3 6.534 0 3.09-1.65 6.017-5.01 6.017-1.457 0-2.582-.55-3.38-1.622h-.047v5.254h-3.88V45.105l-.001-.006zm-7.11 9.807c1.854 0 2.47-1.051 2.38-3.498-.551.34-1.557.41-2.401.64-.865.2-1.601.57-1.601 1.505 0 .96.755 1.35 1.622 1.35v.003zm-5.03-6.151c.075-1.556.808-2.56 1.857-3.178 1.048-.596 2.423-.82 3.769-.82 2.813 0 5.53.617 5.53 3.976v5.19c0 1.01 0 2.108.458 3.042h-3.908c-.137-.37-.183-.73-.226-1.12-1 1.05-2.491 1.465-3.91 1.465-2.26 0-4.04-1.146-4.04-3.593 0-3.861 4.208-3.561 6.909-4.114.66-.13 1.025-.36 1.025-1.09 0-.89-1.076-1.23-1.873-1.23-1.07 0-1.765.477-1.943 1.483h-3.633l-.015-.011zm-7.22-1.02c-1.71 0-2.261 1.51-2.261 2.97 0 1.39.642 2.78 2.244 2.78 1.646 0 2.357-1.28 2.357-2.76 0-1.513-.597-3-2.34-3v.01zm6.012 7.796c0 1.94-.36 5.596-5.92 5.596-2.76 0-5.367-.616-5.824-3.794h3.879c.09.528.3.85.66 1.032.344.18.818.25 1.41.25 1.856 0 2.044-1.302 2.044-2.765v-1.12h-.05a3.758 3.758 0 0 1-3.15 1.738c-3.59 0-5.218-2.56-5.218-5.9 0-3.154 1.85-5.803 5.216-5.803 1.42 0 2.484.61 3.18 1.83h.045v-1.49h3.719v10.42l.009.006zm-24.67-10.422h3.77v1.622h.045c.7-1.212 2.3-1.965 3.72-1.965 3.96 0 4.27 2.877 4.27 4.59v7.613h-3.88v-5.736c0-1.625.18-3.27-1.942-3.27-1.464 0-2.104 1.236-2.104 2.538v6.468h-3.88v-11.86zm-4.593 11.86h3.885v-11.86H76.91v11.86zm3.883-13.346H76.91v-2.971h3.884v2.971h-.001zm-14.57 7.863c.09 1.92 1.28 2.535 3.084 2.535 1.28 0 2.604-.458 2.604-1.668 0-1.44-2.33-1.715-4.682-2.377-2.33-.66-4.776-1.71-4.776-4.7 0-3.563 3.586-4.955 6.65-4.955 3.245 0 6.512 1.576 6.535 5.256h-4.25c.068-1.486-1.324-1.968-2.627-1.968-.911 0-2.051.323-2.051 1.39 0 1.26 2.35 1.49 4.73 2.15 2.357.66 4.73 1.76 4.73 4.71 0 4.137-3.52 5.465-7.11 5.465-3.74 0-7.06-1.646-7.08-5.826h4.25l-.007-.012zM56.1 45.108h3.77v2.075h.046c.57-1.51 1.897-2.31 3.565-2.31.297 0 .619.02.914.09v3.55c-.502-.14-.96-.23-1.486-.23-1.921 0-2.931 1.32-2.931 2.81v5.87H56.1V45.106v.003zm-.71 11.86h-3.768v-1.623h-.046c-.732 1.208-2.241 1.968-3.611 1.968-3.406 0-4.386-1.97-4.386-5.075v-7.13h3.879v6.877c0 1.58.68 2.13 1.92 2.13.84 0 2.12-.55 2.12-2.65v-6.35h3.883v11.86l.01-.007zm-18.806-2.627c1.807 0 2.378-1.785 2.378-3.291 0-1.508-.571-3.317-2.378-3.317-1.804 0-2.353 1.8-2.353 3.31s.55 3.29 2.353 3.29v.008zm0-9.576c3.68 0 6.264 2.72 6.264 6.285 0 3.566-2.59 6.264-6.27 6.264-3.68 0-6.24-2.7-6.24-6.27 0-3.57 2.56-6.29 6.237-6.29l.009.01zm-8.318 6.123v6.08h-4.25v-6.08L18.08 40.651h4.82l3.245 6.628 3.243-6.628h4.823L28.27 50.89h-.004z" fill="#FFF"/></g></svg>