<svg width="42" height="45" viewBox="0 0 42 45" xmlns="http://www.w3.org/2000/svg" xmlns:xlink="http://www.w3.org/1999/xlink"><title>Page 1</title><defs><path id="a" d="M.212 44.884h40.793V.122H.212v44.762z"/></defs><g fill="none" fill-rule="evenodd"><g transform="translate(.066 .109)"><mask id="b" fill="#fff"><use xlink:href="#a"/></mask><path d="M.212.122v24.166c0 5.719 3.437 11.066 9.938 15.462 4.861 3.288 9.675 4.878 9.878 4.944l.58.19.581-.19c.203-.065 5.015-1.655 9.878-4.943 6.501-4.397 9.938-9.744 9.938-15.462V.122H.212z" fill="#FFF" mask="url(#b)"/></g><path d="M20.694 8.106c0 6.532 5.33 11.83 11.907 11.83-6.578 0-11.907 5.298-11.907 11.83 0-6.532-5.335-11.83-11.913-11.83 6.578 0 11.913-5.298 11.913-11.83" fill="#242424"/></g></svg>