<svg width="27" height="22" viewBox="0 0 27 22" xmlns="http://www.w3.org/2000/svg" xmlns:xlink="http://www.w3.org/1999/xlink"><title>audio_repeatx2</title><defs><path id="a" d="M.217 0h20.792v11.412H.217V0z"/><path id="c" d="M8.21 5.546V1.16H1.314v4.386z"/><path id="e" d="M0 1.201v4.386h6.896V1.2H0z"/></defs><g fill="none" fill-rule="evenodd"><g transform="translate(3.375)"><mask id="b" fill="#fff"><use xlink:href="#a"/></mask><path d="M21.002 11.412l-1.688-.059a9.352 9.352 0 0 0-6.544-9.244A9.32 9.32 0 0 0 1.716 6.728L.217 5.953A11.01 11.01 0 0 1 13.272.497C18 1.97 21.177 6.46 21.002 11.412" fill="#FFF" fill-rule="nonzero" mask="url(#b)"/></g><g transform="translate(18.563 6.75)"><mask id="d" fill="#fff"><use xlink:href="#c"/></mask><path fill="#FFF" fill-rule="nonzero" mask="url(#d)" d="M1.314 1.962l.597-.598 2.94 2.943L7.57 1.16l.64.552-3.315 3.834z"/></g><path d="M13.408 21.938c-1.09 0-2.195-.164-3.282-.501a11.037 11.037 0 0 1-7.729-10.915l1.688.06a9.343 9.343 0 0 0 6.542 9.243 9.311 9.311 0 0 0 11.053-4.617l1.5.775a11 11 0 0 1-9.772 5.955" fill="#FFF" fill-rule="nonzero"/><g transform="translate(0 8.438)"><mask id="f" fill="#fff"><use xlink:href="#e"/></mask><path fill="#FFF" fill-rule="nonzero" mask="url(#f)" d="M6.896 4.785l-.597.598-2.94-2.943L.64 5.587 0 5.035l3.315-3.834z"/></g></g></svg>