<svg width="26" height="23" viewBox="0 0 26 23" xmlns="http://www.w3.org/2000/svg" xmlns:xlink="http://www.w3.org/1999/xlink"><title>Page 1</title><defs><path id="a" d="M.105 22.442h20.202V.062H.105v22.38z"/><path id="c" d="M0 22.496h26V.116H0z"/></defs><g fill="none" fill-rule="evenodd"><g transform="translate(2.786 .054)"><mask id="b" fill="#fff"><use xlink:href="#a"/></mask><path d="M.105.061v12.083c0 2.86 1.702 5.533 4.922 7.731 2.407 1.644 4.791 2.439 4.892 2.472l.287.095.288-.095c.1-.033 2.483-.828 4.891-2.472 3.22-2.198 4.922-4.872 4.922-7.73V.06H.105z" fill="#FFF" mask="url(#b)"/></g><path d="M12.987 2.072c-4.401 0-7.982 3.66-7.982 8.157 0 4.498 3.58 8.157 7.982 8.157 4.401 0 7.982-3.659 7.982-8.157 0-4.497-3.58-8.157-7.982-8.157m-.026 16.889c-4.7 0-8.524-3.917-8.524-8.732 0-4.814 3.824-8.731 8.524-8.731 4.7 0 8.525 3.917 8.525 8.731 0 4.815-3.824 8.732-8.525 8.732" fill="#100013"/><mask id="d" fill="#fff"><use xlink:href="#c"/></mask><path fill="#100013" mask="url(#d)" d="M0 10.724h20.429v-.463H0zm22.054 0H26v-.463h-3.946z"/><path fill="#100013" mask="url(#d)" d="M14.219 10.497l-1.066 1.065-1.065-1.065 1.065-1.065zm7.819-8.131a1.21 1.21 0 0 1-1.212 1.208 1.21 1.21 0 0 1-1.212-1.208 1.21 1.21 0 0 1 1.212-1.207c.67 0 1.212.54 1.212 1.207"/></g></svg>