<svg width="85" height="74" viewBox="0 0 85 74" xmlns="http://www.w3.org/2000/svg" xmlns:xlink="http://www.w3.org/1999/xlink"><title>Page 1</title><defs><path id="a" d="M.343 73.18h66.046V.2H.343v72.98z"/></defs><g fill="none" fill-rule="evenodd"><g transform="translate(9.107 .178)"><mask id="b" fill="#fff"><use xlink:href="#a"/></mask><path d="M.343.2v39.4c0 9.324 5.564 18.042 16.091 25.21 7.87 5.36 15.663 7.953 15.992 8.06l.94.31.94-.308c.328-.108 8.12-2.7 15.992-8.06 10.527-7.17 16.09-15.888 16.09-25.211V.2H.344z" fill="#FFF" mask="url(#b)"/></g><path d="M42.458 6.246c-14.666 0-26.597 12.162-26.597 27.11 0 14.949 11.931 27.11 26.597 27.11 14.665 0 26.597-12.161 26.597-27.11 0-14.948-11.932-27.11-26.597-27.11m0 54.974c-15.084 0-27.356-12.499-27.356-27.864 0-15.364 12.272-27.864 27.356-27.864 15.084 0 27.356 12.5 27.356 27.864 0 15.365-12.272 27.864-27.356 27.864" fill="#100013"/><path fill="#100013" d="M0 38.38h66.786v-.754H0zm72.098 0H85v-.754H72.098z"/><path fill="#100013" d="M44.703 37.93l-2.23 2.272-2.23-2.273 2.23-2.272zM72.047 7.718c0 2.175-1.774 3.939-3.963 3.939-2.188 0-3.962-1.764-3.962-3.94 0-2.175 1.774-3.939 3.962-3.939 2.189 0 3.963 1.764 3.963 3.94M20.428 28.631c0-1.596 1.309-2.896 2.914-2.896.98 0 1.75.39 2.304 1.069l-.972.79c-.345-.431-.722-.63-1.332-.63-.923 0-1.621.757-1.621 1.667s.698 1.668 1.621 1.668c.466 0 .819-.08 1.1-.28v-.79h-1.373l.546-1.196h2.07v2.569c-.561.638-1.38.926-2.343.926-1.605 0-2.914-1.301-2.914-2.897m6.636.535v-3.368h1.284v3.383c0 .687.425 1.117 1.051 1.117.627 0 1.052-.43 1.052-1.117v-3.383h1.284v3.368c0 1.42-.971 2.361-2.336 2.361-1.364 0-2.335-.941-2.335-2.361m8.585.383l-.538-1.181-.538 1.18h1.076zm-.538-3.814l2.81 5.729h-1.35l-.408-.878H34.06l-.41.878h-1.348l2.81-5.73zm5.761 2.354c.346 0 .594-.248.594-.56 0-.31-.248-.566-.594-.566h-.722v1.126h.722zm-.706 1.076h-.016v2.298h-1.284v-5.665h2.15c.932 0 1.694.759 1.694 1.684 0 .71-.44 1.324-1.1 1.58l1.855 2.401h-1.533l-1.766-2.298zm6.224 1.134c.955 0 1.605-.758 1.605-1.668 0-.91-.65-1.667-1.605-1.667h-.715v3.335h.715zm-2-4.5h2c1.605 0 2.897 1.268 2.897 2.832 0 1.564-1.292 2.832-2.897 2.832h-2v-5.665zm6.199 5.664h1.284v-5.665h-1.284zm5.569-1.914l-.538-1.181-.538 1.18h1.076zm-.538-3.814l2.81 5.729h-1.35l-.409-.878h-2.103l-.41.878H52.81l2.81-5.73zm5.04 2.768v2.96h-1.285v-5.728l3.596 3.024v-2.96h1.284v5.729zM36.689 43.396h3.37v1.26h-2.086v.958h1.605v1.229h-1.605v2.217h-1.284zm4.594-.064l2.841 2.832 2.841-2.832v5.728h-1.284v-2.776l-1.557 1.548-1.556-1.548v2.776h-1.285z"/></g></svg>