<svg width="316" height="157" viewBox="0 0 316 157" xmlns="http://www.w3.org/2000/svg" xmlns:xlink="http://www.w3.org/1999/xlink"><title>bubble8</title><defs><path id="a" d="M0 157h315.42V.604H0V157z"/></defs><g fill="none" fill-rule="evenodd"><path d="M259.365.526S45.53 13.06 2.47 17.663C-1.307 66.999.163 104.559 8.52 155.875c74.295-3.57 232.543-8.21 305.413-20.505-13.24-7.373-21.452-11.13-29.7-16.31C272.828 84.71 259.365.525 259.365.525" fill="#FFF"/><g transform="translate(0 -.604)"><mask id="b" fill="#fff"><use xlink:href="#a"/></mask><path d="M2.937 18.72C-.844 68.436.787 105.724 8.94 155.96c13.25-.636 28.784-1.29 46.739-2.045 78.397-3.3 196.558-8.273 256.759-18.197-4.848-2.68-9.028-4.885-12.751-6.847-6.042-3.186-10.814-5.702-15.721-8.783l-.152-.096-.057-.17C272.9 87.117 260.026 8.338 258.944 1.654 247.923 2.303 45.456 14.238 2.937 18.72zM8.097 157l-.072-.44C-.227 105.876-1.868 68.384 1.972 18.227l.03-.415.415-.044C44.997 13.22 257.197.755 259.336.63l.452-.026.072.446c.134.84 13.54 84.261 24.79 118.286 4.822 3.018 9.544 5.508 15.505 8.65 4.044 2.132 8.627 4.548 14.022 7.553l1.244.692-1.404.238c-59.811 10.091-179.256 15.118-258.295 18.445-18.156.763-33.835 1.424-47.18 2.064l-.445.022z" fill="#245DFF" mask="url(#b)"/></g></g></svg>