<svg width="376" height="240" viewBox="0 0 376 240" xmlns="http://www.w3.org/2000/svg" xmlns:xlink="http://www.w3.org/1999/xlink"><title>bubble9</title><defs><path id="a" d="M0 241h375.979V.953H0z"/></defs><g fill="none" fill-rule="evenodd"><path d="M59.131 233.242s257.187 9.008 308.834 5.49c12.32-84.286 9.042-144.454-6.357-222.518C272.7 15.034 30.404.532 30.404.532l1.82 51.351L.988 59.764l36.053 35.232 22.09 138.245z" fill="#FFF"/><g transform="translate(0 -.953)"><mask id="b" fill="#fff"><use xlink:href="#a"/></mask><path d="M59.56 233.709c9.696.336 182.67 6.29 268.657 6.291h.01c18.11 0 31.327-.265 39.302-.787 11.556-79.297 9.837-139.42-6.333-221.551C275.013 16.485 43.87 2.788 30.924 2.017l1.815 51.206-30.763 7.761 35.533 34.722.026.163 22.025 137.84zM328.227 241h-.01c-88.056-.001-267.303-6.243-269.103-6.306l-.411-.014-22.13-138.49L0 60.451l31.71-8L29.886.953l.549.033c2.422.145 243.3 14.515 331.18 15.681l.405.005.079.398c16.293 82.591 18.016 142.946 6.362 222.687l-.06.399-.401.028c-7.952.541-21.333.816-39.773.816z" fill="#245DFF" mask="url(#b)"/></g></g></svg>