<svg width="289" height="125" viewBox="0 0 289 125" xmlns="http://www.w3.org/2000/svg"><title>bubble11</title><g fill="none" fill-rule="evenodd"><path d="M238.402 124.47s-193.6-6.45-232.601-9.464C-2.116 72.796-.586 43.041 6.567.51c67.259 1.591 214.1 2.78 280.139 11.603-12.26 6.703-19.642 11.12-26.677 14.054-10.046 28.574-21.627 98.302-21.627 98.302" fill="#FFF"/><path d="M6.221 114.538c38.49 2.922 221.467 9.072 231.76 9.417 1.001-5.946 12.042-70.838 21.576-97.954l.074-.21.205-.085c5.281-2.203 10.784-5.26 18.403-9.49a1619.24 1619.24 0 0 1 6.885-3.806C229.95 5.268 120.275 3.205 47.475 1.836c-15.558-.293-29.02-.546-40.488-.816-6.733 40.16-8.836 70.255-.766 113.518zm232.603 10.446l-.439-.014c-1.936-.065-194.057-6.484-232.623-9.465l-.383-.03-.07-.376C-2.9 71.334-.756 41.033 6.073.427L6.144 0l.433.01c11.56.274 25.165.53 40.917.826 73.495 1.383 184.562 3.472 239.278 10.782l1.512.202-1.338.732a1410.146 1410.146 0 0 0-8.22 4.539c-7.55 4.19-13.03 7.235-18.299 9.45-9.9 28.339-21.417 97.315-21.532 98.01l-.07.433z" fill="#245DFF"/></g></svg>