<svg xmlns="http://www.w3.org/2000/svg" viewBox="0 0 345 190.8"><radialGradient id="a" cx="204.634" cy="120.824" r="175.377" gradientTransform="matrix(1.3504 0 0 .8963 -120.871 19.792)" gradientUnits="userSpaceOnUse"><stop offset="0" stop-color="#ff9cbf"/><stop offset="1" stop-color="#ffec2b"/></radialGradient><path fill="url(#a)" d="M191.2 174.9c8.4 3 9.8 10 18.8 12.5 10 2.8 21.6-1.9 28-6.9 6.5-4.9 12.5-11 23.5-12.4 17.7-2.2 32.9 9.7 50.9 8.5 17.8-1.2 23.6-13.3 25.2-22.9 7.3-43.4 14.5-87.8-6.6-129.9-82.8 2.4-165.6 4.9-248.4 7.3 3.3 53.2 6.5 106.5 9.8 159.7 4.8-1.9 5.9-5.5 8.4-8.5s9-5.7 14.1-3.9c2.6.9 3.6 2.7 5.4 4 7.7 5.8 24.8 2.4 35.2-2s24.7-9.5 35.7-5.5z"/><path fill="#FFF" d="M42.6 144.2s219.9 8.4 264.4 8c9-55.7 15-88.3 11.5-141.4C242.1 7.1 75.7-3.9 0 1.4c12.3 4.7 19.6 9.1 28.8 13.4C37.1 51 42.6 144.2 42.6 144.2z"/></svg>