<svg xmlns="http://www.w3.org/2000/svg" viewBox="0 0 220.6 172.3"><radialGradient id="a" cx="106.793" cy="184.287" r="229.161" gradientUnits="userSpaceOnUse"><stop offset=".225" stop-color="#ff9cbf"/><stop offset="1" stop-color="#ffec41"/></radialGradient><path fill="url(#a)" d="M91.3 12.4c7.1-2.8 8.2-9.3 15.8-11.6 8.4-2.6 18.1 1.8 23.6 6.4 5.4 4.6 10.5 10.2 19.7 11.4 14.9 2 27.7-9 42.8-7.8 15 1.1 19.9 12.3 21.2 21.2 6.1 40.1 12.2 101.5-5.5 140.3-69.6-2.3-139.3-4.5-208.9-6.8 0 0 7-149.8 7.4-161.6 3.9 2.7 13.8 7.5 19.8 5.2 2.2-.8 3-2.5 4.6-3.7C38.2 0 52.6 3.2 61.4 7.3S82 16 91.3 12.4z"/></svg>