<svg xmlns="http://www.w3.org/2000/svg" viewBox="0 0 324.3 114.3"><radialGradient id="a" cx="111.262" cy="-2555.674" r="175.377" gradientTransform="matrix(1.6694 0 0 .6135 -95.706 1639.169)" gradientUnits="userSpaceOnUse"><stop offset="0" stop-color="#ff9cbf"/><stop offset="1" stop-color="#ffec2b"/></radialGradient><path fill="url(#a)" d="M134.2 103.4c10.4 2.1 12.1 6.9 23.2 8.6 12.3 1.9 26.6-1.3 34.6-4.7 8-3.4 15.5-7.5 29-8.5 21.9-1.5 40.7 6.6 63 5.8 22-.8 29.2-9.1 31.2-15.7 9-29.7 17.9-60.1-8.2-88.9C204.7 1.7 102.4 3.3 0 5c4 36.4 8.1 72.9 12.1 109.3 6-1.3 7.3-3.8 10.4-5.8 3.1-2 11.2-3.9 17.4-2.7 3.2.6 4.5 1.8 6.7 2.8 9.6 4 30.6 1.6 43.6-1.4s30.4-6.5 44-3.8z"/></svg>