<svg width="111" height="146" viewBox="0 0 111 146" xmlns="http://www.w3.org/2000/svg"><title>parade_logo_content</title><g fill="#FFF"><path d="M99.8 101.7c.2 0 .4-.1.6-.2.4-.3.4-.9.1-1.2L73.2 69.7l5-4.8c.3-.3.4-.9 0-1.2-.3-.3-.9-.4-1.2 0l-5.6 5.4c-.3.3-.4.9 0 1.2l27.8 31.2c.2.1.4.2.6.2z"/><path d="M80.978 68.07l-5.873 5.432-.68-.734 5.874-5.432zm2.967 3.51l-5.873 5.432-.679-.734 5.873-5.432zm4.101 4.68l-5.873 5.431-.679-.734 5.873-5.432zm4.101 4.68l-5.873 5.432-.679-.734 5.873-5.432zm2.967 3.51l-5.873 5.432-.679-.734 5.873-5.432zm3.466 4.02l-5.873 5.433-.68-.734 5.874-5.432zm3.315 4.476L96.27 98.06l-.672-.74 5.623-5.113zM105.4 87.6l4.5-4.3-38.4-48.1 2.9-3.2L55.5 9.4l-10.4 8.1 60.3 70.1zM67.5 32.1c1.3 2.1-1.5 3.5-2.6 2.5-2.1-1.8 1.3-4.7 2.6-2.5zm31.4 48.3s2.2-2 4.1-.2c1.9 1.8 1.3 4.1.5 4.6l-4.6-4.4z"/><path d="M44.8 17.9c.1 0 .2 0 .3-.1.3-.2.4-.5.2-.8-.8-1.3-1.7-4.2-1.5-7.3.1-2.5 1-6 4.3-8.4.3-.2.3-.6.1-.8-.2-.3-.6-.3-.8-.1-6.8 4.9-4.9 14.4-3.1 17.3.1.1.3.2.5.2z"/><path d="M45.2 18.1h.2c.3-.1.5-.4.4-.7-1-3.4-.5-11.5 5.1-15.7.3-.2.3-.6.1-.8-.2-.3-.6-.3-.8-.1-6 4.5-6.6 13.3-5.5 16.9 0 .3.2.4.5.4z"/><path d="M45.5 18.5c.3 0 .6-.2.6-.5.1-.7.1-1.4.1-2 .1-4 .3-7.5 7.7-14.6.2-.2.2-.6 0-.8-.2-.2-.6-.2-.8 0C45.3 8 45.1 11.9 45 16c0 .6 0 1.3-.1 2 0 .2.2.5.6.5z"/><path d="M45.8 17.6c.2 0 .4-.1.5-.3.5-1.1.9-2.2 1.3-3.2 1.9-4.9 3.6-9 10.1-12.4.3-.1.4-.5.3-.8-.1-.3-.5-.4-.8-.3-6.9 3.6-8.8 8.1-10.7 13-.4 1-.8 2.1-1.3 3.2-.1.3 0 .6.3.8h.3z"/><path d="M46.4 17.5c.2 0 .4-.1.5-.2 1-1.4 2-2.8 2.9-4.2 3.5-5.3 6.8-10.3 13.5-11.2.3 0 .5-.3.5-.7 0-.4-.3-.5-.7-.5-7.2 1-10.8 6.4-14.3 11.7-.9 1.4-1.9 2.8-2.9 4.2-.2.3-.1.6.1.8.1.1.3.1.4.1z"/><path d="M50.5 14c.2 0 .3-.1.4-.2 4.8-5.6 8.5-9.3 15-9.8.3 0 .6-.3.5-.6 0-.3-.3-.6-.6-.5-7 .5-10.8 4.4-15.8 10.2-.2.2-.2.6.1.8.1.1.3.1.4.1z"/><path d="M55.3 12.3c.2 0 .3-.1.4-.2l.4-.4c1.6-1.6 4.5-4.7 10.3-4.2.3 0 .6-.2.6-.5s-.2-.6-.5-.6c-6.3-.6-9.7 2.9-11.3 4.5-.1.1-.2.2-.3.4-.2.2-.2.6 0 .8.1.1.2.2.4.2z"/><path d="M69.8 15c.2 0 .4-.1.5-.3.2-.3.1-.6-.2-.8-8-4.8-13.1-2.6-14.1-2.1-.3.2-.4.5-.2.8.2.3.5.4.8.2.8-.4 5.4-2.4 12.9 2 .1.2.2.2.3.2z"/><path d="M69.8 17.4c.2 0 .4-.1.5-.3.2-.3.1-.6-.2-.8-4.9-3.1-10.6-4.3-12.7-3.5-.3.1-.4.5-.3.8.1.3.5.4.8.3 1.6-.6 7 .4 11.7 3.4 0 .1.1.1.2.1z"/><path d="M72.7 23.7c.1 0 .2 0 .3-.1.3-.1.4-.5.3-.8-3.1-6.1-12-8.5-13.8-8.1-.3.1-.5.4-.5.7.1.3.4.5.7.5 1.2-.2 9.6 1.7 12.6 7.5 0 .2.2.3.4.3zm23.3 82l14.2-13.2-.4-.4c-.6-.7-64.2-74.3-66-76.4-.8-.9-8-9.2-9.9-10.1-.6-.3-.9-.1-1.1.1-.6.7-.4 1.3 8.4 13.6l-.2.1c-2.4 1.6-8.9 5.9-12.7 12.9-4.9 8.8-4.1 18.6 2.1 29.2C38.1 74.6 51.8 74 59.1 73.7c1.7-.1 3.2-.1 4.1 0 3.7.6 5.1 2.1 6.5 3.5.4.4.7.8 1.1 1.2L96 105.7zm8-9.1l-8 7.4-24.4-26.5-1.1-1.1c-1.4-1.5-3-3.3-7.2-3.9-1-.2-2.5-.1-4.3 0-7.6.3-20.3.9-27.6-11.6-6.1-10.2-6.8-19.7-2.1-28.1C33 26.1 39.1 22 41.7 20.3l.2-.2c.5.7 1 1.4 1.6 2.2 8.9 12.5 55.9 68.8 60.5 74.3zm4.6-4.2l-3.7 3.4C100.1 90 53.3 34 44.5 21.7c-4.8-6.6-8.6-12.1-10-14.4 2 1.7 6 6.2 8.5 9.1 1.6 2 60.3 69.9 65.6 76z"/><path d="M33.6 106.9h5l2.2-7h10.8l2.3 7h5.5L50 78.5h-6.9l-9.5 28.4zm12.6-24.1L50.4 96H42l4.2-13.2zM.3 55.7h5.3V44.9h4c1.5 0 2.9-.2 4.2-.5 1.3-.3 2.4-.9 3.3-1.6.9-.7 1.6-1.6 2.1-2.7s.8-2.4.8-3.9V36c0-1.5-.3-2.8-.8-3.9s-1.2-2-2.1-2.7c-.9-.7-2-1.3-3.3-1.6-1.3-.4-2.7-.5-4.3-.5H.4v28.4H.3zm5.3-14.6v-9.7h3.8c1.7 0 3 .4 3.9 1.1.9.7 1.4 1.9 1.4 3.6v.2c0 1.6-.5 2.8-1.4 3.6-.9.8-2.2 1.2-4 1.2H5.6zm1.1 60.2H12V89.8h3.4l7.4 11.5h5.7l-8-12.3c.9-.2 1.7-.6 2.5-1s1.4-.9 2-1.5c.6-.6 1-1.4 1.3-2.2.3-.8.5-1.8.5-2.9v-.2c0-1.5-.3-2.7-.8-3.7s-1.2-1.9-2.2-2.6c-.9-.7-2.1-1.2-3.4-1.5-1.3-.3-2.7-.5-4.3-.5H6.6v28.4h.1zM11.9 86v-9h4.2c1.7 0 3 .3 4 1 1 .6 1.4 1.8 1.4 3.4v.2c0 3-1.8 4.5-5.4 4.5h-4.2V86zm12.5-18.8h5l2.2-7h10.8l2.3 7h5.5l-9.4-28.4h-6.9l-9.5 28.4zM37 43.1l4.2 13.2h-8.4L37 43.1z"/><path d="M23 133.2h8.5c2.5 0 4.7-.3 6.5-1.1 1.9-.7 3.4-1.7 4.6-2.9 1.2-1.2 2.1-2.7 2.7-4.5.6-1.7.9-3.6.9-5.7v-.4c0-2.1-.3-3.9-.9-5.7-.6-1.7-1.5-3.2-2.7-4.4-1.2-1.2-2.7-2.2-4.6-2.8-1.8-.7-4-1-6.4-1H23v28.5zm5.3-4.2v-20h3.1c1.7 0 3.1.2 4.3.7 1.2.5 2.2 1.1 2.9 1.9.8.8 1.3 1.9 1.7 3.1.4 1.2.5 2.6.5 4.1v.3c0 3.1-.8 5.6-2.3 7.3-1.5 1.7-3.9 2.6-7.1 2.6h-3.1zm26.1 17h18.4v-4.1H59.7v-8.3h10v-4h-10v-7.8h12.5v-4.1H54.4z"/></g></svg>