<svg xmlns="http://www.w3.org/2000/svg" viewBox="0 0 341 341"><g fill="#245DFF"><path d="M163.8 224.2h13.1l5.9-18.5h28.6l6 18.5h14.4L207 149.4h-18.2l-25 74.8zm33.2-63.4l11 34.7h-22.1l11.1-34.7zM76.1 89.3H90V60.7h10.5c4 0 7.7-.5 11-1.4 3.4-.9 6.3-2.3 8.7-4.1 2.4-1.8 4.3-4.2 5.7-7.1 1.4-2.9 2-6.3 2-10.2v-.4c0-3.9-.7-7.3-2-10.2-1.3-2.9-3.2-5.3-5.6-7.2-2.4-1.9-5.3-3.3-8.7-4.3-3.4-.9-7.2-1.4-11.4-1.4H76.1v74.9zM90 50.7V25.2h10.2c4.5 0 7.9.9 10.4 2.8s3.7 5.1 3.7 9.5v.5c0 4.2-1.2 7.4-3.6 9.5-2.4 2.2-5.9 3.2-10.5 3.2H90zm2.8 158.8h13.9v-30.2h8.9l19.6 30.2h15.1l-21-32.3c2.3-.6 4.5-1.5 6.5-2.5s3.8-2.4 5.3-4 2.7-3.6 3.6-5.8c.9-2.2 1.3-4.8 1.3-7.7v-.4c0-3.8-.7-7.1-2-9.9-1.4-2.8-3.3-5-5.8-6.8-2.5-1.8-5.4-3.1-8.8-4-3.4-.9-7.2-1.3-11.3-1.3H92.8v74.7zm13.9-40.2v-23.9h11.2c4.5 0 8 .8 10.5 2.5s3.8 4.7 3.8 9v.4c0 8-4.7 11.9-14.2 11.9h-11.3zm32.8-49.7h13.1l5.9-18.5h28.6l6 18.5h14.4l-24.7-74.8h-18.2l-25.1 74.8zm33.3-63.4l11 34.7h-22.1l11.1-34.7z"/><path d="M135.9 293.7h22.5c6.6 0 12.3-.9 17.2-2.8 4.9-1.8 8.9-4.4 12.1-7.7 3.2-3.3 5.6-7.2 7.2-11.8 1.6-4.6 2.4-9.6 2.4-15v-.9c0-5.4-.8-10.4-2.4-14.9-1.6-4.5-4-8.4-7.2-11.6-3.2-3.2-7.2-5.7-12.1-7.5-4.8-1.8-10.5-2.7-17-2.7h-22.7v74.9zm13.9-11v-52.9h8.1c4.4 0 8.2.6 11.3 1.8 3.1 1.2 5.7 2.9 7.7 5.1 2 2.2 3.5 4.9 4.4 8.1.9 3.2 1.4 6.8 1.4 10.8v.8c0 8.3-2 14.7-6.1 19.3-4 4.6-10.3 6.9-18.7 6.9h-8.1zm68.9 44.8h48.6v-11h-34.7v-21.8H259v-10.5h-26.4v-20.5h32.9v-11h-46.8z"/></g></svg>