<svg width="286" height="167" viewBox="0 0 286 167" xmlns="http://www.w3.org/2000/svg" xmlns:xlink="http://www.w3.org/1999/xlink"><title>2.6-illustration anounce#3</title><defs><path id="a" d="M0 0h286v167H0z"/></defs><g fill="none" fill-rule="evenodd"><mask id="b" fill="#fff"><use xlink:href="#a"/></mask><use fill="#B0DCE9" xlink:href="#a"/><g mask="url(#b)"><g transform="translate(62 9)"><path d="M82.11 148.819c31.886 0 57.856-2.828 57.856-6.345 0-3.48-26.006-6.344-57.856-6.344-31.887 0-57.857 2.828-57.857 6.344 0 3.517 25.97 6.345 57.857 6.345z" fill="#EDEDED"/><ellipse fill="#B1DDE9" cx="80.101" cy="84.868" rx="59.427" ry="58.984"/><path d="M126.927 50.428H59.683c-3.47 0-6.283-2.792-6.283-6.236s2.813-6.235 6.283-6.235h67.244c3.47 0 6.282 2.791 6.282 6.235 0 3.444-2.813 6.236-6.282 6.236zM60.34 62.391H26.225c-1.46 0-2.666-1.196-2.666-2.646s1.205-2.646 2.666-2.646H60.34c1.461 0 2.667 1.196 2.667 2.646s-1.206 2.646-2.667 2.646zm63.482 77.582h-39.85a1.88 1.88 0 0 1-1.899-1.885 1.88 1.88 0 0 1 1.9-1.885h39.849c1.06 0 1.9.833 1.9 1.885 0 1.015-.84 1.885-1.9 1.885z" fill="#D9EEF4"/><path d="M26.225 57.751c2.338 5.148 6.392 8.846 10.885 11.456 6.502 3.807 13.807 5.22 18.117 5.22v6.345c-5.114 0-13.734-1.668-21.331-6.09-5.516-3.191-10.52-7.831-13.478-14.32l5.807-2.61z"/><path d="M144.02 60.361c-2.958 6.49-7.962 11.13-13.477 14.32-7.598 4.423-16.218 6.09-21.331 6.09v-6.344c4.31 0 11.578-1.45 18.116-5.22 4.493-2.61 8.547-6.344 10.885-11.456l5.807 2.61z" fill="#EFC27F"/><path d="M23.413 89.835c4.018 2.683 8.84 4.06 13.624 4.677 7.196.942 14.318.145 18.774-.69l1.169 6.236c-4.894.907-12.747 1.777-20.747.725-5.661-.725-11.432-2.428-16.363-5.691l3.543-5.257z" fill="#E8A955"/><path d="M65.089 101.364l-7.853 1.377v-.036c-3.872.689-9.68 1.269-15.889 1.015-4.821-.181-9.898-.87-14.574-2.32l3.507-11.094c3.652 1.16 7.67 1.668 11.505 1.85 5.37.217 10.3-.29 13.551-.87v.035l9.753-1.703 2.666 4.604-2.666 7.142z" fill="#CC4538"/><path fill="#5E838F" d="M65.089 108.143h17.094v7.976H65.089z"/><path fill="#7F9DA6" d="M82.219 108.143h17.094v7.976H82.219z"/><path d="M67.755 116.118c-1.242 0-2.41 0-3.543.037-.986.036-1.972.072-3.032.145-4.164.29-6.61 1.45-7.487 2.791-.11.182-.183.327-.183.399 0 .036.037.145.146.254.84 1.051 3.068 1.776 6.83 1.595.22 0 .548-.036 1.023-.073.146 0 .511-.036 1.06-.072 5.88-.435 13.368-1.595 20.271-3.154 6.246-1.378 11.944-3.045 15.523-4.75l3.434 7.143c-4.128 1.957-10.446 3.842-17.204 5.329-7.341 1.631-15.267 2.864-21.44 3.335-.183 0-.585.036-1.206.073-.255 0-.657.036-1.132.072-6.611.29-11.14-1.704-13.441-4.568a8.13 8.13 0 0 1-1.9-4.894c-.073-1.704.402-3.444 1.425-5.003 2.082-3.226 6.684-5.945 13.66-6.453.95-.072 2.082-.109 3.397-.145 1.17-.036 2.411-.036 3.762-.036l.037 7.975z" fill="#5E838F"/><path d="M96.61 108.215c1.352 0 2.594 0 3.762.037 1.315.036 2.448.072 3.397.145 7.013.47 11.579 3.226 13.66 6.453 1.024 1.559 1.498 3.299 1.425 5.003a8.13 8.13 0 0 1-1.899 4.894c-2.301 2.827-6.83 4.858-13.441 4.568-6.137-.29-14.501-1.487-22.354-3.154-7.269-1.56-14.172-3.553-18.592-5.656l3.434-7.142c3.798 1.813 10.08 3.59 16.802 5.04 7.487 1.595 15.377 2.718 21.075 3.008 3.762.182 5.99-.543 6.83-1.595.073-.108.146-.181.146-.253 0-.11-.036-.218-.182-.4-.877-1.34-3.324-2.5-7.488-2.79-1.06-.073-2.082-.11-3.032-.146-1.132-.036-2.3-.036-3.543-.036v-7.976z" fill="#7F9DA6"/><path fill="#FFF" d="M51.955 132.563l8.402-21.657 3.583 1.39-8.402 21.657z"/><path d="M63.92 112.348l3.616 1.378-3.068 7.867-4.091 10.513c-.658 1.196-2.41 1.994-3.397 1.994-.986 0-.986-.109-1.425-.254l-.036.073 8.4-21.57z" fill="#1B606D"/><path d="M114.8 118.765c.62 3.444-3.105 6.924-11.067 6.562-3.36-.145-7.451-.617-11.725-1.27" stroke="#7F9DA6" stroke-width="7.958"/><path fill="#FFF" d="M100.498 112.382l3.61-1.4 8.34 21.495-3.61 1.4z"/><path fill="#1B606D" d="M65.089 112.82l6.063 2.32-3.105 7.867-7.926 9.462z"/><path d="M50.844 122.572c1.68 1.776 4.967 2.972 9.825 2.755.694-.036 1.461-.073 2.228-.145 7.086-.544 16.51-2.103 24.618-4.133 2.52-.616 8.767-2.683 10.885-3.372" stroke="#5E838F" stroke-width="7.958"/><path fill="#1B606D" d="M100.482 112.348l-7.232 2.792 3.25 7.359 7.708 9.897.986.181z"/><path d="M100.482 112.348l-3.616 1.378 3.068 7.867 4.09 10.513c.658 1.196 2.412 1.994 3.398 1.994.986 0 .986-.109 1.424-.254l.037.073-8.401-21.57z" fill="#1B606D"/><ellipse fill="#EFC27F" transform="rotate(-12.427 144.538 60)" cx="144.538" cy="60" rx="3.543" ry="3.517"/><path fill="#7F9DA6" d="M135.072 33.099l-5.37 12.942-2.958 7.142 7.232 2.937 7.05 2.9 7.049 2.864 7.232 2.936 2.958-7.141 1.206-2.9 4.164-10.043-14.282-5.836z"/><path fill="#E35447" d="M161.151 45.643l-.986 2.356-11.323 4.35-7.232-2.827-9.716 3.697-2.63-1.087 12.273-4.677 7.195 2.973z"/><ellipse fill="#E8A955" transform="rotate(-34.678 141.145 97.194)" cx="141.145" cy="97.194" rx="3.543" ry="3.517"/><path d="M142.779 92.482c-10.958 7.323-26.847 5.945-34.773 4.495" stroke="#E8A955" stroke-width="6.366"/><path d="M99.313 101.364l7.853 1.377v-.036c3.872.689 9.68 1.269 15.889 1.015 4.821-.181 9.898-.87 14.574-2.32l-3.507-11.094c-3.653 1.16-7.67 1.668-11.506 1.85-5.369.217-10.3-.29-13.55-.87v.035l-9.753-1.703-2.666 4.604 2.666 7.142z" fill="#CC4538"/><path d="M65.089 71.89h8.547c0 4.64 3.798 8.374 8.437 8.374 4.675 0 2.082-8.374 6.757-8.374h10.483c8.912 0 15.524.471 24.107-3.626 3.799-1.812 7.488-4.35 10.118-7.866l9.387 6.96c-3.909 5.184-9.132 8.882-14.464 11.42-10.155 4.822-18.665 4.713-29.148 4.713v24.652h-.036c-5.516 1.232-11.214 1.849-17.094 1.849a80.375 80.375 0 0 1-17.094-1.85h-.037l.037-36.252z" fill="#E35447"/><path d="M65.089 71.89H75.57c0 3.879 2.594 8.374 6.502 8.374h.11v29.728a80.375 80.375 0 0 1-17.094-1.85h-.037v-24.65c-10.41 0-19.212 0-29.147-4.713-5.333-2.538-10.556-6.2-14.464-11.42l9.387-6.96c2.63 3.516 6.319 6.054 10.117 7.866 8.365 3.952 15.377 3.626 24.144 3.626z" fill="#E35447"/><path fill="#7F9DA6" d="M141.865 78.452h21.916v30.633h-21.916V93.75z"/><ellipse fill="#EFC27F" transform="rotate(-77.579 19.885 60.026)" cx="19.885" cy="60.026" rx="3.543" ry="3.517"/><path fill="#FFF" d="M.365 43.721l14.172-5.8 14.209-5.765 4.346 10.55 4.383 10.55-14.172 5.8L9.131 64.82 4.748 54.27z"/><path fill="#012C4E" d="M75.571 71.89h12.164v5.184H76.083z"/><path d="M85.287 66.38v13.884h-6.136v-13.92c1.023.144 2.118.253 3.178.253.986 0 1.972-.073 2.958-.218z" fill="#E8A955"/><path d="M89.013 41.473c9.131 0 16.583-7.395 16.583-16.458 0-9.064-7.452-16.46-16.583-16.46-9.131 0-16.583 7.396-16.583 16.46 0 9.063 7.415 16.458 16.583 16.458zm-29.842-5.8c-2.3-1.523-3.835-4.17-3.835-7.106v-11.02h3.835v18.126z" fill="#FDC300"/><path d="M99.13 23.057v25.558c0 10.912-8.985 19.83-19.979 19.83s-19.98-8.918-19.98-19.83V23.057h39.96z" fill="#EFC27F"/><path d="M79.151 68.446c-10.994 0-19.98-8.919-19.98-19.83V20.373h13.734v35.673c.804 6.49 2.886 9.97 6.246 12.399z" fill="#E8A955"/><path d="M92.994 52.494c-1.607 6.09-7.195 10.623-13.843 10.623-7.853 0-14.282-6.381-14.282-14.175v-3.01h24.765a3.782 3.782 0 0 1 3.799 3.77c-.037.943-.22 1.886-.439 2.792z" fill="#012C4E"/><path d="M92.994 52.494c-1.57 5.946-6.94 10.369-13.332 10.586 2.375-1.849 3.872-4.676 3.872-7.903 0-4.205-2.63-7.83-6.319-9.317h12.419a3.782 3.782 0 0 1 3.799 3.77c-.037 1.015-.22 1.958-.439 2.864z" fill="#00203D"/><path d="M82.329 55.975c2.337-.182 3.835.725 3.397 1.994-.475 1.305-2.703 2.465-5.04 2.646-2.339.181-3.836-.725-3.398-1.994.475-1.269 2.74-2.465 5.04-2.646z" fill="#E35447"/><path d="M66.586 48.035h23.048c.876 0 1.607.725 1.607 1.595s-.73 1.596-1.607 1.596H67.828l-1.242-3.19z" fill="#FFF"/><path d="M62.641 23.057c6.429 0 11.616-5.148 11.616-11.529 0-1.015-.147-2.03-.402-2.972h-5.771c-2.374 0-4.31-1.922-4.31-4.278a4.27 4.27 0 0 1 2.264-3.77A11.913 11.913 0 0 0 62.605 0C56.176 0 50.99 5.148 50.99 11.528c.036 6.381 5.223 11.529 11.651 11.529z" fill="#FD2"/><path d="M73.928 14.247c.219-.87.329-1.776.329-2.719 0-1.015-.147-2.03-.402-2.972h-5.771c-2.374 0-4.31-1.922-4.31-4.278a4.27 4.27 0 0 1 2.264-3.77c-3.031 1.123-5.223 4.06-5.223 7.468 0 4.423 3.616 8.012 8.072 8.012 1.9 0 3.653-.653 5.04-1.74z" fill="#FDC300"/><path d="M95.076 23.057H62.641v-7.07h26.007c3.58.182 6.428 3.3 6.428 7.07z" fill="#FD2"/><path d="M88.355 8.556H68.887v7.432h32.216a14.613 14.613 0 0 0-12.748-7.432zm6.721 14.501h4.054v16.531h-4.054z" fill="#FDC300"/><path d="M99.13 43.612c2.229 0 4.055-1.812 4.055-4.024 0-2.211-1.826-4.024-4.054-4.024-2.229 0-4.055 1.813-4.055 4.024 0 2.212 1.826 4.024 4.055 4.024z" fill="#EFC27F"/><path d="M99.13 41.655a2.073 2.073 0 0 0 2.082-2.067 2.073 2.073 0 0 0-2.081-2.066c-1.17 0-2.082.906-2.082 2.066 0 1.124.95 2.067 2.082 2.067z" fill="#E8A955"/><path d="M89.305 43.54c2.009 0 3.653-1.631 3.653-3.625s-1.644-3.626-3.653-3.626c-2.009 0-3.652 1.632-3.652 3.626s1.643 3.625 3.652 3.625z" fill="#E35447"/><path d="M77.069 28.531c2.703-3.589 6.611-2.284 8.145 0" stroke="#E8A955" stroke-width="2.213"/><g transform="translate(78.165 29.002)"><ellipse fill="#012C4E" cx="2.995" cy="5.547" rx="2.849" ry="5.257"/><ellipse fill="#FFF" cx="3.908" cy="5.547" rx=".913" ry="1.704"/></g><g transform="translate(63.92 30.815)"><path d="M2.228 8.99c1.132 0 2.045-1.957 2.045-4.35 0-2.392-.913-4.35-2.045-4.35S.183 2.248.183 4.64c0 2.393.913 4.35 2.045 4.35z" fill="#012C4E"/><ellipse fill="#FFF" cx="2.886" cy="4.64" rx=".657" ry="1.414"/></g><path d="M72.869 38.972c1.132 0 2.009.906 2.009 1.994a2.1 2.1 0 0 1-.11.689h-3.799a2.096 2.096 0 0 1-.11-.69c0-1.123.914-1.993 2.01-1.993z" fill="#E35447"/><path d="M87.223 23.057v-1.958l7.853 1.813v7.214c0-3.77-2.849-6.888-6.428-7.07h-1.425z" fill="#FD2"/><ellipse fill="#E8A955" transform="rotate(-55.322 23.286 97.226)" cx="23.286" cy="97.226" rx="3.543" ry="3.517"/><path fill="#7F9DA6" d="M22.536 78.452H8.437L.657 86.21v22.875h21.879V93.75z"/><path fill="#1B606D" d="M143.801 80.373h18.044v6.997h-18.044zm9.972 8.882h8.036v7.976h-8.036z"/><path fill="#E35447" d="M153.773 99.188h8.036v7.976h-8.036z"/><path fill="#1B606D" d="M143.801 89.255h8.036v7.976h-8.036zm0 9.933h8.036v7.976h-8.036z"/><path fill="#7F9DA6" d="M154.942 92.699h5.734v1.124h-5.734zm-7.707-2.284h1.169V92.7h2.3v1.124h-2.3v2.284h-1.17v-2.284h-2.264V92.7h2.265zm7.707 12.181h5.734v-1.124h-5.734zm0 2.284h5.734v-1.124h-5.734zm-5.479-4.133l.803.798-1.643 1.631 1.643 1.595-.803.834-1.644-1.631-1.607 1.631-.84-.834 1.644-1.595-1.644-1.631.84-.798 1.607 1.632z"/><g transform="translate(136.24 85.195)" fill="#EFC27F"><ellipse transform="rotate(-36.755 5.225 5.146)" cx="5.225" cy="5.146" rx="3.543" ry="3.517"/><ellipse transform="rotate(-36.755 11.803 3.002)" cx="11.803" cy="3.002" rx="1.461" ry="1.45"/><path d="M2.009 4.46h9.68V1.594l-6.466.036z"/></g><path fill="#E35447" d="M8.437 78.452L.657 86.21h7.78zM134.75 38.947l1.375-3.345 3.32 1.364-1.375 3.345z"/><path fill="#7F9DA6" d="M.39 43.783l28.377-11.668 8.686 21.124L9.075 64.907z"/><path fill="#E35447" d="M.365 43.721l.804 1.958 18.555 4.749 9.825-16.35-.803-1.922z"/><path fill="#5E838F" d="M8.84 64.204l8.62-14.356 1.132.29-8.62 14.356-.84.326zm12.09-15.77l16.29 4.17.255.652-.876.362-16.254-4.205z"/><path fill="#5E838F" d="M1.169 45.679L20.053 50.5l-.658 1.016-17.678-4.568z"/><path fill="#5E838F" d="M19.14 51.443l10.41-17.365.51 1.305-9.788 16.35z"/><path fill="#1B606D" d="M160.165 47.999l-5.917 14.32-22.354-9.1 9.716-3.697 7.232 2.827z"/><g transform="translate(133.684 48.217)" fill="#F1CD9F"><ellipse transform="rotate(-12.421 4.492 8.846)" cx="4.492" cy="8.846" rx="3.543" ry="3.517"/><ellipse transform="rotate(-12.421 5.223 2.03)" cx="5.223" cy="2.03" rx="1.461" ry="1.45"/><path d="M2.52 11.492L6.502 2.72 3.908 1.56l-2.63 5.837z"/></g><path fill="#1B606D" d="M10.373 80.373v7.758h-7.78v19.033H20.6V80.373z"/><g transform="translate(14.245 85.195)" fill="#EFC27F"><ellipse transform="rotate(-53.245 8.683 5.215)" cx="8.683" cy="5.215" rx="3.543" ry="3.517"/><ellipse transform="rotate(-53.249 2.1 3.077)" cx="2.1" cy="3.077" rx="1.461" ry="1.45"/><path d="M11.907 4.532H2.228V1.668l6.465.036z"/></g><path fill="#1B606D" d="M1.169 45.679l18.555 4.749.182 2.066L2.082 47.89zm20.235 2.356l15.633 4.024.438 1.197-1.46.616-15.67-4.097z"/><path fill="#1B606D" d="M18.555 50.9l-7.816 13.268-1.608.652-.474-1.05 8.218-13.886zm2.009 1.74l-1.863-.472 10.848-18.09.877 2.139z"/><g transform="translate(21.915 48.217)" fill="#F1CD9F"><ellipse transform="rotate(-77.573 4.304 8.85)" cx="4.304" cy="8.851" rx="3.543" ry="3.517"/><ellipse transform="rotate(-77.579 3.57 2.012)" cx="3.57" cy="2.012" rx="1.461" ry="1.45"/><path d="M6.282 11.492L2.302 2.72l2.629-1.16 2.63 5.837z"/></g><path d="M75.571 71.89l6.612 8.52 6.647-8.52-.401 37.884c-2.046.145-4.128.254-6.246.254-2.155 0-4.274-.073-6.392-.254l-.22-37.884z" fill="#FFF"/><path d="M87.625 71.89h1.205l-.073 5.329c-1.534 2.03-3.762 3.081-6.501 3.081h-.512c-3.762-.217-6.209-4.604-6.209-8.374h1.644c0 2.719 2.228 4.967 5.004 4.967 2.739 0 5.004-2.212 5.004-4.967l.438-.036z" fill="#FFF"/><path fill="#CC4538" d="M75.571 71.89H73.38l-2.228 5.764 2.228 2.864-2.228 2.9 4.42 14.429zm13.296 0h2.191l2.228 5.764-2.228 2.864 2.228 2.9-4.42 14.429z"/><path d="M33.713 112.82c2.046-.29 3.799-2.248 4.091-4.06.292 1.812 2.009 3.77 4.09 4.06-2.045.29-3.798 2.247-4.09 4.06-.329-1.85-2.045-3.77-4.09-4.06zm72.43-52.169c2.046-.29 3.8-2.247 4.091-4.06.293 1.813 2.01 3.77 4.091 4.06-2.045.29-3.798 2.248-4.09 4.06-.293-1.812-2.046-3.77-4.092-4.06z" fill="#FFF"/></g></g></g></svg>