<svg width="286" height="167" viewBox="0 0 286 167" xmlns="http://www.w3.org/2000/svg" xmlns:xlink="http://www.w3.org/1999/xlink"><title>2.5-illustration anounce#2</title><defs><path id="a" d="M0 0h286v167H0z"/></defs><g fill="none" fill-rule="evenodd"><mask id="b" fill="#fff"><use xlink:href="#a"/></mask><use fill="#B0DCE9" xlink:href="#a"/><g mask="url(#b)"><path fill="#A2C0C6" d="M78.336 198.405V3.56h230.712v194.918l-230.712-.072z"/><path d="M49.425 25.088a1.471 1.471 0 0 1 1.726 1.224c.144.864-.36 1.585-1.223 1.729l-7.983 1.44-3.092.576c-2.733.576-4.171 2.088-4.963 3.96-.79 2.016-.863 4.536-.863 6.696v157.548h-3.02V40.785c-.072-2.448.072-5.328 1.007-7.848 1.078-2.736 3.164-4.968 7.12-5.76h.071l3.165-.577 8.055-1.512z" fill="#C6C7C6"/><path d="M45.253 27.176c-.287-1.656.792-3.312 2.518-3.6l9.205-1.656c1.654-.288 3.308.792 3.596 2.52.288 1.656-.791 3.312-2.517 3.6l-9.206 1.657c-1.654.288-3.236-.792-3.596-2.52z" fill="#C6C7C6"/><path d="M45.253 27.176L60.5 24.44c.288 1.656-.791 3.312-2.517 3.6l-9.206 1.657c-1.582.288-3.164-.792-3.524-2.52z" fill="#FBBB4D"/><path fill="#96B6BE" d="M291.572 73.692v34.563H254.03V73.692z"/><path fill="#B1DDE9" d="M288.336 76.932v31.323h-31.14V76.932z"/><path d="M288.336 94.214v2.304L268.774 76.86h2.301l17.26 17.354zm0 6.912v4.608L259.64 76.932h4.531l24.165 24.194zm0 6.84v.289h-2.014l-29.055-29.163V76.86h.144l30.925 31.107z" fill="#C7E6EF"/><path fill="#91CAD5" d="M288.336 76.932h-31.14v.936h31.14v-.936z"/><path fill="#91CAD5" d="M268.414 76.932v31.323h.935V76.932h-.935z"/><path fill="#91CAD5" d="M288.336 88.165H257.41v.936h30.925z"/><path fill="#96B6BE" d="M266.832 108.255V73.692h1.582v34.563h-1.582zm10.356 0V73.692h1.583v34.563h-1.583z"/><path fill="#91CAD5" d="M278.77 76.932v31.323h.935V76.932h-.934zm-21.503 0v31.323h.935V76.932h-.935z"/><path fill="#96B6BE" d="M255.541 86.581h34.52v1.584h-34.52z"/><path fill="#88A5AB" d="M254.03 73.692v34.563h1.87V73.692h-1.87z"/><path fill="#88A5AB" d="M291.572 73.692h-36.606v1.872h36.606v-1.872z"/><path fill="#ABC5CB" d="M251.945 107.319h41.713v6.192h-41.713z"/><path fill="#88A5AB" d="M293.658 113.583v-6.192l6.184 6.192v6.192H258.13l-6.185-6.192h6.185z"/><path fill="#96B6BE" d="M291.572 126.832v34.563H254.03v-34.563z"/><path fill="#B1DDE9" d="M288.336 130v31.323h-31.14V130z"/><path d="M288.336 147.354v2.304L268.774 130h2.301l17.26 17.354zm0 6.84v4.608L259.64 130h4.531l24.165 24.194zm0 6.913v.288h-2.014l-29.055-29.163V130h.144l30.925 31.107z" fill="#C7E6EF"/><path fill="#91CAD5" d="M288.336 130h-31.14v.936h31.14V130z"/><path fill="#91CAD5" d="M268.414 130v31.323h.935V130h-.935z"/><path fill="#91CAD5" d="M288.336 141.305H257.41v.936h30.925z"/><path fill="#96B6BE" d="M266.832 161.395v-34.563h1.582v34.563zm10.356 0v-34.563h1.583v34.563z"/><path fill="#91CAD5" d="M278.77 130v31.323h.935V130h-.934zm-21.503 0v31.323h.935V130h-.935z"/><path fill="#96B6BE" d="M255.541 139.649h34.52v1.584h-34.52z"/><path fill="#88A5AB" d="M254.03 126.832v34.563h1.87v-34.563h-1.87z"/><path fill="#88A5AB" d="M291.572 126.832h-36.606v1.872h36.606v-1.872z"/><path fill="#ABC5CB" d="M251.945 160.459h41.713v6.192h-41.713z"/><path fill="#88A5AB" d="M293.658 166.651v-6.192l6.184 6.192v6.193H258.13l-6.185-6.193h6.185z"/><path fill="#96B6BE" d="M291.572 20.552v34.563H254.03V20.552z"/><path fill="#B1DDE9" d="M288.336 23.792v31.323h-31.14V23.792z"/><path d="M288.336 41.074v2.304L268.774 23.72h2.301l17.26 17.354zm0 6.912v4.608L259.64 23.792h4.531l24.165 24.194zm0 6.913v.288h-2.014l-29.055-29.163v-2.232h.144L288.336 54.9z" fill="#C7E6EF"/><path fill="#91CAD5" d="M288.336 23.792h-31.14v.936h31.14v-.936z"/><path fill="#91CAD5" d="M268.414 23.792v31.323h.935V23.792h-.935z"/><path fill="#91CAD5" d="M288.336 35.025H257.41v.936h30.925z"/><path fill="#96B6BE" d="M266.832 55.115V20.552h1.582v34.563zm10.356 0V20.552h1.583v34.563z"/><path fill="#91CAD5" d="M278.77 23.792v31.323h.935V23.792h-.934zm-21.503 0v31.323h.935V23.792h-.935z"/><path fill="#96B6BE" d="M255.541 33.44h34.52v1.585h-34.52z"/><path fill="#88A5AB" d="M254.03 20.552v34.563h1.87V20.552h-1.87z"/><path fill="#88A5AB" d="M291.572 20.552h-36.606v1.872h36.606v-1.872z"/><path fill="#ABC5CB" d="M251.945 54.179h41.713v6.192h-41.713z"/><path fill="#88A5AB" d="M293.658 60.443v-6.192l6.184 6.192v6.192H258.13l-6.185-6.192h6.185z"/><path fill="#A2C0C6" d="M152.699 3.559V-4.29h-5.394v7.85z"/><path fill="#96B6BE" d="M149.966 3.559V-4.29h-2.661v7.85z"/><path fill="#A2C0C6" d="M240.007 3.559V-4.29h-5.394v7.85z"/><path fill="#96B6BE" d="M237.346 3.559V-4.29h-2.661v7.85zm1.51 70.133v34.563h-37.54V73.692z"/><path fill="#B1DDE9" d="M235.62 76.932v31.323h-31.14V76.932z"/><path d="M235.62 94.214v2.304L216.058 76.86h2.302l17.26 17.354zm0 6.912v4.608l-28.695-28.802h4.53l24.165 24.194zm0 6.84v.289h-2.014l-29.055-29.163V76.86h.144l30.925 31.107z" fill="#C7E6EF"/><path fill="#91CAD5" d="M235.62 76.932h-31.14v.936h31.14v-.936z"/><path fill="#91CAD5" d="M215.699 76.932v31.323h.935V76.932h-.935z"/><path fill="#91CAD5" d="M235.62 88.165h-30.925v.936h30.925v-.936z"/><path fill="#96B6BE" d="M214.116 108.255V73.692h1.583v34.563h-1.583zm10.357 0V73.692h1.582v34.563h-1.582z"/><path fill="#91CAD5" d="M226.055 76.932v31.323h.935V76.932h-.935zm-21.504 0v31.323h.935V76.932h-.935z"/><path fill="#96B6BE" d="M202.825 86.581h34.52v1.584h-34.52z"/><path fill="#88A5AB" d="M201.315 73.692v34.563h1.87V73.692h-1.87z"/><path fill="#88A5AB" d="M238.856 73.692H202.25v1.872h36.606v-1.872z"/><path fill="#ABC5CB" d="M199.23 107.319h41.712v6.192h-41.713z"/><path fill="#88A5AB" d="M240.942 113.583v-6.192l6.185 6.192v6.192h-41.713l-6.185-6.192h6.185z"/><path fill="#96B6BE" d="M238.856 126.832v34.563h-37.54v-34.563z"/><path fill="#B1DDE9" d="M235.62 130v31.323h-31.14V130z"/><path d="M235.62 147.354v2.304L216.058 130h2.302l17.26 17.354zm0 6.84v4.608L206.925 130h4.53l24.165 24.194zm0 6.913v.288h-2.014l-29.055-29.163V130h.144l30.925 31.107z" fill="#C7E6EF"/><path fill="#91CAD5" d="M235.62 130h-31.14v.936h31.14V130z"/><path fill="#91CAD5" d="M215.699 130v31.323h.935V130h-.935z"/><path fill="#91CAD5" d="M235.62 141.305h-30.925v.936h30.925v-.936z"/><path fill="#96B6BE" d="M214.116 161.395v-34.563h1.583v34.563zm10.357 0v-34.563h1.582v34.563z"/><path fill="#91CAD5" d="M226.055 130v31.323h.935V130h-.935zm-21.504 0v31.323h.935V130h-.935z"/><path fill="#96B6BE" d="M202.825 139.649h34.52v1.584h-34.52z"/><path fill="#88A5AB" d="M201.315 126.832v34.563h1.87v-34.563h-1.87z"/><path fill="#88A5AB" d="M238.856 126.832H202.25v1.872h36.606v-1.872z"/><path fill="#ABC5CB" d="M199.23 160.459h41.712v6.192h-41.713z"/><path fill="#88A5AB" d="M240.942 166.651v-6.192l6.185 6.192v6.193h-41.713l-6.185-6.193h6.185z"/><path fill="#96B6BE" d="M238.856 20.552v34.563h-37.54V20.552z"/><path fill="#B1DDE9" d="M235.62 23.792v31.323h-31.14V23.792z"/><path d="M235.62 41.074v2.304L216.058 23.72h2.302l17.26 17.354zm0 6.912v4.608l-28.695-28.802h4.53l24.165 24.194zm0 6.913v.288h-2.014l-29.055-29.163v-2.232h.144L235.62 54.9z" fill="#C7E6EF"/><path fill="#91CAD5" d="M235.62 23.792h-31.14v.936h31.14v-.936z"/><path fill="#91CAD5" d="M215.699 23.792v31.323h.935V23.792h-.935z"/><path fill="#91CAD5" d="M235.62 35.025h-30.925v.936h30.925v-.936z"/><path fill="#96B6BE" d="M214.116 55.115V20.552h1.583v34.563zm10.357 0V20.552h1.582v34.563z"/><path fill="#91CAD5" d="M226.055 23.792v31.323h.935V23.792h-.935zm-21.504 0v31.323h.935V23.792h-.935z"/><path fill="#96B6BE" d="M202.825 33.44h34.52v1.585h-34.52z"/><path fill="#88A5AB" d="M201.315 20.552v34.563h1.87V20.552h-1.87z"/><path fill="#88A5AB" d="M238.856 20.552H202.25v1.872h36.606v-1.872z"/><path fill="#ABC5CB" d="M199.23 54.179h41.712v6.192h-41.713z"/><path fill="#88A5AB" d="M240.942 60.443v-6.192l6.185 6.192v6.192h-41.713l-6.185-6.192h6.185z"/><path fill="#96B6BE" d="M186.068 73.692v34.563H148.6V73.692z"/><path fill="#B1DDE9" d="M182.904 76.932v31.323h-31.14V76.932z"/><path d="M182.904 94.214v2.304L163.342 76.86h2.302l17.26 17.354zm0 6.912v4.608L154.21 76.932h4.603l24.092 24.194zm0 6.84v.289h-2.014l-29.054-29.163V76.86h.143l30.925 31.107z" fill="#C7E6EF"/><path fill="#91CAD5" d="M182.904 76.932h-31.14v.936h31.14v-.936z"/><path fill="#91CAD5" d="M162.983 76.932v31.323h.935V76.932h-.935z"/><path fill="#91CAD5" d="M182.904 88.165H151.98v.936h30.925z"/><path fill="#96B6BE" d="M161.4 108.255V73.692h1.583v34.563H161.4zm10.357 0V73.692h1.582v34.563h-1.582z"/><path fill="#91CAD5" d="M173.339 76.932v31.323h.935V76.932h-.935zm-21.575 0v31.323h.935V76.932h-.935z"/><path fill="#96B6BE" d="M150.11 86.581h34.52v1.584h-34.52v-1.584z"/><path fill="#88A5AB" d="M148.6 73.692v34.563h1.87V73.692h-1.87z"/><path fill="#88A5AB" d="M186.068 73.692h-36.606v1.872h36.606v-1.872z"/><path fill="#ABC5CB" d="M146.514 107.319h41.712v6.192h-41.712v-6.192z"/><path fill="#88A5AB" d="M188.226 113.583v-6.192l6.185 6.192v6.192h-41.712l-6.185-6.192h6.185z"/><path fill="#96B6BE" d="M186.068 126.832v34.563H148.6v-34.563z"/><path fill="#B1DDE9" d="M182.904 130v31.323h-31.14V130z"/><path d="M182.904 147.354v2.304L163.342 130h2.302l17.26 17.354zm0 6.84v4.608L154.21 130h4.603l24.092 24.194zm0 6.913v.288h-2.014l-29.054-29.163V130h.143l30.925 31.107z" fill="#C7E6EF"/><path fill="#91CAD5" d="M182.904 130h-31.14v.936h31.14V130z"/><path fill="#91CAD5" d="M162.983 130v31.323h.935V130h-.935z"/><path fill="#91CAD5" d="M182.904 141.305H151.98v.936h30.925z"/><path fill="#96B6BE" d="M161.4 161.395v-34.563h1.583v34.563zm10.357 0v-34.563h1.582v34.563z"/><path fill="#91CAD5" d="M173.339 130v31.323h.935V130h-.935zm-21.575 0v31.323h.935V130h-.935z"/><path fill="#96B6BE" d="M150.11 139.649h34.52v1.584h-34.52v-1.584z"/><path fill="#88A5AB" d="M148.6 126.832v34.563h1.87v-34.563h-1.87z"/><path fill="#88A5AB" d="M186.068 126.832h-36.606v1.872h36.606v-1.872z"/><path fill="#ABC5CB" d="M146.514 160.459h41.712v6.192h-41.712v-6.192z"/><path fill="#88A5AB" d="M188.226 166.651v-6.192l6.185 6.192v6.193h-41.712l-6.185-6.193h6.185z"/><path fill="#96B6BE" d="M186.068 20.552v34.563H148.6V20.552z"/><path fill="#B1DDE9" d="M182.904 23.792v31.323h-31.14V23.792z"/><path d="M182.904 41.074v2.304L163.342 23.72h2.302l17.26 17.354zm0 6.912v4.608L154.21 23.792h4.603l24.092 24.194zm0 6.913v.288h-2.014l-29.054-29.163v-2.232h.143L182.904 54.9z" fill="#C7E6EF"/><path fill="#91CAD5" d="M182.904 23.792h-31.14v.936h31.14v-.936z"/><path fill="#91CAD5" d="M162.983 23.792v31.323h.935V23.792h-.935z"/><path fill="#91CAD5" d="M182.904 35.025H151.98v.936h30.925z"/><path fill="#96B6BE" d="M161.4 55.115V20.552h1.583v34.563zm10.357 0V20.552h1.582v34.563z"/><path fill="#91CAD5" d="M173.339 23.792v31.323h.935V23.792h-.935zm-21.575 0v31.323h.935V23.792h-.935z"/><path fill="#96B6BE" d="M150.11 33.44h34.52v1.585h-34.52v-1.584z"/><path fill="#88A5AB" d="M148.6 20.552v34.563h1.87V20.552h-1.87z"/><path fill="#88A5AB" d="M186.068 20.552h-36.606v1.872h36.606v-1.872z"/><path fill="#ABC5CB" d="M146.514 54.179h41.712v6.192h-41.712v-6.192z"/><path fill="#88A5AB" d="M188.226 60.443v-6.192l6.185 6.192v6.192h-41.712l-6.185-6.192h6.185z"/><path fill="#96B6BE" d="M133.353 73.692v34.563h-37.47V73.692z"/><path fill="#B1DDE9" d="M130.188 76.932v31.323h-31.14V76.932z"/><path d="M130.188 94.214v2.304L110.627 76.86h2.301l17.26 17.354zm0 6.912v4.608l-28.695-28.802h4.531l24.164 24.194zm0 6.84v.289h-2.013L99.12 79.092V76.86h.144l30.924 31.107z" fill="#C7E6EF"/><path fill="#91CAD5" d="M130.188 76.932h-31.14v.936h31.14v-.936z"/><path fill="#91CAD5" d="M110.267 76.932v31.323h.935V76.932h-.935z"/><path fill="#91CAD5" d="M130.188 88.165H99.264v.936h30.924z"/><path fill="#96B6BE" d="M108.613 108.255V73.692h1.582v34.563h-1.582zm10.428 0V73.692h1.582v34.563h-1.582z"/><path fill="#91CAD5" d="M120.623 76.932v31.323h.935V76.932h-.935zm-21.575 0v31.323h.935V76.932h-.935z"/><path fill="#96B6BE" d="M97.394 86.581h34.52v1.584h-34.52z"/><path fill="#88A5AB" d="M95.884 73.692v34.563h1.87V73.692h-1.87z"/><path fill="#88A5AB" d="M133.353 73.692H96.747v1.872h36.606v-1.872z"/><path fill="#ABC5CB" d="M93.798 107.319h41.712v6.192H93.798z"/><path fill="#88A5AB" d="M135.51 113.583v-6.192l6.185 6.192v6.192H99.983l-6.185-6.192h6.185z"/><path fill="#96B6BE" d="M133.353 126.832v34.563h-37.47v-34.563z"/><path fill="#B1DDE9" d="M130.188 130v31.323h-31.14V130z"/><path d="M130.188 147.354v2.304L110.627 130h2.301l17.26 17.354zm0 6.84v4.608L101.493 130h4.531l24.164 24.194zm0 6.913v.288h-2.013L99.12 132.232V130h.144l30.924 31.107z" fill="#C7E6EF"/><path fill="#91CAD5" d="M130.188 130h-31.14v.936h31.14V130z"/><path fill="#91CAD5" d="M110.267 130v31.323h.935V130h-.935z"/><path fill="#91CAD5" d="M130.188 141.305H99.264v.936h30.924z"/><path fill="#96B6BE" d="M108.613 161.395v-34.563h1.582v34.563zm10.428 0v-34.563h1.582v34.563z"/><path fill="#91CAD5" d="M120.623 130v31.323h.935V130h-.935zm-21.575 0v31.323h.935V130h-.935z"/><path fill="#96B6BE" d="M97.394 139.649h34.52v1.584h-34.52z"/><path fill="#88A5AB" d="M95.884 126.832v34.563h1.87v-34.563h-1.87z"/><path fill="#88A5AB" d="M133.353 126.832H96.747v1.872h36.606v-1.872z"/><path fill="#ABC5CB" d="M93.798 160.459h41.712v6.192H93.798z"/><path fill="#88A5AB" d="M135.51 166.651v-6.192l6.185 6.192v6.193H99.983l-6.185-6.193h6.185z"/><path fill="#96B6BE" d="M133.353 20.552v34.563h-37.47V20.552z"/><path fill="#B1DDE9" d="M130.188 23.792v31.323h-31.14V23.792z"/><path d="M130.188 41.074v2.304L110.627 23.72h2.301l17.26 17.354zm0 6.912v4.608l-28.695-28.802h4.531l24.164 24.194zm0 6.913v.288h-2.013L99.12 26.024v-2.232h.144L130.188 54.9z" fill="#C7E6EF"/><path fill="#91CAD5" d="M130.188 23.792h-31.14v.936h31.14v-.936z"/><path fill="#91CAD5" d="M110.267 23.792v31.323h.935V23.792h-.935z"/><path fill="#91CAD5" d="M130.188 35.025H99.264v.936h30.924z"/><path fill="#96B6BE" d="M108.613 55.115V20.552h1.582v34.563zm10.428 0V20.552h1.582v34.563z"/><path fill="#91CAD5" d="M120.623 23.792v31.323h.935V23.792h-.935zm-21.575 0v31.323h.935V23.792h-.935z"/><path fill="#96B6BE" d="M97.394 33.44h34.52v1.585h-34.52z"/><path fill="#88A5AB" d="M95.884 20.552v34.563h1.87V20.552h-1.87z"/><path fill="#88A5AB" d="M133.353 20.552H96.747v1.872h36.606v-1.872z"/><path fill="#ABC5CB" d="M93.798 54.179h41.712v6.192H93.798z"/><path fill="#88A5AB" d="M135.51 60.443v-6.192l6.185 6.192v6.192H99.983l-6.185-6.192h6.185z"/><g transform="translate(45.541 39.85)"><path d="M60.555 159.708C27.329 159.492.36 132.49.36 99.224c0-33.411 26.897-60.413 60.195-60.63V52.42c-25.603.216-46.315 21.026-46.315 46.804 0 25.633 20.712 46.515 46.315 46.66v13.824z" fill="#403C4E"/><path d="M2.949 117.009c2.948 9.72 8.414 18.361 15.39 25.346v-23.69c-1.223-2.664-2.23-5.472-2.877-8.28L2.95 117.008zm47.393 41.763c3.38.576 6.905.936 10.5.936h.288v-13.825h-.288c-3.595 0-7.12-.36-10.5-1.224v14.113z" fill="#E4BC8E"/><path d="M103.274 158.34V56.02c-10.932-10.8-25.89-17.425-42.503-17.425-16.47 0-31.5 6.624-42.36 17.353V158.34c13.664 4.536 27.832 6.84 42.503 6.84 14.528 0 28.84-2.304 42.36-6.84z" fill="#403C4E"/><path d="M103.274 158.34v-16.057c11.147-10.945 17.98-26.21 17.98-43.06 0-16.849-6.905-32.114-17.98-43.059l-.575-.576-.432-.432-.575-.576c-.216-.216-.36-.288-.432-.432l-.575-.576-.432-.432a5.222 5.222 0 0 0-.647-.576c-.216-.216-.36-.288-.431-.36-.216-.216-.432-.36-.648-.576-.215-.072-.287-.288-.431-.36-.216-.216-.432-.36-.647-.576-.216-.072-.288-.288-.432-.36-.288-.216-.431-.36-.72-.576-.215-.072-.287-.216-.43-.36-.288-.216-.432-.36-.72-.576-.215-.072-.287-.216-.431-.288-.288-.216-.432-.36-.72-.432-.215-.072-.287-.216-.43-.288a2.43 2.43 0 0 0-.864-.432c-.216-.072-.288-.216-.431-.288a2.43 2.43 0 0 0-.863-.432c-.216-.072-.288-.216-.432-.288-.288-.216-.575-.288-.863-.433-.072-.072-.288-.216-.36-.216-.287-.216-.575-.288-.935-.432l-.36-.216c-.287-.216-.646-.288-.934-.432-.072-.072-.288-.072-.36-.216-.36-.216-.647-.288-1.006-.432l-.36-.216c-.36-.216-.647-.288-1.007-.432h-.36c-.36-.216-.647-.288-1.006-.432l-.36-.072c-.36-.216-.72-.288-1.079-.36l-.215-.216c-.36-.216-.72-.288-1.08-.36l-.287-.072c-.36-.072-.72-.288-1.222-.36l-.288-.072c-.36-.072-.863-.288-1.223-.36l-.216-.072a7.85 7.85 0 0 1-1.222-.36h-.216c-.36-.072-.863-.216-1.294-.288l-.216-.072c-.432-.072-.863-.216-1.295-.288h-.215c-.432-.072-.935-.216-1.295-.288h-.216c-.431-.072-.935-.216-1.366-.216h-.072c-.432-.072-.935-.072-1.366-.216h-.072c-.432-.072-.935-.072-1.439-.216H67.1c-.431-.072-1.007-.072-1.438-.072h-.216c-.431 0-1.007-.072-1.438-.072-1.007-.072-2.014-.072-3.165-.072h-.215v126.37h.36c14.455 0 28.766-2.305 42.287-6.841zm0-39.963v-38.45c2.66 5.904 4.171 12.384 4.171 19.297 0 6.84-1.51 13.393-4.171 19.153z" fill="#32303D"/><path d="M118.664 117.009a59.61 59.61 0 0 1-15.318 25.274v-23.906c1.222-2.592 2.086-5.256 2.733-7.993l12.585 6.625z" fill="#E1AF74"/><path d="M34.664 46.156c0 14.4 11.795 26.21 26.178 26.21 14.384 0 26.179-11.81 26.179-26.21 0-1.08.071-13.105-.072-13.105-.288-3.6-1.223-7.129-2.733-10.153H37.469c-1.582 3.024-2.589 6.552-2.733 10.153-.144 0-.072 12.6-.072 13.105z" fill="#E4BB8F"/><path d="M60.842 72.366c14.384 0 26.179-11.81 26.179-26.21V33.123c-.288-3.6-1.223-7.129-2.733-10.153H60.914v49.395h-.072z" fill="#E0B074"/><ellipse fill="#E1594D" cx="79.901" cy="47.308" rx="3.596" ry="3.6"/><path d="M60.842 47.452a2.58 2.58 0 0 0-2.589 2.592c0 .288.072.576.216.864h4.819c.072-.288.215-.576.215-.864-.071-1.44-1.294-2.592-2.66-2.592z" fill="#E1594D"/><ellipse fill="#1F3654" cx="51.205" cy="42.267" rx="3.596" ry="3.6"/><ellipse fill="#FFF" cx="50.055" cy="42.267" rx="1.223" ry="1.224"/><ellipse fill="#1F3654" cx="70.408" cy="42.267" rx="3.596" ry="3.6"/><ellipse fill="#FFF" cx="69.257" cy="42.267" rx="1.223" ry="1.224"/><ellipse fill="#E1594D" cx="41.856" cy="47.308" rx="3.596" ry="3.6"/><path d="M86.517 51.412a5.313 5.313 0 0 0 5.322-5.328 5.313 5.313 0 0 0-5.322-5.329v10.657z" fill="#E0B074"/><path d="M35.168 40.827a5.313 5.313 0 0 0-5.322 5.329 5.313 5.313 0 0 0 5.322 5.328V40.827z" fill="#E4BB8F"/><path d="M35.168 43.42c-1.439 0-2.661 1.223-2.661 2.664 0 1.44 1.222 2.664 2.66 2.664v-5.329zm51.349 0c1.438 0 2.661 1.223 2.661 2.664 0 1.44-1.223 2.664-2.66 2.664v-5.329z" fill="#E7A958"/><path d="M59.836 50.62c8.198-2.016 15.965.864 17.332 6.552L47.61 64.517C46.17 58.9 51.709 52.636 59.836 50.62zM34.664 27.074h2.877v14.33c-.72-.36-1.438-.577-2.373-.577h-.576V27.074h.072zm52.428 0h-2.876v14.33c.719-.36 1.438-.577 2.373-.577h.575V27.074h-.072z" fill="#B0784A"/><path d="M83.28 36.795c0 8.568-10.14 15.481-22.653 15.481-12.514 0-22.654-6.913-22.654-15.481H83.28z" fill="#1F3654"/><path d="M87.092 24.482v10.873c-6.472 4.536-15.821 7.272-26.178 7.272-10.284 0-19.705-2.736-26.178-7.272V24.482c6.473 4.536 15.822 7.272 26.178 7.272 10.285 0 19.634-2.736 26.178-7.272z" fill="#F8B947"/><path d="M87.092 24.482v10.873c-6.472 4.536-15.821 7.272-26.178 7.272V31.754c10.285 0 19.634-2.736 26.178-7.272z" fill="#DFA73F"/><path d="M95.435 16.13v.431c0 11.737-15.678 21.242-35.024 21.242S25.387 28.298 25.387 16.56v-.432h70.048z" fill="#494659"/><ellipse fill="#32303D" cx="60.483" cy="15.697" rx="35.024" ry="15.625"/><ellipse fill="#BC4443" cx="61.274" cy="37.659" rx="7.12" ry="3.024"/><ellipse fill="#F8B947" cx="48.185" cy="80.79" rx="3.236" ry="3.24"/><ellipse fill="#F8B947" cx="48.185" cy="97.351" rx="3.236" ry="3.24"/><ellipse fill="#F8B947" cx="48.185" cy="113.985" rx="3.236" ry="3.24"/><ellipse fill="#F8B947" cx="73.5" cy="80.79" rx="3.236" ry="3.24"/><path d="M73.5 94.111c1.726 0 3.236 1.44 3.236 3.24 0 1.729-1.438 3.24-3.236 3.24a3.225 3.225 0 0 1-3.236-3.24c.072-1.728 1.51-3.24 3.236-3.24z" fill="#E9AF3F"/><path d="M2.949 117.009c.36 1.296.863 2.664 1.366 3.888l12.37-6.552a83.341 83.341 0 0 1-1.223-3.96L2.95 117.008zm115.787-.432c-.36 1.296-.863 2.664-1.366 3.888L105 113.913a83.341 83.341 0 0 0 1.223-3.96l12.513 6.624z" fill="#2A2934"/><ellipse fill="#F8B947" cx="73.5" cy="113.985" rx="3.236" ry="3.24"/></g></g></g></svg>