<svg width="286" height="167" viewBox="0 0 286 167" xmlns="http://www.w3.org/2000/svg" xmlns:xlink="http://www.w3.org/1999/xlink"><title>3.2-illustration anounce#4</title><defs><path id="a" d="M0 0h286v167H0z"/></defs><g fill="none" fill-rule="evenodd"><mask id="b" fill="#fff"><use xlink:href="#a"/></mask><use fill="#B0DCE9" xlink:href="#a"/><g mask="url(#b)"><path d="M172.31 55.877c35.418 0 64.108 28.67 64.108 64.062 0 35.392-28.69 64.061-64.109 64.061s-64.108-28.669-64.108-64.061c0-35.393 28.69-64.061 64.108-64.061z" fill="#B0DCE9"/><path d="M211.195 69.036h-26.13c-2.725 0-4.954 2.228-4.954 4.95 0 2.723 2.23 4.95 4.954 4.95h36.45c-3.054-3.671-6.522-6.971-10.32-9.9zm-17.131 81.387H53.091c-4.458 0-8.091 3.63-8.091 8.126 0 4.455 3.633 8.085 8.091 8.085h140.973v-16.211z" fill="#D9EEF4"/><path d="M91.936 150.423h140.973c4.458 0 8.091 3.63 8.091 8.126 0 4.455-3.633 8.085-8.091 8.085H91.936v-16.211zm100.27-81.387h-38.72c-2.725 0-4.954 2.228-4.954 4.95 0 2.723 2.229 4.95 4.953 4.95h38.721v-9.9z" fill="#D9EEF4"/><path d="M180.194 130.086c-7.1 2.64-11.229 2.599-13.582.866-2.848-2.103-2.765-5.568-1.775-9.693.578-2.517 1.693-5.363 3.344-8.333a51.018 51.018 0 0 1 5.656-8.291l4.788 3.96c-2.064 2.475-3.756 4.95-4.995 7.301-1.32 2.475-2.229 4.785-2.724 6.806-.454 1.857-.702 3.218-.578 3.3.66.454 2.89.083 7.72-1.732l2.146 5.816z" fill="#E3BA8D"/><path d="M210.783 124.27c4.87 1.774 7.1 2.186 7.72 1.733.164-.124-.125-1.486-.579-3.3-.454-2.022-1.362-4.332-2.724-6.807-1.28-2.351-2.931-4.785-4.995-7.301l4.788-3.96a51.018 51.018 0 0 1 5.656 8.291c1.61 2.97 2.724 5.817 3.343 8.333.991 4.125 1.074 7.59-1.775 9.694-2.353 1.732-6.44 1.732-13.58-.867l2.146-5.816z" fill="#E0AF74"/><path fill="#819EA6" d="M192.495 151.701v8.457h-14.118v-13.613h.042l-1.032-7.59h17.172v12.746z"/><path fill="#628691" d="M196.54 151.701v8.457h14.119v-13.613h-.041l1.114-7.59H194.56v12.746z"/><path d="M212.434 113.875c0 2.599 0 5.198.041 7.755l.083 4.414v8.25c.041 4.083.041 8.126.041 12.21h-36.368v-20.46l.248-12.375-2.684 4.372-7.43-4.414 3.22-5.733c1.775-3.135 2.56-4.703 5.16-7.302 2.229-2.227 4.87-4.125 7.72-5.403 3.013-1.403 6.274-2.145 9.865-2.434 3.055-.248 6.234-.083 9 .66 5.82 1.526 13.044 6.022 15.975 11.22l5.077 8.992-7.43 4.414-2.56-4.166h.042z" fill="#E1574C"/><path d="M212.434 113.875c0 2.599 0 5.198.041 7.755l.083 4.414v8.25c.041 4.083.041 8.126.041 12.21h-18.081V92.59c2.353-.041 4.706.206 6.811.742 5.821 1.527 13.045 6.023 15.976 11.22l5.077 8.993-7.43 4.414-2.56-4.167.042.083z" fill="#CB4B40"/><path fill="#D8D9D9" d="M222.713 113.545l-7.926 4.703-1.073-1.857 7.925-4.744z"/><path d="M210.824 124.93c-2.105-.041-9.577 1.031-16.43 2.351v-6.27c6.935-1.32 14.2-2.31 16.554-2.227l-.165 6.146h.04z" fill="#E3BA8D"/><path d="M188.367 93.332c.372 3.012 2.931 5.322 5.986 5.322 3.137 0 5.532-2.475 5.862-5.528-2.477-.495-5.202-.577-7.843-.371a39.124 39.124 0 0 0-4.005.536v.041z" fill="#1E3654"/><path d="M189.73 181.649v-21.987h-8.546v23.76c2.931-.412 5.78-.99 8.546-1.773z" fill="#E3BA8D"/><path d="M207.893 173.275V159.91h-8.545v18.191a66.837 66.837 0 0 0 8.545-4.826z" fill="#E0AF74"/><path fill="#99B1B7" d="M177.882 160.157h15.109v-2.598h-15.109z"/><path fill="#72929C" d="M196.045 160.157h15.11v-2.598h-15.11z"/><path d="M190.927 86.32v13.819h7.306v-13.86a28.884 28.884 0 0 1-3.797.247c-1.198 0-2.353-.082-3.51-.206z" fill="#E0AF74"/><path d="M184.776 94.281a9.76 9.76 0 0 0 9.618 8.085c4.17 0 7.761-2.64 9.165-6.352.206-.495.371-1.155.495-1.733-.908-.33-1.816-.66-2.683-.866a13.425 13.425 0 0 0-1.239-.289c-.289 2.929-2.724 5.239-5.738 5.239a5.767 5.767 0 0 1-5.738-5.115 23.288 23.288 0 0 0-3.88 1.031z" fill="#D8D9D9"/><path d="M177.552 60.828a3.135 3.135 0 1 1 0 6.27 3.135 3.135 0 1 1 0-6.27zm34.717 0a3.135 3.135 0 1 0 0 6.27 3.135 3.135 0 1 0 0-6.27z" fill="#E1574C"/><path d="M216.356 38.676v13.819c2.435 0 4.458 1.98 4.458 4.455a4.464 4.464 0 0 1-4.458 4.455v10.972c0 12.046-9.867 21.904-21.92 21.904-12.054 0-21.92-9.859-21.92-21.904v-33.66h43.84v-.04z" fill="#E0AF74"/><path d="M194.436 94.24c-12.054 0-21.92-9.859-21.92-21.904V61.364c-2.436 0-4.459-1.98-4.459-4.455a4.464 4.464 0 0 1 4.459-4.455V38.635h21.92V94.24z" fill="#E3BA8D"/><path d="M172.474 61.405c-2.435 0-4.458-1.98-4.458-4.455a4.464 4.464 0 0 1 4.458-4.455v8.91z" fill="#E3BA8D"/><path d="M216.356 54.681a2.29 2.29 0 0 1 2.27 2.269 2.29 2.29 0 0 1-2.27 2.269V54.68zm-43.882 0a2.29 2.29 0 0 0-2.27 2.269 2.29 2.29 0 0 0 2.27 2.269V54.68z" fill="#B0774A"/><path d="M194.436 58.352a2.22 2.22 0 0 1 2.229 2.228c0 .248-.042.536-.124.742h-4.17a2.334 2.334 0 0 1-.123-.742 2.22 2.22 0 0 1 2.229-2.227h-.041z" fill="#E1574C"/><path d="M190.555 50.02c-2.188-3.176-7.224-2.805-8.958 0"/><path d="M202.774 50.721a3.135 3.135 0 1 0 0 6.27 3.135 3.135 0 1 0 0-6.27z" fill="#1E3654"/><path d="M203.765 52.825a.978.978 0 0 0-.99.99c0 .578.453.99.99.99.578 0 .99-.454.99-.99a.978.978 0 0 0-.99-.99z" fill="#FEFEFE"/><path d="M186.097 50.721a3.135 3.135 0 1 0 0 6.27 3.135 3.135 0 1 0 0-6.27z" fill="#1E3654"/><path d="M187.088 52.825a.978.978 0 0 0-.991.99c0 .578.454.99.99.99a.977.977 0 0 0 .991-.99.978.978 0 0 0-.99-.99z" fill="#FEFEFE"/><path d="M207.233 50.02c-2.188-3.176-7.225-2.805-8.958 0"/><path d="M217.222 61.322a6.163 6.163 0 0 1-.866.083v10.972c0 12.046-9.867 21.904-21.92 21.904-12.054 0-21.92-9.859-21.92-21.904V44.575h5.366v13.613c0 1.65 1.28 3.01 2.931 3.093h27.286c1.61-.123 2.89-1.443 2.931-3.052V44.575h5.367v16.747h.867-.042z" fill="#B0774A"/><path d="M194.436 82.938c-13.788 0-16.182-14.85-15.687-14.85a4.156 4.156 0 0 1 4.17-4.167h22.993a4.156 4.156 0 0 1 4.169 4.167c.124.948-2.27 14.85-15.687 14.85h.042z" fill="#1E3654"/><path d="M179.286 71.222c1.775 6.724 7.884 11.716 15.15 11.716-5.408-3.96-5.49-16.13 0-19.017H182.96a4.156 4.156 0 0 0-4.17 4.166c.083 1.032.248 2.104.537 3.136h-.041z" fill="#192D45"/><path d="M194.436 66.314h-11.518c-.99 0-1.775.784-1.775 1.774s.785 1.773 1.775 1.773h23.035c.99 0 1.775-.783 1.775-1.773 0-.99-.784-1.774-1.775-1.774h-11.517z" fill="#FEFEFE"/><path d="M191.794 49.319c.412.577.247 1.361-.33 1.773-.579.413-1.363.248-1.776-.33a3.402 3.402 0 0 0-1.197-1.113c-.784-.495-1.692-.701-2.6-.66-.909.041-1.776.289-2.477.784a3.463 3.463 0 0 0-.95.948 1.237 1.237 0 0 1-1.734.413 1.235 1.235 0 0 1-.412-1.733 5.221 5.221 0 0 1 1.692-1.732c1.073-.743 2.436-1.155 3.84-1.196 1.361-.042 2.806.288 4.003 1.03a6.374 6.374 0 0 1 1.94 1.857v-.041zm16.676 0c.414.577.249 1.361-.33 1.773-.577.413-1.362.248-1.774-.33a3.402 3.402 0 0 0-1.198-1.113c-.784-.495-1.692-.701-2.6-.66-.908.041-1.775.289-2.477.784a3.463 3.463 0 0 0-.95.948 1.237 1.237 0 0 1-1.733.413 1.235 1.235 0 0 1-.413-1.733 5.221 5.221 0 0 1 1.692-1.732c1.074-.743 2.436-1.155 3.84-1.196 1.362-.042 2.807.288 4.004 1.03a6.374 6.374 0 0 1 1.94 1.857v-.041z" fill="#B0774A"/><path d="M194.436 74.811c-3.262 0-5.862 1.238-5.862 2.723 0 1.485 2.642 2.722 5.862 2.722 3.26 0 5.861-1.237 5.861-2.722 0-1.485-2.642-2.723-5.861-2.723z" fill="#E1574C"/><path d="M183.826 20.815h21.301c3.55 0 6.729 1.65 8.793 4.207 2.766 3.424 2.394 6.064 2.394 10.107v9.446h-43.84V32.118c0-6.188 5.078-11.303 11.311-11.303h.041z" fill="#192D45"/><path d="M183.826 20.815h10.61v23.76h-21.92V32.118c0-6.188 5.077-11.303 11.31-11.303z" fill="#1E3654"/><path d="M197.201 20.815v-.907a.916.916 0 0 0-.908-.908h-3.715a.916.916 0 0 0-.908.908v.907h5.531zm-36.491 11.88v-1.65h44.458l11.188 11.138v2.392h-43.758z" fill="#E1574C"/><path fill="#CB4B40" d="M172.598 44.575l-11.889-11.88h43.758l11.889 11.88z"/><path d="M218.585 126.044h-4.789c-6.15 0-6.15-9.281 0-9.281h4.004c.042.164.083.33.083.536 0 .866-.702 1.526-1.527 1.526h-.042 6.853v3.424c-.083 2.681-2.312 3.754-4.582 3.754v.04z" fill="#E3BA8D"/><path d="M194.436 127.24c1.94.413 4.004.907 6.027 1.403 6.604 1.608 11.145 2.763 14.076 3.217l1.486-5.445c-4.417-1.361-8.751-2.475-14.076-3.795-2.519-.619-5.037-1.114-7.472-1.609v6.188l-.041.041zm-19.402-1.196c2.56 0 4.623-2.104 4.623-4.62 0-2.558-2.105-4.62-4.623-4.62h-1.899c-.372.701-.66 1.361-.95 2.021.083 0 .165.041.29.041h.04-.329a24.557 24.557 0 0 0-1.28 3.837c-.453 1.856-.701 3.217-.577 3.3.619.206 4.21.04 4.706.04z" fill="#E0AF74"/><path d="M194.436 127.24c-1.94.413-4.005.907-6.027 1.403-6.605 1.608-11.146 2.763-14.077 3.217l-1.486-5.445c4.417-1.361 8.751-2.475 14.076-3.795 2.519-.619 4.789-1.031 7.225-1.526l.247 6.146h.042z" fill="#E3BA8D"/><path d="M178.006 124.93c2.105-.041 9.577 1.031 16.43 2.351v-6.27c-6.936-1.32-14.201-2.31-16.554-2.227l.165 6.146h-.041z" fill="#E0AF74"/><path fill="#D8D9D9" d="M166.117 113.545l7.926 4.703 1.115-1.857-7.968-4.744z"/><path d="M186.757 107.811l.248.454c.206.371.372.701.454.949.041.082 0 .124-.082.165l-.826.453c-.083.042-.165.042-.206-.04-.124-.166-.207-.29-.29-.372l-.784.412.496.908 1.28-.66c.123-.041.164-.041.247.082l.495.95c.042.082.042.164-.082.247l-1.28.66.413.783a5.06 5.06 0 0 1 .537-.206c.082-.041.165 0 .206.083l.454.825c.041.082.041.123-.041.165l-2.6 1.402c-.083.041-.125.041-.166-.041l-.454-.825c-.041-.082-.041-.165.041-.206.124-.083.29-.206.413-.289l-1.527-2.846c-.124.082-.29.165-.413.288-.041.042-.083.042-.124.042a.089.089 0 0 1-.083-.083l-.454-.866c-.041-.083-.041-.165.042-.206.578-.495 1.362-1.032 2.353-1.526.454-.248.949-.496 1.486-.66.124-.042.206 0 .247.082v-.124zm2.064 2.351l-.082-.37c-.165-.95-.124-1.692.206-2.228.33-.536.908-.908 1.775-1.073.867-.165 1.569-.082 2.064.33.496.371.826 1.073 1.032 2.022l.083.37c.165.95.124 1.692-.206 2.228-.33.537-.909.908-1.776 1.073-.866.165-1.568.082-2.064-.33-.495-.371-.825-1.073-1.032-2.022zm3.22-.66l-.041-.288c-.124-.578-.248-.949-.372-1.155-.123-.206-.33-.248-.619-.206-.289.04-.454.206-.495.412-.041.248-.041.619.082 1.196l.042.289c.124.578.247.949.371 1.155.124.206.33.248.62.206.288-.041.454-.206.495-.412.041-.248 0-.619-.083-1.197zm2.89-.33l.041-.37c.124-.95.454-1.65.908-2.063.496-.413 1.156-.578 2.023-.413.867.124 1.486.454 1.858.99.33.537.454 1.279.33 2.228l-.041.371c-.124.949-.454 1.65-.908 2.063-.496.412-1.156.577-2.023.412-.867-.124-1.486-.454-1.858-.99-.33-.536-.454-1.279-.33-2.228zm3.261.413l.041-.289c.083-.577.083-.949.042-1.196-.083-.247-.248-.371-.537-.412-.289-.042-.495.04-.62.247-.123.206-.206.578-.288 1.155l-.041.289c-.083.577-.083.948-.042 1.196.083.248.248.371.537.412.289.042.495-.04.62-.247.123-.206.206-.578.288-1.155zm2.27 3.424c-.123-.083-.165-.207-.206-.289 0-.082.041-.248.124-.412l1.816-3.466c-.041 0-.082-.04-.124-.04-.04-.042-.123-.042-.165-.083-.041-.041-.124-.041-.124-.041-.123-.042-.123-.124-.082-.207l.454-.866c.041-.083.124-.124.206-.083.785.207 1.528.495 2.312.908.908.454 1.404 1.031 1.569 1.65.124.619 0 1.361-.496 2.228l-.165.288c-.206.413-.413.743-.66.99-.207.248-.496.454-.785.619-.288.165-.619.206-1.032.165-.371-.041-.784-.206-1.28-.454a6.472 6.472 0 0 1-1.361-.907zm3.674-3.259l-.288-.124-1.57 2.929a.798.798 0 0 0 .372.206c.248.124.454.124.66-.041.207-.165.414-.495.661-.99l.124-.248c.29-.536.454-.948.454-1.154 0-.248-.165-.413-.454-.578h.041zm-4.994 7.177l-.248-.495v.454h.082c.042 0 .042.041.042.041v.33c0 .042 0 .042-.042.042h-.908c-.041 0-.041 0-.041-.042v-.33c0-.04 0-.04.041-.04.042 0 .124 0 .165-.042v-1.155c-.082 0-.123 0-.165-.041-.041 0-.041-.041-.041-.041v-.33c0-.042 0-.042.041-.042h.908c.042 0 .042 0 .042.041v.33c0 .042 0 .042-.042.042h-.082v.371l.413-.742c0-.042.04-.083.082-.083h.578c.041 0 .041 0 .041.041v.33c0 .041 0 .041-.04.041-.042 0-.125.042-.166.042l-.33.536.289.536c.041.041.041.083.082.083.042 0 .083.041.124.041h.124c.041 0 .041 0 .041.041v.289c0 .041 0 .041-.041.082-.083.042-.165.042-.33.042a.778.778 0 0 1-.33-.083 1.139 1.139 0 0 1-.248-.33l-.041.041zm-1.404-1.567v.619c0 .041 0 .041-.041.041h-.33c-.042 0-.042 0-.042-.041 0-.083-.041-.165-.041-.289-.165 0-.29.041-.33.124a.887.887 0 0 0-.083.412v.124c0 .206.041.33.083.413.082.082.165.123.33.123s.33 0 .454-.041h.041v.33c0 .041 0 .041-.041.082-.124.042-.33.083-.578.083-.33 0-.578-.083-.702-.248-.124-.165-.206-.412-.206-.742v-.165c0-.33.082-.578.206-.743.124-.164.372-.247.702-.247.206 0 .413.041.578.083.041 0 .041.04.041.082h-.041zm-2.642 1.114v-.784h-.124c-.041 0-.041-.041-.041-.041v-.33c0-.041 0-.041.041-.041h.95c.04 0 .04 0 .04.04v.33c0 .042 0 .042-.04.042-.042 0-.124 0-.165.041v.702c0 .33-.083.536-.207.7-.124.166-.371.248-.66.248-.33 0-.537-.082-.66-.247a1.18 1.18 0 0 1-.207-.701v-.702c-.083 0-.124 0-.165-.041-.042 0-.042-.041-.042-.041v-.33c0-.041 0-.041.042-.041h.95c.04 0 .04 0 .04.04v.33c0 .042 0 .042-.04.042h-.125v.784c0 .165 0 .247.042.33.04.041.082.082.165.082.082 0 .123-.041.165-.082.041-.041.041-.165.041-.33zm-2.394-.289c.124 0 .165-.082.165-.248v-.04c0-.083 0-.125-.041-.166-.042-.041-.083-.041-.124-.041h-.124v.536h.124v-.041zm.536.33l.124.248c.042.04.042.082.083.082s.082.041.124.041h.082c.042 0 .042 0 .042.041v.29c0 .04 0 .04-.042.082-.041.041-.165.041-.247.041a.778.778 0 0 1-.33-.083.951.951 0 0 1-.248-.37l-.124-.248h-.124v.247h.124c.041 0 .041.041.041.041v.33c0 .042 0 .042-.041.042h-.95c-.041 0-.041 0-.041-.042v-.33c0-.04 0-.04.041-.04.042 0 .124 0 .165-.042v-1.155h-.165c-.041 0-.082 0-.082-.041v-.289c0-.041 0-.041.041-.041.289-.083.578-.083.95-.083.247 0 .454.041.577.165.124.124.166.248.166.495v.124c0 .289-.083.454-.248.578l.082-.083zm-1.733-1.237v.7c0 .041 0 .041-.042.041h-.33c-.041 0-.041 0-.041-.041s0-.124-.041-.248h-.124v1.114c.041 0 .124 0 .165.041.041 0 .041.041.041.041v.33c0 .042 0 .042-.041.042h-1.032c-.041 0-.041 0-.041-.042v-.33c0-.04 0-.04.04-.04.042 0 .125 0 .166-.042v-1.114h-.124c0 .083 0 .165-.041.248 0 .041-.041.041-.041.041h-.33c-.042 0-.042 0-.042-.041v-.702c0-.04.041-.04.083-.04h1.692c.041 0 .083 0 .083.04z" fill="#FEFEFE"/><path d="M161.287 83.886h-48.34a2.765 2.765 0 0 0-2.765 2.764c0 1.526 1.238 2.805 2.766 2.805h48.34c1.527 0 2.765-1.237 2.765-2.805a2.765 2.765 0 0 0-2.766-2.764z" fill="#D9EEF4"/><path fill="#87A4AB" d="M76.373 143.657h18.081v10.684H79.345zm49.785 0h18.08v10.684h-12.26zm-9.701 3.672h2.353c2.435 0 4.458 2.227 4.458 4.991s-1.982 4.991-4.458 4.991h-2.353c-2.436 0-4.459-2.227-4.459-4.991s1.982-4.991 4.459-4.991zm-52.137 0h2.352c2.436 0 4.459 2.227 4.459 4.991s-1.982 4.991-4.459 4.991H64.32c-2.435 0-4.458-2.227-4.458-4.991s1.981-4.991 4.458-4.991z"/><path fill="#87A4AB" d="M82.937 147.329h2.394v9.982h-2.394z"/><path d="M82.937 147.329c2.435 0 4.458 2.227 4.458 4.991s-1.981 4.991-4.458 4.991c-2.436 0-4.458-2.227-4.458-4.991s1.981-4.991 4.458-4.991z" fill="#87A4AB"/><path d="M85.331 147.329c2.436 0 4.458 2.227 4.458 4.991s-1.981 4.991-4.458 4.991c-2.435 0-4.458-2.227-4.458-4.991s1.981-4.991 4.458-4.991z" fill="#87A4AB"/><path d="M85.331 148.319c1.982 0 3.55 1.774 3.55 4.001 0 2.228-1.61 4.001-3.55 4.001-1.981 0-3.55-1.773-3.55-4.001 0-2.227 1.61-4.001 3.55-4.001z" fill="#FEFEFE"/><path d="M85.331 149.639c1.321 0 2.353 1.196 2.353 2.64 0 1.485-1.073 2.64-2.353 2.64-1.32 0-2.353-1.197-2.353-2.64 0-1.485 1.073-2.64 2.353-2.64z" fill="#87A4AB"/><path d="M85.331 150.299c.99 0 1.775.907 1.775 2.021 0 1.114-.784 2.021-1.775 2.021-.99 0-1.775-.907-1.775-2.021 0-1.114.784-2.021 1.775-2.021z" fill="#A1C0C6"/><path d="M85.661 150.876c.496 0 .909.454.909 1.031 0 .578-.413 1.032-.909 1.032-.495 0-.908-.454-.908-1.031 0-.578.413-1.032.908-1.032z" fill="#FEFEFE"/><path fill="#87A4AB" d="M135.115 147.329h2.353v9.982h-2.353z"/><path d="M135.115 147.329c2.436 0 4.459 2.227 4.459 4.991s-1.982 4.991-4.459 4.991c-2.435 0-4.458-2.227-4.458-4.991s1.982-4.991 4.458-4.991z" fill="#87A4AB"/><path d="M137.468 147.329c2.436 0 4.459 2.227 4.459 4.991s-1.982 4.991-4.459 4.991c-2.435 0-4.458-2.227-4.458-4.991s1.982-4.991 4.458-4.991z" fill="#87A4AB"/><path d="M137.468 148.319c1.982 0 3.55 1.774 3.55 4.001 0 2.228-1.61 4.001-3.55 4.001-1.981 0-3.55-1.773-3.55-4.001 0-2.227 1.61-4.001 3.55-4.001z" fill="#FEFEFE"/><path d="M137.468 149.639c1.321 0 2.353 1.196 2.353 2.64 0 1.485-1.073 2.64-2.353 2.64-1.32 0-2.353-1.197-2.353-2.64 0-1.485 1.074-2.64 2.353-2.64z" fill="#87A4AB"/><path d="M137.468 150.299c.991 0 1.775.907 1.775 2.021 0 1.114-.784 2.021-1.775 2.021-.99 0-1.775-.907-1.775-2.021 0-1.114.785-2.021 1.775-2.021z" fill="#A1C0C6"/><path d="M137.799 150.876c.495 0 .908.454.908 1.031 0 .578-.413 1.032-.908 1.032-.496 0-.909-.454-.909-1.031 0-.578.413-1.032.909-1.032z" fill="#FEFEFE"/><path d="M67.787 133.304h18.617c2.518-6.312 5.037-12.623 7.513-18.934.124-.289.207-.536.413-.784.33-.412.785-.742 1.28-.907.165-.042.371-.083.537-.124H78.23c-.537 0-1.073-.041-1.569.124-.495.165-.95.495-1.28.907-.206.248-.288.495-.412.784l-7.472 18.934h.289z" fill="#B4CDD2"/><path d="M93.959 114.37l-7.513 18.934-12.59 5.238v13.16c0 1.154.742 2.144 1.774 2.515v.124h1.899a1.595 1.595 0 0 0 1.527-1.609v-3.3a4.332 4.332 0 0 1 4.335-4.33h3.633a4.332 4.332 0 0 1 4.334 4.33v4.332c0 .206 0 .371-.041.577h38.473c.867 0 1.61-.701 1.61-1.609v-3.3a4.332 4.332 0 0 1 4.335-4.33h3.632a4.332 4.332 0 0 1 4.335 4.33l-.042 4.91h12.632v-41.787H97.18c-.537 0-1.074-.041-1.57.124a2.82 2.82 0 0 0-1.279.907c-.206.248-.289.495-.413.784h.042z" fill="#A1C0C6"/><path d="M73.855 148.236v3.507a2.66 2.66 0 0 0 2.642 2.64h.95c.866 0 1.61-.702 1.61-1.61v-3.299c0-.413.082-.867.165-1.238h-5.367zm69.805 6.147l.042-4.91c0-.412-.083-.866-.165-1.237h12.797v6.147H143.66zm-12.095-6.147a4.255 4.255 0 0 0-.165 1.238v3.3c0 .866-.702 1.608-1.61 1.608H91.317l.041-4.908c0-.413-.083-.867-.165-1.238h40.414-.042zm-40.785-12.54h14.283a1.7 1.7 0 0 0 1.693-1.691v-15.18a1.7 1.7 0 0 0-1.693-1.691H95.9c-2.147 5.445-4.335 10.931-6.481 16.376-.372.99.082 2.186 1.362 2.186z" fill="#93ADB3"/><path fill="#9EB5BB" d="M96.27 135.696h2.147l-7.059-7.053-.62 1.526z"/><path d="M106.756 138.996v1.485a1.55 1.55 0 0 1-1.528 1.526 1.55 1.55 0 0 1-1.527-1.526v-1.485a1.55 1.55 0 0 1 1.527-1.526 1.55 1.55 0 0 1 1.528 1.526zm45.862-21.821v23.306a1.55 1.55 0 0 1-1.527 1.526h-36.533a1.55 1.55 0 0 1-1.528-1.526v-23.306h39.588z" fill="#87A4AB"/><path d="M152.618 135.696v4.744a1.55 1.55 0 0 1-1.527 1.526h-36.533a1.55 1.55 0 0 1-1.528-1.526v-4.744h39.588z" fill="#B4CDD2"/><path d="M152.618 135.696v4.744a1.55 1.55 0 0 1-1.527 1.526h-18.246v-6.27h19.773z" fill="#B4CDD2"/><path fill="#E31E24" d="M113.03 117.175l7.926 7.879h-7.926z"/><path fill="#FEFEFE" d="M152.618 117.175l.785.784v7.095H113.03v-7.879z"/><path fill="#FEFEFE" d="M120.956 125.054h-7.926v-7.879z"/><path fill="#87A4AB" d="M136.767 117.175l7.926 7.879h-7.926l-7.926-7.879zm-15.811 0l7.885 7.879h-7.885l-7.926-7.879z"/><path fill="#FEC35D" d="M55.238 138.543l12.549-5.24h18.659l-12.59 5.24z"/><path fill="#B4CDD2" d="M55.238 138.543l12.549-5.24h18.659l-12.59 5.24z"/><path d="M55.238 138.543V151.7a2.66 2.66 0 0 0 2.642 2.64h18.617a2.66 2.66 0 0 1-2.642-2.64v-13.158H55.238z" fill="#B4CDD2"/><path d="M55.238 148.236v3.507a2.66 2.66 0 0 0 2.642 2.64h18.617a2.66 2.66 0 0 1-2.642-2.64v-3.507H55.238z" fill="#9EB5BB"/><path d="M57.59 142.626v1.485a1.55 1.55 0 0 0 1.528 1.526 1.55 1.55 0 0 0 1.527-1.526v-1.485a1.55 1.55 0 0 0-1.527-1.526 1.55 1.55 0 0 0-1.527 1.526zm10.899 0v1.485a1.55 1.55 0 0 0 1.527 1.526 1.55 1.55 0 0 0 1.527-1.526v-1.485a1.55 1.55 0 0 0-1.527-1.526 1.55 1.55 0 0 0-1.527 1.526z" fill="#FEFEFE"/><path fill="#93ADB3" d="M84.423 117.175l-5.903 14.85h6.894l5.903-14.85z"/><path d="M84.423 117.175l-.702 1.733 4.913 4.908 1.197-3.052a296.195 296.195 0 0 0-3.633-3.589h-1.816.04zm-1.28 3.259l-.619 1.526 4.912 4.909.62-1.526z" fill="#9EB5BB"/><path fill="#93ADB3" d="M75.837 117.175l-5.862 14.85h6.852l5.903-14.85z"/><path fill="#63ABB2" d="M78.561 118h2.147l-.826-.825h-2.147z"/><path d="M72.7 125.177l-.62 1.527.413.412.95.949 1.898 1.898a.773.773 0 0 0 1.073 0 .772.772 0 0 0 0-1.073l-2.972-2.97-.743-.743z" fill="#9EB5BB"/><path fill="#7DC5CB" d="M82.522 117.67l.205-.495h-.698z"/><path fill="#9EB5BB" d="M81.327 120.764l.578-1.568-2.023-2.021h-2.147z"/><path fill="#93ADB3" d="M152.618 125.054h-19.814v10.642h19.814z"/><path d="M148.655 125.054h-4.251c2.724 2.722 5.449 5.445 8.214 8.167v-4.29c-1.32-1.32-2.683-2.64-3.963-3.919v.042z" fill="#7DC5CB"/><path fill="#93ADB3" d="M152.618 125.054h-19.814v7.92h19.814z"/><path d="M132.804 125.714v2.145l.33.33.95.949 1.898 1.897a.773.773 0 0 0 1.074 0 .772.772 0 0 0 0-1.073l-2.973-2.97-.949-.948-.33-.33zm8.958-22.234H95.734a1.55 1.55 0 0 1-1.528-1.526 1.55 1.55 0 0 1 1.528-1.526h46.028a1.55 1.55 0 0 1 1.527 1.526 1.55 1.55 0 0 1-1.527 1.526z" fill="#9EB5BB"/><path d="M141.762 103.48v3.011c0 1.692-1.404 3.094-3.096 3.094H98.789c-1.693 0-3.096-1.402-3.096-3.094v-3.011h46.069z" fill="#B4CDD2"/><path d="M141.762 103.48v3.011c0 1.692-1.404 3.094-3.096 3.094H115.92c-1.693 0-3.096-1.402-3.096-3.094v-3.011h28.938z" fill="#A1C0C6"/><path d="M94.248 98.695v.206a1.55 1.55 0 0 0 1.527 1.526h46.028a1.55 1.55 0 0 0 1.527-1.526v-3.259c-.124-.742-.743-1.32-1.486-1.32H95.816c-.743 0-1.403.578-1.486 1.32v3.012l-.082.041z" fill="#87A4AB"/><path d="M111.38 98.695v.206a1.55 1.55 0 0 0 1.526 1.526h28.897a1.55 1.55 0 0 0 1.527-1.526v-3.259c-.124-.742-.743-1.32-1.486-1.32h-28.896c-.743 0-1.404.578-1.486 1.32v3.012l-.083.041z" fill="#87A4AB"/><path d="M141.762 94.364H95.734a1.55 1.55 0 0 1-1.528-1.526 1.55 1.55 0 0 1 1.528-1.527h46.028a1.55 1.55 0 0 1 1.527 1.526 1.55 1.55 0 0 1-1.527 1.527z" fill="#9EB5BB"/><path d="M141.762 94.364h-28.897a1.55 1.55 0 0 1-1.527-1.526 1.55 1.55 0 0 1 1.527-1.527h28.897a1.55 1.55 0 0 1 1.527 1.526 1.55 1.55 0 0 1-1.527 1.527z" fill="#93ADB3"/><path d="M118.768 74.481c12.715 0 22.994 7.549 22.994 16.83H95.734c0-9.281 10.32-16.83 22.993-16.83h.041z" fill="#B4CDD2"/><path d="M124.011 74.935c10.155 1.732 17.75 8.415 17.75 16.376h-28.896c0-7.961 4.747-14.644 11.146-16.376z" fill="#A1C0C6"/><path d="M141.762 103.48h-28.897a1.55 1.55 0 0 1-1.527-1.526 1.55 1.55 0 0 1 1.527-1.526h28.897a1.55 1.55 0 0 1 1.527 1.526 1.55 1.55 0 0 1-1.527 1.526z" fill="#93ADB3"/><path d="M130.864 82.319a.828.828 0 0 0 .825-.825.828.828 0 0 0-.825-.825.828.828 0 0 0-.826.825c0 .453.371.825.826.825z" fill="#D9DADA"/><path d="M97.426 124.022l.95.95 1.899 1.897a.773.773 0 0 0 1.073 0 .772.772 0 0 0 0-1.073l-2.972-2.97-.95-.948-1.816-1.816-.62 1.527 2.436 2.433z" fill="#9EB5BB"/><path d="M101.142 88.465a.828.828 0 0 0 .825-.825.828.828 0 0 0-.825-.825.828.828 0 0 0-.826.825c0 .454.371.825.826.825zm10.98-6.27a.828.828 0 0 0 .826-.825.828.828 0 0 0-.826-.825.828.828 0 0 0-.825.825c0 .454.371.825.825.825zm17.173 6.848a.828.828 0 0 0 .825-.826.828.828 0 0 0-.825-.825.828.828 0 0 0-.826.826c0 .453.372.825.826.825zm-6.151-7.879a.828.828 0 0 0 .826-.825.828.828 0 0 0-.826-.825.828.828 0 0 0-.826.825c0 .453.372.825.826.825zm15.934 9.075a.828.828 0 0 0 .826-.825.828.828 0 0 0-.826-.825.828.828 0 0 0-.825.825c0 .454.371.825.825.825zm-19.525-2.475a.828.828 0 0 0 .825-.825.828.828 0 0 0-.825-.825.828.828 0 0 0-.826.825c0 .454.372.825.826.825zm-10.816 1.65a.828.828 0 0 0 .826-.825.828.828 0 0 0-.826-.825.828.828 0 0 0-.825.825c0 .454.371.825.825.825zm7.678-12.416a.828.828 0 0 0 .826-.826.828.828 0 0 0-.826-.825.828.828 0 0 0-.825.826c0 .453.371.825.825.825zm-11.971 6.146a.828.828 0 0 0 .826-.825.828.828 0 0 0-.826-.825.828.828 0 0 0-.826.825c0 .453.372.825.826.825z" fill="#D9DADA"/><path d="M102.751 135.696h2.147c-3.385-3.382-8.339-8.25-11.724-11.632l-.578 1.485-.577 1.485c2.89 2.846 5.738 5.734 8.627 8.621h2.147l-.042.041zm37.937-10.642h-4.004c3.591 3.63 8.339 8.58 10.444 10.642h4.293l-10.733-10.642z" fill="#9EB5BB"/><path d="M140.688 125.054h-4.004c2.436 2.475 5.408 5.527 7.72 7.92h4.251l-7.967-7.92z" fill="#9EB5BB"/><path d="M62.42 141.554v3.671a.414.414 0 0 1-.826 0v-3.671a.414.414 0 0 1 .826 0zm5.12 0v3.671a.414.414 0 0 1-.826 0v-3.671a.413.413 0 0 1 .825 0zm-1.693 0v3.671a.414.414 0 0 1-.826 0v-3.671a.414.414 0 0 1 .826 0zm-1.693 0v3.671a.414.414 0 0 1-.826 0v-3.671a.414.414 0 0 1 .826 0zm54.614-28.958h-10.32l-3.013-3.052H132.1l-3.013 3.052z" fill="#87A4AB"/><path d="M133.217 80.627c1.692-.247 3.096-1.856 3.343-3.34.248 1.484 1.651 3.093 3.344 3.34-1.693.248-3.096 1.857-3.344 3.342-.247-1.485-1.651-3.094-3.343-3.341zM104.94 95.725v.949a.089.089 0 0 1-.083.082h-.578a.089.089 0 0 1-.083-.082c-.041-.124-.041-.207-.041-.289h-.537v.619h.867c.083 0 .124.041.124.082v.66c0 .083-.041.083-.124.083h-.867v.536c.083 0 .165 0 .33.041.042 0 .083.041.083.083v.577a.089.089 0 0 1-.082.083h-1.775a.089.089 0 0 1-.083-.083v-.577c0-.041.041-.083.083-.083.082 0 .206-.041.33-.041v-1.939c-.083 0-.207 0-.29.041h-.082s-.041-.04-.041-.082v-.578c0-.04.041-.082.083-.082a9.385 9.385 0 0 1 1.692-.165c.33 0 .66 0 .99.041.083 0 .125.041.125.124h-.042zm.412 1.774v-.248c0-.577.124-1.031.372-1.32.247-.288.66-.412 1.197-.412.536 0 .95.123 1.197.412.248.289.371.701.371 1.32v.248c0 .577-.123 1.031-.371 1.32-.248.288-.66.412-1.197.412s-.95-.123-1.197-.412c-.248-.289-.372-.701-.372-1.32zm1.982-.041v-.165c0-.33-.042-.578-.083-.702-.041-.123-.165-.206-.33-.206s-.29.082-.33.206a2.45 2.45 0 0 0-.083.702v.164c0 .33.041.578.083.702.04.123.165.206.33.206s.289-.082.33-.206a2.45 2.45 0 0 0 .083-.702zm1.61.04v-.247c0-.577.123-1.031.371-1.32.248-.288.66-.412 1.197-.412s.95.123 1.197.412c.248.289.372.701.372 1.32v.248c0 .577-.124 1.031-.372 1.32-.247.288-.66.412-1.197.412-.536 0-.95-.123-1.197-.412-.248-.289-.371-.701-.371-1.32zm1.981-.04v-.165c0-.33-.041-.578-.083-.702-.04-.123-.165-.206-.33-.206s-.289.082-.33.206a2.45 2.45 0 0 0-.083.702v.164c0 .33.042.578.083.702.041.123.165.206.33.206s.29-.082.33-.206a2.45 2.45 0 0 0 .083-.702zm2.105 1.65c-.082 0-.165-.042-.165-.124-.041-.041-.041-.124-.041-.248v-2.351h-.289c-.083 0-.124-.041-.124-.083v-.577c0-.041.041-.082.083-.082.454-.124.95-.165 1.486-.165.619 0 1.032.123 1.28.412.247.289.371.742.371 1.32v.206c0 .289-.041.495-.083.702a1.278 1.278 0 0 1-.247.536 1.127 1.127 0 0 1-.496.371c-.206.082-.495.124-.784.124-.371 0-.702-.041-.99-.083v.041zm1.032-2.764h-.165v2.021h.248c.165 0 .289-.082.33-.206a2.45 2.45 0 0 0 .083-.702v-.164c0-.372-.042-.62-.083-.743-.082-.124-.206-.206-.413-.206zm6.647-.66v1.196a.089.089 0 0 1-.083.083h-.578a.089.089 0 0 1-.083-.083c0-.082-.04-.248-.04-.412h-.207v1.938c.082 0 .206.041.33.041.041 0 .083.042.083.083v.578a.089.089 0 0 1-.083.082h-1.775a.089.089 0 0 1-.083-.082v-.578c0-.041.042-.082.083-.082.083 0 .206-.042.33-.042v-1.939h-.206c0 .124 0 .29-.041.413a.089.089 0 0 1-.083.083h-.578a.089.089 0 0 1-.083-.083v-1.196c0-.083.042-.083.124-.083h2.931c.083 0 .124.041.124.083h-.082zm2.972 2.103l.206.413a.57.57 0 0 0 .124.165c.041.041.124.041.206.041h.124c.041 0 .083.041.083.083v.495c0 .041 0 .082-.042.124a1.105 1.105 0 0 1-.454.082c-.247 0-.412-.041-.578-.165-.165-.124-.289-.33-.412-.619l-.207-.454h-.165v.454s.083 0 .248.041c.041 0 .082.042.082.083v.578a.089.089 0 0 1-.082.082h-1.61a.089.089 0 0 1-.083-.082v-.578c0-.041.042-.082.083-.082.082 0 .206-.042.33-.042v-2.021h-.289c-.082 0-.124-.041-.124-.083v-.536c0-.041.042-.082.083-.082.454-.124 1.032-.165 1.651-.165.454 0 .784.082.99.288.207.165.331.454.331.825v.207c0 .454-.124.784-.413.99l-.082-.041zm-.908-.577c.206 0 .288-.124.288-.412v-.083c0-.124-.04-.248-.082-.289-.041-.082-.124-.082-.206-.082h-.248v.907h.248v-.041zm4.086.495v-1.32c-.082 0-.124 0-.206-.041a.089.089 0 0 1-.083-.083v-.577c0-.041.042-.083.083-.083h1.651c.041 0 .083.041.083.083v.577a.089.089 0 0 1-.083.083c-.082 0-.206.041-.33.041v1.237c0 .537-.124.95-.33 1.238-.248.289-.62.412-1.156.412-.537 0-.95-.123-1.156-.412-.248-.289-.33-.66-.33-1.237v-1.238c-.124 0-.207 0-.33-.041a.089.089 0 0 1-.083-.083v-.577c0-.041.041-.083.082-.083h1.652c.04 0 .082.041.082.083v.577a.089.089 0 0 1-.082.083c-.042 0-.124.041-.207.041v1.32c0 .248.042.454.083.536.082.083.165.165.289.165.124 0 .247-.041.289-.165.082-.082.082-.288.082-.536zm4.582-1.897v1.072a.089.089 0 0 1-.082.083h-.578a.089.089 0 0 1-.083-.083c-.04-.165-.04-.289-.04-.495-.29 0-.496.082-.579.206-.082.124-.165.372-.165.702v.206c0 .33.041.577.165.701s.29.206.578.206c.29 0 .537 0 .784-.041h.042s.041.041.041.083v.536c0 .041-.041.082-.083.124-.247.123-.577.164-1.032.164-.577 0-.99-.123-1.238-.412s-.372-.701-.372-1.279v-.288c0-.578.124-1.032.372-1.28.248-.288.66-.412 1.238-.412.372 0 .702.041.991.165.083.041.083.083.083.124l-.042-.082zm2.436 2.722l-.454-.866v.742h.165c.041 0 .083.041.083.083v.577a.089.089 0 0 1-.083.083h-1.61a.089.089 0 0 1-.082-.083v-.577c0-.041.04-.083.082-.083.083 0 .206-.041.33-.041v-2.021c-.124 0-.206 0-.33-.041a.089.089 0 0 1-.082-.083v-.578c0-.04.04-.082.082-.082h1.61c.041 0 .083.041.083.082v.578a.089.089 0 0 1-.083.082h-.165v.62l.702-1.28c.041-.082.082-.123.165-.123h.99c.042 0 .083.041.083.082v.578a.089.089 0 0 1-.082.082c-.083.041-.207.041-.33.041l-.537.95.495.907a.57.57 0 0 0 .124.165c.041.041.124.041.206.041h.207c.04 0 .082.041.082.083v.536c0 .041-.041.082-.082.124-.124.04-.33.082-.537.082-.206 0-.413-.041-.578-.165-.165-.124-.289-.289-.454-.536v.041z" fill="#FEFEFE"/><path fill="#87A4AB" d="M152.618 117.175l7.885 7.879h-7.885l-7.925-7.879z"/><path d="M214.209 93.456c2.435-.33 4.54-2.722 4.871-4.867.33 2.186 2.436 4.537 4.871 4.867-2.435.33-4.54 2.723-4.871 4.868-.33-2.186-2.436-4.538-4.871-4.868zm-63.242 17.985c3.261-.454 6.027-3.588 6.481-6.476.454 2.888 3.22 6.022 6.481 6.476-3.26.454-6.027 3.589-6.48 6.477-.455-2.888-3.22-6.023-6.482-6.477z" fill="#FEFEFE"/></g></g></svg>