<svg width="22" height="15" viewBox="0 0 22 15" xmlns="http://www.w3.org/2000/svg"><title>Group 3</title><path d="M7.367 9.174c1.294.043 2.592.023 3.886.043-.571 2.893-4.476 3.831-6.541 1.942-2.125-1.658-2.024-5.293.184-6.833 1.544-1.243 3.74-.935 5.283.14a24.336 24.336 0 0 0 1.722-1.798C10.617 1.635 9.041.9 7.364.978 3.865.86.648 3.95.59 7.478c-.224 2.883 1.657 5.711 4.313 6.731 2.646 1.027 6.038.327 7.728-2.07 1.115-1.513 1.355-3.462 1.226-5.293-2.167-.016-4.33-.013-6.493-.006-.003.778 0 1.556.003 2.334zM20.018 6.83c-.006-.65-.01-1.304-.013-1.955h-1.93c-.006.65-.012 1.301-.015 1.955-.649.003-1.294.007-1.94.013v1.945l1.94.02c.006.65.006 1.301.013 1.952h1.932c.004-.65.007-1.301.013-1.955.65-.007 1.294-.01 1.94-.017V6.843c-.646-.006-1.294-.006-1.94-.013" fill-rule="evenodd"/></svg>