<svg width="36" height="34" viewBox="0 0 36 34" xmlns="http://www.w3.org/2000/svg"><title>0.5-g+</title><g transform="translate(.731)" fill="none" fill-rule="evenodd"><ellipse fill="#DEE0DF" cx="17.359" cy="17" rx="17.359" ry="17"/><path d="M15.714 18.265c.998.032 1.999.017 2.997.032-.44 2.186-3.453 2.895-5.046 1.467-1.64-1.252-1.562-3.999.142-5.162 1.191-.939 2.885-.707 4.076.106.468-.427.906-.884 1.328-1.359-.99-.78-2.206-1.336-3.5-1.277-2.7-.089-5.181 2.246-5.227 4.911-.172 2.179 1.279 4.315 3.328 5.086 2.042.776 4.659.247 5.962-1.564.861-1.143 1.046-2.615.946-3.999-1.671-.012-3.34-.01-5.009-.005-.002.588 0 1.176.003 1.764zm9.76-1.771c-.005-.492-.008-.986-.01-1.477h-1.489c-.005.491-.01.983-.012 1.477-.5.002-.999.005-1.496.01v1.47l1.496.014c.005.492.005.984.01 1.475h1.49l.01-1.477 1.497-.013v-1.47c-.498-.004-.998-.004-1.496-.01" fill="#000"/></g></svg>