<svg width="41" height="38" viewBox="0 0 41 38" xmlns="http://www.w3.org/2000/svg"><title>1D92356E-7BEB-4505-8093-7B3D1DEC2648</title><path d="M26.081 12.338c.185.655.545 1.116.585 1.172.16.194.4.324.665.324a.862.862 0 0 0 .664-1.407s-.184-.25-.272-.566c-.104-.364-.04-.639.216-.898.697-.703.921-1.617.649-2.57a3.413 3.413 0 0 0-.593-1.149.845.845 0 0 0-.656-.315.862.862 0 0 0-.857.865c0 .21.072.404.2.55 0 0 .184.234.272.542.104.355.04.614-.216.873-.705.687-.929 1.609-.657 2.579zm-7.062-4.01a5.21 5.21 0 0 0 .8 1.706c.16.21.4.34.681.34a.862.862 0 0 0 .68-1.383c0-.008-.36-.494-.52-1.157-.2-.792-.04-1.471.48-2.061.914-1.043 1.202-2.32.841-3.695a5.311 5.311 0 0 0-.8-1.706.843.843 0 0 0-.681-.34.862.862 0 0 0-.68 1.383c0 .008.36.493.52 1.156.2.792.04 1.472-.48 2.062-.914 1.043-1.202 2.32-.841 3.695zm-6.607 4.01c.184.655.545 1.116.585 1.172.16.194.4.324.664.324a.862.862 0 0 0 .665-1.407s-.184-.25-.272-.566c-.104-.364-.04-.639.216-.898.697-.703.92-1.617.649-2.57a3.398 3.398 0 0 0-.593-1.157.845.845 0 0 0-.657-.315.862.862 0 0 0-.857.865c0 .21.073.404.2.55 0 0 .185.234.273.541.104.356.04.615-.216.874-.697.695-.93 1.617-.657 2.587zM41 37.11a.862.862 0 0 0-.857-.864h-.857c0-9.67-7.167-17.65-16.432-18.823.128-.307.2-.654.2-1.01a2.572 2.572 0 0 0-2.562-2.587 2.572 2.572 0 0 0-2.563 2.587c0 .356.073.703.2 1.01-9.248 1.173-16.423 9.153-16.423 18.823h-.85A.862.862 0 0 0 0 37.11c0 .477.384.865.857.865h39.286A.862.862 0 0 0 41 37.11zM20.5 15.549c.472 0 .857.388.857.865a.862.862 0 0 1-.857.865.862.862 0 0 1-.857-.865c0-.477.385-.865.857-.865zm0 6.04a.862.862 0 0 0 .857-.866.862.862 0 0 0-.857-.865c-8.96 0-16.232 7.333-16.232 16.38H3.42c0-2.328.449-4.584 1.338-6.71a17.134 17.134 0 0 1 3.66-5.482 16.952 16.952 0 0 1 5.429-3.695A16.85 16.85 0 0 1 20.492 19c2.306 0 4.54.453 6.646 1.35 2.034.873 3.86 2.11 5.43 3.695a17.134 17.134 0 0 1 3.66 5.482 17.298 17.298 0 0 1 1.337 6.71H5.982c0-1.98.384-3.897 1.137-5.708a14.459 14.459 0 0 1 3.115-4.657 14.523 14.523 0 0 1 4.612-3.145 14.537 14.537 0 0 1 5.654-1.14z" fill="#FFF" fill-rule="evenodd"/></svg>