<svg width="31" height="36" viewBox="0 0 31 36" xmlns="http://www.w3.org/2000/svg"><title>34FE1732-4987-480D-A19F-D3ED0EB9AAA3</title><path d="M.715.415a.817.817 0 0 0-.715.8v29.6c0 .44.358.8.795.8h16.017c1.271 2.36 3.775 4 6.637 4 4.173 0 7.551-3.4 7.551-7.6 0-4.2-3.378-7.6-7.551-7.6-.12 0-.278 0-.398.04V1.215a.8.8 0 0 0-.795-.8H.715zm.875 1.6h19.872v18.68a7.704 7.704 0 0 0-4.69 3.72H4.689c-.436.04-.794.4-.754.84.04.44.397.8.834.76h11.407c-.16.64-.279 1.32-.279 2 0 .68.12 1.36.279 2H1.59v-28zm3.1 4.4c-.437.04-.795.4-.755.84.04.44.397.8.834.76h13.513a.8.8 0 0 0 0-1.6H4.69zm0 6c-.437.04-.795.4-.755.84.04.44.397.8.834.76h13.513a.8.8 0 0 0 0-1.6H4.69zm0 6c-.437.04-.795.4-.755.84.04.44.397.8.834.76h13.513a.8.8 0 0 0 0-1.6H4.69zm18.759 3.6c3.298 0 5.961 2.68 5.961 6s-2.663 6-5.961 6c-3.299 0-5.962-2.68-5.962-6s2.663-6 5.962-6zm2.742 2.76a.678.678 0 0 0-.517.28l-3.815 4.2-1.391-1.4a.765.765 0 0 0-1.113 0 .777.777 0 0 0 0 1.12l.04.04 1.987 2c.318.32.835.32 1.113 0l4.372-4.8a.777.777 0 0 0-.04-1.12.819.819 0 0 0-.636-.32z" fill="#FFF" fill-rule="evenodd"/></svg>