<svg width="36" height="41" viewBox="0 0 36 41" xmlns="http://www.w3.org/2000/svg"><title>F08FE143-2DF0-44ED-A990-6C8A71E516F6</title><path d="M18.137.427a.932.932 0 0 0-.82.911v5.467c0 .501.41.911.91.911.502 0 .912-.455.912-.911V1.338c0-.5-.455-.91-.911-.91h-.091zM9.023 4.072c-.638.045-1.048.865-.684 1.412l2.279 3.644c.228.456.866.593 1.276.365.41-.228.547-.911.228-1.321L9.843 4.527c-.137-.273-.456-.455-.82-.455zm18.273 0a.866.866 0 0 0-.729.455L24.29 8.172c-.32.41-.183 1.047.227 1.32.41.274 1.049.092 1.276-.364l2.279-3.644c.182-.273.182-.638 0-.957a.846.846 0 0 0-.775-.455zm-9.068 5.512c-6.015 0-10.937 4.692-10.937 10.478 0 3.052 1.504 5.42 2.871 7.47 1.367 2.005 2.552 3.782 2.597 5.695v4.647a2.742 2.742 0 0 0 2.735 2.733h5.468a2.742 2.742 0 0 0 2.734-2.733v-4.647c.046-1.913 1.23-3.644 2.598-5.649 1.367-2.05 2.87-4.373 2.87-7.47 0-5.832-4.921-10.524-10.936-10.524zm-16.633.41a.92.92 0 0 0-.82.729c-.091.364.09.82.455 1.002l4.74 2.733c.41.228 1.002.091 1.23-.319.228-.41.091-1.002-.319-1.23l-4.74-2.733a.876.876 0 0 0-.546-.182zm33.13 0a.735.735 0 0 0-.411.137l-4.74 2.733c-.41.228-.592.82-.318 1.23.228.41.82.592 1.23.319l4.74-2.734c.364-.182.546-.683.455-1.047-.091-.365-.501-.638-.957-.638zm-16.497 1.412c5.058 0 9.114 3.918 9.114 8.656 0 2.46-1.23 4.419-2.598 6.469-1.185 1.776-2.506 3.598-2.825 5.83h-2.78v-9.293c1.048-.364 1.823-1.412 1.823-2.596a2.742 2.742 0 0 0-2.734-2.734 2.742 2.742 0 0 0-2.734 2.734c0 1.184.774 2.186 1.822 2.596v9.248h-2.825c-.319-2.232-1.64-4.054-2.825-5.831-1.367-2.004-2.598-3.963-2.598-6.469.046-4.738 4.102-8.61 9.16-8.61zm-16.952 8.2c-.456 0-.911.456-.866.957 0 .455.456.91.957.865h3.19c.501 0 .911-.41.911-.91 0-.502-.455-.912-.911-.912H1.276zm16.952 0c.501 0 .911.41.911.911 0 .501-.41.911-.911.911a.914.914 0 0 1-.912-.91c0-.547.41-.912.912-.912zm13.58 0c-.456 0-.912.456-.866.957 0 .455.455.91.957.865h3.19c.5 0 .911-.41.911-.91 0-.502-.456-.912-.911-.912h-3.281zM6.334 26.394a.735.735 0 0 0-.41.137l-4.74 2.733c-.41.228-.546.82-.318 1.23.228.41.82.592 1.23.319l4.74-2.734c.364-.182.546-.683.455-1.047-.137-.365-.547-.638-.957-.638zm23.65 0c-.41 0-.774.319-.865.683-.091.365.091.82.456 1.002l4.739 2.734c.41.228 1.002.09 1.23-.32.228-.41.091-1.001-.319-1.23l-4.739-2.732a.919.919 0 0 0-.501-.137zm-15.402 7.79h7.291v3.644c0 .501-.41.911-.911.911h-5.468a.914.914 0 0 1-.912-.91v-3.645z" fill="#FFF" fill-rule="evenodd"/></svg>