<svg width="40" height="36" viewBox="0 0 40 36" xmlns="http://www.w3.org/2000/svg"><title>E91067E4-BAF8-4C27-B387-F06516D7DD1F</title><path d="M31.727.422c-.136 0-.227.045-.363.135l-4.546 2.7c-.863.54-1.59 1.215-2.136 2.295-.455.9-.818 2.115-1.273 3.915a.346.346 0 0 1-.182.09 29.265 29.265 0 0 0-3.272 2.16c-3.773-4.275-8.41-6.885-12.5-6.795-1.182.045-2.319.27-3.364.81-2.727 1.44-4.046 4.5-4 8.01 0 3.51 1.318 7.56 3.773 11.475 2.5 3.915 5.727 6.93 9.045 8.685 3.318 1.755 6.773 2.25 9.5.81 2.727-1.44 4.046-4.5 4-8.01 0-2.52-.682-5.265-1.954-8.1a28.52 28.52 0 0 0 3.09-1.575c2.182.585 3.5.855 4.637.81 1.136-.045 1.954-.45 2.818-.945l4.545-2.7c.41-.27.591-.81.319-1.215-.091-.135-.182-.27-.364-.315l-4.818-2.61-2-3.195v-5.58c0-.495-.41-.9-.91-.9h-.045c.046.045 0 .045 0 .045zm-.818 2.52v3.555c-1.682.45-3.5.99-5.364 1.845.273-.855.5-1.53.728-1.98.409-.765.727-1.08 1.454-1.53l3.182-1.89zM7.41 6.767c3.227-.09 7.5 2.205 11.046 6.12-1 .81-1.91 1.665-2.682 2.52-1.637-1.71-3.5-2.79-5.318-2.79a3.89 3.89 0 0 0-1.728.405c-1.409.765-1.954 2.385-1.909 4.095.046 1.71.727 3.69 1.91 5.58 1.181 1.89 2.681 3.375 4.227 4.275 1.545.9 3.227 1.26 4.636.495 1.409-.765 1.954-2.385 1.909-4.095-.045-.9-.227-1.89-.59-2.925 1.226-.27 2.5-.675 3.817-1.17 1.182 2.61 1.773 5.22 1.818 7.425 0 3.06-1.045 5.355-3.045 6.39-2 1.035-4.818.765-7.818-.81-2.955-1.575-6.046-4.41-8.364-8.055-2.318-3.645-3.5-7.425-3.5-10.53 0-3.06 1.046-5.355 3.046-6.39.772-.315 1.59-.54 2.545-.54zm24 1.485l1.5 2.385a29.629 29.629 0 0 1-6.09 4.77c-4.183 2.43-8.5 3.51-11.592 3.825 1.5-2.52 4.637-5.67 8.864-8.1 2.5-1.485 5-2.295 7.318-2.88zm2.864 3.645l3 1.62-3.137 1.89c-.772.45-1.181.675-1.954.675-.546 0-1.318-.09-2.455-.36a35.431 35.431 0 0 0 4.546-3.825zm-10.182.72c-.773 0-1.364.585-1.364 1.35 0 .765.591 1.35 1.364 1.35.773 0 1.364-.585 1.364-1.35 0-.765-.591-1.35-1.364-1.35zm-13.682 1.8c1.046 0 2.682.9 4.136 2.385-.818 1.08-1.409 2.115-1.772 3.105-.182.45.09.99.545 1.17.091.045.227.045.318.045 1 0 2.182-.09 3.5-.315.364.945.546 1.845.591 2.61.046 1.305-.318 2.115-.954 2.475-.637.315-1.682.225-2.91-.495-1.227-.72-2.545-2.025-3.59-3.69-1.046-1.665-1.546-3.375-1.637-4.68-.045-1.305.319-2.115.955-2.475.227-.09.5-.135.818-.135z" fill="#FFF" fill-rule="evenodd"/></svg>