<svg width="160" height="160" viewBox="0 0 160 160" xmlns="http://www.w3.org/2000/svg"><title>061E015D-3526-4FB6-877A-27CD9E80797B</title><g fill="none" fill-rule="evenodd"><path d="M79.548 0v.066c-.056 0-.122 0-.177-.01-4.535.11-8.1 4.145-8.1 8.777 0 4.642 3.576 8.469 8.133 8.81.044 0 .1.012.144.012v.044h-.144c-4.37 0-8.684-4.003-8.684-8.822 0-4.73 4.138-8.822 8.42-8.822h.099c.099 0 .21-.055.309-.055" fill="#F34B43"/><path d="M147.961 121.676c0 .022.144.033.144.055-.1.166-.21.331-.32.497a9.96 9.96 0 0 1-.717.893c-.133.143-.265.276-.398.408a2.569 2.569 0 0 1-.408.375 8.374 8.374 0 0 1-4.988 2.018c-.154.022-.308.022-.463.022-.199 0-.386-.011-.585-.022a8.605 8.605 0 0 1-3.972-1.28 8.746 8.746 0 0 1-1.81-1.455 14.44 14.44 0 0 1-.54-.617 6.419 6.419 0 0 1-.453-.662 7.096 7.096 0 0 1-.397-.695c-1.27-2.536-1.18-5.679.309-8.348.01-.022.254-.033.254-.055v-.01c0-.1-.11-.188-.056-.287 5.981-9.76 8.762-20.964 8.762-32.476 0-34.207-27.123-62.195-62.169-62.338H80.1c-.187 0-.375-.033-.551-.044-.045 0-.1-.011-.144-.011-4.557-.342-8.132-4.169-8.132-8.811 0-4.632 3.564-8.668 8.099-8.778a.95.95 0 0 0 .177.011c.022 0 .055-.01.077-.01h.309c45.054 0 79.768 35.97 79.768 79.97 0 14.743-4.016 29.112-11.74 41.64v.01z" fill="#F34B43"/><path d="M79.548.055h.077c-.022 0-.055.011-.077.011v-.01zm60.678 125.867a8.398 8.398 0 0 1-4.016-1.28 8.45 8.45 0 0 1-.938-.672 8.09 8.09 0 0 1-.839-.783 9.224 9.224 0 0 1-.53-.617c.177.209.354.419.541.617a8.746 8.746 0 0 0 1.81 1.456 8.605 8.605 0 0 0 3.972 1.279" fill="#F34B43"/><path d="M79.548.066c-.056 0-.122 0-.177-.01h.254c-.022 0-.055.01-.077.01m68.7 121.665c-14.687 23.974-40.143 38.277-68.237 38.277C35.862 160.008 0 124.146 0 80.026 0 36.225 35.432.056 79.14.056h.231c-4.535.11-8.1 4.145-8.1 8.777 0 4.642 3.576 8.469 8.133 8.81.044 0 .1.012.144.012.176.01.364.044.551.044h-.695C45.308 17.931 17.7 45.863 17.7 80.026c0 34.383 27.995 62.349 62.4 62.349 21.771 0 41.556-11.028 53.043-29.51a8.756 8.756 0 0 0-.088 8.348c.11.243.243.474.397.695.132.231.287.441.452.662.177.209.354.419.541.617a8.746 8.746 0 0 0 1.81 1.456 8.605 8.605 0 0 0 3.972 1.279c.199.01.386.022.585.022.155 0 .309 0 .463-.022a8.033 8.033 0 0 0 4.988-2.018c.144-.1.276-.232.408-.375.144-.121.276-.254.398-.408.253-.276.496-.574.717-.893.11-.166.22-.331.32-.497 0-.022-.144-.033-.144-.055v-.01l.287.065z" fill="#FCB853"/><path d="M63.107 72.615c0 .994-.184 1.9-.553 2.72a5.638 5.638 0 0 1-1.62 2.093c-.72.574-1.566 1.014-2.537 1.32-.97.304-2.153.457-3.547.457-1.586 0-2.947-.132-4.081-.396-1.135-.265-2.058-.561-2.769-.89v-4.415h.492c.748.474 1.625.884 2.632 1.23 1.007.347 1.925.52 2.755.52.492 0 1.028-.043 1.606-.13.58-.087 1.064-.276 1.456-.567.31-.228.559-.508.746-.841.186-.333.28-.805.28-1.415 0-.602-.132-1.064-.397-1.388a2.235 2.235 0 0 0-1.052-.704c-.438-.155-.962-.242-1.573-.26a54.83 54.83 0 0 0-1.613-.027h-.875V66.34h.807c.62 0 1.19-.027 1.709-.082.52-.055.961-.164 1.326-.328a2.05 2.05 0 0 0 .854-.725c.205-.31.308-.73.308-1.258 0-.41-.096-.745-.287-1.005a2.029 2.029 0 0 0-.711-.608 3.534 3.534 0 0 0-1.149-.328 9.25 9.25 0 0 0-1.12-.082c-.502 0-1.012.06-1.532.178a12.13 12.13 0 0 0-1.517.45 9.394 9.394 0 0 0-1.204.568c-.419.233-.729.408-.93.526h-.423v-4.36c.702-.302 1.647-.591 2.837-.869A15.956 15.956 0 0 1 55.068 58c1.213 0 2.263.105 3.152.314.888.21 1.647.515 2.276.916.693.429 1.212.973 1.559 1.634.346.661.52 1.406.52 2.236 0 1.157-.336 2.171-1.006 3.042-.67.87-1.551 1.433-2.645 1.688v.191c.483.073.955.196 1.415.37.46.173.909.455 1.347.847.41.356.75.814 1.018 1.374.269.56.403 1.228.403 2.003zm18.567 1.422h-2.748v4.799H73.99v-4.799h-8.955v-3.8l8.791-11.813h5.1v11.949h2.748v3.664zm-7.684-3.664v-6.932l-5.154 6.932h5.154zm21.574-5.756c0 2.26-.503 3.94-1.51 5.038-1.007 1.099-2.468 1.648-4.382 1.648-1.969 0-3.455-.547-4.457-1.64-1.003-1.095-1.504-2.758-1.504-4.991 0-2.233.51-3.899 1.531-4.997 1.021-1.099 2.498-1.648 4.43-1.648 1.969 0 3.443.55 4.423 1.648.98 1.098 1.47 2.746 1.47 4.942zm10.582-6.193L95.482 78.78h-3.609l10.664-20.357h3.61zm8.176 14.096c0 2.26-.503 3.94-1.51 5.038-1.008 1.098-2.468 1.647-4.382 1.647-1.97 0-3.455-.547-4.457-1.64-1.003-1.094-1.504-2.758-1.504-4.99 0-2.234.51-3.9 1.531-4.998 1.02-1.098 2.497-1.647 4.43-1.647 1.968 0 3.443.549 4.423 1.647.98 1.098 1.47 2.746 1.47 4.943zm-22.654-7.862c0-.574-.025-1.098-.075-1.572-.05-.474-.148-.87-.294-1.19a1.572 1.572 0 0 0-.615-.717c-.265-.16-.602-.24-1.012-.24-.438 0-.78.08-1.026.24-.246.16-.446.403-.601.731-.137.292-.232.688-.287 1.19a14.503 14.503 0 0 0-.082 1.572c0 .674.018 1.21.054 1.606.037.397.137.777.301 1.142.137.319.34.563.609.731.269.169.613.253 1.032.253.41 0 .747-.082 1.012-.246.264-.164.469-.41.615-.738.127-.292.22-.665.28-1.121.06-.456.089-1.003.089-1.64zm18.758 7.903c0-.575-.025-1.099-.075-1.573-.05-.474-.149-.87-.294-1.19a1.572 1.572 0 0 0-.616-.717c-.264-.16-.601-.24-1.011-.24-.438 0-.78.08-1.026.24-.246.16-.446.403-.601.731-.137.292-.233.689-.287 1.19a14.503 14.503 0 0 0-.082 1.572c0 .675.018 1.21.054 1.607.037.396.137.777.301 1.141.137.32.34.563.608.732.27.168.613.253 1.033.253.41 0 .747-.082 1.011-.246.265-.165.47-.41.616-.739.127-.291.22-.665.28-1.12.06-.457.089-1.003.089-1.641zM56.262 92.946c0 .569-.101 1.106-.304 1.613a3.796 3.796 0 0 1-.839 1.296 4.471 4.471 0 0 1-1.59 1.011c-.61.229-1.38.343-2.312.343H49.74v4.878H48V89h3.287c.774 0 1.433.064 1.978.193a4.221 4.221 0 0 1 1.441.624c.486.334.867.758 1.143 1.27.275.513.413 1.133.413 1.86zm-1.81.044c0-.45-.078-.844-.234-1.178a1.963 1.963 0 0 0-.707-.817 2.744 2.744 0 0 0-.963-.387 6.862 6.862 0 0 0-1.366-.114H49.74v5.23h1.187c.703 0 1.271-.057 1.705-.172a2.299 2.299 0 0 0 1.08-.61c.259-.264.446-.551.563-.862a3.08 3.08 0 0 0 .176-1.09zm11.416 4.193c0 1.652-.398 2.928-1.195 3.827-.797.9-1.858 1.35-3.182 1.35-1.365 0-2.439-.465-3.221-1.394-.782-.928-1.173-2.19-1.173-3.783 0-1.641.403-2.915 1.208-3.824.806-.908 1.868-1.362 3.186-1.362 1.324 0 2.385.453 3.182 1.358.797.905 1.195 2.181 1.195 3.828zm-1.705 0c0-1.272-.231-2.217-.694-2.835-.463-.618-1.122-.927-1.978-.927-.861 0-1.525.309-1.99.927-.466.618-.7 1.563-.7 2.835 0 1.23.234 2.163.7 2.799.465.636 1.129.954 1.99.954.85 0 1.508-.312 1.973-.936.466-.625.7-1.563.7-2.817zm7.304 5.124a5.31 5.31 0 0 1-1.855-.312 3.81 3.81 0 0 1-1.45-.945c-.404-.422-.718-.954-.94-1.595-.223-.642-.334-1.396-.334-2.264 0-.86.115-1.605.347-2.232.231-.627.54-1.154.927-1.582a3.843 3.843 0 0 1 1.446-.989 4.947 4.947 0 0 1 1.859-.347 5.31 5.31 0 0 1 1.56.229 8.3 8.3 0 0 1 1.34.527v1.854h-.096a5.766 5.766 0 0 0-1.125-.738 4.408 4.408 0 0 0-.81-.308 3.289 3.289 0 0 0-.896-.131c-.855 0-1.542.323-2.06.97-.52.648-.778 1.564-.778 2.747 0 1.16.25 2.064.751 2.712.501.647 1.197.971 2.087.971a3.65 3.65 0 0 0 1.539-.334c.486-.223.917-.51 1.292-.861h.096v1.854c-.164.076-.369.169-.615.277a4.608 4.608 0 0 1-.668.242 8.867 8.867 0 0 1-.756.189c-.223.044-.51.066-.861.066zm8.305 0a5.31 5.31 0 0 1-1.854-.312 3.81 3.81 0 0 1-1.45-.945c-.405-.422-.718-.954-.94-1.595-.223-.642-.335-1.396-.335-2.264 0-.86.116-1.605.348-2.232.231-.627.54-1.154.927-1.582a3.843 3.843 0 0 1 1.446-.989 4.947 4.947 0 0 1 1.858-.347c.54 0 1.06.076 1.56.229a8.3 8.3 0 0 1 1.34.527v1.854h-.096a5.766 5.766 0 0 0-1.125-.738 4.408 4.408 0 0 0-.808-.308 3.289 3.289 0 0 0-.897-.131c-.855 0-1.542.323-2.06.97-.52.648-.779 1.564-.779 2.747 0 1.16.25 2.064.752 2.712.5.647 1.196.971 2.087.971.54 0 1.052-.111 1.538-.334.487-.223.917-.51 1.292-.861h.097v1.854c-.164.076-.37.169-.615.277a4.608 4.608 0 0 1-.668.242 8.867 8.867 0 0 1-.756.189c-.223.044-.51.066-.862.066zm12.156-.22h-1.635v-7.321l-4.623 7.32h-1.494V92.27h1.635v7.207l4.57-7.207h1.547v9.817zm9.5 0h-1.652v-3.894h-1.634l-2.91 3.894h-1.924l3.155-4.043c-.815-.24-1.41-.598-1.789-1.072-.378-.475-.567-1.11-.567-1.908 0-.486.107-.912.321-1.278a2.9 2.9 0 0 1 .866-.928c.293-.199.662-.347 1.107-.443a7.063 7.063 0 0 1 1.495-.145h3.533v9.817zm-1.652-5.194v-3.305h-1.793c-.38 0-.68.02-.9.061-.22.041-.433.12-.638.238a1.25 1.25 0 0 0-.479.523 1.58 1.58 0 0 0-.162.707c0 .322.036.585.11.787.073.202.206.388.4.558.205.176.455.291.75.347.297.056.62.084.972.084h1.74zm11.795 5.194h-1.652v-4.421h-4.447v4.42h-1.653V92.27h1.653v3.972h4.447V92.27h1.652v9.817z" fill="#000"/></g></svg>