<svg width="114" height="104" viewBox="0 0 114 104" xmlns="http://www.w3.org/2000/svg"><title>2F9EFBCE-621B-4A4F-AD3F-D3F0B67278E8</title><g fill="none" fill-rule="evenodd"><path d="M57.076 103.873c22.165 0 40.218-1.973 40.218-4.428 0-2.429-18.078-4.428-40.218-4.428-22.165 0-40.217 1.974-40.217 4.428 0 2.455 18.052 4.428 40.217 4.428z" fill="#EDEDED"/><ellipse fill="#B1DDE9" cx="55.68" cy="59.237" rx="41.309" ry="41.17"/><path d="M88.23 35.198H41.486a4.36 4.36 0 0 1-4.367-4.352 4.36 4.36 0 0 1 4.367-4.353h46.742a4.36 4.36 0 0 1 4.367 4.353 4.36 4.36 0 0 1-4.367 4.352zm-46.286 8.35H18.23a1.86 1.86 0 0 1-1.854-1.847 1.86 1.86 0 0 1 1.854-1.847h23.714a1.86 1.86 0 0 1 1.853 1.847 1.86 1.86 0 0 1-1.853 1.847zM86.071 97.7h-27.7a1.31 1.31 0 0 1-1.32-1.317c0-.733.584-1.315 1.32-1.315h27.7c.737 0 1.32.582 1.32 1.315 0 .709-.583 1.316-1.32 1.316z" fill="#D9EEF4"/><path d="M18.23 40.31c1.625 3.593 4.443 6.174 7.566 7.996 4.52 2.657 9.597 3.643 12.593 3.643v4.429c-3.554 0-9.546-1.164-14.827-4.251-3.834-2.227-7.313-5.466-9.37-9.996l4.038-1.822z"/><path d="M100.112 42.131c-2.057 4.53-5.535 7.769-9.369 9.996-5.281 3.087-11.273 4.25-14.828 4.25V51.95c2.996 0 8.049-1.012 12.594-3.643 3.123-1.822 5.94-4.429 7.566-7.997l4.037 1.822z" fill="#EFC27F"/><path d="M16.275 62.704c2.793 1.872 6.144 2.834 9.47 3.264 5.002.658 9.953.101 13.05-.48l.813 4.351c-3.402.633-8.861 1.24-14.421.506-3.936-.506-7.947-1.695-11.375-3.972l2.463-3.67z" fill="#E8A955"/><path d="M45.245 70.75l-5.46.962v-.025c-2.69.48-6.728.885-11.044.708-3.351-.126-6.88-.607-10.13-1.62l2.437-7.742c2.54.81 5.332 1.164 7.998 1.29 3.732.152 7.16-.202 9.42-.607v.025l6.779-1.19 1.853 3.214-1.853 4.985z" fill="#CC4538"/><path fill="#5E838F" d="M45.245 75.482h11.882v5.567H45.245z"/><path fill="#7F9DA6" d="M57.152 75.482h11.882v5.567H57.152z"/><path d="M47.098 81.05c-.863 0-1.676 0-2.463.024-.685.026-1.37.051-2.107.102-2.895.202-4.596 1.012-5.205 1.948-.076.127-.127.228-.127.278 0 .026.025.102.102.178.584.733 2.132 1.24 4.747 1.113.153 0 .381-.025.711-.05.102 0 .356-.026.737-.051 4.087-.304 9.292-1.114 14.091-2.202 4.342-.961 8.302-2.125 10.79-3.315l2.387 4.985c-2.869 1.367-7.261 2.683-11.958 3.72-5.104 1.139-10.613 2-14.904 2.328-.127 0-.406.025-.838.05-.178 0-.457.026-.787.051-4.596.203-7.744-1.189-9.343-3.188a5.689 5.689 0 0 1-1.32-3.416c-.052-1.19.279-2.404.99-3.492 1.447-2.252 4.646-4.15 9.495-4.504.66-.05 1.447-.076 2.361-.101.813-.026 1.676-.026 2.616-.026l.025 5.567z" fill="#5E838F"/><path d="M67.156 75.533c.94 0 1.803 0 2.615.025.914.025 1.701.05 2.361.101 4.875.33 8.049 2.252 9.496 4.505.711 1.088 1.041 2.302.99 3.491a5.689 5.689 0 0 1-1.32 3.417c-1.6 1.973-4.748 3.39-9.343 3.188-4.266-.203-10.08-1.038-15.539-2.202-5.053-1.088-9.851-2.48-12.923-3.947l2.386-4.985c2.64 1.265 7.008 2.505 11.68 3.517 5.204 1.114 10.689 1.898 14.65 2.1 2.615.127 4.163-.379 4.747-1.113.051-.076.102-.126.102-.177 0-.076-.025-.152-.127-.278-.61-.937-2.31-1.746-5.205-1.949a66.262 66.262 0 0 0-2.107-.1c-.787-.026-1.6-.026-2.463-.026v-5.567z" fill="#7F9DA6"/><path fill="#FFF" d="M36.11 92.496l5.84-15.054 2.501.97-5.84 15.055z"/><path d="M44.432 78.418l2.514.961-2.133 5.491-2.844 7.338c-.457.835-1.675 1.392-2.361 1.392-.686 0-.686-.076-.99-.177l-.026.05 5.84-15.055z" fill="#1B606D"/><path d="M79.8 82.896c.432 2.404-2.158 4.833-7.693 4.58-2.336-.1-5.18-.43-8.15-.885" stroke="#7F9DA6" stroke-width="5.526"/><path fill="#FFF" d="M69.847 78.44l2.509-.974 5.82 15.005-2.508.973z"/><path fill="#1B606D" d="M45.245 78.746l4.214 1.62-2.158 5.49-5.51 6.605z"/><path d="M35.343 85.553c1.167 1.24 3.453 2.075 6.83 1.923.482-.025 1.015-.05 1.548-.1 4.926-.38 11.476-1.468 17.113-2.885 1.752-.43 6.093-1.873 7.566-2.354" stroke="#5E838F" stroke-width="5.526"/><path fill="#1B606D" d="M69.847 78.418l-5.027 1.948 2.26 5.137 5.357 6.908.685.126z"/><path d="M69.847 78.418l-2.513.961 2.132 5.491 2.844 7.338c.457.835 1.676 1.392 2.361 1.392.686 0 .686-.076.99-.177l.026.05-5.84-15.055z" fill="#1B606D"/><ellipse fill="#EFC27F" transform="rotate(-12.427 100.472 41.88)" cx="100.472" cy="41.879" rx="2.463" ry="2.455"/><path fill="#7F9DA6" d="M93.891 23.103l-3.732 9.033-2.057 4.985 5.028 2.05 4.9 2.024 4.9 2 5.027 2.049 2.057-4.985.838-2.024 2.894-7.01-9.927-4.074z"/><path fill="#E35447" d="M112.02 31.858l-.686 1.645-7.87 3.036-5.028-1.974-6.754 2.581-1.828-.759 8.531-3.264 5.002 2.075z"/><ellipse fill="#E8A955" transform="rotate(-34.678 98.113 67.84)" cx="98.113" cy="67.84" rx="2.463" ry="2.455"/><path d="M99.249 64.55c-7.617 5.112-18.662 4.15-24.171 3.139" stroke="#E8A955" stroke-width="4.421"/><path d="M69.035 70.75l5.459.962v-.025c2.69.48 6.728.885 11.044.708 3.352-.126 6.88-.607 10.13-1.62l-2.437-7.742c-2.539.81-5.332 1.164-7.998 1.29-3.732.152-7.16-.202-9.42-.607v.025l-6.778-1.19-1.854 3.214 1.854 4.985z" fill="#CC4538"/><path d="M45.245 50.178h5.94c0 3.239 2.641 5.845 5.866 5.845 3.25 0 1.447-5.845 4.697-5.845h7.287c6.195 0 10.79.33 16.757-2.53 2.64-1.266 5.205-3.037 7.033-5.491l6.525 4.858c-2.717 3.619-6.347 6.2-10.054 7.97-7.059 3.366-12.974 3.29-20.261 3.29v17.207h-.026c-3.833.86-7.794 1.29-11.882 1.29s-8.049-.455-11.882-1.29h-.026l.026-25.304z" fill="#E35447"/><path d="M45.245 50.178h7.286c0 2.708 1.803 5.845 4.52 5.845h.076v20.75c-4.088 0-8.049-.456-11.882-1.29h-.026V58.274c-7.236 0-13.355 0-20.26-3.29-3.708-1.77-7.339-4.326-10.055-7.97l6.525-4.858c1.828 2.454 4.392 4.225 7.033 5.49 5.814 2.759 10.689 2.531 16.783 2.531z" fill="#E35447"/><path fill="#7F9DA6" d="M98.614 54.758h15.234V76.14H98.614V65.436z"/><ellipse fill="#EFC27F" transform="rotate(-77.579 13.822 41.898)" cx="13.822" cy="41.898" rx="2.463" ry="2.455"/><path fill="#FFF" d="M.254 30.517l9.851-4.049 9.877-4.023 3.021 7.363 3.047 7.364-9.851 4.048-9.852 4.024-3.046-7.364z"/><path fill="#012C4E" d="M52.531 50.178h8.455v3.619h-8.1z"/><path d="M59.285 46.332v9.691H55.02v-9.716c.71.1 1.472.177 2.209.177.685 0 1.37-.05 2.056-.152z" fill="#E8A955"/><path d="M61.875 28.948c6.347 0 11.527-5.162 11.527-11.488S68.222 5.972 61.875 5.972c-6.348 0-11.527 5.162-11.527 11.488s5.154 11.488 11.527 11.488zM41.131 24.9a5.984 5.984 0 0 1-2.666-4.96v-7.693h2.666V24.9z" fill="#FDC300"/><path d="M68.908 16.093v17.84c0 7.616-6.246 13.841-13.888 13.841-7.643 0-13.889-6.225-13.889-13.841v-17.84h27.777z" fill="#EFC27F"/><path d="M55.02 47.774c-7.643 0-13.889-6.225-13.889-13.841V14.22h9.547v24.9c.559 4.529 2.006 6.958 4.342 8.653z" fill="#E8A955"/><path d="M64.642 36.64c-1.117 4.251-5.001 7.415-9.622 7.415-5.46 0-9.928-4.454-9.928-9.894v-2.1h17.214a2.634 2.634 0 0 1 2.641 2.631c-.025.658-.152 1.316-.305 1.948z" fill="#012C4E"/><path d="M64.642 36.64a9.957 9.957 0 0 1-9.267 7.39 6.948 6.948 0 0 0 2.691-5.517c0-2.935-1.828-5.466-4.392-6.503h8.632a2.634 2.634 0 0 1 2.641 2.631c-.025.709-.152 1.367-.305 2z" fill="#00203D"/><path d="M57.229 39.07c1.624-.127 2.665.506 2.36 1.391-.33.911-1.878 1.721-3.503 1.848-1.625.126-2.666-.507-2.361-1.392.33-.886 1.904-1.72 3.504-1.847z" fill="#E35447"/><path d="M46.286 33.528h16.02c.61 0 1.118.506 1.118 1.113 0 .608-.508 1.114-1.118 1.114H47.15l-.863-2.227z" fill="#FFF"/><path d="M43.543 16.093c4.469 0 8.074-3.593 8.074-8.046 0-.709-.101-1.417-.279-2.075h-4.011a2.996 2.996 0 0 1-2.996-2.986c0-1.139.634-2.126 1.574-2.632A8.25 8.25 0 0 0 43.518 0c-4.469 0-8.074 3.593-8.074 8.047a8.086 8.086 0 0 0 8.1 8.046z" fill="#FD2"/><path d="M51.389 9.945c.152-.608.228-1.24.228-1.898 0-.709-.101-1.417-.279-2.075h-4.011a2.996 2.996 0 0 1-2.996-2.986c0-1.139.634-2.126 1.574-2.632-2.108.785-3.631 2.834-3.631 5.213 0 3.087 2.514 5.592 5.611 5.592 1.32 0 2.54-.455 3.504-1.214z" fill="#FDC300"/><path d="M66.09 16.093H43.543V11.16h18.078c2.488.127 4.469 2.303 4.469 4.934z" fill="#FD2"/><path d="M61.418 5.972H47.885v5.187H70.28a10.151 10.151 0 0 0-8.861-5.187zm4.672 10.121h2.818v11.539H66.09z" fill="#FDC300"/><path d="M68.908 30.44a2.823 2.823 0 0 0 2.818-2.808 2.823 2.823 0 0 0-2.818-2.809 2.823 2.823 0 0 0-2.818 2.81 2.823 2.823 0 0 0 2.818 2.808z" fill="#EFC27F"/><path d="M68.908 29.074c.787 0 1.447-.632 1.447-1.442 0-.784-.635-1.442-1.447-1.442-.813 0-1.447.632-1.447 1.442 0 .785.66 1.442 1.447 1.442z" fill="#E8A955"/><path d="M62.078 30.39a2.542 2.542 0 0 0 2.539-2.53 2.542 2.542 0 0 0-2.539-2.53 2.542 2.542 0 0 0-2.539 2.53 2.542 2.542 0 0 0 2.539 2.53z" fill="#E35447"/><path d="M53.572 19.914c1.88-2.505 4.596-1.594 5.662 0" stroke="#E8A955" stroke-width="1.537"/><g transform="translate(54.334 20.243)"><ellipse fill="#012C4E" cx="2.082" cy="3.872" rx="1.98" ry="3.669"/><ellipse fill="#FFF" cx="2.717" cy="3.872" rx=".635" ry="1.189"/></g><g transform="translate(44.432 21.509)"><path d="M1.549 6.275c.787 0 1.422-1.366 1.422-3.036S2.336.202 1.549.202C.762.202.127 1.57.127 3.24s.635 3.036 1.422 3.036z" fill="#012C4E"/><ellipse fill="#FFF" cx="2.006" cy="3.239" rx=".457" ry=".987"/></g><path d="M50.653 27.202a1.39 1.39 0 0 1 1.396 1.392c0 .177-.025.329-.076.48h-2.64a1.469 1.469 0 0 1-.077-.48 1.39 1.39 0 0 1 1.397-1.392z" fill="#E35447"/><path d="M60.63 16.093v-1.366l5.46 1.265v5.036c0-2.632-1.98-4.808-4.47-4.935h-.99z" fill="#FD2"/><ellipse fill="#E8A955" transform="rotate(-55.322 16.186 67.862)" cx="16.186" cy="67.862" rx="2.463" ry="2.455"/><path fill="#7F9DA6" d="M15.665 54.758h-9.8L.457 60.173V76.14h15.208V65.436z"/><path fill="#1B606D" d="M99.959 56.099h12.543v4.884H99.959zm6.932 6.2h5.586v5.567h-5.586z"/><path fill="#E35447" d="M106.891 69.232h5.586v5.567h-5.586z"/><path fill="#1B606D" d="M99.959 62.299h5.586v5.567h-5.586zm0 6.933h5.586v5.567h-5.586z"/><path fill="#7F9DA6" d="M107.703 64.703h3.987v.784h-3.987zm-5.357-1.594h.813v1.594h1.6v.784h-1.6v1.594h-.813v-1.594h-1.574v-.784h1.574zm5.357 8.501h3.987v-.784h-3.987zm0 1.595h3.987v-.785h-3.987zm-3.808-2.885l.558.557-1.142 1.139 1.142 1.113-.558.582-1.143-1.139-1.117 1.139-.584-.582 1.143-1.113-1.143-1.14.584-.556 1.117 1.139z"/><g transform="translate(94.704 59.465)" fill="#EFC27F"><ellipse transform="rotate(-36.755 3.632 3.592)" cx="3.632" cy="3.592" rx="2.463" ry="2.455"/><ellipse transform="rotate(-36.755 8.205 2.095)" cx="8.205" cy="2.095" rx="1.016" ry="1.012"/><path d="M1.396 3.112h6.729V1.113L3.63 1.14z"/></g><path fill="#E35447" d="M5.865 54.758L.457 60.173h5.408zm87.798-27.579l.955-2.325 2.317.953-.955 2.324z"/><path fill="#7F9DA6" d="M.259 30.543l19.725-8.11 6.063 14.744-19.726 8.11z"/><path fill="#E35447" d="M.254 30.517l.558 1.366 12.898 3.315 6.83-11.412-.558-1.341z"/><path fill="#5E838F" d="M6.144 44.814l5.992-10.02.787.202-5.992 10.02-.584.228zm8.404-11.008l11.324 2.91.178.456-.61.253-11.298-2.935z"/><path fill="#5E838F" d="M.812 31.883L13.94 35.25l-.457.708-12.29-3.188z"/><path fill="#5E838F" d="M13.304 35.907l7.236-12.121.356.91L14.09 36.11z"/><path fill="#1B606D" d="M111.334 33.503l-4.113 9.995-15.539-6.352 6.754-2.58 5.027 1.973z"/><g transform="translate(92.927 33.655)" fill="#F1CD9F"><ellipse transform="rotate(-12.421 3.122 6.174)" cx="3.122" cy="6.174" rx="2.463" ry="2.455"/><ellipse transform="rotate(-12.421 3.63 1.417)" cx="3.631" cy="1.417" rx="1.016" ry="1.012"/><path d="M1.752 8.021l2.767-6.123-1.802-.81L.889 5.162z"/></g><path fill="#1B606D" d="M7.21 56.1v5.414H1.804V74.8H14.32V56.1z"/><g transform="translate(9.902 59.465)" fill="#EFC27F"><ellipse transform="rotate(-53.245 6.036 3.64)" cx="6.036" cy="3.64" rx="2.463" ry="2.455"/><ellipse transform="rotate(-53.249 1.46 2.148)" cx="1.459" cy="2.148" rx="1.016" ry="1.012"/><path d="M8.277 3.163H1.55V1.164l4.494.025z"/></g><path fill="#1B606D" d="M.812 31.883l12.898 3.315.127 1.442-12.39-3.213zm14.066 1.645l10.867 2.809.305.835-1.016.43-10.892-2.86z"/><path fill="#1B606D" d="M12.898 35.527l-5.433 9.261-1.118.456-.33-.734 5.713-9.692zm1.396 1.215L13 36.412l7.54-12.626.61 1.493z"/><g transform="translate(15.234 33.655)" fill="#F1CD9F"><ellipse transform="rotate(-77.573 2.992 6.178)" cx="2.992" cy="6.178" rx="2.463" ry="2.455"/><ellipse transform="rotate(-77.579 2.482 1.404)" cx="2.482" cy="1.404" rx="1.016" ry="1.012"/><path d="M4.367 8.021L1.6 1.898l1.828-.81 1.828 4.074z"/></g><path d="M52.531 50.178l4.596 5.947 4.62-5.947-.278 26.443a61 61 0 0 1-4.342.177c-1.498 0-2.97-.05-4.443-.177l-.153-26.443z" fill="#FFF"/><path d="M60.91 50.178h.838l-.05 3.72c-1.067 1.417-2.616 2.15-4.52 2.15h-.356c-2.615-.151-4.316-3.213-4.316-5.845h1.143a3.478 3.478 0 0 0 3.478 3.467c1.904 0 3.478-1.543 3.478-3.467l.305-.025z" fill="#FFF"/><path fill="#CC4538" d="M52.531 50.178h-1.523l-1.549 4.023 1.549 2-1.549 2.024 3.072 10.07zm9.242 0h1.524l1.548 4.023-1.548 2 1.548 2.024-3.072 10.07z"/><path d="M23.435 78.746c1.422-.202 2.64-1.568 2.843-2.834.204 1.266 1.397 2.632 2.844 2.834-1.422.203-2.64 1.57-2.844 2.835-.228-1.291-1.421-2.632-2.843-2.835zm50.348-36.412c1.421-.203 2.64-1.569 2.843-2.834.203 1.265 1.397 2.631 2.844 2.834-1.422.202-2.64 1.569-2.844 2.834-.203-1.265-1.422-2.632-2.843-2.834z" fill="#FFF"/></g></svg>