<svg width="472" height="560" viewBox="0 0 472 560" xmlns="http://www.w3.org/2000/svg" xmlns:xlink="http://www.w3.org/1999/xlink"><title>086A87DD-F4B5-46C8-B87A-34A7E145F086</title><defs><rect id="a" width="560" height="560" rx="4"/></defs><g transform="translate(-88)" fill="none" fill-rule="evenodd"><mask id="b" fill="#fff"><use xlink:href="#a"/></mask><g mask="url(#b)"><path fill="#F8B947" d="M497.728 441.158h183.354L653.09 595.19H525.812z"/><path d="M735.9 30.975c-82.271-82.235-215.489-82.235-297.76 0-82.27 82.234-82.27 215.573 0 297.808 82.271 82.234 215.669 82.234 297.94 0 82.09-82.415 82.09-215.574-.18-297.808z" fill="#56B363"/><path d="M793.777 139.031c11.251-1.979 19.893-10.076 22.773-20.423-6.3-8.458-17.372-13.226-28.534-11.247-11.251 1.98-19.892 10.077-22.773 20.424 6.211 8.547 17.282 13.226 28.534 11.246zM677.302-10.412c-78.13-37.249-174.533-23.393-239.251 41.387-64.719 64.78-78.67 161.05-41.406 239.146 78.31 37.248 174.623 23.303 239.251-41.387 64.719-64.6 78.67-160.96 41.406-239.146z" fill="#70BC7D"/><path d="M380.263 220.546c11.251-1.98 22.053 2.7 28.534 11.247-3.06 10.257-11.612 18.264-22.773 20.423-11.252 1.98-22.053-2.699-28.534-11.246 3.06-10.347 11.522-18.264 22.773-20.424" fill="#93CA9F"/><path d="M416.898 206.06c11.251-1.979 19.892-10.076 22.773-20.423-6.301-8.457-17.373-13.226-28.534-11.246-11.251 1.979-19.893 10.076-22.773 20.423 6.3 8.368 17.372 13.226 28.534 11.247m-29.254-94.381c10.711 3.779 17.732 13.406 19.172 24.023a29.332 29.332 0 0 1-29.793 6.118c-10.712-3.78-17.733-13.406-19.173-24.023 7.561-7.198 19.083-9.897 29.794-6.118zm72.279 26.272c10.712 3.779 17.733 13.406 19.173 24.022a29.332 29.332 0 0 1-29.794 6.118c-10.711-3.778-17.732-13.405-19.173-24.022 7.561-7.198 19.173-10.077 29.794-6.118" fill="#56B363"/><path d="M426.349 117.528c10.711 3.779 22.233 1.08 29.794-6.118-1.44-10.527-8.461-20.064-19.173-24.023-10.711-3.778-22.233-1.08-29.794 6.119 1.44 10.616 8.462 20.243 19.173 24.022m249.873 162.13c7.38 8.637 18.632 12.146 29.073 9.717 4.141-9.717 2.7-21.503-4.5-30.14-7.381-8.638-18.633-12.147-29.074-9.718-4.41 9.717-2.88 21.414 4.5 30.14zM479.096 45.55c7.38 8.638 18.632 12.147 29.074 9.717 4.14-9.717 2.7-21.503-4.5-30.14-7.382-8.638-18.633-12.146-29.075-9.717-4.14 9.717-2.7 21.683 4.5 30.14zm18.812 34.55c7.381 8.637 8.641 20.423 4.5 30.14-10.26 2.34-21.692-.9-29.073-9.717-7.38-8.637-8.641-20.423-4.5-30.14 10.26-2.43 21.692.81 29.073 9.717zm227.82 258.22c7.381 8.637 18.633 12.146 29.074 9.717 4.14-9.717 2.7-21.504-4.5-30.14-7.382-8.638-18.633-12.147-29.075-9.718-4.14 9.717-2.88 21.683 4.501 30.14zM448.402 21.168c7.38 8.637 8.641 20.424 4.5 30.14-10.26 2.34-21.692-.9-29.073-9.716-7.381-8.638-8.641-20.424-4.5-30.141 10.44-2.25 21.782 1.08 29.073 9.717zM747.6 242.23c10.711 3.778 17.732 13.405 19.172 24.022a29.332 29.332 0 0 1-29.793 6.118c-10.712-3.779-17.733-13.406-19.173-24.022 7.561-7.198 19.173-10.077 29.794-6.118zM546.245-26.877c1.98 11.246-2.7 22.043-11.252 28.521-10.261-3.059-18.272-11.516-20.432-22.763-1.8-11.246 2.7-22.043 11.251-28.521 10.261 3.059 18.362 11.516 20.433 22.763m13.501 75.667c1.98 11.246-2.7 22.043-11.251 28.52-10.261-3.058-18.272-11.606-20.433-22.762-1.98-11.247 2.7-22.044 11.252-28.522 10.351 3.06 18.452 11.607 20.432 22.763" fill="#93CA9F"/><path d="M428.33 318.436c-8.642 7.378-12.152 18.624-9.722 29.06 9.721 4.14 21.513 2.7 30.154-4.498 8.641-7.377 12.152-18.624 9.721-29.06-9.721-4.14-21.513-2.88-30.154 4.498" fill="#70BC7D"/><g transform="translate(320.135 157.836)"><path fill="#E0B074" d="M36.725 249.223l8.1-2.88-7.11-2.429z"/><path fill="#E1594D" d="M83.44 200.638l23.854-35.36 22.323 22.404-22.323 27.441z"/><path d="M191.095 165.279h-14.312c0 12.596-10.261 22.853-22.953 22.853-12.602 0-22.863-10.257-22.863-22.853h-19.622V290.43h84.34V177.965l-4.59-12.686z" fill="#E1594D"/><path d="M191.095 165.279h-15.482c0 14.035-15.392 22.943-21.693 22.943h-.27V290.52h42.126V175.446l-4.681-10.167z" fill="#CB4C41"/><path d="M149.96 213.054c-.09-2.88-.9-5.308-2.79-7.378-2.881-3.149-7.382-4.138-11.432-2.159-3.06 1.62-4.86 4.229-5.401 7.738-.54 3.778.54 7.197 3.6 9.807 3.06 2.609 7.381 3.059 10.892.9 3.42-2.16 5.04-5.22 5.13-8.908zm-9.902-16.375h.18c5.941.09 10.712 2.52 14.042 7.378 1.53 2.25 2.34 4.768 2.52 7.468.18 2.519-.18 5.038-1.17 7.377-.99 2.34-2.43 4.499-4.5 6.118-.63.54-.63.54 0 1.17 3.51 2.88 7.02 4.679 12.961 3.779.18 0 .27-.09.45-.09.72-.18.81-.09.81.63v3.419c0 .54-.18.81-.72.9-8.01 1.439-14.041-1.08-19.802-6.299-.36-.27-.63-.36-1.08-.18-2.52.72-5.04.63-7.561.09-2.88-.63-5.4-1.98-7.471-3.958-1.89-1.71-3.24-3.78-4.14-6.299-.81-2.249-1.26-4.498-.9-6.747.18-1.53.54-3.06 1.08-4.5.72-2.158 1.98-4.048 3.69-5.577 2.34-2.25 5.13-3.78 8.37-4.319 1.171-.18 2.341-.36 3.421-.54l-.18.18z" fill="#FFF"/><path d="M165.172 207.206v2.879c0 1.62 0 1.62 1.71 1.62 1.08 0 2.16-.09 3.15-.54 1.62-.81 2.7-2.7 2.52-4.409-.27-2.07-1.62-3.599-3.51-3.959-.99-.18-1.98-.18-3.06-.18-.72-.09-.81 0-.81.81v3.779zm-1.17-9.807c1.98 0 3.96-.18 5.94 0 3.15.36 5.941 1.62 7.741 4.409 1.62 2.429 1.8 5.128 1.17 7.827-.72 2.79-2.52 4.499-5.22 5.578-.45.18-.36.36-.18.63.72.9 1.53 1.8 2.25 2.7 1.71 2.159 3.42 4.318 5.22 6.477.72.9 1.62 1.71 2.43 2.7.181.18.181.27.271.54-.18.09-.36.18-.54.18h-7.381a.99.99 0 0 1-.9-.54c-2.7-3.33-5.04-6.748-7.021-10.527-.18-.27-.36-.63-.63-.72-.54-.09-1.17 0-1.71.09-.18 0-.18.54-.18.72 0 2.699.09 5.218.09 7.917 0 .72 0 1.53.09 2.25 0 .54-.18.81-.72.81h-5.761c-.36 0-.63 0-.63-.54.45-7.738.18-15.566.18-23.303 0-2.16-.18-4.229-.18-6.388 0-.81.09-.9.9-.9 1.44.09 3.06.09 4.77.09z" fill="#FFF"/><path d="M112.335 165.279c-.09.54-.18.72-.18 1.17-1.8 20.603 9.81 39.317 27.633 47.505-.18-3.42-.18-6.838.09-10.347 1.26-14.935 7.651-27.711 17.102-38.238l-44.645-.09z" fill="#C24036"/><path d="M119.086 165.279c-3.51 19.434 5.04 38.148 20.702 48.405.27-3.42.81-6.748 1.62-10.257 3.961-16.285 13.772-29.151 26.644-38.148h-48.966z" fill="#0498B7"/><path fill="#1B2D45" d="M137.088 165.279h34.204v14.125h-34.204z"/><path d="M145.369 150.253v31.58h16.562v-31.67c-2.79.36-5.67.54-8.641.54-2.7.09-5.31-.09-7.921-.45z" fill="#E7A958"/><path d="M176.243 165.279c0 12.596-10.261 22.943-22.953 22.943-12.602 0-22.953-10.257-22.953-22.943h9.361c0 7.378 6.031 13.496 13.502 13.496 7.471 0 13.502-6.028 13.502-13.496h9.541z" fill="#FFF"/><path d="M133.577 19.434c-17.552 0-31.864 14.306-31.864 31.85 0 17.545 14.312 31.85 31.864 31.85 7.561 0 14.582-2.699 20.073-7.108V26.632c-5.49-4.589-12.512-7.198-20.073-7.198zm58.238 69.548c8.191-5.488 13.592-14.755 13.592-25.372V52.814l-13.592 1.17v34.998z" fill="#2C6570"/><path d="M115.485 88.982c-8.191-5.488-13.592-14.755-13.592-25.372V52.814l13.592 1.17v34.998zm58.238-69.548c17.552 0 31.864 14.306 31.864 31.85 0 17.545-14.312 31.85-31.864 31.85-7.561 0-14.582-2.699-20.073-7.108V26.632c5.4-4.589 12.422-7.198 20.073-7.198z" fill="#2C6570"/><path d="M197.126 51.284v27.352c4.86 0 8.82 3.958 8.82 8.817 0 4.858-3.96 8.817-8.82 8.817v11.067c0 23.932-19.623 43.456-43.476 43.456-23.853 0-43.476-19.614-43.476-43.456V51.284h86.952z" fill="#E0B074"/><path d="M153.65 150.793c-23.943 0-43.476-19.614-43.476-43.456V96.27c-4.86 0-8.82-3.959-8.82-8.817 0-4.859 3.96-8.817 8.82-8.817V51.284h43.476v99.51z" fill="#E4BB8F"/><path d="M110.084 96.27c-4.86 0-8.82-3.959-8.82-8.817 0-4.859 3.96-8.817 8.82-8.817V96.27z" fill="#E4BB8F"/><path d="M173.723 19.434H153.65v16.285h47.886c-5.49-9.717-15.842-16.285-27.813-16.285z" fill="#2C6570"/><path d="M197.126 82.954c2.52 0 4.5 1.98 4.5 4.499 0 2.52-1.98 4.499-4.5 4.499v-8.998z" fill="#B0784A"/><path d="M114.675 66.76c0-8.278 6.21-15.026 13.952-15.476h35.823V35.81h-40.325l-15.752 7.018-2.34 7.018 8.641 16.914z" fill="#2C6570"/><path d="M110.084 82.954c-2.52 0-4.5 1.98-4.5 4.499 0 2.52 1.98 4.499 4.5 4.499v-8.998z" fill="#B0784A"/><path d="M130.337 51.284c13.952 0 25.293-11.336 25.293-25.282 0-2.25-.27-4.499-.9-6.568h-12.51c-5.221 0-9.362-4.139-9.362-9.357 0-3.599 1.98-6.658 4.861-8.278-2.34-.72-4.86-1.17-7.471-1.17-13.952 0-25.293 11.337-25.293 25.283 0 14.036 11.341 25.372 25.383 25.372z" fill="#1F3654"/><path d="M154.91 31.94c.45-1.89.72-3.869.72-5.938 0-2.25-.27-4.499-.9-6.568h-12.51c-5.221 0-9.362-4.139-9.362-9.357 0-3.509 1.98-6.658 4.861-8.278-6.66 2.52-11.432 8.908-11.432 16.465 0 9.627 7.832 17.545 17.553 17.545 4.23 0 8.1-1.44 11.071-3.869z" fill="#2C6570"/><path fill="#1F3654" d="M175.343 51.284h-45.006V35.81h45.006z"/><path fill="#2C6570" d="M175.343 19.434h-31.414v16.375h31.414zm-66.789 35.539h6.121v25.012c-1.26-.81-2.88-1.26-4.5-1.26-.54 0-1.08.09-1.62.18V54.974zm88.572-8.817h-8.551l4.14 16.914v17.185c1.26-1.08 2.88-1.71 4.5-1.71l3.961-22.942-4.05-9.447z"/><path d="M192.625 66.76c0-8.278-6.21-15.026-13.952-15.476V40.128l6.391 2.699 7.561 8.547V66.76z" fill="#1F3654"/><path d="M192.625 51.284h-34.654V35.81h20.702c7.741.36 13.952 7.198 13.952 15.475z" fill="#1F3654"/><path d="M153.65 90.242c2.43 0 4.41 1.98 4.41 4.409 0 .54-.09.99-.18 1.53h-8.28c-.18-.54-.18-.99-.18-1.53-.18-2.43 1.8-4.409 4.23-4.409z" fill="#E1594D"/><path d="M140.238 61.001c-4.86-2.789-12.511.45-15.032 4.859" stroke="#B0784A" stroke-width="3.6"/><path d="M134.118 74.947c-3.42 0-6.211 2.699-6.211 6.208 0 3.419 2.7 6.208 6.21 6.208 3.421 0 6.211-2.7 6.211-6.208 0-3.42-2.79-6.208-6.21-6.208z" fill="#1F3654"/><path d="M136.098 79.175c-1.17 0-1.98.9-1.98 1.98 0 1.17.9 1.98 1.98 1.98 1.17 0 1.98-.9 1.98-1.98s-.81-1.98-1.98-1.98z" fill="#FFF"/><path d="M167.962 78.816h6.57c1.26 0 2.341 1.08 2.341 2.339 0 1.26-1.08 2.34-2.34 2.34h-6.571c-1.26 0-2.34-1.08-2.34-2.34.09-1.26 1.08-2.34 2.34-2.34z" fill="#1F3654"/><path d="M169.852 71.798c8.011-.63 12.332 2.519 13.682 7.737" stroke="#B0784A" stroke-width="3.6"/><path d="M198.836 95.55c-.54.18-1.17.18-1.71.18v21.864c0 24.022-19.893 43.726-43.926 43.726s-43.746-19.704-43.746-43.726V95.55h89.382z" fill="#2C6570"/><path d="M183.804 115.794c-3.51 13.316-15.752 23.303-30.154 23.303s-26.553-9.987-30.154-23.303c-.54-1.98-.9-4.139-.99-6.208 0-4.499 3.78-8.277 8.281-8.277h45.726c4.5 0 8.281 3.778 8.281 8.277-.18 2.16-.54 4.319-.99 6.208z" fill="#1F3654"/><path d="M123.586 115.794c3.51 13.316 15.662 23.303 30.064 23.303-10.711-7.828-10.891-32.03 0-37.788h-22.773c-4.5 0-8.281 3.778-8.281 8.277.09 2.16.45 4.319.99 6.208z" fill="#1B2D45"/><path d="M153.65 106.077h-22.863c-1.98 0-3.51 1.62-3.51 3.51 0 1.978 1.62 3.508 3.51 3.508h45.726c1.98 0 3.51-1.62 3.51-3.509 0-1.98-1.62-3.509-3.51-3.509H153.65z" fill="#FFF"/><ellipse fill="#E1594D" cx="153.65" cy="128.75" rx="11.161" ry="5.218"/><path fill="#2C6570" d="M109.544 62.98h5.131v46.966h-5.13z"/><path d="M112.605 89.882h1.98v.18c0 3.24 2.52 5.938 5.76 6.118v2.16h-7.74v-8.458zm84.521-26.722h-4.5v46.966h4.5z" fill="#2C6570"/><path d="M194.605 89.882h-1.98v.18c0 3.24-2.52 5.938-5.76 6.118v2.16h7.74v-8.458zm-79.93-9.807c0 8.278 6.21 15.026 13.952 15.475h35.823v4.23l-30.333-.54-11.072 1.619-9.991 3.149-.36-5.578 1.98-18.355z" fill="#2C6570"/><path d="M192.625 80.075c0 8.278-6.21 15.026-13.952 15.475H142.76v4.23l30.334-.54 11.071 1.619 9.991 3.149.36-5.578-1.89-18.355z" fill="#2C6570"/><path fill="#CB4C41" d="M214.948 200.638l-23.853-35.36-17.642 22.404 22.323 27.441z"/><path fill="#FFF" d="M76.78 206.846l5.04-7.288 25.474 15.565v10.347z"/><path fill="#CB4C41" d="M23.133 143.416l14.582 20.963-15.842 11.067-7.111 4.948L.09 159.431z"/><path fill="#FFD547" d="M.09 142.246l66.879-23.663 66.878 23.663v88.353L66.97 254.17.09 230.6z"/><path fill="#FDC30B" d="M133.847 142.246L66.97 165.909v88.262l66.878-23.572z"/><path fill="#FFE56B" d="M.09 142.246l66.879 23.663 66.878-23.663-66.878-23.663z"/><path d="M44.916 188.672v4.678c-1.53-.54-3.06-1.08-4.5-1.62v19.885c-.27-.18-.63-.18-.9-.36-.72-.18-1.351-.54-2.071-.72-.27-.18-.63-.18-.9-.36V190.29c-1.53-.54-3.06-1.08-4.5-1.62v-4.678c4.32 1.71 8.55 3.239 12.87 4.679zM9.63 163.929c0 1.89.99 3.69 2.34 4.139 1.35.54 2.34-.63 2.34-2.43 0-1.889-.99-3.778-2.34-4.228-1.26-.45-2.34.63-2.34 2.52zm4.86 5.848c.991 1.53 2.161 2.52 3.511 2.7v1.35c0 .18-.18.18-.27.18-1.08-.09-2.07-.63-3.06-1.62-.54-.54-.99-1.26-1.53-1.89-.18-.18-.27-.27-.36-.27-1.62-.18-2.97-1.26-3.96-3.239-.991-1.98-1.171-3.869-.54-5.488.72-1.62 1.89-2.16 3.51-1.71 1.71.54 3.24 2.34 3.78 4.5.63 2.248.18 4.318-1.17 5.397.18 0 .18 0 .09.09zm23.224 3.78c.63.27 1.26.54 1.62-.09.18-.45.18-1.17-.09-1.71-.27-.63-.9-1.08-1.62-1.08.09.9.09 1.8.09 2.88zm0 5.218l-1.62-.54v-9.807h.09c.99.36 1.98.63 2.97 1.17 1.44.72 2.25 2.609 1.98 4.318-.18.99-.63 1.35-1.35 1.53.9 1.62 1.62 3.239 2.52 4.948a2.12 2.12 0 0 0-.72-.18c-.9-.18-1.62-.9-1.98-2.07-.18-.719-.63-1.529-.9-2.248-.18-.54-.36-.63-.72-.63-.27.99-.27 2.249-.27 3.509zm-3.78-1.26c-.54-.18-1.17-.36-1.71-.63-.18 0-.18-.18-.27-.36-.54-.99-.991-1.979-1.621-3.059v2.79c-.54-.18-.99-.36-1.62-.54v-9.358c-.18-.09-.27-.18-.54-.18l.27-.81c0-.09.18-.18.18-.18.54.18.99.36 1.62.54v6.569c0 .09.09.18.18.18 0-.09.09-.18.18-.27.36-.54.81-1.17 1.17-1.71.09-.18.18-.18.27-.18.45.18.9.27 1.35.45-.09.18-.18.18-.18.27l-1.35 1.89c-.18.18-.18.45 0 .81.72.989 1.44 2.338 2.07 3.778zm-13.952-11.606c.54.18.99.36 1.53.54v6.657c-.36-.18-.81-.18-1.26-.54-.18-.09-.18-.54-.36-.72 0 0-.09 0-.09.09-.54.54-1.26.45-1.98-.09-.72-.539-1.08-1.349-1.17-2.338-.09-.99-.09-1.98-.09-2.97v-.63c-.18-.18-.27-.18-.54-.27l.27-.809c0-.09.18-.18.18-.18.54.18.99.36 1.53.54v3.779c0 .9.36 1.62.9 1.71.54.18.9-.18.9-1.17.18-1.08.18-2.34.18-3.6zm36.544 17.904c.72.27 1.26-.27 1.26-1.26s-.54-1.979-1.26-2.159c-.72-.18-1.26.27-1.26 1.26.09.9.54 1.89 1.26 2.16zm2.79-.81c0 1.89-1.26 3.06-2.7 2.52-1.53-.54-2.7-2.43-2.7-4.41 0-1.978 1.26-3.058 2.7-2.518 1.44.54 2.7 2.519 2.7 4.408zm-14.401-6.028c-.09-.63-.36-1.17-.81-1.26-.45-.18-.81.18-.9.72.63.09 1.17.36 1.71.54zm-1.71.81c.18 1.44 1.08 2.16 2.7 2.16v1.349c0 .09-.09.18-.18.18-.81 0-1.62-.18-2.34-.72-1.26-.99-1.98-2.88-1.71-4.499.18-1.62 1.26-2.339 2.61-1.889 1.26.54 2.34 2.61 2.25 4.229 0 .27-.18.27-.27.18-.9-.36-1.71-.63-2.61-.9-.18 0-.27 0-.45-.09zm7.83.63c-.27-.18-.54-.18-.72-.27v-1.62c.18.09.45.18.63.18v-1.71c.54.18.99.36 1.53.54v1.71c.36.18.72.27 1.081.36.18.09.27.18.27.54v1.26c-.54-.18-.9-.27-1.26-.54v2.699c0 .54.36.9.72.99.18 0 .18.09.36.09v1.349c0 .09-.18.18-.18.18-.18 0-.54-.09-.72-.18-.99-.36-1.62-1.35-1.71-2.79-.09-.809 0-1.619 0-2.338v-.45zm-4.41 1.53c.45.36.81.72 1.26 1.079.18.18.27.18.36.18.18 0 .27-.18.36-.18 0-.18-.09-.45-.18-.54-.27-.36-.54-.72-.9-1.08-.54-.63-.9-1.26-.81-2.159 0-.9.36-1.53 1.08-1.53.63 0 1.26.27 1.98.81.09.09.18.18.18.36v1.44c-.09-.18-.18-.18-.18-.18-.36-.18-.72-.54-.99-.72-.18-.09-.36.09-.36.18s.09.54.18.63c.18.36.54.63.81.9.36.54.72.99.81 1.619.18 1.26-.18 2.16-1.08 2.16-.81 0-1.62-.54-2.34-1.17-.09-.63-.09-1.35-.18-1.8zm-18.362-6.659v1.98c-.63 0-1.26-.18-1.89-.54-1.26-.9-2.07-2.7-1.98-4.319.09-1.62 1.08-2.609 2.34-2.339.45.18.9.36 1.26.54.09.09.18.18.18.36v1.71c-.54-.54-.9-.99-1.44-.9-.18.09-.54.18-.72.45-.36.54-.27 1.529.18 2.249.45.99 1.17 1.26 2.07.81zm-4.32.63c-.54-.18-.991-.36-1.531-.54v-5.488c-.18-.09-.27-.18-.54-.18.09-.27.18-.54.27-.9 0-.09.18-.18.18-.09.54.18.99.36 1.62.54v6.658zm0-8.727c0 .63-.36.99-.811.9-.45-.18-.81-.81-.81-1.35 0-.63.36-.99.81-.9.45.09.81.72.81 1.35zm35.374 11.066v.36c.18.09.27.18.54.18v1.62c.18 0 .18.09.36.18v-1.62c.18.09.27.18.45.18v-.36c-.54-.27-.9-.36-1.35-.54zm2.25 2.34c-.18-.54-.18-1.17-.27-1.71-.18-.09-.27-.18-.54-.18v1.98c.18 0 .18.09.27.18v-1.71c.09.63.18 1.26.27 1.8.18 0 .18.09.27.18l.27-1.62v1.71c.09 0 .18.09.27.18v-1.98c-.18-.09-.27-.18-.45-.18.09.36 0 .9-.09 1.35zM7.741 194.52c.9.63 1.89 1.26 2.79 1.8.63.36 1.08.54 1.44.719.81.27 1.35.27 1.89 0 .45-.27.63-.81.63-1.53 0-1.08-.54-2.339-1.53-3.598-.72-.9-1.26-1.53-1.62-1.98-1.26-1.62-2.25-2.879-2.7-3.779-.63-1.26-.9-2.699-.9-4.228 0-2.16.54-3.6 1.62-4.319 1.08-.72 2.61-.81 4.5-.18a14.73 14.73 0 0 1 4.141 2.34v4.498c-1.26-.9-2.88-1.98-4.23-2.34-1.35-.36-2.43.36-.99 2.7.54.81 1.26 1.8 2.25 3.059 1.17 1.44 1.98 2.7 2.52 3.779.9 1.71 1.26 3.599 1.26 5.578 0 2.16-.54 3.779-1.71 4.589-1.17.9-2.7.9-4.77.18-1.62-.54-3.06-1.44-4.501-2.52 0-1.53 0-3.059-.09-4.768zm12.422-14.576l10.531 3.78v4.498c-2.25-.81-4.41-1.62-6.66-2.34v4.859c1.62.63 3.42 1.26 5.13 1.8v4.498c-1.62-.63-3.42-1.26-5.13-1.8v5.939c2.34.81 4.59 1.62 7.02 2.429v4.499c-3.6-1.26-7.29-2.52-10.891-3.78v-24.381z" fill="#FFF"/><path d="M25.743 220.972c3.33 1.26 3.06 1.17 6.391 2.339 1.53.54 2.88 1.62 3.78 3.059.9 1.35 1.44 2.969 1.62 4.409l1.801 14.755c.18 1.53-.63 2.7-1.62 3.239-.99.63-2.34.72-3.78.18-3.331-1.26-6.661-2.43-9.992-3.599-3.06-.99-5.94-4.139-5.4-7.378l1.8-13.495c.18-1.53.63-2.7 1.62-3.24.9-.63 2.34-.72 3.78-.27z" fill="#E0B074"/><path fill="#839FA6" d="M149.6 315.262V421.16h-12.242l-17.102-130.82h33.394v24.922z"/><path fill="#638691" d="M157.52 315.262V421.16l12.962-.18 12.962-105.718 3.6-24.922H153.65v24.922z"/><path d="M130.967 244.184c-.9.09-1.62.36-2.07.9-.63.72-.72 1.8-.9 2.7l-1.62 8.637v.18l-.09.36c0 .72.18 1.529.72 1.979.54.54 1.08.9 1.71.9l22.233 6.837c3.15.63 6.66-.81 7.38-3.688l3.511-12.147c.18-.54.09-1.08 0-1.62l-8.1-2.518-18.813-2.07c-.72-.09-3.15-.54-3.96-.45z" fill="#EEC281"/><path d="M161.841 251.652c1.53-4.588-1.89-6.658-5.13-8.547l-11.252-6.658c-1.44-.9-3.33-.36-4.14 1.08-.9 1.439-.36 3.328 1.08 4.138l12.151 7.198 7.291 2.79z" fill="#EEC281"/><ellipse fill="#E1594D" cx="153.11" cy="127.67" rx="11.792" ry="5.488"/><path fill="#EEC281" d="M199.106 211.884l10.981-6.837 2.34 3.958 2.341 3.87 2.25 3.688 1.98 3.689 1.89 3.599 1.711 3.599 1.53 3.419 1.35 3.328 1.08 3.33.99 3.148.63 3.15.36 3.149.18 3.059-.36 3.059-.72 2.969-1.17 2.879-1.71 2.699-2.16 2.34-2.52 1.889-2.97 1.62-3.241 1.169-3.33.81-3.781.63-4.05.27h-4.321l-4.68-.27-5.041-.45-5.401-.72-5.94-.99-6.212-1.35-6.75-1.53-7.201-1.799 3.24-12.506 6.93 1.71 6.482 1.53 5.94 1.259 5.491.81 4.95.72 4.501.45 4.05.18h3.601l3.06-.18 2.611-.36 2.16-.54 1.62-.63 1.26-.72.81-.63.721-.63.36-.72.36-.9.36-1.079v-3.059l-.27-1.98-.45-2.158-.72-2.43-.9-2.699-1.17-2.789-1.26-3.06-1.62-3.148-1.71-3.33-1.891-3.418-1.98-3.509-2.25-3.689z"/></g><path d="M88.265 106.911c7.02-.99 12.962-7.827 13.952-13.945.99 6.298 7.02 12.956 13.952 13.945-7.021.99-12.962 7.828-13.952 13.946-.99-6.208-7.021-12.956-13.952-13.946zm220.349 54.524c5.76-.54 10.801-4.679 11.611-8.458.81 3.779 5.76 7.828 11.612 8.458-5.761.54-10.802 4.678-11.612 8.457-.81-3.869-5.85-7.918-11.611-8.457zM275.13 274.08c4.14-.54 7.74-4.679 8.28-8.458.54 3.78 4.14 7.828 8.281 8.458-4.14.54-7.74 4.678-8.28 8.457-.54-3.779-4.141-7.828-8.282-8.457zm7.65 205.316c3.87-.54 7.201-4.409 7.741-7.827.54 3.508 3.87 7.287 7.741 7.827-3.87.54-7.2 4.409-7.74 7.828-.54-3.51-3.871-7.288-7.742-7.828z" fill="#D7EAF4"/></g></g></svg>