<svg width="270" height="459" viewBox="0 0 270 459" xmlns="http://www.w3.org/2000/svg" xmlns:xlink="http://www.w3.org/1999/xlink"><title>AEF0CED2-AABC-4368-BD85-B8E2F2AAA70E</title><defs><rect id="a" width="292" height="487" rx="4"/></defs><g transform="translate(-22 -28)" fill="none" fill-rule="evenodd"><mask id="b" fill="#fff"><use xlink:href="#a"/></mask><g mask="url(#b)"><path fill="#A2C0C6" d="M104.32 498.998V174.031h384.96v325.087l-384.96-.12z"/><path d="M56.08 209.938c1.32-.24 2.64.6 2.88 2.042.24 1.441-.6 2.642-2.04 2.882l-13.32 2.402-5.16.96c-4.56.961-6.96 3.483-8.28 6.606-1.32 3.362-1.44 7.565-1.44 11.168v262.76h-5.04v-262.64c-.12-4.083.12-8.886 1.68-13.09 1.8-4.563 5.28-8.286 11.88-9.607h.12l5.28-.96 13.44-2.523z" fill="#C6C7C6"/><path d="M49.12 213.421c-.48-2.762 1.32-5.524 4.2-6.005l15.36-2.762c2.76-.48 5.52 1.321 6 4.204.48 2.762-1.32 5.524-4.2 6.004l-15.36 2.762c-2.76.48-5.4-1.32-6-4.203z" fill="#C6C7C6"/><path d="M49.12 213.421l25.44-4.563c.48 2.762-1.32 5.524-4.2 6.004L55 217.624c-2.64.48-5.28-1.32-5.88-4.203z" fill="#FBBB4D"/><path fill="#CFCFD0" d="M22.24 498.758v-32.064h8.04v32.064z"/><path fill="#88A5AB" d="M424.84 32.203v128.738h-256.2V32.203z"/><path d="M220.12 81.8c.96-31.103 39.84-47.075 61.8-23.057 23.64 25.94 41.64 65.57 53.4 101.958h-79.8c-5.64-15.132-12.36-29.783-21-44.434-6.36-11.048-14.76-20.535-14.4-34.466z" fill="#A2C0C6"/><path d="M220.6 137.763c1.92-9.367 5.64-17.413 10.68-24.378.24-.36.6-.72.96-1.08.84 1.32 1.68 2.761 2.52 4.082 2.4 4.083 4.92 8.287 6.6 12.25 9.6-2.522 18.48-3.483 28.08 1.32 12.48 6.245 16.32 17.654 20.64 29.783l.36 1.081h-69.72c-1.44-7.326-1.8-14.891-.12-23.058z" fill="#B5CED3"/><path d="M305.2 107.5c6.48 8.647 2.28 16.573-9.48 19.695-13.32 3.603-27-4.203-30.6-17.533-2.52-9.127.48-18.374 6.72-24.499 8.28-7.926 17.76-7.205 21.12 1.321 3.24 7.927 7.8 15.132 12.24 21.016z" fill="#88A5AB"/><path d="M252.28 93.93c3.36-.84 6.84 1.201 7.68 4.684a6.334 6.334 0 0 1-4.68 7.686c-3.48.84-6.84-1.201-7.68-4.684-.72-3.483 1.32-6.845 4.68-7.686z" fill="#9EB8BD"/><path d="M252.52 74.956c1.56-1.321 4.44-.6 6.48 1.681 2.04 2.282 2.52 5.284.96 6.725-1.56 1.321-4.44.6-6.48-1.681-2.04-2.402-2.4-5.404-.96-6.725z" fill="#88A5AB"/><path d="M241.48 128.637c-10.68 1.921-10.08-4.444-5.88-10.689a152.19 152.19 0 0 1 5.88 10.689z" fill="#9EB8BD"/><path d="M274.48 64.748c1.2-.96 3.48 0 5.16 2.162 1.68 2.161 2.04 4.563.84 5.524-1.2.96-3.48 0-5.16-2.162-1.56-2.161-2.04-4.563-.84-5.524z" fill="#88A5AB"/><path d="M285.4 111.463c3-.12 6.12.841 8.64 2.282 8.16 4.444 7.56 8.166-1.56 10.328-3.12.72-6.6.72-9.36-.12-10.44-3.242-6.84-12.37 2.28-12.49z" fill="#9EB8BD"/><path d="M256.36 78.078c.6-.6 1.8-.24 2.64.72.84.961.96 2.162.36 2.643-.6.6-1.8.24-2.64-.72-.84-.842-.96-2.042-.36-2.643z" fill="#C7E6EF"/><path d="M238.36 144.248c6.84-2.401 15.12 3.243 18.24 12.49.48 1.441.84 2.762 1.08 4.203h-27.12c-1.08-7.686 2.04-14.771 7.8-16.693z" fill="#9EB8BD"/><path d="M235.12 160.821c4.32-5.284 9.72-9.727 16.2-12.73 2.28 2.162 4.08 5.044 5.28 8.527.36 1.2.72 2.402.96 3.603-.48.24-.84.36-1.32.6h-21.12z" fill="#A2C0C6"/><path d="M268.72 94.65c2.64-6.724 9-11.048 14.04-11.888.6-.12 1.44-.24 2.28-.24 1.32.12 2.52.72 3.24 1.68 1.2 1.562.84 2.643-1.44 2.763-4.68.24-10.8 3.603-15.48 8.286-2.04 2.042-3.72 2.042-2.64-.6zm8.88-27.02c.6-.36 1.44 0 2.04.84.6.841.6 1.922 0 2.283-.6.36-1.44 0-2.04-.841-.6-.96-.6-1.922 0-2.282z" fill="#C7E6EF"/><path fill="#A2C0C6" d="M228.4 174.031v-13.09h-9v13.09z"/><path fill="#96B6BE" d="M223.84 174.031v-13.09h-4.44v13.09z"/><path fill="#88A5AB" d="M165.28 30.282V28H358.6v4.443H168.64z"/><path fill="#88A5AB" d="M428.2 30.282V28H234.88v4.443h189.96z"/><path fill="#C7E6EF" d="M428.2 30.282l-3.36 2.281h-256.2l-3.36-2.281z"/><path fill="#88A5AB" d="M165.28 163.103v2.281H358.6v-4.443H168.64z"/><path fill="#C7E6EF" d="M358.6 163.103v-2.282H168.64l-3.36 2.282z"/><path fill="#88A5AB" d="M428.2 163.103v2.281H234.88v-4.443h189.96z"/><path fill="#C7E6EF" d="M234.88 163.103v-2.282h189.96l3.36 2.282z"/><path fill="#96B6BE" d="M284.08 291v57.644h-62.52V291z"/><path fill="#B1DDE9" d="M278.8 296.404v52.24h-51.96v-52.24z"/><path d="M278.8 325.226v3.843l-32.64-32.785H250l28.8 28.942zm0 11.529v7.686l-47.88-48.037h7.68l40.2 40.35zm0 11.408v.48h-3.36l-48.48-48.636v-3.723h.24l51.6 51.88z" fill="#C7E6EF"/><path fill="#91CAD5" d="M278.8 296.404h-51.96v1.561h51.96v-1.56z"/><path fill="#91CAD5" d="M245.56 296.404v52.24h1.56v-52.24h-1.56z"/><path fill="#91CAD5" d="M278.8 315.138h-51.6v1.562h51.6z"/><path fill="#96B6BE" d="M242.92 348.644V291h2.64v57.644h-2.64zm17.28 0V291h2.64v57.644h-2.64z"/><path fill="#91CAD5" d="M262.84 296.404v52.24h1.56v-52.24h-1.56zm-36 0v52.24h1.56v-52.24h-1.56z"/><path fill="#96B6BE" d="M224.08 312.496h57.6v2.642h-57.6v-2.642z"/><path fill="#88A5AB" d="M221.56 291v57.644h3.12V291h-3.12z"/><path fill="#88A5AB" d="M284.08 291H223v3.122h61.08V291z"/><path fill="#ABC5CB" d="M218.08 347.083h69.6v10.328h-69.6v-10.328z"/><path fill="#88A5AB" d="M287.68 357.53v-10.327L298 357.53v10.327h-69.6l-10.32-10.327h10.32z"/><path fill="#96B6BE" d="M284.08 379.627v57.644h-62.52v-57.644z"/><path fill="#B1DDE9" d="M278.8 384.911v52.24h-51.96v-52.24z"/><path d="M278.8 413.853v3.843l-32.64-32.785H250l28.8 28.942zm0 11.41v7.685l-47.88-48.037h7.68l40.2 40.351zm0 11.528v.48h-3.36l-48.48-48.637v-3.723h.24l51.6 51.88z" fill="#C7E6EF"/><path fill="#91CAD5" d="M278.8 384.911h-51.96v1.562h51.96v-1.562z"/><path fill="#91CAD5" d="M245.56 384.911v52.24h1.56v-52.24h-1.56z"/><path fill="#91CAD5" d="M278.8 403.766h-51.6v1.56h51.6z"/><path fill="#96B6BE" d="M242.92 437.271v-57.644h2.64v57.644zm17.28 0v-57.644h2.64v57.644z"/><path fill="#91CAD5" d="M262.84 384.911v52.24h1.56v-52.24h-1.56zm-36 0v52.24h1.56v-52.24h-1.56z"/><path fill="#96B6BE" d="M224.08 401.004h57.6v2.642h-57.6v-2.642z"/><path fill="#88A5AB" d="M221.56 379.627v57.644h3.12v-57.644h-3.12z"/><path fill="#88A5AB" d="M284.08 379.627H223v3.123h61.08v-3.123z"/><path fill="#ABC5CB" d="M218.08 435.71h69.6v10.328h-69.6V435.71z"/><path fill="#88A5AB" d="M287.68 446.038V435.71L298 446.038v10.328h-69.6l-10.32-10.328h10.32z"/><path fill="#96B6BE" d="M284.08 202.373v57.643h-62.52v-57.643z"/><path fill="#B1DDE9" d="M278.8 207.777v52.24h-51.96v-52.24z"/><path d="M278.8 236.599v3.843l-32.64-32.785H250l28.8 28.942zm0 11.528v7.686l-47.88-48.036h7.68l40.2 40.35zm0 11.53v.48h-3.36L226.96 211.5v-3.723h.24l51.6 51.88z" fill="#C7E6EF"/><path fill="#91CAD5" d="M278.8 207.777h-51.96v1.56h51.96v-1.56z"/><path fill="#91CAD5" d="M245.56 207.777v52.24h1.56v-52.24h-1.56z"/><path fill="#91CAD5" d="M278.8 226.511h-51.6v1.561h51.6z"/><path fill="#96B6BE" d="M242.92 260.016v-57.643h2.64v57.643zm17.28 0v-57.643h2.64v57.643z"/><path fill="#91CAD5" d="M262.84 207.777v52.24h1.56v-52.24h-1.56zm-36 0v52.24h1.56v-52.24h-1.56z"/><path fill="#96B6BE" d="M224.08 223.869h57.6v2.642h-57.6v-2.642z"/><path fill="#88A5AB" d="M221.56 202.373v57.643h3.12v-57.643h-3.12z"/><path fill="#88A5AB" d="M284.08 202.373H223v3.122h61.08v-3.122z"/><path fill="#ABC5CB" d="M218.08 258.455h69.6v10.328h-69.6v-10.328z"/><path fill="#88A5AB" d="M287.68 268.903v-10.328L298 268.903v10.328h-69.6l-10.32-10.328h10.32z"/><path fill="#96B6BE" d="M196.12 291v57.644H133.6V291z"/><path fill="#B1DDE9" d="M190.84 296.404v52.24h-51.96v-52.24z"/><path d="M190.84 325.226v3.843l-32.64-32.785h3.84l28.8 28.942zm0 11.529v7.686l-47.88-48.037h7.56l40.32 40.35zm0 11.408v.48h-3.36L139 300.008v-3.723h.24l51.6 51.88z" fill="#C7E6EF"/><path fill="#91CAD5" d="M190.84 296.404h-51.96v1.561h51.96v-1.56z"/><path fill="#91CAD5" d="M157.6 296.404v52.24h1.56v-52.24h-1.56z"/><path fill="#91CAD5" d="M190.84 315.138h-51.6v1.562h51.6z"/><path fill="#96B6BE" d="M154.84 348.644V291h2.64v57.644h-2.64zm17.4 0V291h2.64v57.644h-2.64z"/><path fill="#91CAD5" d="M174.88 296.404v52.24h1.56v-52.24h-1.56zm-36 0v52.24h1.56v-52.24h-1.56z"/><path fill="#96B6BE" d="M136.12 312.496h57.6v2.642h-57.6z"/><path fill="#88A5AB" d="M133.6 291v57.644h3.12V291h-3.12z"/><path fill="#88A5AB" d="M196.12 291h-61.08v3.122h61.08V291z"/><path fill="#ABC5CB" d="M130.12 347.083h69.6v10.328h-69.6z"/><path fill="#88A5AB" d="M199.72 357.53v-10.327l10.32 10.328v10.327h-69.6l-10.32-10.327h10.32z"/><path fill="#96B6BE" d="M196.12 379.627v57.644H133.6v-57.644z"/><path fill="#B1DDE9" d="M190.84 384.911v52.24h-51.96v-52.24z"/><path d="M190.84 413.853v3.843l-32.64-32.785h3.84l28.8 28.942zm0 11.41v7.685l-47.88-48.037h7.56l40.32 40.351zm0 11.528v.48h-3.36L139 388.634v-3.723h.24l51.6 51.88z" fill="#C7E6EF"/><path fill="#91CAD5" d="M190.84 384.911h-51.96v1.562h51.96v-1.562z"/><path fill="#91CAD5" d="M157.6 384.911v52.24h1.56v-52.24h-1.56z"/><path fill="#91CAD5" d="M190.84 403.766h-51.6v1.56h51.6z"/><path fill="#96B6BE" d="M154.84 437.271v-57.644h2.64v57.644zm17.4 0v-57.644h2.64v57.644z"/><path fill="#91CAD5" d="M174.88 384.911v52.24h1.56v-52.24h-1.56zm-36 0v52.24h1.56v-52.24h-1.56z"/><path fill="#96B6BE" d="M136.12 401.004h57.6v2.642h-57.6z"/><path fill="#88A5AB" d="M133.6 379.627v57.644h3.12v-57.644h-3.12z"/><path fill="#88A5AB" d="M196.12 379.627h-61.08v3.123h61.08v-3.123z"/><path fill="#ABC5CB" d="M130.12 435.71h69.6v10.328h-69.6z"/><path fill="#88A5AB" d="M199.72 446.038V435.71l10.32 10.328v10.328h-69.6l-10.32-10.328h10.32z"/><path fill="#96B6BE" d="M196.12 202.373v57.643H133.6v-57.643z"/><path fill="#B1DDE9" d="M190.84 207.777v52.24h-51.96v-52.24z"/><path d="M190.84 236.599v3.843l-32.64-32.785h3.84l28.8 28.942zm0 11.528v7.686l-47.88-48.036h7.56l40.32 40.35zm0 11.53v.48h-3.36L139 211.5v-3.723h.24l51.6 51.88z" fill="#C7E6EF"/><path fill="#91CAD5" d="M190.84 207.777h-51.96v1.56h51.96v-1.56z"/><path fill="#91CAD5" d="M157.6 207.777v52.24h1.56v-52.24h-1.56z"/><path fill="#91CAD5" d="M190.84 226.511h-51.6v1.561h51.6z"/><path fill="#96B6BE" d="M154.84 260.016v-57.643h2.64v57.643zm17.4 0v-57.643h2.64v57.643z"/><path fill="#91CAD5" d="M174.88 207.777v52.24h1.56v-52.24h-1.56zm-36 0v52.24h1.56v-52.24h-1.56z"/><path fill="#96B6BE" d="M136.12 223.869h57.6v2.642h-57.6z"/><path fill="#88A5AB" d="M133.6 202.373v57.643h3.12v-57.643h-3.12z"/><path fill="#88A5AB" d="M196.12 202.373h-61.08v3.122h61.08v-3.122z"/><path fill="#ABC5CB" d="M130.12 258.455h69.6v10.328h-69.6z"/><path fill="#88A5AB" d="M199.72 268.903v-10.328l10.32 10.328v10.328h-69.6l-10.32-10.328h10.32z"/><g transform="translate(49.6 234.557)"><path d="M101.04 266.363C45.6 266.003.6 220.968.6 165.486c0-55.723 44.88-100.757 100.44-101.117v23.057c-42.72.36-77.28 35.067-77.28 78.06 0 42.752 34.56 77.579 77.28 77.819v23.058z" fill="#403C4E"/><path d="M4.92 195.148c4.92 16.213 14.04 30.624 25.68 42.273v-39.51c-2.04-4.444-3.72-9.127-4.8-13.811L4.92 195.148zM84 264.801c5.64.961 11.52 1.562 17.52 1.562h.48v-23.058h-.48c-6 0-11.88-.6-17.52-2.042v23.538z" fill="#E4BC8E"/><path fill="#383645" d="M100.56 241.023v77.699h12.96v-8.046l-.48-.12h.48l16.8-69.533z"/><path fill="#484457" d="M101.04 241.023v77.699H88.08v-8.046l.48-.12h-.48l-16.92-69.533z"/><path d="M172.32 264.08V93.432c-18.24-18.014-43.2-29.062-70.92-29.062-27.48 0-52.56 11.048-70.68 28.942v170.77c22.8 7.566 46.44 11.408 70.92 11.408 24.24 0 48.12-3.842 70.68-11.408z" fill="#403C4E"/><path d="M172.32 264.08V237.3c18.6-18.253 30-43.713 30-71.814 0-28.102-11.52-53.56-30-71.815l-.96-.96-.72-.721-.96-.96c-.36-.361-.6-.481-.72-.721l-.96-.961-.72-.72c-.36-.36-.6-.601-1.08-.961-.36-.36-.6-.48-.72-.6-.36-.361-.72-.601-1.08-.962-.36-.12-.48-.48-.72-.6-.36-.36-.72-.6-1.08-.96-.36-.12-.48-.481-.72-.601-.48-.36-.72-.6-1.2-.96-.36-.121-.48-.361-.72-.601-.48-.36-.72-.6-1.2-.961-.36-.12-.48-.36-.72-.48-.48-.36-.72-.6-1.2-.721-.36-.12-.48-.36-.72-.48-.48-.36-.96-.6-1.44-.72-.36-.121-.48-.361-.72-.481-.48-.36-.96-.6-1.44-.72-.36-.12-.48-.361-.72-.481-.48-.36-.96-.48-1.44-.72-.12-.12-.48-.361-.6-.361-.48-.36-.96-.48-1.56-.72l-.6-.36c-.48-.361-1.08-.481-1.56-.721-.12-.12-.48-.12-.6-.36-.6-.36-1.08-.481-1.68-.721l-.6-.36c-.6-.36-1.08-.48-1.68-.721h-.6c-.6-.36-1.08-.48-1.68-.72l-.6-.12c-.6-.36-1.2-.481-1.8-.601l-.36-.36c-.6-.36-1.2-.48-1.8-.6l-.48-.12c-.6-.121-1.2-.481-2.04-.601l-.48-.12c-.6-.12-1.44-.48-2.04-.6l-.36-.121c-.6-.12-1.44-.36-2.04-.6h-.36c-.6-.12-1.44-.36-2.16-.48l-.36-.12c-.72-.121-1.44-.361-2.16-.481h-.36c-.72-.12-1.56-.36-2.16-.48h-.36c-.72-.12-1.56-.361-2.28-.361h-.12c-.72-.12-1.56-.12-2.28-.36h-.12c-.72-.12-1.56-.12-2.4-.36h-.12c-.72-.12-1.68-.12-2.4-.12h-.36c-.72 0-1.68-.12-2.4-.12-1.68-.12-3.36-.12-5.28-.12h-.36v210.758h.6c24.12 0 48-3.842 70.56-11.408zm0-66.65v-64.129c4.44 9.848 6.96 20.656 6.96 32.185 0 11.409-2.52 22.337-6.96 31.944z" fill="#32303D"/><path d="M198 195.148a99.411 99.411 0 0 1-25.56 42.152v-39.87c2.04-4.323 3.48-8.767 4.56-13.33l21 11.048z" fill="#E1AF74"/><path d="M57.84 76.979c0 24.018 19.68 43.713 43.68 43.713s43.68-19.695 43.68-43.713c0-1.802.12-21.857-.12-21.857-.48-6.005-2.04-11.89-4.56-16.933h-78c-2.64 5.044-4.32 10.928-4.56 16.933-.24 0-.12 21.016-.12 21.857z" fill="#E4BB8F"/><path d="M101.52 120.692c24 0 43.68-19.695 43.68-43.713V55.242c-.48-6.005-2.04-11.889-4.56-16.933h-39v82.383h-.12z" fill="#E0B074"/><ellipse fill="#E1594D" cx="133.32" cy="78.9" rx="6" ry="6.005"/><path d="M101.52 79.14c-2.28 0-4.32 1.802-4.32 4.323 0 .48.12.961.36 1.442h8.04c.12-.48.36-.961.36-1.442-.12-2.401-2.16-4.323-4.44-4.323z" fill="#E1594D"/><ellipse fill="#1F3654" cx="85.44" cy="70.494" rx="6" ry="6.005"/><ellipse fill="#FFF" cx="83.52" cy="70.494" rx="2.04" ry="2.042"/><ellipse fill="#1F3654" cx="117.48" cy="70.494" rx="6" ry="6.005"/><ellipse fill="#FFF" cx="115.56" cy="70.494" rx="2.04" ry="2.042"/><ellipse fill="#E1594D" cx="69.84" cy="78.9" rx="6" ry="6.005"/><path d="M144.36 85.745c4.92 0 8.88-3.963 8.88-8.887a8.863 8.863 0 0 0-8.88-8.886v17.773z" fill="#E0B074"/><path d="M58.68 68.092a8.863 8.863 0 0 0-8.88 8.887 8.863 8.863 0 0 0 8.88 8.886V68.092z" fill="#E4BB8F"/><path d="M58.68 72.415c-2.4 0-4.44 2.042-4.44 4.443 0 2.402 2.04 4.444 4.44 4.444v-8.887zm85.68 0c2.4 0 4.44 2.042 4.44 4.443 0 2.402-2.04 4.444-4.44 4.444v-8.887z" fill="#E7A958"/><path d="M99.84 84.424c13.68-3.362 26.64 1.441 28.92 10.929l-49.32 12.249c-2.4-9.367 6.84-19.815 20.4-23.178zm-42-39.27h4.8v23.899c-1.2-.6-2.4-.961-3.96-.961h-.96V45.154h.12zm87.48 0h-4.8v23.899c1.2-.6 2.4-.961 3.96-.961h.96V45.154h-.12z" fill="#B0784A"/><path d="M138.96 61.367c0 14.29-16.92 25.82-37.8 25.82-20.88 0-37.8-11.53-37.8-25.82h75.6z" fill="#1F3654"/><path d="M145.32 40.831v18.133c-10.8 7.567-26.4 12.13-43.68 12.13-17.16 0-32.88-4.563-43.68-12.13V40.832c10.8 7.566 26.4 12.13 43.68 12.13 17.16 0 32.76-4.564 43.68-12.13z" fill="#F8B947"/><path d="M145.32 40.831v18.133c-10.8 7.567-26.4 12.13-43.68 12.13V52.96c17.16 0 32.76-4.563 43.68-12.129z" fill="#DFA73F"/><path d="M159.24 26.9v.721c0 19.575-26.16 35.427-58.44 35.427S42.36 47.196 42.36 27.62v-.72h116.88z" fill="#494659"/><ellipse fill="#32303D" cx="100.92" cy="26.18" rx="58.44" ry="26.06"/><ellipse fill="#BC4443" cx="102.24" cy="62.808" rx="11.88" ry="5.044"/><ellipse fill="#F8B947" cx="80.4" cy="134.742" rx="5.4" ry="5.404"/><ellipse fill="#F8B947" cx="80.4" cy="162.363" rx="5.4" ry="5.404"/><ellipse fill="#F8B947" cx="80.4" cy="190.105" rx="5.4" ry="5.404"/><ellipse fill="#F8B947" cx="80.4" cy="217.726" rx="5.4" ry="5.404"/><ellipse fill="#F8B947" cx="122.64" cy="134.742" rx="5.4" ry="5.404"/><path d="M122.64 156.96c2.88 0 5.4 2.401 5.4 5.403 0 2.883-2.4 5.405-5.4 5.405-3 0-5.4-2.402-5.4-5.405.12-2.882 2.52-5.404 5.4-5.404z" fill="#E9AF3F"/><path d="M4.92 195.148c.6 2.162 1.44 4.444 2.28 6.485l20.64-10.928a138.95 138.95 0 0 1-2.04-6.605L4.92 195.148zm193.2-.72c-.6 2.161-1.44 4.443-2.28 6.485l-20.64-10.929a138.95 138.95 0 0 0 2.04-6.605l20.88 11.049z" fill="#2A2934"/><ellipse fill="#F8B947" cx="122.64" cy="190.105" rx="5.4" ry="5.404"/><ellipse fill="#F8B947" cx="122.64" cy="217.726" rx="5.4" ry="5.404"/></g></g></g></svg>