<svg width="145" height="150" viewBox="0 0 145 150" xmlns="http://www.w3.org/2000/svg" xmlns:xlink="http://www.w3.org/1999/xlink"><title>1.7-illustration#3</title><defs><rect id="a" width="159" height="150" rx="2.4"/></defs><g transform="translate(-14)" fill="none" fill-rule="evenodd"><mask id="b" fill="#fff"><use xlink:href="#a"/></mask><g mask="url(#b)"><path fill="#A2C0C6" d="M62.52 181.194V-13.653h230.713v194.919l-230.712-.072z"/><path d="M33.61 7.877A1.471 1.471 0 0 1 35.336 9.1c.143.864-.36 1.584-1.223 1.728l-7.983 1.44-3.092.576c-2.733.576-4.172 2.088-4.963 3.96-.79 2.017-.863 4.537-.863 6.697V181.05h-3.02V23.574c-.072-2.448.072-5.328 1.007-7.849 1.078-2.736 3.164-4.968 7.12-5.76h.071l3.165-.576 8.055-1.512z" fill="#C6C7C6"/><path d="M29.438 9.965c-.287-1.656.791-3.312 2.517-3.6l9.206-1.656c1.654-.288 3.308.792 3.596 2.52.288 1.656-.791 3.312-2.517 3.6l-9.206 1.656c-1.654.288-3.236-.792-3.596-2.52z" fill="#C6C7C6"/><path d="M29.438 9.965l15.247-2.736c.288 1.656-.791 3.312-2.517 3.6l-9.206 1.656c-1.582.288-3.164-.792-3.524-2.52z" fill="#FBBB4D"/><path fill="#96B6BE" d="M170.253 56.48v34.563h-37.469V56.48z"/><path fill="#B1DDE9" d="M167.089 59.72v31.323h-31.14V59.721z"/><path d="M167.089 77.002v2.304L147.527 59.65h2.302l17.26 17.353zm0 6.913v4.608L138.394 59.72h4.603l24.092 24.194zm0 6.84v.288h-2.014l-29.054-29.162v-2.232h.143l30.925 31.106z" fill="#C7E6EF"/><path fill="#91CAD5" d="M167.089 59.72h-31.14v.937h31.14v-.936z"/><path fill="#91CAD5" d="M147.168 59.72v31.323h.935V59.721h-.935z"/><path fill="#91CAD5" d="M167.089 70.954h-30.925v.936h30.925z"/><path fill="#96B6BE" d="M145.586 91.043V56.48h1.582v34.563h-1.582zm10.356 0V56.48h1.582v34.563h-1.582z"/><path fill="#91CAD5" d="M157.524 59.72v31.323h.935V59.721h-.935zm-21.575 0v31.323h.935V59.721h-.935z"/><path fill="#96B6BE" d="M134.295 69.37h34.52v1.584h-34.52v-1.585z"/><path fill="#88A5AB" d="M132.784 56.48v34.563h1.87V56.48h-1.87z"/><path fill="#88A5AB" d="M170.253 56.48h-36.606v1.873h36.606V56.48z"/><path fill="#ABC5CB" d="M130.699 90.107h41.712V96.3h-41.712v-6.193z"/><path fill="#88A5AB" d="M172.411 96.372v-6.193l6.185 6.193v6.192h-41.712l-6.185-6.192h6.185z"/><path fill="#96B6BE" d="M170.253 109.62v34.563h-37.469v-34.562z"/><path fill="#B1DDE9" d="M167.089 112.789v31.322h-31.14V112.79z"/><path d="M167.089 130.142v2.304l-19.562-19.657h2.302l17.26 17.353zm0 6.84v4.609l-28.695-28.802h4.603l24.092 24.194zm0 6.913v.288h-2.014l-29.054-29.162v-2.232h.143l30.925 31.106z" fill="#C7E6EF"/><path fill="#91CAD5" d="M167.089 112.789h-31.14v.936h31.14v-.936z"/><path fill="#91CAD5" d="M147.168 112.789v31.322h.935V112.79h-.935z"/><path fill="#91CAD5" d="M167.089 124.094h-30.925v.936h30.925z"/><path fill="#96B6BE" d="M145.586 144.183v-34.562h1.582v34.562zm10.356 0v-34.562h1.582v34.562z"/><path fill="#91CAD5" d="M157.524 112.789v31.322h.935V112.79h-.935zm-21.575 0v31.322h.935V112.79h-.935z"/><path fill="#96B6BE" d="M134.295 122.438h34.52v1.584h-34.52v-1.584z"/><path fill="#88A5AB" d="M132.784 109.62v34.563h1.87v-34.562h-1.87z"/><path fill="#88A5AB" d="M170.253 109.62h-36.606v1.873h36.606v-1.872z"/><path fill="#ABC5CB" d="M130.699 143.247h41.712v6.193h-41.712v-6.193z"/><path fill="#88A5AB" d="M172.411 149.44v-6.193l6.185 6.193v6.192h-41.712l-6.185-6.192h6.185z"/><path fill="#96B6BE" d="M170.253 3.34v34.563h-37.469V3.34z"/><path fill="#B1DDE9" d="M167.089 6.58v31.323h-31.14V6.581z"/><path d="M167.089 23.862v2.304L147.527 6.51h2.302l17.26 17.353zm0 6.913v4.608L138.394 6.58h4.603l24.092 24.194zm0 6.912v.288h-2.014L136.021 8.813V6.58h.143l30.925 31.106z" fill="#C7E6EF"/><path fill="#91CAD5" d="M167.089 6.58h-31.14v.937h31.14V6.58z"/><path fill="#91CAD5" d="M147.168 6.58v31.323h.935V6.581h-.935z"/><path fill="#91CAD5" d="M167.089 17.814h-30.925v.936h30.925z"/><path fill="#96B6BE" d="M145.586 37.903V3.34h1.582v34.563zm10.356 0V3.34h1.582v34.563z"/><path fill="#91CAD5" d="M157.524 6.58v31.323h.935V6.581h-.935zm-21.575 0v31.323h.935V6.581h-.935z"/><path fill="#96B6BE" d="M134.295 16.23h34.52v1.584h-34.52v-1.585z"/><path fill="#88A5AB" d="M132.784 3.34v34.563h1.87V3.34h-1.87z"/><path fill="#88A5AB" d="M170.253 3.34h-36.606v1.873h36.606V3.34z"/><path fill="#ABC5CB" d="M130.699 36.967h41.712v6.192h-41.712v-6.192z"/><path fill="#88A5AB" d="M172.411 43.231V37.04l6.185 6.192v6.193h-41.712l-6.185-6.193h6.185z"/><path fill="#96B6BE" d="M117.538 56.48v34.563h-37.47V56.48z"/><path fill="#B1DDE9" d="M114.373 59.72v31.323h-31.14V59.721z"/><path d="M114.373 77.002v2.304L94.812 59.65h2.301l17.26 17.353zm0 6.913v4.608L85.678 59.72h4.53l24.165 24.194zm0 6.84v.288h-2.013L83.305 61.881v-2.232h.144l30.924 31.106z" fill="#C7E6EF"/><path fill="#91CAD5" d="M114.373 59.72h-31.14v.937h31.14v-.936z"/><path fill="#91CAD5" d="M94.452 59.72v31.323h.935V59.721h-.935z"/><path fill="#91CAD5" d="M114.373 70.954H83.45v.936h30.924z"/><path fill="#96B6BE" d="M92.798 91.043V56.48h1.582v34.563h-1.582zm10.428 0V56.48h1.582v34.563h-1.582z"/><path fill="#91CAD5" d="M104.808 59.72v31.323h.935V59.721h-.935zm-21.575 0v31.323h.935V59.721h-.935z"/><path fill="#96B6BE" d="M81.579 69.37h34.52v1.584H81.58z"/><path fill="#88A5AB" d="M80.068 56.48v34.563h1.87V56.48h-1.87z"/><path fill="#88A5AB" d="M117.538 56.48H80.932v1.873h36.606V56.48z"/><path fill="#ABC5CB" d="M77.983 90.107h41.712V96.3H77.983z"/><path fill="#88A5AB" d="M119.695 96.372v-6.193l6.185 6.193v6.192H84.168l-6.185-6.192h6.185z"/><path fill="#96B6BE" d="M117.538 109.62v34.563h-37.47v-34.562z"/><path fill="#B1DDE9" d="M114.373 112.789v31.322h-31.14V112.79z"/><path d="M114.373 130.142v2.304L94.812 112.79h2.301l17.26 17.353zm0 6.84v4.609l-28.695-28.802h4.53l24.165 24.194zm0 6.913v.288h-2.013l-29.055-29.162v-2.232h.144l30.924 31.106z" fill="#C7E6EF"/><path fill="#91CAD5" d="M114.373 112.789h-31.14v.936h31.14v-.936z"/><path fill="#91CAD5" d="M94.452 112.789v31.322h.935V112.79h-.935z"/><path fill="#91CAD5" d="M114.373 124.094H83.45v.936h30.924z"/><path fill="#96B6BE" d="M92.798 144.183v-34.562h1.582v34.562zm10.428 0v-34.562h1.582v34.562z"/><path fill="#91CAD5" d="M104.808 112.789v31.322h.935V112.79h-.935zm-21.575 0v31.322h.935V112.79h-.935z"/><path fill="#96B6BE" d="M81.579 122.438h34.52v1.584H81.58z"/><path fill="#88A5AB" d="M80.068 109.62v34.563h1.87v-34.562h-1.87z"/><path fill="#88A5AB" d="M117.538 109.62H80.932v1.873h36.606v-1.872z"/><path fill="#ABC5CB" d="M77.983 143.247h41.712v6.193H77.983z"/><path fill="#88A5AB" d="M119.695 149.44v-6.193l6.185 6.193v6.192H84.168l-6.185-6.192h6.185z"/><path fill="#96B6BE" d="M117.538 3.34v34.563h-37.47V3.34z"/><path fill="#B1DDE9" d="M114.373 6.58v31.323h-31.14V6.581z"/><path d="M114.373 23.862v2.304L94.812 6.51h2.301l17.26 17.353zm0 6.913v4.608L85.678 6.58h4.53l24.165 24.194zm0 6.912v.288h-2.013L83.305 8.813V6.58h.144l30.924 31.106z" fill="#C7E6EF"/><path fill="#91CAD5" d="M114.373 6.58h-31.14v.937h31.14V6.58z"/><path fill="#91CAD5" d="M94.452 6.58v31.323h.935V6.581h-.935z"/><path fill="#91CAD5" d="M114.373 17.814H83.45v.936h30.924z"/><path fill="#96B6BE" d="M92.798 37.903V3.34h1.582v34.563zm10.428 0V3.34h1.582v34.563z"/><path fill="#91CAD5" d="M104.808 6.58v31.323h.935V6.581h-.935zm-21.575 0v31.323h.935V6.581h-.935z"/><path fill="#96B6BE" d="M81.579 16.23h34.52v1.584H81.58z"/><path fill="#88A5AB" d="M80.068 3.34v34.563h1.87V3.34h-1.87z"/><path fill="#88A5AB" d="M117.538 3.34H80.932v1.873h36.606V3.34z"/><path fill="#ABC5CB" d="M77.983 36.967h41.712v6.192H77.983z"/><path fill="#88A5AB" d="M119.695 43.231V37.04l6.185 6.192v6.193H84.168l-6.185-6.193h6.185z"/><g transform="translate(29.726 22.638)"><path d="M60.555 159.708C27.329 159.492.36 132.49.36 99.224c0-33.411 26.897-60.413 60.195-60.63V52.42c-25.603.216-46.315 21.026-46.315 46.804 0 25.633 20.712 46.515 46.315 46.66v13.824z" fill="#403C4E"/><path d="M2.949 117.009c2.948 9.72 8.414 18.361 15.39 25.346v-23.69c-1.223-2.664-2.23-5.472-2.877-8.28L2.95 117.008zm47.393 41.763c3.38.576 6.905.936 10.5.936h.288v-13.825h-.288c-3.595 0-7.12-.36-10.5-1.224v14.113z" fill="#E4BC8E"/><path d="M103.274 158.34V56.02c-10.932-10.8-25.89-17.425-42.503-17.425-16.47 0-31.5 6.624-42.36 17.353V158.34c13.664 4.536 27.832 6.84 42.503 6.84 14.528 0 28.84-2.304 42.36-6.84z" fill="#403C4E"/><path d="M103.274 158.34v-16.057c11.147-10.945 17.98-26.21 17.98-43.06 0-16.849-6.905-32.114-17.98-43.059l-.575-.576-.432-.432-.575-.576c-.216-.216-.36-.288-.432-.432l-.575-.576-.432-.432a5.222 5.222 0 0 0-.647-.576c-.216-.216-.36-.288-.431-.36-.216-.216-.432-.36-.648-.576-.215-.072-.287-.288-.431-.36-.216-.216-.432-.36-.647-.576-.216-.072-.288-.288-.432-.36-.288-.216-.431-.36-.72-.576-.215-.072-.287-.216-.43-.36-.288-.216-.432-.36-.72-.576-.215-.072-.287-.216-.431-.288-.288-.216-.432-.36-.72-.432-.215-.072-.287-.216-.43-.288a2.43 2.43 0 0 0-.864-.432c-.216-.072-.288-.216-.431-.288a2.43 2.43 0 0 0-.863-.432c-.216-.072-.288-.216-.432-.288-.288-.216-.575-.288-.863-.433-.072-.072-.288-.216-.36-.216-.287-.216-.575-.288-.935-.432l-.36-.216c-.287-.216-.646-.288-.934-.432-.072-.072-.288-.072-.36-.216-.36-.216-.647-.288-1.006-.432l-.36-.216c-.36-.216-.647-.288-1.007-.432h-.36c-.36-.216-.647-.288-1.006-.432l-.36-.072c-.36-.216-.72-.288-1.079-.36l-.215-.216c-.36-.216-.72-.288-1.08-.36l-.287-.072c-.36-.072-.72-.288-1.222-.36l-.288-.072c-.36-.072-.863-.288-1.223-.36l-.216-.072a7.85 7.85 0 0 1-1.222-.36h-.216c-.36-.072-.863-.216-1.294-.288l-.216-.072c-.432-.072-.863-.216-1.295-.288h-.215c-.432-.072-.935-.216-1.295-.288h-.216c-.431-.072-.935-.216-1.366-.216h-.072c-.432-.072-.935-.072-1.366-.216h-.072c-.432-.072-.935-.072-1.439-.216H67.1c-.431-.072-1.007-.072-1.438-.072h-.216c-.431 0-1.007-.072-1.438-.072-1.007-.072-2.014-.072-3.165-.072h-.215v126.37h.36c14.455 0 28.766-2.305 42.287-6.841zm0-39.963v-38.45c2.66 5.904 4.171 12.384 4.171 19.297 0 6.84-1.51 13.393-4.171 19.153z" fill="#32303D"/><path d="M118.664 117.009a59.61 59.61 0 0 1-15.318 25.274v-23.906c1.222-2.592 2.086-5.256 2.733-7.993l12.585 6.625z" fill="#E1AF74"/><path d="M34.664 46.156c0 14.4 11.795 26.21 26.178 26.21 14.384 0 26.179-11.81 26.179-26.21 0-1.08.071-13.105-.072-13.105-.288-3.6-1.223-7.129-2.733-10.153H37.469c-1.582 3.024-2.589 6.552-2.733 10.153-.144 0-.072 12.6-.072 13.105z" fill="#E4BB8F"/><path d="M60.842 72.366c14.384 0 26.179-11.81 26.179-26.21V33.123c-.288-3.6-1.223-7.129-2.733-10.153H60.914v49.395h-.072z" fill="#E0B074"/><ellipse fill="#E1594D" cx="79.901" cy="47.308" rx="3.596" ry="3.6"/><path d="M60.842 47.452a2.58 2.58 0 0 0-2.589 2.592c0 .288.072.576.216.864h4.819c.072-.288.215-.576.215-.864-.071-1.44-1.294-2.592-2.66-2.592z" fill="#E1594D"/><ellipse fill="#1F3654" cx="51.205" cy="42.267" rx="3.596" ry="3.6"/><ellipse fill="#FFF" cx="50.055" cy="42.267" rx="1.223" ry="1.224"/><ellipse fill="#1F3654" cx="70.408" cy="42.267" rx="3.596" ry="3.6"/><ellipse fill="#FFF" cx="69.257" cy="42.267" rx="1.223" ry="1.224"/><ellipse fill="#E1594D" cx="41.856" cy="47.308" rx="3.596" ry="3.6"/><path d="M86.517 51.412a5.313 5.313 0 0 0 5.322-5.328 5.313 5.313 0 0 0-5.322-5.329v10.657z" fill="#E0B074"/><path d="M35.168 40.827a5.313 5.313 0 0 0-5.322 5.329 5.313 5.313 0 0 0 5.322 5.328V40.827z" fill="#E4BB8F"/><path d="M35.168 43.42c-1.439 0-2.661 1.223-2.661 2.664 0 1.44 1.222 2.664 2.66 2.664v-5.329zm51.349 0c1.438 0 2.661 1.223 2.661 2.664 0 1.44-1.223 2.664-2.66 2.664v-5.329z" fill="#E7A958"/><path d="M59.836 50.62c8.198-2.016 15.965.864 17.332 6.552L47.61 64.517C46.17 58.9 51.709 52.636 59.836 50.62zM34.664 27.074h2.877v14.33c-.72-.36-1.438-.577-2.373-.577h-.576V27.074h.072zm52.428 0h-2.876v14.33c.719-.36 1.438-.577 2.373-.577h.575V27.074h-.072z" fill="#B0784A"/><path d="M83.28 36.795c0 8.568-10.14 15.481-22.653 15.481-12.514 0-22.654-6.913-22.654-15.481H83.28z" fill="#1F3654"/><path d="M87.092 24.482v10.873c-6.472 4.536-15.821 7.272-26.178 7.272-10.284 0-19.705-2.736-26.178-7.272V24.482c6.473 4.536 15.822 7.272 26.178 7.272 10.285 0 19.634-2.736 26.178-7.272z" fill="#F8B947"/><path d="M87.092 24.482v10.873c-6.472 4.536-15.821 7.272-26.178 7.272V31.754c10.285 0 19.634-2.736 26.178-7.272z" fill="#DFA73F"/><path d="M95.435 16.13v.431c0 11.737-15.678 21.242-35.024 21.242S25.387 28.298 25.387 16.56v-.432h70.048z" fill="#494659"/><ellipse fill="#32303D" cx="60.483" cy="15.697" rx="35.024" ry="15.625"/><ellipse fill="#BC4443" cx="61.274" cy="37.659" rx="7.12" ry="3.024"/><ellipse fill="#F8B947" cx="48.185" cy="80.79" rx="3.236" ry="3.24"/><ellipse fill="#F8B947" cx="48.185" cy="97.351" rx="3.236" ry="3.24"/><ellipse fill="#F8B947" cx="48.185" cy="113.985" rx="3.236" ry="3.24"/><ellipse fill="#F8B947" cx="48.185" cy="130.546" rx="3.236" ry="3.24"/><ellipse fill="#F8B947" cx="73.5" cy="80.79" rx="3.236" ry="3.24"/><path d="M73.5 94.111c1.726 0 3.236 1.44 3.236 3.24 0 1.729-1.438 3.24-3.236 3.24a3.225 3.225 0 0 1-3.236-3.24c.072-1.728 1.51-3.24 3.236-3.24z" fill="#E9AF3F"/><path d="M2.949 117.009c.36 1.296.863 2.664 1.366 3.888l12.37-6.552a83.341 83.341 0 0 1-1.223-3.96L2.95 117.008zm115.787-.432c-.36 1.296-.863 2.664-1.366 3.888L105 113.913a83.341 83.341 0 0 0 1.223-3.96l12.513 6.624z" fill="#2A2934"/><ellipse fill="#F8B947" cx="73.5" cy="113.985" rx="3.236" ry="3.24"/><ellipse fill="#F8B947" cx="73.5" cy="130.546" rx="3.236" ry="3.24"/></g></g></g></svg>