<svg width="143" height="115" viewBox="0 0 143 115" xmlns="http://www.w3.org/2000/svg"><title>A99B7BDE-EFAB-4D22-8ADE-DCC97760B802</title><g fill="none" fill-rule="evenodd"><path d="M15.054 86.093L6.13 91.274a.775.775 0 0 0-.284 1.062c.09.148.215.262.363.33l4.019 2.043-.25 4.52a.727.727 0 0 0 .102.479.767.767 0 0 0 1.056.285l8.923-5.181c3.077-1.78-1.93-10.5-5.006-8.719z" fill="#EEC281"/><path d="M6.13 91.274a.775.775 0 0 0-.283 1.062c.09.148.215.262.363.33l4.019 2.043-.25 4.52a.727.727 0 0 0 .102.479.767.767 0 0 0 1.056.285l5.45-3.161c-2.998 1.746-7.845-6.528-5.211-8.57L6.13 91.285v-.012z" fill="#E7A958"/><path d="M118.955 42.396c3.848-1.803 7.765-7.498 6.017-10.978-1.737-3.481-5.79-.73-5.347 2.818 1.385 7.92 13.543 4.075 14.384-1.426" stroke="#F1CD9F" stroke-width="2.136"/><path d="M13.147 41.62l2.747 4.793 4.586 8 4.598-7.988 4.598-7.989-9.184-.011h-5.733a1.996 1.996 0 0 0-1.783.981c-.42.719-.318 1.61.17 2.225v-.011z" fill="#EEC281"/><ellipse fill="#D9DADA" cx="71.5" cy="108.735" rx="71.5" ry="6.265"/><path d="M71.012 110.538c-20.674-.023-49.646-2.75-58.887-24.525-1.147-2.704-2.214-5.9-2.407-8.867-.011-.114-.011-.263-.011-.457-.057-1.985.476-4.336 1.998-5.728.125-.137.272-.263.42-.366 3.372-2.362 4.689-7.406 5.506-12.405 4.337-26.544 25.6-45.945 53.392-46.036 20.117.068 37.726 10.91 47.398 27.08a55.25 55.25 0 0 1 5.631 12.885c2.532 8.628-1.691 18.442-2.43 28.131 0 .103-.01.205-.022.297-.034.49-.08.981-.125 1.46-1.192 10.294-6.982 12.999-16.28 16.788-9.73 3.264-19.163 11.72-34.16 11.743h-.023z" fill="#E7A958"/><path d="M71.012 110.538c-20.674-.023-49.646-2.75-58.887-24.525-1.147-2.704-2.214-5.9-2.407-8.867-.011-.114-.011-.263-.011-.457-.057-1.985.476-4.336 1.998-5.728.125-.137.272-.263.42-.366 3.372-2.362 4.689-7.406 5.506-12.405 4.337-26.544 25.6-45.945 53.392-46.036 20.117.068 37.726 10.91 47.398 27.08a55.25 55.25 0 0 1 5.631 12.885c2.532 8.628-1.691 18.442-2.43 28.131 0 .103-.01.205-.022.297-.034.49-.08.981-.125 1.46-1.192 10.294-6.982 12.999-16.28 16.788-9.73 3.264-19.163 11.72-34.16 11.743h-.023z" fill="#E7A958"/><path d="M38.974 106.886c-4.598-1.484-9.014-5.215-11.739-8.377-.896-.924-.862-2.11-.102-2.59 1.828-2.408-.26-5.558-.783-9.575-.023-.171-.602-1.746-.375-1.951-.08-.172 1.351-1.632 1.272-1.815-1.624.742-5.779.867-9.627-.08-1.556-.148-3.315-.616-4.258-1.152-.102-2.785.602-7.053.5-9.838 3.258-.604 6.153-3.435 7.64-6.288 1.306-2.499 1.942-5.489 2.702-8.935 2.384-10.762 7.856-19.983 15.599-26.66 8.23-7.097 19.005-11.32 31.209-11.354l-.034-.73c.75-.023 1.498-.046 2.259-.08 1.113 0 1.362-3.105 4.337-4.908 17.347 2.123 32.219 12.291 40.824 26.67 9.15 15.304 13.896 44.36 1.238 58.647-15.451 17.427-59.591 14.848-80.662 9.016z" fill="#EEC281"/><path d="M70.978 17.54c.75-.022 1.498-.045 2.259-.08 1.113 0 1.362-3.104 4.337-4.907 14.531 1.78 28.2 8.879 38.395 22.962-9.502-8.925-23.16-14.676-34.002-16.468l-11-1.507h.01z" fill="#E7A958"/><path d="M120.351 86.093l8.923 5.181c.375.217.5.696.284 1.062a.846.846 0 0 1-.363.33l-4.019 2.043.25 4.52a.727.727 0 0 1-.102.479.767.767 0 0 1-1.056.285l-8.923-5.181c-1.26-.73-1.17-3.275.215-5.683s3.531-3.766 4.791-3.025v-.01z" fill="#F1CD9F"/><path d="M60.136 19.115c7.277-1.94 15.213-1.597 21.843-.08" stroke="#1E3654" stroke-width="4.271"/><path d="M30.357 54.504c3.293-3.48 7.062-1.164 7.868.423" stroke="#E7A958" stroke-width="2.136"/><path d="M43.152 64.593c2.736-.103 5.03 2.042 5.132 4.793.102 2.75-2.033 5.055-4.769 5.158-2.736.103-5.029-2.043-5.131-4.793-.102-2.75 2.032-5.056 4.768-5.158z" fill="#E1574C"/><path d="M20.299 57.814c.567.217.795 1.94.5 3.834-.296 1.895-1 3.264-1.579 3.047-.567-.216-.794-1.94-.5-3.834.296-1.895 1-3.264 1.579-3.047z" fill="#1E3654"/><path d="M20.277 60.359c.181.057.25.502.147 1.004-.102.49-.318.856-.5.799-.181-.057-.25-.502-.147-1.004.102-.491.318-.856.5-.8z" fill="#FEFEFE"/><path d="M57.423 86.093l8.923 5.181c.374.217.5.696.284 1.062a.846.846 0 0 1-.364.33l-4.019 2.043.25 4.52a.727.727 0 0 1-.102.479.767.767 0 0 1-1.056.285l-8.923-5.181c-3.077-1.78 1.93-10.5 5.007-8.719z" fill="#F1CD9F"/><path d="M66.346 91.274c.374.217.5.696.284 1.062a.846.846 0 0 1-.364.33l-4.019 2.043.25 4.52a.727.727 0 0 1-.102.479.767.767 0 0 1-1.056.285l-2.475-1.438c-3.076-1.78 1.93-10.499 5.007-8.719l2.475 1.438z" fill="#E7A958"/><path d="M13.85 71.508c1.544-.102 2.839 2.043 2.895 4.793.057 2.75-1.146 5.056-2.69 5.159-1.544.102-2.838-2.043-2.895-4.793-.057-2.75 1.146-5.056 2.69-5.159z" fill="#E1574C"/><path d="M69.15.011c.113 0 .227-.011.34 0h3.293v1.016c2.26 1.45 3.848 4.325 3.94 7.692.101 3.606-1.51 6.79-3.94 8.354v.992h-2.986c-.034 0-.068 0-.102.012-4.03.182-7.425-3.71-7.572-8.696C61.975 4.394 65.13.205 69.16.023L69.15.01z" fill="#FFC400"/><path d="M69.15.011c.113 0 .227-.011.34 0h3.293v1.016c.295.183.579.4.84.628h-8.412C66.334.685 67.685.08 69.15.01zm4.45 16.434a6.253 6.253 0 0 1-.828.616v.993h-2.986c-.034 0-.068 0-.102.011-1.647.08-3.19-.536-4.45-1.62h8.378-.012zm2.328-3.287a10.75 10.75 0 0 1-.875 1.644H63.791a8.702 8.702 0 0 1-.874-1.644H75.94h-.011zm.772-3.287c-.046.56-.125 1.119-.25 1.644H62.384a10.795 10.795 0 0 1-.25-1.644H76.7zm-.239-3.286c.125.525.205 1.073.25 1.643H62.145c.046-.56.125-1.118.25-1.643h14.078-.012zm-1.396-3.287c.34.502.636 1.05.874 1.643H62.906a9.066 9.066 0 0 1 .874-1.643h11.285z" fill-opacity=".502" fill="#E2AC25"/><path d="M72.442.011c4.03-.182 7.425 3.71 7.573 8.696.147 4.988-3.009 9.176-7.04 9.358-4.03.183-7.424-3.709-7.571-8.696-.148-4.987 3.008-9.175 7.038-9.358z" fill="#FFDA31"/><path d="M62.713 41.94l-2.747 4.793-4.178 7.303a27.809 27.809 0 0 0-8.98-15.269l8.56-.011 5.733-.012a1.973 1.973 0 0 1 1.612 3.207v-.011z" fill="#F1CD9F"/><path d="M40.246 85.055c-1.465 5.534-5.302 9.323-11.183 10.613-3.042.673-5.847.068-6.914-3.321-.965-3.059-3.042-7.43-4.54-9.849 1.407.16 2.928.206 4.404.16 1.238-.046 2.543-.228 3.644-.434a19.163 19.163 0 0 0 4.144-1.266c1.374-.594 2.555-1.29 3.542-2.043.363-.274.704-.56 1.022-.845a3.8 3.8 0 0 1 2.702-1.13c2.1 0 3.803 1.712 3.803 3.824 0 1.358-.284 2.944-.636 4.29h.012z" fill="#1E3654"/><path d="M40.246 85.055c-1.465 5.534-5.302 9.323-11.183 10.613a9.594 9.594 0 0 1-1.93.24c5.347-3.641 2.27-12.063-1.464-13.695a19.163 19.163 0 0 0 4.143-1.267 16.849 16.849 0 0 0 3.543-2.043c.363-.273.703-.559 1.021-.844a3.8 3.8 0 0 1 2.702-1.13c2.1 0 3.803 1.712 3.803 3.823 0 1.347-.283 2.945-.635 4.291v.012z" fill="#192D45"/><path d="M37.578 82.03a21.523 21.523 0 0 1-5.767 3.618c-2.543 1.107-5.552 1.86-9.015 2.031l-1.793-2.51c3.848.045 7.118-.696 9.809-1.86a19.349 19.349 0 0 0 5.052-3.162c.386-.342.624-.662 1.214-.662.704 0 1.272.571 1.272 1.279 0 .627-.363.913-.772 1.266z" fill="#FEFEFE"/><path d="M34.717 88.958c.443.833-.84 2.373-2.85 3.435-2.01 1.06-3.996 1.243-4.439.41-.442-.833.84-2.373 2.85-3.435 2.01-1.061 3.996-1.244 4.439-.41z" fill="#E1574C"/><path d="M129.286 91.274c.374.217.5.696.284 1.062a.846.846 0 0 1-.364.33l-4.019 2.043.25 4.52a.727.727 0 0 1-.102.479.767.767 0 0 1-1.056.285l-2.475-1.438c-3.076-1.78 1.93-10.499 5.007-8.719l2.475 1.438z" fill="#E7A958"/><path d="M34.32 56.399c1.589.137 2.667 2.716 2.395 5.751-.272 3.036-1.771 5.376-3.372 5.239-1.59-.137-2.668-2.716-2.395-5.752.272-3.036 1.77-5.375 3.372-5.238z" fill="#1E3654"/><path d="M35.16 60.165c.5.045.84.856.76 1.814-.08.959-.556 1.7-1.067 1.655-.5-.046-.84-.856-.76-1.815.079-.958.556-1.7 1.067-1.654z" fill="#FEFEFE"/><path d="M96.102 42.499h-9.015c1.034 2.145 2.01 4.28 2.827 6.425.806 2.122 1.442 4.28 2.021 6.425h10.172c1.42-.103 2.589-.126 3.69-.947.93-.697 1.396-1.7 1.487-2.83.114-2.58-1.85-5.82-4.689-7.647-2.463-1.563-4.37-1.426-6.505-1.426h.012zm-8.64 18.796h1.953a37.863 37.863 0 0 0-.34-2.192H87.12a76.39 76.39 0 0 0-.794-3.754h1.941c-.579-2.134-1.215-4.303-2.032-6.425-.817-2.157-1.817-4.291-2.861-6.425-.647-1.244-1.328-2.5-2.02-3.755H93.82c2.259 0 4.336.126 6.55.856 4.405 1.472 8.47 5.33 10.093 9.244 1.305 3.709.51 7.406-2.634 9.22-1.521.88-3.224 1.05-5.075 1.05H92.73c.125.731.25 1.462.34 2.192h13.601c.159 1.255.295 2.5.397 3.755H93.422c.068 1.803.114 3.594.023 5.386-.09 1.792-.33 3.583-.568 5.387h-3.723c.25-1.792.488-3.584.59-5.387.102-1.792.057-3.595 0-5.386h-1.953c-.09-1.244-.204-2.5-.352-3.755l.023-.011z" fill="#2A6470"/></g></svg>