<svg width="144" height="121" viewBox="0 0 144 121" xmlns="http://www.w3.org/2000/svg"><title>BE18BB65-3DD4-4F57-A15A-630AB482FF86</title><g fill="none" fill-rule="evenodd"><path d="M93.533 27.044c26.022 0 47.1 21.023 47.1 46.978 0 25.954-21.078 46.978-47.1 46.978-26.022 0-47.1-21.024-47.1-46.978 0-25.955 21.078-46.979 47.1-46.979z" fill="#B0DCE9"/><path d="M122.103 36.693h-19.198c-2.002 0-3.64 1.634-3.64 3.63 0 1.997 1.638 3.63 3.64 3.63h26.78a47.797 47.797 0 0 0-7.582-7.26zm-12.587 59.683H5.944C2.67 96.376 0 99.038 0 102.336c0 3.267 2.669 5.929 5.944 5.929h103.572V96.376z" fill="#D9EEF4"/><path d="M34.484 96.376h103.572c3.275 0 5.944 2.662 5.944 5.96 0 3.267-2.669 5.929-5.944 5.929H34.484V96.376zm73.668-59.683H79.703c-2.001 0-3.639 1.634-3.639 3.63 0 1.997 1.638 3.63 3.64 3.63h28.448v-7.26z" fill="#D9EEF4"/><path d="M99.326 81.463c-5.216 1.936-8.25 1.906-9.978.636-2.093-1.543-2.032-4.084-1.304-7.11.424-1.845 1.243-3.932 2.456-6.11a37.41 37.41 0 0 1 4.155-6.08l3.519 2.904c-1.517 1.815-2.76 3.63-3.67 5.354-.97 1.815-1.638 3.51-2.002 4.992-.334 1.36-.515 2.359-.424 2.42.485.332 2.123.06 5.67-1.271l1.578 4.265z" fill="#E3BA8D"/><path d="M121.8 77.198c3.578 1.3 5.216 1.603 5.67 1.27.122-.09-.09-1.089-.424-2.42-.333-1.482-1-3.176-2.001-4.99-.94-1.725-2.154-3.51-3.67-5.355l3.518-2.904a37.41 37.41 0 0 1 4.155 6.08c1.183 2.178 2.002 4.265 2.457 6.11.728 3.026.788 5.567-1.304 7.11-1.73 1.27-4.732 1.27-9.979-.636l1.577-4.265z" fill="#E0AF74"/><path fill="#819EA6" d="M108.364 97.314v6.202H97.992v-9.983h.03l-.758-5.566h12.616v9.347z"/><path fill="#628691" d="M111.336 97.314v6.202h10.373v-9.983h-.03l.818-5.566H109.88v9.347z"/><path d="M123.013 69.575c0 1.906 0 3.811.03 5.687l.06 3.237v6.05c.031 2.994.031 5.959.031 8.954h-26.72V78.499l.182-9.075-1.97 3.206-5.46-3.236 2.366-4.205c1.304-2.3 1.88-3.449 3.79-5.354 1.638-1.634 3.58-3.026 5.672-3.963 2.214-1.029 4.61-1.573 7.249-1.785 2.244-.181 4.58-.06 6.611.484 4.277 1.12 9.584 4.416 11.737 8.228l3.73 6.595-5.458 3.236-1.88-3.055h.03z" fill="#E1574C"/><path d="M123.013 69.575c0 1.906 0 3.811.03 5.687l.06 3.237v6.05c.031 2.994.031 5.959.031 8.954H109.85V53.966c1.729-.03 3.457.151 5.004.544 4.277 1.12 9.584 4.417 11.737 8.229l3.73 6.594-5.458 3.237-1.88-3.055.03.06z" fill="#CB4B40"/><path fill="#D8D9D9" d="M130.564 69.333l-5.823 3.448-.788-1.36 5.823-3.48z"/><path d="M121.83 77.682c-1.547-.03-7.036.756-12.07 1.724v-4.598c5.094-.968 10.432-1.694 12.16-1.633l-.12 4.507h.03z" fill="#E3BA8D"/><path d="M105.331 54.51c.273 2.209 2.153 3.903 4.398 3.903 2.305 0 4.064-1.815 4.306-4.054-1.82-.363-3.821-.423-5.762-.272-1.031.09-2.002.212-2.942.393v.03z" fill="#1E3654"/><path d="M106.332 119.276v-16.123h-6.278v17.423a47.105 47.105 0 0 0 6.278-1.3z" fill="#E3BA8D"/><path d="M119.676 113.135v-9.801h-6.278v13.34a49.13 49.13 0 0 0 6.278-3.539z" fill="#E0AF74"/><path fill="#99B1B7" d="M97.628 103.516h11.1v-1.906h-11.1z"/><path fill="#72929C" d="M110.972 103.516h11.1v-1.906h-11.1z"/><path d="M107.211 49.368v10.134h5.369V49.338c-.91.12-1.85.181-2.79.181-.88 0-1.73-.06-2.579-.151z" fill="#E0AF74"/><path d="M102.693 55.206a7.167 7.167 0 0 0 7.066 5.93c3.063 0 5.702-1.937 6.733-4.66.152-.362.273-.846.364-1.27-.667-.242-1.335-.484-1.971-.635a9.878 9.878 0 0 0-.91-.212c-.213 2.148-2.002 3.842-4.216 3.842a4.234 4.234 0 0 1-4.216-3.751c-1 .181-1.94.423-2.85.756z" fill="#D8D9D9"/><path d="M97.385 30.674a2.301 2.301 0 0 1 2.305 2.298 2.301 2.301 0 0 1-2.305 2.3 2.301 2.301 0 0 1-2.305-2.3 2.301 2.301 0 0 1 2.305-2.299zm25.506 0a2.301 2.301 0 0 0-2.305 2.298 2.301 2.301 0 0 0 2.305 2.3 2.301 2.301 0 0 0 2.305-2.3 2.301 2.301 0 0 0-2.305-2.299z" fill="#E1574C"/><path d="M125.894 14.43v10.133a3.276 3.276 0 0 1 3.275 3.267 3.277 3.277 0 0 1-3.275 3.267v8.047c0 8.833-7.249 16.062-16.105 16.062-8.856 0-16.104-7.23-16.104-16.063V14.46h32.209v-.03z" fill="#E0AF74"/><path d="M109.79 55.176c-8.857 0-16.105-7.23-16.105-16.063v-8.046c-1.79 0-3.276-1.452-3.276-3.267a3.277 3.277 0 0 1 3.276-3.267V14.399h16.104v40.777z" fill="#E3BA8D"/><path d="M93.655 31.097c-1.79 0-3.276-1.452-3.276-3.267a3.277 3.277 0 0 1 3.276-3.267v6.534z" fill="#E3BA8D"/><path d="M125.894 26.166c.91 0 1.668.756 1.668 1.664a1.68 1.68 0 0 1-1.668 1.664v-3.328zm-32.239 0a1.68 1.68 0 0 0-1.668 1.664 1.68 1.68 0 0 0 1.668 1.664v-3.328z" fill="#B0774A"/><path d="M109.79 28.858c.91 0 1.637.726 1.637 1.634 0 .181-.03.393-.09.544h-3.064a1.709 1.709 0 0 1-.091-.544 1.63 1.63 0 0 1 1.638-1.634h-.03z" fill="#E1574C"/><path d="M106.939 22.748c-1.608-2.33-5.308-2.057-6.582 0"/><path d="M115.916 23.262a2.301 2.301 0 0 0-2.305 2.3 2.301 2.301 0 0 0 2.305 2.298 2.301 2.301 0 0 0 2.305-2.299 2.301 2.301 0 0 0-2.305-2.299z" fill="#1E3654"/><path d="M116.644 24.805a.718.718 0 0 0-.728.726c0 .424.333.726.728.726a.718.718 0 0 0 .728-.726.718.718 0 0 0-.728-.726z" fill="#FEFEFE"/><path d="M103.663 23.262a2.301 2.301 0 0 0-2.305 2.3 2.301 2.301 0 0 0 2.305 2.298 2.301 2.301 0 0 0 2.305-2.299 2.301 2.301 0 0 0-2.305-2.299z" fill="#1E3654"/><path d="M104.39 24.805a.718.718 0 0 0-.727.726c0 .424.334.726.728.726a.718.718 0 0 0 .728-.726.718.718 0 0 0-.728-.726z" fill="#FEFEFE"/><path d="M119.191 22.748c-1.607-2.33-5.307-2.057-6.581 0"/><path d="M126.53 31.037a4.56 4.56 0 0 1-.636.06v8.047c0 8.833-7.249 16.062-16.105 16.062-8.856 0-16.104-7.23-16.104-16.063V18.756h3.943v9.982c0 1.21.94 2.209 2.153 2.27h20.047c1.183-.091 2.123-1.06 2.153-2.24V18.756h3.943v12.282h.637-.03z" fill="#B0774A"/><path d="M109.79 46.888c-10.13 0-11.89-10.89-11.525-10.89a3.05 3.05 0 0 1 3.063-3.056h16.893a3.05 3.05 0 0 1 3.063 3.056c.09.695-1.668 10.89-11.525 10.89h.03z" fill="#1E3654"/><path d="M98.659 38.297c1.304 4.93 5.793 8.59 11.13 8.59-3.973-2.904-4.033-11.827 0-13.945h-8.431a3.05 3.05 0 0 0-3.063 3.056c.06.756.182 1.542.394 2.299h-.03z" fill="#192D45"/><path d="M109.79 34.697h-8.462c-.728 0-1.304.575-1.304 1.3 0 .727.576 1.301 1.304 1.301h16.922c.728 0 1.304-.575 1.304-1.3 0-.726-.576-1.301-1.304-1.301h-8.462z" fill="#FEFEFE"/><path d="M107.848 22.234c.304.423.182.998-.242 1.3-.425.303-1.001.182-1.304-.241a2.497 2.497 0 0 0-.88-.817 3.285 3.285 0 0 0-1.91-.484c-.668.03-1.305.211-1.82.575a2.542 2.542 0 0 0-.698.695.91.91 0 0 1-1.274.303.905.905 0 0 1-.303-1.27 3.832 3.832 0 0 1 1.243-1.271c.789-.545 1.79-.847 2.821-.878 1-.03 2.062.212 2.942.757a4.68 4.68 0 0 1 1.425 1.361v-.03zm12.253 0c.303.423.182.998-.243 1.3-.424.303-1 .182-1.304-.241a2.497 2.497 0 0 0-.88-.817 3.285 3.285 0 0 0-1.91-.484c-.667.03-1.304.211-1.82.575a2.542 2.542 0 0 0-.697.695.91.91 0 0 1-1.274.303.905.905 0 0 1-.303-1.27 3.832 3.832 0 0 1 1.243-1.271c.789-.545 1.79-.847 2.82-.878 1.002-.03 2.063.212 2.943.757a4.68 4.68 0 0 1 1.425 1.361v-.03z" fill="#B0774A"/><path d="M109.79 40.928c-2.397 0-4.307.908-4.307 1.997s1.94 1.996 4.306 1.996c2.396 0 4.307-.907 4.307-1.996 0-1.09-1.941-1.997-4.307-1.997z" fill="#E1574C"/><path d="M101.995 1.331h15.65a8.302 8.302 0 0 1 6.46 3.086c2.031 2.51 1.759 4.446 1.759 7.41v6.928h-32.21V9.62c0-4.538 3.731-8.289 8.31-8.289h.03z" fill="#192D45"/><path d="M101.995 1.331h7.794v17.424H93.685V9.62c0-4.538 3.73-8.289 8.31-8.289z" fill="#1E3654"/><path d="M111.821 1.331V.666a.672.672 0 0 0-.667-.666h-2.73a.672.672 0 0 0-.667.665v.666h4.064zm-26.81 8.712v-1.21h32.664L125.894 17v1.755H93.746z" fill="#E1574C"/><path fill="#CB4B40" d="M93.746 18.755l-8.735-8.712h32.148l8.735 8.712z"/><path d="M127.532 78.499h-3.519c-4.518 0-4.518-6.806 0-6.806h2.943c.03.12.06.242.06.393 0 .635-.516 1.119-1.122 1.119h-.03 5.034v2.51c-.06 1.967-1.698 2.754-3.366 2.754v.03z" fill="#E3BA8D"/><path d="M109.79 79.376c1.425.302 2.941.665 4.427 1.028 4.853 1.18 8.19 2.027 10.342 2.36l1.092-3.993c-3.245-.998-6.43-1.815-10.342-2.783-1.85-.454-3.7-.817-5.49-1.18v4.538l-.03.03zm-14.255-.877a3.406 3.406 0 0 0 3.397-3.388c0-1.876-1.547-3.388-3.397-3.388H94.14c-.273.514-.485.998-.698 1.482.06 0 .122.03.213.03h.03-.243a17.985 17.985 0 0 0-.94 2.814c-.334 1.36-.515 2.359-.424 2.42.454.15 3.093.03 3.457.03z" fill="#E0AF74"/><path d="M109.79 79.376a151.01 151.01 0 0 0-4.429 1.028c-4.852 1.18-8.188 2.027-10.342 2.36l-1.091-3.993c3.245-.998 6.43-1.815 10.342-2.783 1.85-.454 3.518-.756 5.307-1.12l.182 4.508h.03z" fill="#E3BA8D"/><path d="M97.719 77.682c1.546-.03 7.036.756 12.07 1.724v-4.598c-5.095-.968-10.433-1.694-12.161-1.633l.12 4.507h-.03z" fill="#E0AF74"/><path fill="#D8D9D9" d="M88.984 69.333l5.823 3.448.819-1.36-5.853-3.48z"/><path d="M104.148 65.128l.182.333c.152.272.273.514.334.696.03.06 0 .09-.06.12l-.607.334c-.061.03-.122.03-.152-.03-.091-.122-.152-.213-.212-.273l-.577.302.364.666.94-.484c.092-.03.122-.03.183.06l.363.696c.03.06.03.121-.06.182l-.94.484.303.575c.06-.03.212-.091.394-.152.06-.03.122 0 .152.06l.333.606c.03.06.03.09-.03.12l-1.91 1.03c-.061.03-.092.03-.122-.031l-.333-.605c-.03-.06-.03-.121.03-.151.09-.06.212-.151.303-.212l-1.122-2.087c-.091.06-.212.12-.303.212-.03.03-.061.03-.091.03s-.061-.03-.061-.06l-.334-.636c-.03-.06-.03-.121.03-.151a8.556 8.556 0 0 1 1.73-1.12 5.964 5.964 0 0 1 1.091-.483c.091-.03.152 0 .182.06v-.09zm1.517 1.725l-.061-.273c-.121-.695-.09-1.24.152-1.633.242-.394.667-.666 1.304-.787.637-.12 1.152-.06 1.516.242.364.272.607.787.758 1.483l.061.272c.121.696.091 1.24-.152 1.633-.242.393-.667.666-1.304.787-.637.12-1.152.06-1.516-.242-.364-.272-.607-.787-.758-1.482zm2.365-.484l-.03-.212c-.091-.424-.182-.696-.273-.847-.09-.151-.243-.182-.455-.151-.212.03-.334.15-.364.302-.03.181-.03.454.06.877l.031.212c.091.424.182.696.273.847.091.151.243.181.455.151.212-.03.334-.151.364-.302.03-.182 0-.454-.06-.877zm2.123-.243l.03-.272c.092-.695.334-1.21.668-1.512.364-.303.85-.424 1.486-.303.637.091 1.092.333 1.365.726.242.394.333.938.242 1.634l-.03.272c-.09.696-.334 1.21-.667 1.512-.364.303-.85.424-1.486.303-.637-.09-1.092-.333-1.365-.726-.243-.393-.334-.938-.243-1.634zm2.396.303l.03-.212c.061-.423.061-.695.03-.877-.06-.181-.181-.272-.393-.303-.213-.03-.364.03-.455.182-.091.151-.152.424-.213.847l-.03.212c-.06.423-.06.695-.03.877.06.181.182.272.394.302.212.03.364-.03.455-.181.091-.151.152-.423.212-.847zm1.668 2.51c-.09-.06-.121-.15-.151-.211a.8.8 0 0 1 .09-.302l1.335-2.541c-.03 0-.06-.03-.09-.03-.031-.031-.092-.031-.122-.061s-.091-.03-.091-.03c-.091-.03-.091-.091-.06-.152l.333-.635c.03-.06.09-.09.151-.06a7.898 7.898 0 0 1 1.699.665c.667.333 1.031.756 1.152 1.21.091.454 0 .998-.364 1.633l-.12.212c-.153.303-.304.545-.486.726a2.124 2.124 0 0 1-.576.454c-.213.121-.455.151-.759.121-.273-.03-.576-.151-.94-.333a4.755 4.755 0 0 1-1-.665zm2.7-2.389l-.213-.09-1.152 2.147c.06.06.151.121.273.151.182.091.333.091.485-.03.152-.121.303-.363.485-.726l.091-.181c.213-.394.334-.696.334-.847 0-.182-.121-.303-.334-.424h.03zm-3.67 5.264l-.182-.363v.332h.06c.03 0 .03.03.03.03v.242c0 .03 0 .03-.03.03h-.667c-.03 0-.03 0-.03-.03v-.242c0-.03 0-.03.03-.03s.091 0 .122-.03v-.847c-.061 0-.091 0-.122-.03-.03 0-.03-.03-.03-.03v-.243c0-.03 0-.03.03-.03h.668c.03 0 .03 0 .03.03v.243c0 .03 0 .03-.03.03h-.061v.272l.303-.544c0-.03.03-.061.06-.061h.425c.03 0 .03 0 .03.03v.242c0 .03 0 .03-.03.03s-.09.03-.12.03l-.244.394.213.393c.03.03.03.06.06.06s.061.031.091.031h.091c.03 0 .03 0 .03.03v.212c0 .03 0 .03-.03.06-.06.03-.12.03-.242.03a.573.573 0 0 1-.243-.06c-.06-.06-.121-.12-.182-.242l-.03.03zm-1.031-1.15v.454c0 .03 0 .03-.03.03h-.243c-.03 0-.03 0-.03-.03 0-.06-.03-.121-.03-.212-.122 0-.213.03-.244.09a.65.65 0 0 0-.06.303v.091c0 .151.03.242.06.302.061.061.122.091.243.091s.243 0 .334-.03h.03v.242c0 .03 0 .03-.03.06a1.41 1.41 0 0 1-.425.061c-.243 0-.425-.06-.516-.181-.09-.121-.151-.303-.151-.545v-.121c0-.242.06-.424.151-.544.091-.121.273-.182.516-.182.152 0 .303.03.425.06.03 0 .03.03.03.061h-.03zm-1.941.817v-.575h-.091c-.03 0-.03-.03-.03-.03v-.242c0-.03 0-.03.03-.03h.697c.03 0 .03 0 .03.03v.242c0 .03 0 .03-.03.03s-.09 0-.121.03v.514c0 .242-.06.394-.152.515-.09.12-.273.181-.485.181-.243 0-.394-.06-.485-.181a.864.864 0 0 1-.152-.514v-.515c-.06 0-.09 0-.121-.03-.03 0-.03-.03-.03-.03v-.242c0-.03 0-.03.03-.03h.697c.03 0 .03 0 .03.03v.242c0 .03 0 .03-.03.03h-.09v.575c0 .12 0 .181.03.242.03.03.06.06.121.06.06 0 .091-.03.121-.06s.03-.121.03-.242zm-1.76-.212c.092 0 .122-.06.122-.181v-.03c0-.061 0-.092-.03-.122s-.061-.03-.091-.03h-.091v.393h.09v-.03zm.395.242l.09.181c.031.03.031.061.061.061s.061.03.091.03h.061c.03 0 .03 0 .03.03v.212c0 .03 0 .03-.03.06-.03.031-.121.031-.182.031a.573.573 0 0 1-.242-.06.698.698 0 0 1-.182-.273l-.091-.181h-.091v.181h.09c.03 0 .03.03.03.03v.242c0 .03 0 .03-.03.03h-.697c-.03 0-.03 0-.03-.03v-.242c0-.03 0-.03.03-.03s.091 0 .121-.03v-.847h-.121c-.03 0-.06 0-.06-.03v-.212c0-.03 0-.03.03-.03.212-.06.424-.06.697-.06.182 0 .334.03.425.12.09.091.121.182.121.363v.091c0 .212-.06.333-.182.424l.06-.061zm-1.274-.907v.514c0 .03 0 .03-.03.03h-.243c-.03 0-.03 0-.03-.03s0-.091-.03-.182h-.092v.817c.03 0 .091 0 .122.03.03 0 .03.03.03.03v.242c0 .03 0 .03-.03.03h-.758c-.03 0-.03 0-.03-.03v-.242c0-.03 0-.03.03-.03s.09 0 .12-.03v-.817h-.09c0 .06 0 .121-.03.182 0 .03-.03.03-.03.03h-.243c-.03 0-.03 0-.03-.03v-.514c0-.03.03-.03.06-.03h1.243c.03 0 .061 0 .061.03z" fill="#FEFEFE"/><path d="M85.436 47.583H49.92a2.03 2.03 0 0 0-2.032 2.027c0 1.12.91 2.057 2.032 2.057h35.515a2.036 2.036 0 0 0 2.032-2.057 2.03 2.03 0 0 0-2.032-2.027z" fill="#D9EEF4"/><path fill="#87A4AB" d="M23.05 91.415h13.284v7.835h-11.1zm36.576 0H72.91v7.835h-9.008zm-7.127 2.693h1.728c1.79 0 3.276 1.633 3.276 3.66s-1.456 3.66-3.276 3.66H52.5c-1.79 0-3.276-1.633-3.276-3.66s1.456-3.66 3.276-3.66zm-38.305 0h1.728c1.79 0 3.276 1.633 3.276 3.66s-1.456 3.66-3.276 3.66h-1.728c-1.79 0-3.276-1.633-3.276-3.66s1.456-3.66 3.276-3.66z"/><path fill="#87A4AB" d="M27.872 94.108h1.759v7.32h-1.76z"/><path d="M27.872 94.108c1.79 0 3.275 1.633 3.275 3.66s-1.455 3.66-3.275 3.66c-1.79 0-3.276-1.633-3.276-3.66s1.456-3.66 3.276-3.66z" fill="#87A4AB"/><path d="M29.631 94.108c1.79 0 3.275 1.633 3.275 3.66s-1.455 3.66-3.275 3.66c-1.79 0-3.275-1.633-3.275-3.66s1.455-3.66 3.275-3.66z" fill="#87A4AB"/><path d="M29.631 94.834c1.456 0 2.608 1.3 2.608 2.934 0 1.633-1.183 2.934-2.608 2.934-1.456 0-2.608-1.3-2.608-2.934 0-1.633 1.183-2.934 2.608-2.934z" fill="#FEFEFE"/><path d="M29.631 95.802c.97 0 1.729.877 1.729 1.936 0 1.089-.789 1.936-1.729 1.936-.97 0-1.729-.878-1.729-1.936 0-1.09.789-1.936 1.729-1.936z" fill="#87A4AB"/><path d="M29.631 96.286c.728 0 1.304.665 1.304 1.482s-.576 1.482-1.304 1.482c-.728 0-1.304-.665-1.304-1.482s.576-1.482 1.304-1.482z" fill="#A1C0C6"/><path d="M29.874 96.71c.364 0 .667.332.667.756 0 .423-.303.756-.667.756-.364 0-.668-.333-.668-.756 0-.424.304-.757.668-.757z" fill="#FEFEFE"/><path fill="#87A4AB" d="M66.207 94.108h1.729v7.32h-1.729z"/><path d="M66.207 94.108c1.79 0 3.276 1.633 3.276 3.66s-1.456 3.66-3.276 3.66c-1.79 0-3.275-1.633-3.275-3.66s1.456-3.66 3.275-3.66z" fill="#87A4AB"/><path d="M67.936 94.108c1.79 0 3.275 1.633 3.275 3.66s-1.455 3.66-3.275 3.66c-1.79 0-3.276-1.633-3.276-3.66s1.456-3.66 3.276-3.66z" fill="#87A4AB"/><path d="M67.936 94.834c1.456 0 2.608 1.3 2.608 2.934 0 1.633-1.183 2.934-2.608 2.934-1.456 0-2.608-1.3-2.608-2.934 0-1.633 1.183-2.934 2.608-2.934z" fill="#FEFEFE"/><path d="M67.936 95.802c.97 0 1.729.877 1.729 1.936 0 1.089-.789 1.936-1.729 1.936-.97 0-1.729-.878-1.729-1.936 0-1.09.789-1.936 1.729-1.936z" fill="#87A4AB"/><path d="M67.936 96.286c.728 0 1.304.665 1.304 1.482s-.576 1.482-1.304 1.482c-.728 0-1.304-.665-1.304-1.482s.576-1.482 1.304-1.482z" fill="#A1C0C6"/><path d="M68.179 96.71c.364 0 .667.332.667.756 0 .423-.303.756-.667.756-.364 0-.668-.333-.668-.756 0-.424.304-.757.668-.757z" fill="#FEFEFE"/><path d="M16.741 83.823H30.42c1.85-4.628 3.7-9.257 5.52-13.885.09-.212.151-.393.303-.575.242-.302.576-.544.94-.665.121-.03.273-.06.394-.091H24.414c-.394 0-.788-.03-1.152.09a2.068 2.068 0 0 0-.94.666c-.152.182-.212.363-.303.575l-5.49 13.885h.212z" fill="#B4CDD2"/><path d="M35.97 69.938l-5.52 13.885-9.25 3.842v9.65c0 .846.546 1.572 1.304 1.844v.091h1.394a1.17 1.17 0 0 0 1.123-1.18v-2.42a3.18 3.18 0 0 1 3.185-3.176h2.668a3.18 3.18 0 0 1 3.185 3.176v3.177c0 .151 0 .272-.03.423h28.266c.637 0 1.183-.514 1.183-1.18v-2.42a3.18 3.18 0 0 1 3.184-3.176h2.67a3.18 3.18 0 0 1 3.184 3.176l-.03 3.6h9.28V68.607H38.335c-.394 0-.788-.03-1.152.09a2.068 2.068 0 0 0-.94.666c-.152.182-.213.363-.304.575h.03z" fill="#A1C0C6"/><path d="M21.2 94.773v2.572c0 1.058.88 1.936 1.94 1.936h.698c.637 0 1.183-.515 1.183-1.18v-2.42c0-.303.06-.635.121-.908H21.2zm51.285 4.508l.03-3.6c0-.303-.06-.635-.12-.908h9.401v4.508h-9.31zM63.6 94.773a3.115 3.115 0 0 0-.121.908v2.42c0 .635-.516 1.18-1.183 1.18H34.029l.03-3.6c0-.303-.06-.635-.121-.908h29.691-.03zm-29.966-9.196h10.494c.667 0 1.244-.544 1.244-1.24V73.205c0-.665-.546-1.24-1.244-1.24h-6.733c-1.577 3.993-3.184 8.016-4.761 12.009-.273.726.06 1.603 1 1.603z" fill="#93ADB3"/><path fill="#9EB5BB" d="M37.668 85.577h1.577l-5.186-5.172-.455 1.119z"/><path d="M45.372 87.997v1.09c0 .604-.516 1.118-1.123 1.118a1.138 1.138 0 0 1-1.122-1.119v-1.089c0-.605.516-1.119 1.122-1.119.607 0 1.123.514 1.123 1.12zm33.695-16.002v17.091a1.14 1.14 0 0 1-1.123 1.12h-26.84a1.138 1.138 0 0 1-1.123-1.12V71.995h29.086z" fill="#87A4AB"/><path d="M79.067 85.577v3.479a1.14 1.14 0 0 1-1.123 1.12h-26.84a1.138 1.138 0 0 1-1.123-1.12v-3.479h29.086z" fill="#B4CDD2"/><path d="M79.067 85.577v3.479a1.14 1.14 0 0 1-1.123 1.12H64.54v-4.599h14.528z" fill="#B4CDD2"/><path fill="#E31E24" d="M49.981 71.995l5.824 5.778H49.98z"/><path fill="#FEFEFE" d="M79.067 71.995l.576.575v5.203H49.98v-5.778z"/><path fill="#FEFEFE" d="M55.805 77.773H49.98v-5.778z"/><path fill="#87A4AB" d="M67.42 71.995l5.823 5.778H67.42l-5.823-5.778zm-11.615 0l5.792 5.778h-5.792l-5.824-5.778z"/><path fill="#FEC35D" d="M7.521 87.665l9.22-3.842H30.45l-9.25 3.842z"/><path fill="#B4CDD2" d="M7.521 87.665l9.22-3.842H30.45l-9.25 3.842z"/><path d="M7.521 87.665v9.65c0 1.058.88 1.935 1.942 1.935H23.14a1.952 1.952 0 0 1-1.941-1.936v-9.65H7.52z" fill="#B4CDD2"/><path d="M7.521 94.773v2.572c0 1.058.88 1.936 1.942 1.936H23.14a1.952 1.952 0 0 1-1.941-1.937v-2.57H7.52z" fill="#9EB5BB"/><path d="M9.25 90.66v1.088c0 .605.516 1.12 1.122 1.12a1.14 1.14 0 0 0 1.123-1.12V90.66c0-.605-.516-1.119-1.123-1.119-.606 0-1.122.514-1.122 1.12zm8.007 0v1.088c0 .605.516 1.12 1.122 1.12.607 0 1.122-.515 1.122-1.12V90.66c0-.605-.515-1.119-1.122-1.119-.606 0-1.122.514-1.122 1.12z" fill="#FEFEFE"/><path fill="#93ADB3" d="M28.964 71.995l-4.337 10.89h5.065l4.337-10.89z"/><path d="M28.964 71.995l-.516 1.27 3.61 3.6.879-2.238c-.88-.877-1.79-1.785-2.67-2.632h-1.334.03zm-.94 2.39l-.455 1.119 3.609 3.6.455-1.12z" fill="#9EB5BB"/><path fill="#93ADB3" d="M22.655 71.995l-4.306 10.89h5.034l4.337-10.89z"/><path fill="#63ABB2" d="M24.657 72.6h1.577l-.606-.605H24.05z"/><path d="M20.35 77.864l-.454 1.119.303.302.697.696 1.395 1.392a.569.569 0 0 0 .789 0 .565.565 0 0 0 0-.787l-2.184-2.178-.546-.544z" fill="#9EB5BB"/><path fill="#7DC5CB" d="M27.567 72.358l.15-.363h-.512z"/><path fill="#9EB5BB" d="M26.69 74.627l.424-1.15-1.486-1.482H24.05z"/><path fill="#93ADB3" d="M79.067 77.773H64.509v7.804h14.558z"/><path d="M76.155 77.773h-3.124c2.002 1.996 4.004 3.993 6.036 5.99v-3.147c-.971-.968-1.972-1.936-2.912-2.873v.03z" fill="#7DC5CB"/><path fill="#93ADB3" d="M79.067 77.773H64.509v5.808h14.558z"/><path d="M64.509 78.257v1.573l.242.242.698.695 1.395 1.392a.569.569 0 0 0 .789 0 .565.565 0 0 0 0-.787l-2.184-2.177-.698-.696-.242-.242zm6.581-16.305H37.274a1.138 1.138 0 0 1-1.122-1.12c0-.604.515-1.118 1.122-1.118H71.09c.607 0 1.122.514 1.122 1.119s-.515 1.119-1.122 1.119z" fill="#9EB5BB"/><path d="M71.09 61.952v2.208a2.288 2.288 0 0 1-2.274 2.269H39.518a2.288 2.288 0 0 1-2.275-2.269v-2.208H71.09z" fill="#B4CDD2"/><path d="M71.09 61.952v2.208a2.288 2.288 0 0 1-2.274 2.269H52.104a2.288 2.288 0 0 1-2.274-2.269v-2.208h21.26z" fill="#A1C0C6"/><path d="M36.182 58.443v.151c0 .605.516 1.12 1.122 1.12H71.12a1.14 1.14 0 0 0 1.123-1.12v-2.389c-.091-.545-.546-.968-1.092-.968H37.334a1.11 1.11 0 0 0-1.091.968v2.208l-.061.03z" fill="#87A4AB"/><path d="M48.768 58.443v.151c0 .605.516 1.12 1.122 1.12h21.23a1.14 1.14 0 0 0 1.123-1.12v-2.389c-.091-.545-.546-.968-1.092-.968H49.92a1.11 1.11 0 0 0-1.092.968v2.208l-.06.03z" fill="#87A4AB"/><path d="M71.09 55.267H37.274a1.138 1.138 0 0 1-1.122-1.12c0-.605.515-1.119 1.122-1.119H71.09c.607 0 1.122.514 1.122 1.12 0 .604-.515 1.119-1.122 1.119z" fill="#9EB5BB"/><path d="M71.09 55.267H49.86a1.138 1.138 0 0 1-1.122-1.12c0-.605.516-1.119 1.122-1.119h21.23c.607 0 1.122.514 1.122 1.12 0 .604-.515 1.119-1.122 1.119z" fill="#93ADB3"/><path d="M54.197 40.686c9.341 0 16.893 5.536 16.893 12.342H37.274c0-6.806 7.582-12.342 16.893-12.342h.03z" fill="#B4CDD2"/><path d="M58.049 41.019c7.46 1.27 13.041 6.171 13.041 12.01H49.86c0-5.839 3.488-10.74 8.189-12.01z" fill="#A1C0C6"/><path d="M71.09 61.952H49.86a1.138 1.138 0 0 1-1.122-1.12c0-.604.516-1.118 1.122-1.118h21.23c.607 0 1.122.514 1.122 1.119s-.515 1.119-1.122 1.119z" fill="#93ADB3"/><path d="M63.083 46.434a.608.608 0 0 0 .607-.605.608.608 0 0 0-1.213 0c0 .332.273.605.606.605z" fill="#D9DADA"/><path d="M38.517 77.016l.698.696 1.395 1.392a.569.569 0 0 0 .788 0 .565.565 0 0 0 0-.787l-2.183-2.178-.698-.695-1.334-1.332-.455 1.12 1.79 1.784z" fill="#9EB5BB"/><path d="M41.247 50.941a.608.608 0 0 0 .606-.605.608.608 0 0 0-1.213 0c0 .333.273.605.607.605zm8.067-4.598a.608.608 0 0 0 .607-.605.608.608 0 0 0-1.213 0c0 .333.273.605.606.605zm12.616 5.021a.608.608 0 0 0 .607-.604.608.608 0 0 0-1.213 0c0 .332.273.605.607.605zm-4.518-5.777a.608.608 0 0 0 .607-.605.608.608 0 0 0-1.214 0c0 .333.273.605.607.605zm11.707 6.655a.608.608 0 0 0 .606-.605.608.608 0 0 0-1.213 0c0 .332.273.605.607.605zm-14.346-1.815a.608.608 0 0 0 .607-.605.608.608 0 0 0-1.213 0c0 .332.273.605.606.605zm-7.946 1.21a.608.608 0 0 0 .607-.605.608.608 0 0 0-1.213 0c0 .333.273.605.606.605zm5.641-9.105a.608.608 0 0 0 .607-.605.608.608 0 0 0-1.213 0c0 .332.273.605.606.605zm-8.795 4.507a.608.608 0 0 0 .607-.605.608.608 0 0 0-1.213 0c0 .333.273.605.606.605z" fill="#D9DADA"/><path d="M42.43 85.577h1.577c-2.487-2.48-6.127-6.05-8.614-8.53l-.424 1.089-.425 1.089c2.123 2.087 4.216 4.205 6.339 6.322h1.577l-.03.03zm27.872-7.804H67.36c2.638 2.662 6.126 6.292 7.673 7.804h3.154l-7.885-7.804z" fill="#9EB5BB"/><path d="M70.302 77.773H67.36a962.097 962.097 0 0 1 5.671 5.808h3.124l-5.853-5.808z" fill="#9EB5BB"/><path d="M12.799 89.873v2.692a.304.304 0 0 1-.607 0v-2.692a.304.304 0 0 1 .607 0zm3.76 0v2.692a.304.304 0 0 1-.607 0v-2.692a.304.304 0 1 1 .607 0zm-1.243 0v2.692a.304.304 0 0 1-.607 0v-2.692a.304.304 0 1 1 .607 0zm-1.244 0v2.692a.304.304 0 0 1-.607 0v-2.692a.304.304 0 1 1 .607 0zm40.125-21.236h-7.582L44.401 66.4h19.592l-2.214 2.238z" fill="#87A4AB"/><path d="M64.812 45.194c1.244-.182 2.275-1.362 2.457-2.45.182 1.088 1.213 2.268 2.456 2.45-1.243.181-2.274 1.36-2.456 2.45-.182-1.09-1.213-2.269-2.457-2.45zM44.037 56.265v.696c0 .03-.03.06-.06.06h-.425c-.03 0-.06-.03-.06-.06-.031-.091-.031-.151-.031-.212h-.394v.454h.636c.061 0 .091.03.091.06v.484c0 .06-.03.06-.09.06h-.637v.394c.06 0 .12 0 .242.03.03 0 .06.03.06.06v.424c0 .03-.03.06-.06.06h-1.304c-.03 0-.06-.03-.06-.06v-.423c0-.03.03-.06.06-.06.06 0 .152-.031.243-.031v-1.422c-.061 0-.152 0-.213.03h-.06s-.03-.03-.03-.06v-.424c0-.03.03-.06.06-.06.334-.06.758-.121 1.244-.121.242 0 .485 0 .727.03.061 0 .091.03.091.091h-.03zm.303 1.3v-.18c0-.424.091-.757.273-.969.182-.211.486-.302.88-.302s.697.09.88.302c.181.212.272.515.272.968v.182c0 .423-.09.756-.273.968-.182.212-.485.302-.88.302-.393 0-.697-.09-.879-.302-.182-.212-.273-.514-.273-.968zm1.456-.03v-.12c0-.242-.03-.424-.06-.515-.03-.09-.122-.151-.243-.151s-.212.06-.243.151c-.03.091-.06.273-.06.514v.121c0 .243.03.424.06.515.03.09.122.151.243.151s.212-.06.242-.151.061-.272.061-.514zm1.183.03v-.18c0-.424.09-.757.273-.969.182-.211.485-.302.88-.302.394 0 .697.09.879.302.182.212.273.515.273.968v.182c0 .423-.091.756-.273.968-.182.212-.485.302-.88.302-.394 0-.697-.09-.88-.302-.181-.212-.272-.514-.272-.968zm1.456-.03v-.12c0-.242-.03-.424-.06-.515-.031-.09-.122-.151-.244-.151-.12 0-.212.06-.242.151s-.06.273-.06.514v.121c0 .243.03.424.06.515.03.09.121.151.242.151.122 0 .213-.06.243-.151s.06-.272.06-.514zm1.546 1.21c-.06 0-.12-.03-.12-.09-.031-.03-.031-.091-.031-.182V56.75h-.212c-.061 0-.091-.03-.091-.06v-.424c0-.03.03-.06.06-.06a4.16 4.16 0 0 1 1.092-.121c.455 0 .758.09.94.302.182.212.273.544.273.968v.151c0 .212-.03.363-.06.514a.936.936 0 0 1-.182.394.828.828 0 0 1-.364.272 1.66 1.66 0 0 1-.577.09c-.273 0-.515-.03-.728-.06v.03zm.759-2.026h-.122V58.2h.182c.122 0 .213-.06.243-.151s.06-.272.06-.514v-.122c0-.272-.03-.453-.06-.544-.06-.09-.152-.151-.303-.151zm4.883-.484v.877c0 .03-.03.06-.061.06h-.425c-.03 0-.06-.03-.06-.06 0-.06-.03-.181-.03-.303h-.152v1.422c.06 0 .151.03.242.03.03 0 .061.03.061.061v.423c0 .03-.03.061-.06.061h-1.305c-.03 0-.06-.03-.06-.06v-.424c0-.03.03-.06.06-.06.06 0 .152-.03.243-.03V56.81h-.152c0 .09 0 .211-.03.302 0 .03-.03.06-.06.06h-.425c-.03 0-.061-.03-.061-.06v-.877c0-.06.03-.06.09-.06h2.154c.06 0 .091.03.091.06h-.06zm2.183 1.543l.152.302c.03.06.06.09.09.121.031.03.092.03.153.03h.09c.03 0 .061.03.061.06v.364c0 .03 0 .06-.03.09a.813.813 0 0 1-.334.061c-.182 0-.303-.03-.424-.121-.122-.09-.213-.242-.304-.454l-.151-.333h-.122v.333s.061 0 .182.03c.03 0 .061.03.061.061v.423c0 .03-.03.061-.06.061h-1.183c-.03 0-.061-.03-.061-.06v-.424c0-.03.03-.06.06-.06.061 0 .152-.03.243-.03v-1.483h-.212c-.06 0-.091-.03-.091-.06v-.394c0-.03.03-.06.06-.06.334-.091.759-.121 1.214-.121.333 0 .576.06.728.212.151.12.242.332.242.605v.15c0 .333-.09.575-.303.727l-.06-.03zm-.667-.424c.152 0 .212-.09.212-.303v-.06c0-.09-.03-.181-.06-.212-.03-.06-.091-.06-.152-.06h-.182v.665h.182v-.03zm3.003.363v-.968c-.061 0-.091 0-.152-.03-.03 0-.06-.03-.06-.06v-.424c0-.03.03-.06.06-.06h1.213c.03 0 .06.03.06.06v.423c0 .03-.03.06-.06.06-.06 0-.152.031-.243.031v.907c0 .394-.09.696-.242.908-.182.212-.455.303-.85.303-.394 0-.697-.091-.849-.303-.182-.212-.242-.484-.242-.907v-.908c-.091 0-.152 0-.243-.03-.03 0-.06-.03-.06-.06v-.424c0-.03.03-.06.06-.06h1.213c.03 0 .06.03.06.06v.423c0 .03-.03.06-.06.06s-.09.031-.151.031v.968c0 .181.03.333.06.393.06.06.122.121.213.121.09 0 .182-.03.212-.12.06-.061.06-.212.06-.394zm3.366-1.392v.787c0 .03-.03.06-.06.06h-.425c-.03 0-.06-.03-.06-.06-.031-.121-.031-.212-.031-.363-.213 0-.364.06-.425.151-.06.091-.121.273-.121.514v.152c0 .242.03.423.121.514.091.09.212.151.425.151.212 0 .394 0 .576-.03h.03s.03.03.03.06v.394c0 .03-.03.06-.06.09-.182.091-.425.122-.758.122-.425 0-.728-.091-.91-.303-.182-.212-.273-.514-.273-.938v-.212c0-.423.091-.756.273-.937.182-.212.485-.303.91-.303.273 0 .515.03.728.121.06.03.06.06.06.091l-.03-.06zm1.79 1.997l-.334-.635v.544h.121c.03 0 .06.03.06.06v.424c0 .03-.03.06-.06.06h-1.183c-.03 0-.06-.03-.06-.06v-.423c0-.03.03-.06.06-.06.06 0 .152-.031.243-.031v-1.482c-.091 0-.152 0-.243-.03-.03 0-.06-.03-.06-.061v-.423c0-.03.03-.061.06-.061h1.183c.03 0 .06.03.06.06v.424c0 .03-.03.06-.06.06h-.121v.454l.515-.938c.03-.06.061-.09.122-.09h.728c.03 0 .06.03.06.06v.424c0 .03-.03.06-.06.06-.061.03-.152.03-.243.03l-.394.696.364.666c.03.06.06.09.09.12.03.031.092.031.152.031h.152c.03 0 .06.03.06.06v.394c0 .03-.03.06-.06.09a1.35 1.35 0 0 1-.394.061.698.698 0 0 1-.425-.121c-.121-.09-.212-.212-.334-.393v.03z" fill="#FEFEFE"/><path fill="#87A4AB" d="M79.067 71.995l5.792 5.778h-5.792l-5.824-5.778z"/><path d="M87.892 112.349h-40.7c-.729 0-1.335.605-1.335 1.33 0 .727.606 1.331 1.334 1.331h40.701c.728 0 1.335-.605 1.335-1.33 0-.727-.607-1.332-1.335-1.332z" fill="#D9EEF4"/><path d="M124.317 54.601c1.79-.242 3.336-1.996 3.579-3.57.242 1.604 1.789 3.328 3.578 3.57-1.79.242-3.336 1.997-3.578 3.57-.243-1.603-1.79-3.328-3.58-3.57zM77.853 67.79c2.396-.333 4.428-2.632 4.762-4.749.334 2.118 2.366 4.416 4.762 4.75-2.396.332-4.428 2.631-4.762 4.749-.334-2.118-2.366-4.417-4.762-4.75z" fill="#FEFEFE"/></g></svg>