<svg width="180" height="150" viewBox="0 0 180 150" xmlns="http://www.w3.org/2000/svg" xmlns:xlink="http://www.w3.org/1999/xlink"><title>1.5-illustration#2</title><defs><rect id="a" width="201" height="150" rx="2.88"/></defs><g transform="translate(-21)" fill="none" fill-rule="evenodd"><mask id="b" fill="#fff"><use xlink:href="#a"/></mask><g mask="url(#b)"><path fill="#FFF" d="M182.59-92.755V26.969h-61.677V-92.755z"/><path fill="#A2C0C6" d="M96.515 157.525v-250.28H204.11v250.28H96.515z"/><path fill="#96B6BE" d="M193.602-9.064V9.061h-13.314V-9.064z"/><path fill="#C0DCDD" d="M178.777 9.133h16.553v3.827h-16.553V9.133z"/><path d="M182.16 1.84h9.5v7.293h-9.5V1.84zm-48.796-34.517h9.5v7.294h-9.5v-7.294zm0-8.954h9.5v7.655h-9.5v-7.655zm0-25.49h9.5v7.293h-9.5v-7.293zm0-9.026h9.5v7.654h-9.5v-7.654zm24.397 9.026h9.572v7.293h-9.5v-7.293h-.072zm0-9.026h9.572v7.654h-9.5v-7.654h-.072zm24.398 9.026h9.5v7.293h-9.5v-7.293zm0-9.026h9.5v7.654h-9.5v-7.654zm0 43.47h9.5v7.294h-9.5v-7.294zm0-8.954h9.5v7.655h-9.5v-7.655zm-24.398 8.954h9.572v7.294h-9.5v-7.294h-.072zm0-8.954h9.572v7.655h-9.5v-7.655h-.072zm0 43.47h9.572v7.294h-9.5V1.84h-.072zm0-8.953h9.572V.54h-9.5v-7.654h-.072zm24.398 0h9.5V.54h-9.5v-7.654z" fill="#B1DDE9"/><path d="M133.364-32.677h9.5v7.294h-9.5v-7.294zm0-8.954h9.5v7.655h-9.5v-7.655zm0-25.49h9.5v7.293h-9.5v-7.293zm0-9.026h9.5v7.654h-9.5v-7.654zm24.397 9.026h9.572v7.293h-9.5v-7.293h-.072zm0-9.026h9.572v7.654h-9.5v-7.654h-.072zm0 43.47h9.572v7.294h-9.5v-7.294h-.072zm0-8.954h9.572v7.655h-9.5v-7.655h-.072zm0 43.47h9.572v7.294h-9.5V1.84h-.072zm0-8.953h9.572V.54h-9.5v-7.654h-.072z" fill="#B1DDE9"/><path fill="#96B6BE" d="M169.205-9.064V9.061H155.89V-9.064z"/><path fill="#C0DCDD" d="M154.379 9.133h16.553v3.827h-16.553z"/><path fill="#96B6BE" d="M170.932 12.96V9.133l3.814 3.827v3.827h-16.553l-3.814-3.827h3.814z"/><path d="M157.761 1.84h9.572v7.293h-9.5V1.84h-.072zm0-8.954h9.572V.54h-9.5v-7.654h-.072z" fill="#B1DDE9"/><path fill="#96B6BE" d="M146.318-9.064V9.061h-13.314V-9.064z"/><path fill="#C0DCDD" d="M131.492 9.133h16.553v3.827h-16.553z"/><path fill="#96B6BE" d="M148.045 12.96V9.133l3.815 3.827v3.827h-16.553l-3.815-3.827h3.815z"/><path d="M134.875 1.84h9.5v7.293h-9.5V1.84zm0-8.954h9.5V.54h-9.5v-7.654z" fill="#B1DDE9"/><path d="M189.716 1.84h1.511l.432.433v1.516l-1.943-1.95zm2.015-8.738l-.216-.216h-1.511l1.799 1.805-.072-1.589zm-24.398-24.479l-1.295-1.3h-1.583l2.806 2.817v-1.517h.072zm-2.59-2.6l-6.91-6.932v1.517l5.398 5.416h1.511zM138.904-59.9l-5.541-5.56v1.516l4.03 4.044h1.511zM191.73-2.276l-4.822-4.838h-3.023l7.63 7.654h.287l-.072-2.816zm-24.398-24.48l-5.901-5.92h-3.023l7.269 7.293h1.655v-1.372zm-7.197-7.22l-2.375-2.383v2.383h2.375zM134.3-59.9l-1.007-1.01v1.01h1.007zM189.932.54l-7.629-7.654h-.144v1.444l6.19 6.21h1.583zm-25.837-25.923l-6.334-6.355v1.516l4.822 4.839h1.512z" fill="#CDE9F1"/><path fill="#96B6BE" d="M195.33 12.96V9.133l3.814 3.827v3.827H182.59l-3.814-3.827h3.814zM121.92-9.064V9.061h-13.314V-9.064z"/><path fill="#C0DCDD" d="M107.023 9.133h16.553v3.827h-16.553z"/><path fill="#96B6BE" d="M123.576 12.96V9.133l3.814 3.827v3.827h-16.553l-3.814-3.827h3.814z"/><path d="M110.477 1.84h9.5v7.293h-9.5V1.84zm0-8.954h9.5V.54h-9.5v-7.654z" fill="#B1DDE9"/><path d="M191.731-74.342l-1.8-1.805h-1.51l3.31 3.322v-1.517zM119.977-6.537l-.575-.577h-3.023l3.598 3.61v-3.033zm0 4.55l-5.11-5.127h-1.51l6.62 6.715v-1.588zm20.224 11.12h-1.512l-3.814-3.827V3.789l5.326 5.344zm-4.606 0h-.72v-.722l.72.722zm-19.072-50.764l1.943 1.95v-1.95h-1.943zm1.943 3.466l-3.455-3.538H113.5l5.038 5.055v-1.517h-.072zm0-37.621l-.36-.361h-3.023l3.383 3.394v-3.033zm0 4.55l-4.894-4.911h-1.511l6.405 6.427v-1.517zM166.182.54l-7.629-7.654h-.792v.722L164.598.54h1.584zm-25.837-25.923l-6.981-7.005v1.517l5.47 5.488h1.51zm25.62 27.223l1.368 1.372V1.84h-1.367zm1.368 4.405l-4.39-4.405h-3.023l7.27 7.293h.215V6.245h-.072zM161.648.54l-3.815-3.827v3.033l.792.794h3.023zM135.81-25.383l-2.375-2.383v2.383h2.375zm29.795 34.516l-7.269-7.293h-.576v1.01l6.262 6.283h1.583zm26.125-46.72l-4.102-4.116h-1.512l5.614 5.632v-1.516zm-24.398-24.48l-5.038-5.054h-1.51l6.548 6.643v-1.588zm-6.405-6.426l-3.167-3.177v1.516l1.656 1.661h1.511zm29.795 34.517l-7.628-7.655h-.864v2.167l5.47 5.488h3.022zM164.886-59.9l-7.125-7.149v3.033l4.103 4.116h3.022zm24.038 27.223l2.807 2.817v-2.817h-2.807zm2.807 4.333l-4.318-4.333h-1.511l5.83 5.85v-1.517zm-5.614-5.632l-3.886-3.972v1.516l2.375 2.383h1.511v.073zM160.352-59.9l-2.59-2.6v1.517l1.007 1.01 1.583.073zm-17.704-16.247l.288.289v-.29h-.288zm49.083 6.427l-6.333-6.355h-3.023l7.629 7.654h1.799v-1.3h-.072zm-.504 2.6l.432.432v-.433h-.432zm.504 1.949l-2.015-2.022h-1.511l3.526 3.538v-1.516zm-3.31-3.322l-6.262-6.282v1.516l4.678 4.694h1.583v.072z" fill="#C7E6EF"/><path fill="#B5CED3" d="M75.572 157.525v-250.28h20.943v250.28H75.572z"/><path fill="#C85039" d="M36.708 40.096h14.826V150H21.883V40.096z"/><path fill="#C03C23" d="M32.822 40.096h145.307V150H32.822z"/><path d="M178.129 104.94v17.26c-1.08.793-2.52 1.299-4.03 1.299-3.455 0-6.334-2.455-6.334-5.488 0 3.033-2.807 5.488-6.333 5.488-3.455 0-6.334-2.455-6.334-5.488 0 3.033-2.806 5.488-6.333 5.488-3.454 0-6.333-2.455-6.333-5.488 0 3.033-2.807 5.488-6.334 5.488-3.454 0-6.333-2.455-6.333-5.488 0 3.033-2.807 5.488-6.333 5.488-3.527 0-6.334-2.455-6.334-5.488 0 3.033-2.806 5.488-6.333 5.488-3.454 0-6.333-2.455-6.333-5.488 0 3.033-2.807 5.488-6.334 5.488-3.454 0-6.333-2.455-6.333-5.488 0 3.033-2.807 5.488-6.333 5.488-3.455 0-6.334-2.455-6.334-5.488 0 3.033-2.806 5.488-6.333 5.488-3.454 0-6.333-2.455-6.333-5.488 0 3.033-2.807 5.488-6.334 5.488-3.454 0-6.333-2.455-6.333-5.488H41.386v-10.976H91.91l12.667-2.094h73.553z" fill="#AE3620"/><path fill="#FFF" d="M117.746 97.358h2.303v39.5h-2.303z"/><path d="M120.05 106.024v14.73c-1.08-1.01-1.728-2.31-1.728-3.754 0 .867-.216 1.66-.648 2.383v-13.359h2.375z" fill="#D9DBDB"/><path fill="#50A1D9" d="M45.777 97.358h71.97v37.477h-71.97z"/><path d="M80.322 97.359h2.015c11.155 10.037 28.5 25.707 29.724 26.79a.543.543 0 0 1 0 .866.862.862 0 0 1-1.008 0c-1.151-1.01-19.72-17.763-30.731-27.656zm-7.845 0h3.887c11.587 10.398 36.488 32.783 39.007 35.022h-3.958c-2.303-2.022-29.724-26.718-38.936-35.022zm-3.958 0h2.015l38.936 35.022h-2.015L68.519 97.359zm2.879 37.477h-4.966l-20.655-18.558V111.8l25.62 23.035zm14.825 0h-9.86c-10.363-9.243-20.655-18.558-30.586-27.44v-8.81c12.954 11.554 26.772 23.974 40.446 36.25z" fill="#48B7E4"/><path fill="#FFF" d="M120.05 136.93H43.472v-2.094h76.576z"/><path fill="#FFF" d="M43.474 94.614h2.303v42.315h-2.303z"/><path fill="#A6539B" d="M43.474 106.024h2.303V117h-2.303z"/><path fill="#3E8CC6" d="M45.777 94.615v40.22h1.151v-40.22z"/><path fill="#D9DBDB" d="M43.473 94.615v42.315h1.152V94.615z"/><path d="M117.746 118.01v-13.07h-71.97v5.778l8.277 7.293c0 3.033 2.807 5.488 6.333 5.488 3.455 0 6.334-2.455 6.334-5.488 0 3.033 2.807 5.488 6.333 5.488 3.455 0 6.333-2.455 6.333-5.488 0 3.033 2.807 5.488 6.334 5.488 3.454 0 6.333-2.455 6.333-5.488 0 3.033 2.807 5.488 6.333 5.488 3.455 0 6.334-2.455 6.334-5.488 0 3.033 2.807 5.488 6.333 5.488 3.527 0 6.333-2.455 6.333-5.488 0 .794.216 1.589.504 2.238l-.144-2.238z" fill="#3E8CC6"/><path d="M92.845 117.361c.36-.217.647-.361.863-.578.216-.216.432-.36.504-.577.144-.145.216-.361.288-.506.072-.144.072-.36.072-.505v-.145c.216-.144.432-.216.72-.289.216-.072.503-.072.72-.072.215 0 .431 0 .575.072.216.073.36.145.504.217a.869.869 0 0 1 .36.361c.072.145.144.289.144.433 0 .361-.072.65-.288.94a2.251 2.251 0 0 1-.792.649c-.288.144-.72.289-1.08.361-.431.072-.72.145-1.079.145-.288 0-.504 0-.648-.073-.144-.072-.36-.072-.431-.144-.216-.145-.36-.217-.432-.289zm.36 2.744c-.144 0-.36.072-.432.217-.144.144-.216.505-.36.938.216 0 .36 0 .504-.072.144-.072.288-.144.36-.216l.215-.217c.072-.072.072-.144.072-.289 0-.144 0-.217-.072-.289-.072-.072-.144-.072-.287-.072zm.431 2.744c.36 0 .72 0 1.008-.072l.864-.217c.287-.072.503-.216.72-.36.36.144.503.432.503.721 0 .29-.144.578-.36.867-.216.216-.576.433-.935.577-.432.145-.864.217-1.368.29-.504.071-1.007.071-1.511.071-.576 0-1.08-.072-1.584-.144-.503-.072-.863-.289-1.223-.505-.36-.217-.648-.506-.792-.795-.216-.289-.288-.722-.288-1.155 0-.578.072-1.083.288-1.589.216-.505.504-.866.936-1.227.432-.361.936-.578 1.655-.795.648-.216 1.512-.288 2.447-.288.576 0 1.08.072 1.512.144.431.072.791.217 1.08.361a1.7 1.7 0 0 1 .647.578c.144.216.216.505.216.722 0 .36-.144.65-.36.939-.216.288-.576.505-.936.65-.432.144-.791.288-1.295.36-.504.073-.936.145-1.368.145h-.575c-.144 0-.36 0-.504-.072.072.289.144.505.432.65.216.072.432.144.791.144zm-9.5 3.033c.144 0 .288-.072.432-.289.144-.217.216-.433.288-.794.072-.29.144-.65.216-1.083.072-.362.072-.795.072-1.156 0-.289 0-.65-.072-.939-.072-.288-.144-.505-.216-.794-.072.361-.144.794-.288 1.155-.144.434-.216.867-.288 1.228-.072.433-.216.794-.288 1.155-.072.361-.144.723-.144.94 0 .144 0 .288.072.288.072.289.144.289.216.289zm1.584-8.665c0 .072 0 .216-.072.433 0 .144-.072.36-.144.65.288 0 .504 0 .791.072h1.872c.36 0 .575-.072.791-.072.072.216.144.433.144.722 0 .144 0 .36-.072.505-.072.145-.144.29-.288.434-.144.144-.36.216-.575.288-.288.073-.576.145-.936.145h-.288c.288.217.576.578.792 1.01.216.434.288.94.288 1.59 0 .722-.072 1.371-.288 2.021a5.199 5.199 0 0 1-.864 1.517 3.834 3.834 0 0 1-1.44.938 5.584 5.584 0 0 1-2.014.362c-.648 0-1.152-.073-1.512-.217-.432-.145-.72-.289-.935-.506-.216-.216-.432-.433-.504-.722-.072-.289-.144-.577-.144-.866 0-.29.072-.65.144-1.083.072-.434.216-.94.36-1.445.144-.505.288-1.083.432-1.66l.431-1.733c.144-.578.288-1.084.36-1.661.072-.506.144-1.011.144-1.444v-.65c.648-.145 1.152-.145 1.584-.145.72 0 1.295.145 1.655.433.072.145.216.578.288 1.084zm-10.004 4.549c0 .144.072.289.216.289.072 0 .216-.073.288-.145.072-.072.144-.216.216-.433.072-.144.144-.433.216-.65.071-.216.143-.505.215-.794h-.144c-.143 0-.287.072-.431.216-.144.145-.216.29-.288.506-.072.217-.144.361-.144.578-.072.144-.072.36-.144.433zm5.398-3.322c-.144.361-.216.795-.36 1.228-.144.433-.216.866-.36 1.3-.072.433-.216.866-.288 1.3-.072.433-.072.866-.072 1.227 0 .361 0 .65.072.939-.36.072-.648.144-.936.144-.287 0-.503.072-.791.072-.72 0-1.224-.144-1.512-.433a1.472 1.472 0 0 1-.431-1.083v-.289a4.81 4.81 0 0 1-1.44 1.3 3.074 3.074 0 0 1-1.583.433c-.216 0-.504 0-.72-.072-.216-.072-.432-.145-.576-.289a1.573 1.573 0 0 1-.36-.578 3.215 3.215 0 0 1-.143-.938c0-.578.072-1.156.288-1.733.143-.578.503-1.011.935-1.445.432-.433 1.08-.794 1.8-1.01.72-.217 1.655-.362 2.806-.362h1.152c.432 0 .791.073 1.151.073.504.144.936.144 1.368.216zm-18.353 2.6c0-.65.072-1.3.288-1.95.216-.65.504-1.155 1.008-1.66.432-.506 1.08-.867 1.8-1.156.719-.289 1.582-.433 2.662-.433.504 0 1.008.072 1.44.144.431.072.863.217 1.15.433.289.145.577.434.72.65.144.217.288.506.288.795 0 .36-.072.722-.215.938-.144.29-.36.506-.648.65-.288.145-.576.289-.864.361-.36.072-.648.072-1.007.072-.288 0-.576 0-.864-.072a9.065 9.065 0 0 1-.72-.216 2.68 2.68 0 0 0 .36-.795c.072-.216.144-.433.144-.65 0-.288-.144-.433-.36-.433a.396.396 0 0 0-.36.217c-.144.144-.216.36-.36.577a11.88 11.88 0 0 0-.215.795c-.072.289-.072.577-.072.866 0 .217 0 .434.072.722.072.217.144.434.287.578.144.144.288.289.504.433.216.072.504.145.864.145s.648 0 .935-.073c.288-.072.504-.144.72-.216.216-.072.432-.217.648-.289.144.144.288.289.36.433.072.145.144.361.144.578 0 .217-.072.505-.216.722-.144.217-.36.433-.72.65-.288.217-.72.361-1.295.505-.504.145-1.224.217-2.016.217a5.95 5.95 0 0 1-1.583-.217 5.186 5.186 0 0 1-1.44-.65c-.431-.288-.719-.65-1.007-1.155-.288-.505-.432-.866-.432-1.516z" fill="#FFF"/><path fill="#EB5A4A" d="M41.602 132.741h80.246v4.188H41.602z"/><path fill="#AE3620" d="M121.848 136.93v-4.188l4.679 4.188v4.116H46.28l-4.678-4.116h4.678z"/><path fill="#56B363" d="M81.402 129.998l-.288 2.744h-.648l-.288-2.744-.36 2.744h-.648l-.287-2.744-.288 2.744h-.648l-.36-2.744-.288 2.744h-.647l-.36-2.744-.288 2.744h-.648l-.288-2.744-.36 2.744h-.647l-.288-2.744-.288 2.744h-.648l-.36-2.744-.288 2.744h-.647l-.36-2.744-.288 2.744h-.648l-.288-2.744-.36 2.744h-.647l-.288-2.744-.288 2.744h-.648l-.36-2.744-.287 2.744h-.648l-.36-2.744-.288 2.744h-.648l-.288-2.744-.36 2.744h-.647l-.288-2.744-.288 2.744h-.648l-.36-2.744-.287 2.744h-.648l-.288-2.744-.36 2.744h-.647l-.288-2.744-.36 2.744h-.648l-.288-2.744-.288 2.744h-.647l-.36-2.744-.288 2.744h-.648l-.288-2.744-.36 2.744h-.647l-.288-2.744-.36 2.744h-.648l-.288-2.744-.288 2.744h-.647l-.36-2.744-.288 2.744h-.648l-.288-2.744-.36 2.744h-.647l-.288-2.744-.36 2.744h-.648l-.288-2.744-.287 2.744h-.648l-.36-2.744-.288 2.744h-.648l-.287-2.744-.36 2.744h-.648l-.288-2.744-.36 2.744h-.576l.288-2.744.288 2.744h.648l.36-2.744.288 2.744h.647l.288-2.744.36 2.744h.648l.288-2.744.36 2.744h.575l.36-2.744.288 2.744h.648l.36-2.744.288 2.744h.647l.288-2.744.36 2.744h.648l.288-2.744.36 2.744h.575l.36-2.744.288 2.744h.648l.36-2.744.287 2.744h.648l.288-2.744.36 2.744h.648l.287-2.744.36 2.744h.576l.36-2.744.288 2.744h.648l.36-2.744.287 2.744h.648l.288-2.744.36 2.744h.647l.288-2.744.36 2.744h.576l.36-2.744.288 2.744h.647l.36-2.744.288 2.744h.648l.288-2.744.36 2.744h.647l.288-2.744.36 2.744h.576l.36-2.744.287 2.744h.648l.36-2.744.288 2.744h.648l.288-2.744.36 2.744h.647l.288-2.744.36 2.744h.576l.36-2.744.287 2.744h.648l.36-2.744.288 2.744h.648l.287-2.744.36 2.744h.648l.288-2.744.36 2.744h.575l.36-2.744.288 2.744h.648l.36-2.744.288 2.744h.647z"/><path fill="#D9DBDB" d="M120.049 146.967h55.705V150h-55.705z"/><path fill="#56B363" d="M82.05 129.998l.36 2.744h.647l.288-2.744.288 2.744h.647l.36-2.744.288 2.744h.648l.36-2.744.287 2.744h.648l.288-2.744.36 2.744h.648l.288-2.744.287 2.744h.648l.36-2.744.288 2.744h.648l.36-2.744.287 2.744h.648l.288-2.744.36 2.744h.648l.287-2.744.288 2.744h.648l.36-2.744.288 2.744h.647l.36-2.744.288 2.744h.648l.288-2.744.36 2.744h.647l.288-2.744.288 2.744h.648l.36-2.744.288 2.744h.647l.288-2.744.36 2.744h.648l.288-2.744.288 2.744h.72l.287-2.744.288 2.744h.648l.36-2.744.287 2.744h.648l.288-2.744.36 2.744h.648l.287-2.744.36 2.744h.648l.288-2.744.288 2.744h.648l.36-2.744.287 2.744h.648l.288-2.744.36 2.744h.647l.288-2.744.36 2.744h.648l.288-2.744.288 2.744h.647l.36-2.744.288 2.744h.648l.288-2.744.36 2.744h.647l.288-2.744.36 2.744h.576l.36-2.744.288 2.744h.647l-.288-2.744-.36 2.744h-.647l-.288-2.744-.288 2.744h-.648l-.36-2.744-.287 2.744h-.648l-.288-2.744-.36 2.744h-.648l-.287-2.744-.36 2.744h-.576l-.36-2.744-.288 2.744h-.648l-.36-2.744-.287 2.744h-.648l-.288-2.744-.36 2.744h-.647l-.288-2.744-.36 2.744h-.576l-.36-2.744-.288 2.744h-.647l-.36-2.744-.288 2.744h-.648l-.288-2.744-.36 2.744h-.647l-.288-2.744-.36 2.744h-.576l-.36-2.744-.36 2.744h-.575l-.36-2.744-.288 2.744h-.648l-.288-2.744-.36 2.744h-.647l-.288-2.744-.36 2.744h-.576l-.36-2.744-.287 2.744h-.648l-.36-2.744-.288 2.744h-.648l-.287-2.744-.36 2.744H94.5l-.288-2.744-.36 2.744h-.575l-.36-2.744-.288 2.744h-.648l-.36-2.744-.288 2.744h-.647l-.36-2.744-.288 2.744h-.648l-.288-2.744-.36 2.744h-.575l-.36-2.744-.288 2.744h-.648l-.36-2.744-.288 2.744h-.647l-.288-2.744-.36 2.744h-.648l-.288-2.744-.36 2.744h-.575l-.36-2.744-.288 2.744h-.648z"/><path fill="#FFF" d="M75.932 53.6v26.717H43.473V53.6z"/><path fill="#50A1D9" d="M73.125 69.414v10.903H46.208V56.055h26.917z"/><path d="M73.125 80.1v.217h-1.8l-25.189-22.53v-1.66h.072L73.125 80.1zm0-5.343v3.538l-24.902-22.24h3.959l20.943 18.702zm0-5.271v1.805L56.212 56.127h2.015l14.898 13.359z" fill="#48B7E4"/><path fill="#3E8CC6" d="M73.125 56.055H46.208v.722h26.917z"/><path fill="#3E8CC6" d="M55.852 56.055v24.262h.792V56.055z"/><path fill="#3E8CC6" d="M73.125 64.792H46.352v.722h26.773z"/><path d="M63.481 53.6h1.367v26.645h-1.367V53.6zm-8.996 0h1.367v26.645h-1.367V53.6z" fill="#FFF"/><path d="M46.208 56.055v24.19H47v-24.19h-.792zm18.64 0v24.19h.792v-24.19h-.792z" fill="#3E8CC6"/><path fill="#FFF" d="M44.697 63.492h29.867v1.228H44.697z"/><path fill="#D9DBDB" d="M43.473 53.6v26.645h1.584V53.6z"/><path fill="#D9DBDB" d="M44.265 53.6h31.667v1.443H44.265z"/><path fill="#EB5A4A" d="M41.602 79.595H77.73v4.838H41.6z"/><path fill="#AE3620" d="M77.731 84.361v-4.766l5.398 4.766v4.838H47l-5.398-4.838H47z"/><path fill="#FFF" d="M167.477 53.6v26.717h-32.53V53.6z"/><path fill="#50A1D9" d="M164.67 69.414v10.903h-26.916V56.055h26.916z"/><path d="M164.67 80.1v.217h-1.799l-25.19-22.53v-1.66h.073L164.67 80.1zm0-5.343v3.538l-24.901-22.24h3.958l20.943 18.702zm0-5.271v1.805l-16.912-15.164h2.015l14.897 13.359z" fill="#48B7E4"/><path fill="#3E8CC6" d="M164.67 56.055h-26.916v.722h26.916z"/><path fill="#3E8CC6" d="M147.398 56.055v24.262h.791V56.055z"/><path fill="#3E8CC6" d="M164.67 64.792h-26.772v.722h26.772z"/><path d="M155.027 53.6h1.367v26.645h-1.367V53.6zm-8.997 0h1.368v26.645h-1.368V53.6z" fill="#FFF"/><path d="M137.754 56.055v24.19h.791v-24.19h-.791zm18.64 0v24.19h.792v-24.19h-.792z" fill="#3E8CC6"/><path fill="#FFF" d="M136.243 63.492h29.867v1.228h-29.867z"/><path fill="#D9DBDB" d="M134.947 53.6v26.645h1.583V53.6z"/><path fill="#D9DBDB" d="M135.739 53.6h31.667v1.443h-31.667z"/><path fill="#EB5A4A" d="M133.148 79.595h36.129v4.838h-36.13z"/><path fill="#AE3620" d="M169.277 84.361v-4.766l5.397 4.766v4.838h-36.129l-5.397-4.838h5.397z"/><path fill="#FFF" d="M121.777 53.6v26.717H89.318V53.6z"/><path fill="#50A1D9" d="M119.042 69.414v10.903H92.053V56.055h26.989z"/><path d="M119.042 80.1v.217h-1.8l-25.189-22.53v-1.66h.072L119.042 80.1zm0-5.343v3.538l-24.83-22.24h3.958l20.872 18.702zm0-5.271v1.805l-16.913-15.164h2.015l14.898 13.359z" fill="#48B7E4"/><path fill="#3E8CC6" d="M119.042 56.055H92.053v.722h26.989z"/><path fill="#3E8CC6" d="M101.769 56.055v24.262h.792V56.055z"/><path fill="#3E8CC6" d="M119.042 64.792H92.269v.722h26.773z"/><path d="M109.398 53.6h1.367v26.645h-1.367V53.6zm-8.996 0h1.367v26.645h-1.367V53.6z" fill="#FFF"/><path d="M92.053 56.055v24.19h.792v-24.19h-.792zm18.712 0v24.19h.792v-24.19h-.792z" fill="#3E8CC6"/><path fill="#FFF" d="M90.614 63.492h29.867v1.228H90.614z"/><path fill="#D9DBDB" d="M89.318 53.6v26.645h1.584V53.6z"/><path fill="#D9DBDB" d="M90.11 53.6h31.667v1.443H90.11z"/><path fill="#EB5A4A" d="M87.519 79.595h36.129v4.838h-36.13z"/><path fill="#AE3620" d="M123.648 84.361v-4.766l5.325 4.766v4.838H92.845l-5.326-4.838h5.326z"/><path d="M167.477 79.595l-.288-2.816-.287 2.816h-.648l-.288-2.816-.288 2.816h-.648l-.288-2.816-.36 2.816h-.647l-.288-2.816-.288 2.816h-.864l-.287-2.816-.288 2.816h-.648l-.288-2.816-.288 2.816h-.72l-.287-2.816-.288 2.816h-.648l-.288-2.816-.288 2.816h-.647l-.288-2.816-.288 2.816h-.936l-.288-2.816-.288 2.816h-.647l-.288-2.816-.288 2.816h-.648l-.288-2.816-.36 2.816h-.647l-.288-2.816-.288 2.816h-.648l-.288-2.816-.287 2.816h-.648l-.288-2.816-.288 2.816h-.72l-.288-2.816-.287 2.816h-.648l-.288-2.816-.288 2.816h-.648l-.288-2.816-.287 2.816h-.648l-.288-2.816-.36 2.816h-.648l-.287-2.816-.288 2.816h-.648l-.288-2.816-.288 2.816h-.648l-.287-2.816-.288 2.816h-.72l-.288-2.816-.288 2.816h-.647l-.288-2.816-.288 2.816h-.648l-.288-2.816-.288 2.816h-.647l.287-2.816.288 2.816h.648l.288-2.816.288 2.816h.648l.287-2.816.288 2.816h.648l.288-2.816.288 2.816h.647l.288-2.816.288 2.816h.648l.288-2.816.288 2.816h.647l.288-2.816.36 2.816h.648l.288-2.816.288 2.816h.647l.288-2.816.288 2.816h.648l.288-2.816.288 2.816h.647l.288-2.816.288 2.816h.648l.288-2.816.288 2.816h.647l.288-2.816.288 2.816h.648l.288-2.816.432 2.816h.647l.288-2.816.288 2.816h.648l.288-2.816.287 2.816h.648l.288-2.816.288 2.816h.648l.288-2.816.287 2.816h.648l.288-2.816.288 2.816h.648l.288-2.816.287 2.816h.648l.288-2.816.288 2.816h.648l.288-2.816.287 2.816h.648l.288-2.816.432 2.816h.648l.287-2.816.288 2.816h.648l.288-2.816.288 2.816h1.223zm-45.7 0l-.288-2.816-.288 2.816h-.648l-.288-2.816-.288 2.816h-.647l-.288-2.816-.288 2.816h-.648l-.288-2.816-.288 2.816h-.647l-.288-2.816-.288 2.816h-.72l-.288-2.816-.288 2.816h-.647l-.288-2.816-.288 2.816h-.648l-.288-2.816-.288 2.816h-.647l-.288-2.816-.36 2.816h-.648l-.288-2.816-.288 2.816h-.647l-.288-2.816-.288 2.816h-.648l-.288-2.816-.288 2.816h-.647l-.288-2.816-.288 2.816h-.648l-.288-2.816-.287 2.816h-.648l-.288-2.816-.288 2.816h-.648l-.288-2.816-.287 2.816h-1.584l-.288-2.816-.288 2.816h-.647l-.288-2.816-.432 2.816h-.648l-.288-2.816-.287 2.816h-.648l-.288-2.816-.288 2.816h-.648l-.288-2.816-.287 2.816h-.72L94.5 76.78l-.288 2.816h-1.007l-.288-2.816-.288 2.816h-.648l-.288-2.816-.288 2.816h-.647l-.288-2.816-.36 2.816h-.648l.288-2.816.36 2.816h.648l.287-2.816.288 2.816h.648l.288-2.816.288 2.816h.648l.287-2.816.288 2.816h.648l.288-2.816.288 2.816h.648l.287-2.816.288 2.816h.648l.288-2.816.288 2.816h.647l.288-2.816.432 2.816h.648l.288-2.816.288 2.816h.647l.288-2.816.288 2.816h.648l.288-2.816.288 2.816h.647l.288-2.816.288 2.816h.648l.288-2.816.288 2.816h.647l.288-2.816.288 2.816h.648l.288-2.816.288 2.816h.647l.288-2.816.288 2.816h.648l.288-2.816.431 2.816h.648l.288-2.816.288 2.816h.648l.288-2.816.287 2.816h.648l.288-2.816.288 2.816h.648l.288-2.816.287 2.816h.648l.288-2.816.288 2.816h.648l.288-2.816.287 2.816h.648l.288-2.816.288 2.816h.648l.287-2.816.288 2.816h2.016zm-45.845 0l-.288-2.816-.288 2.816h-.648l-.288-2.816-.287 2.816h-.648l-.288-2.816-.288 2.816h-.648l-.288-2.816-.287 2.816h-.648l-.288-2.816-.288 2.816h-1.007l-.288-2.816-.288 2.816h-.648l-.288-2.816-.288 2.816h-.647l-.288-2.816-.288 2.816h-.648l-.288-2.816-.288 2.816h-.72l-.287-2.816-.288 2.816h-.648l-.288-2.816-.288 2.816h-.647l-.288-2.816-.288 2.816h-.648l-.288-2.816-.36 2.816h-.647l-.288-2.816-.288 2.816h-.648l-.288-2.816-.288 2.816h-.647l-.288-2.816-.288 2.816h-.648l-.288-2.816-.287 2.816h-.648l-.288-2.816-.288 2.816h-.648l-.288-2.816-.287 2.816h-.648l-.288-2.816-.288 2.816h-1.583l-.288-2.816-.288 2.816h-.648l-.288-2.816-.431 2.816h-.648l-.288-2.816-.288 2.816h-.648l-.288-2.816-.287 2.816h-.648l-.288-2.816-.288 2.816h-.72l.288-2.816.288 2.816h.648l.288-2.816.288 2.816h.647l.288-2.816.288 2.816h.648l.288-2.816.36 2.816h.647l.288-2.816.288 2.816h.648l.288-2.816.288 2.816h.647l.288-2.816.288 2.816h.648l.288-2.816.288 2.816h.647l.288-2.816.288 2.816h.648l.288-2.816.287 2.816h.648l.288-2.816.288 2.816h.648l.288-2.816.287 2.816h.648l.288-2.816.432 2.816h.648l.287-2.816.288 2.816h.648l.288-2.816.288 2.816h.648l.287-2.816.288 2.816h.648l.288-2.816.288 2.816h.648l.287-2.816.288 2.816h.648l.288-2.816.288 2.816h.648l.287-2.816.288 2.816h.648l.288-2.816.288 2.816h.647l.288-2.816.288 2.816h.648l.288-2.816.288 2.816h.647l.288-2.816.288 2.816h.648l.288-2.816.288 2.816h2.087z" fill="#56B363"/><path fill="#FFF" d="M130.269 113.028h2.303v31.411h-2.303z"/><path d="M132.572 113.028v7.583c-1.008-.94-1.583-2.239-1.583-3.683 0 .939-.288 1.733-.72 2.527v-6.427h2.303z" fill="#D9DBDB"/><path fill="#50A1D9" d="M163.231 113.028v31.412h-30.659v-31.412z"/><path d="M163.231 113.028v10.254a7.82 7.82 0 0 1-1.871.217c-3.455 0-6.333-2.455-6.333-5.488 0 3.033-2.807 5.488-6.334 5.488-3.526 0-6.333-2.455-6.333-5.488 0 3.033-2.807 5.488-6.333 5.488a7.134 7.134 0 0 1-3.527-.939v-9.46l30.731-.072z" fill="#3E8CC6"/><path d="M163.231 143.646l-23.534-21.086a4.194 4.194 0 0 0 1.08-.794l22.454 20.146v1.734zm0-3.539l-21.59-19.352c.503-.794.863-1.733.863-2.744 0 2.96 2.735 5.416 6.19 5.488l14.609 13.07-.072 3.538zm0-7.076l-11.443-10.254a6.212 6.212 0 0 0 1.151-.722l10.22 9.17.072 1.806z" fill="#48B7E4"/><path fill="#FFF" d="M165.534 102.919v41.52h-2.303v-41.52z"/><path d="M165.534 106.024v15.814a6.471 6.471 0 0 1-2.303.65v-16.392l2.303-.072z" fill="#D9DBDB"/><path fill="#3E8CC6" d="M132.572 115.123v28.884h1.151v-28.884z"/><path fill="#FFF" d="M148.477 113.028v30.979h-1.151v-30.979z"/><path d="M148.477 113.028v9.243c-.432-.072-.791-.216-1.151-.36v-8.955h1.151v.072z" fill="#D9DBDB"/><path fill="#3E8CC6" d="M148.477 115.123v28.884h1.224v-28.884z"/><path fill="#D9DBDB" d="M130.269 113.028v30.979h1.151v-30.979z"/><path fill="#FFF" d="M165.534 144.007h-33.61v-2.095h33.61z"/><path fill="#D9DBDB" d="M165.534 115.123h-33.61v-2.095h33.61z"/><path fill="#C6C7C6" d="M123.432 144.006h49.01v3.033h-49.01z"/><path fill="#3E8CC6" d="M132.572 101.98h30.659v11.048h-30.66z"/><path fill="#D9DBDB" d="M130.269 113.028v-9.676h2.303v9.676z"/><path fill="#E32125" d="M35.989 93.965l12.594 10.976H35.99z"/><path fill="#D9DBDB" d="M99.106 93.965l12.667 10.976H35.989V93.965z"/><path fill="#FFF" d="M48.583 104.94H35.99V93.966z"/><path d="M99.106 93.965l12.667 10.976H99.106L86.44 93.965h12.667zm-50.523 0l12.667 10.976H48.583L35.917 93.965h12.666zm25.262 0l12.666 10.976H73.845L61.178 93.965h12.667z" fill="#E94A42"/><path fill="#D9DBDB" d="M149.629 93.965l12.666 10.976h-50.522L99.106 93.965z"/><path d="M149.629 93.965l12.666 10.976H149.63l-12.667-10.976h12.667zm-25.262 0l12.667 10.976h-12.667l-12.666-10.976h12.666z" fill="#E94A42"/><path fill="#D9DBDB" d="M174.89 93.965l12.667 10.976h-25.262L149.63 93.965z"/><path fill="#E94A42" d="M174.89 93.965l12.667 10.976H174.89l-12.595-10.976z"/><path d="M61.25 104.94c0 3.034-2.807 5.489-6.333 5.489-3.455 0-6.334-2.455-6.334-5.488H61.25z" fill="#D45242"/><path d="M73.845 104.94c0 3.034-2.807 5.489-6.334 5.489-3.526 0-6.333-2.455-6.333-5.488h12.667z" fill="#C6C7C6"/><path d="M86.511 104.94c0 3.034-2.806 5.489-6.333 5.489-3.455 0-6.333-2.455-6.333-5.488H86.51z" fill="#D45242"/><path d="M99.106 104.94c0 3.034-2.807 5.489-6.333 5.489-3.455 0-6.334-2.455-6.334-5.488h12.667z" fill="#C6C7C6"/><path d="M111.773 104.94c0 3.034-2.807 5.489-6.334 5.489-3.526 0-6.333-2.455-6.333-5.488h12.667z" fill="#D45242"/><path d="M124.367 104.94c0 3.034-2.806 5.489-6.333 5.489-3.526 0-6.333-2.455-6.333-5.488h12.666z" fill="#C6C7C6"/><path d="M137.034 104.94c0 3.034-2.807 5.489-6.333 5.489-3.455 0-6.334-2.455-6.334-5.488h12.667z" fill="#D45242"/><path d="M149.629 104.94c0 3.034-2.807 5.489-6.334 5.489-3.526 0-6.333-2.455-6.333-5.488h12.667z" fill="#C6C7C6"/><path d="M162.295 104.94c0 3.034-2.806 5.489-6.333 5.489-3.454 0-6.333-2.455-6.333-5.488h12.666z" fill="#D45242"/><path d="M174.89 104.94c0 3.034-2.807 5.489-6.333 5.489-3.455 0-6.334-2.455-6.334-5.488h12.667z" fill="#C6C7C6"/><path d="M187.557 104.94c0 3.034-2.807 5.489-6.334 5.489-3.454 0-6.333-2.455-6.333-5.488h12.667z" fill="#D45242"/><path d="M92.845 117.361c.36-.217.647-.361.863-.578.216-.216.432-.36.504-.577.144-.145.216-.361.288-.506.072-.144.072-.36.072-.505v-.145c.216-.144.432-.216.72-.289.216-.072.503-.072.72-.072.215 0 .431 0 .575.072.216.073.36.145.504.217a.869.869 0 0 1 .36.361c.072.145.144.289.144.433 0 .361-.072.65-.288.94a2.251 2.251 0 0 1-.792.649c-.288.144-.72.289-1.08.361-.431.072-.72.145-1.079.145-.288 0-.504 0-.648-.073-.144-.072-.36-.072-.431-.144-.216-.145-.36-.217-.432-.289zm-17.13 4.405c0 .144.073.289.217.289.072 0 .216-.073.288-.145.072-.072.144-.216.216-.433.072-.144.144-.433.216-.65.071-.216.143-.505.215-.794h-.144c-.143 0-.287.072-.431.216-.144.145-.216.29-.288.506-.072.217-.144.361-.144.578-.072.144-.072.36-.144.433zm19.217.866c.504.29 1.08.506 1.727.65.072-.144.072-.289.072-.433 0-.289-.144-.578-.504-.722a3.357 3.357 0 0 1-.72.361c-.215.072-.36.144-.575.144zm-3.023-4.26c.072.794.288 1.516.72 2.166.072-.072.072-.144.144-.216.144-.145.288-.217.432-.217.143 0 .215 0 .287.072.072.072.072.145.072.29 0 .071 0 .144-.072.288-.072.072-.072.144-.215.217-.072.072-.144.072-.216.144.287.361.575.65.935.939.288 0 .504-.073.792-.073a5.567 5.567 0 0 0 1.295-.36c.36-.145.72-.362.936-.65.216-.29.36-.578.36-.94a1.22 1.22 0 0 0-.216-.721 1.701 1.701 0 0 0-.648-.578 3.785 3.785 0 0 0-1.08-.361 8.954 8.954 0 0 0-1.51-.144c-.792 0-1.44 0-2.016.144zm-3.167 4.405c1.8-.867 3.095-2.528 3.24-4.405-.145 0-.289.072-.505.144-.647.217-1.223.434-1.655.795-.432.36-.72.794-.936 1.227-.216.506-.288 1.011-.288 1.589 0 .217.072.433.144.65zm-7.844-1.083c.863.866 2.087 1.444 3.382 1.733v-.073c.072-.433.216-.866.288-1.227.144-.433.216-.794.288-1.155.072.216.144.433.216.794.072.289.072.578.072.939 0 .288 0 .577-.072.938h.504c.791 0 1.583-.144 2.303-.36v-.217c0-.65-.072-1.156-.288-1.589-.216-.433-.504-.794-.792-1.01h.288c.432 0 .72 0 .936-.145.288-.073.432-.145.575-.29.144-.144.288-.288.288-.432.072-.145.072-.361.072-.506 0-.217-.072-.433-.144-.722-.216 0-.431.072-.791.072h-1.871c-.288 0-.504 0-.792-.072.072-.217.072-.433.144-.65 0-.144.072-.289.072-.433 0-.506-.144-.867-.504-1.156-.36-.288-.864-.433-1.655-.433-.432 0-1.008.072-1.584.145v.506c0 .432-.072.938-.144 1.443-.072.506-.216 1.083-.36 1.661l-.431 1.733v.506zm-1.584-3.394c.072 1.01.432 1.95 1.08 2.816v-.072c.072-.433.216-.867.36-1.3.144-.433.216-.867.36-1.228-.432-.072-.864-.072-1.224-.144-.216-.072-.36-.072-.576-.072zm-7.556 5.127c.431.072.791.072 1.223.072 3.383 0 6.19-2.31 6.333-5.2h-1.799c-1.151 0-2.087.145-2.807.362-.72.216-1.367.578-1.799 1.01-.432.434-.792.867-.936 1.445-.143.578-.287 1.155-.287 1.733 0 .144.072.361.072.578zm-2.807-1.228c.647.506 1.44.867 2.23 1.083.073-.216.145-.433.145-.65 0-.216-.072-.433-.144-.577-.072-.145-.216-.361-.36-.434-.144.145-.432.217-.648.29-.216.071-.432.144-.72.216-.143 0-.287.072-.503.072zm-5.686.65c2.015-.939 3.455-2.744 3.455-4.91 0 .577.072 1.155.288 1.66 0-.072 0-.144.072-.216.072-.289.143-.578.215-.794.072-.217.216-.434.36-.578.144-.144.288-.217.36-.217.216 0 .36.145.36.434 0 .144-.072.36-.144.65-.072.216-.216.505-.36.794.216.072.432.144.72.216.288.073.576.073.864.073.36 0 .647 0 1.007-.073.288-.072.648-.144.864-.36.288-.145.504-.362.647-.65a2.01 2.01 0 0 0 .216-.94c0-.288-.072-.577-.287-.794-.144-.216-.432-.433-.72-.65-.288-.144-.72-.288-1.152-.433-.432-.144-.935-.144-1.44-.144-1.007 0-1.87.144-2.662.433-.72.289-1.295.65-1.8 1.155-.431.506-.79 1.011-1.007 1.661-.216.65-.288 1.3-.288 1.95 0 .65.144 1.228.36 1.66 0 0 0 .073.072.073zm10.508-93.801h2.015v11.048h-2.015z" fill="#D9DBDB"/><path fill="#C6C7C6" d="M74.78 29.048h1.008v11.048H74.78z"/><path fill="#D9DBDB" d="M135.307 29.048h2.015v11.048h-2.015z"/><path fill="#C6C7C6" d="M136.315 29.048h1.008v11.048h-1.008z"/><path fill="#D9DBDB" d="M94.284 29.048h2.015v11.048h-2.015z"/><path fill="#C6C7C6" d="M95.292 29.048H96.3v11.048h-1.008z"/><path fill="#D9DBDB" d="M114.796 29.048h2.015v11.048h-2.015z"/><path fill="#C6C7C6" d="M115.803 29.048h1.008v11.048h-1.008z"/><path fill="#D9DBDB" d="M74.924 22.332h58.08v1.733h-58.08z"/><path fill="#C6C7C6" d="M74.924 23.2h58.08v.866h-58.08z"/><path d="M139.913 10.346h4.102v1.66c.072.145.072.362.072.578 0 .722-1.151 1.372-1.583 1.95-.432.578-.648 1.01-1.296 1.372-.575.289-1.223.578-1.87.722v.361h-3.096c-.575 0-1.007-.072-1.439-.144a2.299 2.299 0 0 1-.936-.361c-.287-.145-.503-.29-.647-.506a9.757 9.757 0 0 0 1.799-1.155 3.968 3.968 0 0 0 1.08-1.156c.287-.36.431-.722.575-1.083.072-.36.144-.722.144-1.01v-.362c.504-.216.936-.433 1.512-.577.503-.29 1.08-.29 1.583-.29zM64.848 23.705a13.3 13.3 0 0 1 .648-4.116c.432-1.3 1.152-2.456 2.087-3.466.936-1.011 2.231-1.806 3.743-2.383 1.511-.578 3.382-.867 5.541-.867h4.103v.578a5.186 5.186 0 0 1 1.44.65c.647.36 1.223.866 1.582 1.372.36.505.576 1.083.576 1.733 0 .794-.144 1.444-.504 2.022-.36.577-.791 1.01-1.367 1.3-.072.072-.144.072-.216.144v.794h-3.67c-.648 0-1.224-.072-1.8-.144-.575-.073-1.08-.29-1.511-.434.36-.505.576-1.083.792-1.588a3.36 3.36 0 0 0 .288-1.372c0-.578-.288-.867-.72-.867-.288 0-.504.145-.792.434-.288.288-.504.722-.72 1.227-.215.506-.431 1.083-.503 1.66a8.352 8.352 0 0 0-.216 1.878c0 .506.072 1.011.144 1.445.072.433.288.866.504 1.227.215.361.647.65 1.08.867.43.216 1.079.289 1.798.289a8.45 8.45 0 0 0 1.943-.217c.648-.145 1.08-.289 1.512-.433.504-.217.935-.434 1.295-.65h3.599c.072-.361.216-.795.288-1.156a7.735 7.735 0 0 1 2.015-3.032c.935-.867 2.23-1.59 3.742-2.095 1.584-.505 3.527-.794 5.902-.794.72 0 1.511 0 2.447.072.863.073 1.727.073 2.447.145.863.072 1.727.144 2.663.289-.216.866-.504 1.66-.72 2.6-.216.938-.504 1.804-.72 2.671a30.74 30.74 0 0 0-.576 2.744 16.515 16.515 0 0 0-.215 2.6c0 .722.575 1.444.72 2.021-.289.073-.505.145-.792.145v.289h-3.311c-1.44 0-2.519-.29-3.167-.867-.647-.578-.935-1.3-.935-2.31v-.435c-.936 1.228-1.656 2.166-2.663 2.816-.072.073-.216.073-.288.145v.794h-3.383a4.626 4.626 0 0 1-1.44-.217c-.43-.144-.863-.36-1.15-.65a2.433 2.433 0 0 1-.792-1.227c-.216-.505-.288-1.155-.288-1.95h-2.375c-.072.434-.144.795-.432 1.228-.288.505-.72.939-1.44 1.372-.647.433-1.583.794-2.734 1.01-.144 0-.36.073-.504.145v.29h-3.742a13.58 13.58 0 0 1-3.383-.434c-1.08-.289-2.087-.722-2.95-1.3-.864-.65-1.584-1.444-2.088-2.383-.504-1.01-.72-2.238-.792-3.61zm72.33 7.22c.504-.072.936-.216 1.44-.36a5.933 5.933 0 0 0 2.015-1.156c.287-.289.503-.577.647-.939h3.095v-2.382h-4.03c-.504.288-1.008.577-1.584.794-.503.216-1.08.36-1.727.505a9.94 9.94 0 0 1-2.159.217 4.701 4.701 0 0 1-1.8-.361c-.503-.289-.79-.722-.863-1.372.36.072.72.072 1.08.144.36 0 .791.073 1.151.073.936 0 1.943-.073 2.879-.29 1.008-.144 1.871-.433 2.735-.794.791-.36 1.511-.794 2.015-1.3.504-.577.792-1.227.792-1.95 0-.577-.144-1.082-.504-1.515-.288-.506-.792-.867-1.44-1.228-.647-.361-1.439-.65-2.303-.867-.935-.216-2.015-.288-3.238-.288-2.015 0-3.743.216-5.182.577-1.008.29-1.871.65-2.663 1.083v-1.733h-4.03c-.432.073-.936.145-1.656.217-.72.072-1.51.072-2.375.072h-1.655c-.576 0-1.151-.072-1.655-.072.072-.505.144-.939.216-1.3.072-.36.072-.65.072-.866 0-1.083-.36-1.878-1.08-2.455v-.867h-3.381c-.936 0-2.087.144-3.383.361.072.145.072.361.072.506v.577c0 .939-.072 1.95-.288 3.033-.144 1.083-.432 2.239-.72 3.466-.287 1.156-.575 2.383-.935 3.61-.36 1.228-.648 2.384-.936 3.467-.288 1.083-.504 2.094-.72 3.033-.143.938-.287 1.66-.287 2.31 0 .65.072 1.228.288 1.806a4.234 4.234 0 0 0 1.007 1.588c.504.433 1.152.794 2.015 1.083.648.217 1.368.29 2.231.361h4.247v-.36c.36-.073.647-.217 1.007-.29 1.224-.433 2.231-1.155 3.095-2.021.863-.867 1.44-1.95 1.871-3.178.432-1.227.648-2.6.648-4.188 0-1.372-.216-2.455-.648-3.322a7.202 7.202 0 0 0-1.655-2.166h.72c.791 0 1.51-.072 2.015-.216a3.649 3.649 0 0 0 1.295-.65c.36-.29.504-.578.648-.94.072-.143.144-.36.144-.577h3.454c-.144.072-.288.217-.432.29a6.865 6.865 0 0 0-1.943 2.599c-.432 1.01-.576 2.094-.576 3.321 0 .867.216 1.661.576 2.383a4.57 4.57 0 0 0 1.656 1.661c.72.433 1.583.794 2.59 1.011.504.144 1.08.217 1.656.289.504.072 1.08.072 1.655.072h4.678l.144-.505z" fill="#C03C23"/><path d="M137.25 15.906a9.757 9.757 0 0 0 1.8-1.155 3.968 3.968 0 0 0 1.079-1.156c.288-.36.432-.722.576-1.083.072-.361.143-.722.143-1.01v-.362c.504-.217.936-.433 1.512-.578.504-.144 1.007-.144 1.511-.144.432 0 .864.072 1.296.144.431.073.72.217 1.08.434.287.216.503.433.719.722.144.289.288.577.288 1.01 0 .723-.216 1.373-.72 1.95-.432.578-1.007 1.011-1.727 1.372-.72.361-1.44.65-2.231.795-.792.144-1.584.288-2.231.288-.576 0-1.008-.072-1.44-.144a2.299 2.299 0 0 1-.935-.361c-.288-.361-.504-.505-.72-.722zm.72 5.849c-1.008 0-1.44 1.227-1.656 1.95 2.591 0 3.455-1.878 1.656-1.95zm.863 5.777a9.94 9.94 0 0 0 2.16-.217c.647-.144 1.223-.289 1.727-.505.575-.217 1.08-.434 1.583-.795.72.361 1.08.867 1.08 1.589a2.2 2.2 0 0 1-.792 1.733c-.504.505-1.224.867-2.015 1.155-.864.29-1.8.506-2.879.65-1.08.145-2.16.217-3.239.217a15.5 15.5 0 0 1-3.31-.361 8.449 8.449 0 0 1-2.591-1.011c-.72-.433-1.296-1.011-1.655-1.661-.432-.722-.576-1.444-.576-2.383 0-1.227.216-2.383.576-3.322.431-1.01 1.007-1.877 1.943-2.6.863-.721 2.015-1.299 3.454-1.66 1.44-.361 3.095-.578 5.182-.578 1.224 0 2.303.073 3.239.29.935.216 1.727.505 2.303.866.647.36 1.08.794 1.44 1.227.287.506.503 1.011.503 1.517 0 .794-.288 1.444-.792 1.95-.504.505-1.151 1.01-2.015 1.3-.792.36-1.727.577-2.735.793-1.007.145-1.943.29-2.879.29-.431 0-.791 0-1.151-.073-.36 0-.72-.072-1.08-.144.072.65.36 1.083.864 1.372.432.216 1.008.36 1.655.36zm-21.447 6.426c.288 0 .576-.216.864-.65.288-.433.504-.938.648-1.66.216-.65.36-1.3.504-2.167.215-1.66.215-4.043-.504-5.56-.144.795-.288 1.589-.576 2.455-.216.867-.36 1.372-.576 2.239-.216.866-.432 1.589-.576 2.383-.143.794-.215 1.516-.215 2.022 0 .289.072.577.143.65 0 .216.072.288.288.288zm3.167-18.34c0 .216 0 .505-.072.866-.072.36-.144.794-.216 1.3.576 0 1.152.072 1.655.072h1.656c.863 0 1.655 0 2.375-.073a24.51 24.51 0 0 0 1.655-.216 5.41 5.41 0 0 1 .216 1.444c0 .361-.072.722-.216 1.083-.144.361-.36.65-.648.939-.288.289-.72.505-1.295.65-.504.144-1.224.216-2.015.216h-.72c.648.506 1.224 1.228 1.655 2.167.432.866.648 2.022.648 3.321 0 1.589-.216 2.96-.648 4.188-.431 1.228-1.007 2.311-1.87 3.178-.865.866-1.872 1.588-3.096 2.022a12.747 12.747 0 0 1-4.246.722c-1.295 0-2.375-.145-3.238-.434-.864-.288-1.512-.65-2.016-1.083-.503-.433-.863-1.01-1.007-1.588-.216-.578-.288-1.228-.288-1.806 0-.65.072-1.372.288-2.31.144-.939.432-1.95.72-3.033.287-1.083.575-2.239.935-3.466.36-1.228.648-2.455.936-3.61.288-1.156.504-2.384.72-3.467.143-1.083.287-2.094.287-3.033v-.577c0-.145 0-.361-.072-.506a15.424 15.424 0 0 1 3.383-.36c1.511 0 2.663.288 3.383.866.791.65 1.151 1.516 1.151 2.527zm-21.879 9.098c.216 0 .432-.073.576-.29.72-.938.792-1.805 1.08-2.815-.144-.073-.216-.073-.36-.073-1.44-.072-2.52 3.178-1.296 3.178zm10.364-6.5c-.216.867-.504 1.661-.72 2.6-.288.867-.504 1.805-.72 2.672a30.74 30.74 0 0 0-.575 2.744 16.515 16.515 0 0 0-.216 2.6c0 .722.072 1.444.144 2.021-.72.145-1.296.29-1.943.361-.576.073-1.152.073-1.656.073-1.44 0-2.519-.29-3.166-.867-.648-.578-.936-1.3-.936-2.31v-.435c-.936 1.228-1.943 2.166-3.023 2.816-1.08.65-2.159.94-3.31.94a4.626 4.626 0 0 1-1.44-.218c-.432-.144-.863-.36-1.151-.65a2.433 2.433 0 0 1-.792-1.227c-.216-.505-.288-1.155-.288-1.95 0-1.3.216-2.527.576-3.682a7.735 7.735 0 0 1 2.015-3.033c.936-.867 2.231-1.589 3.743-2.094 1.583-.506 3.526-.795 5.901-.795.72 0 1.511 0 2.447.073.864.072 1.727.072 2.447.144.936.072 1.8.144 2.663.217zm-40.16 5.489a13.3 13.3 0 0 1 .649-4.116c.431-1.3 1.151-2.456 2.087-3.466.935-1.011 2.23-1.806 3.742-2.383 1.511-.578 3.383-.867 5.542-.867 1.151 0 2.159.072 3.094.289.936.217 1.728.505 2.447.866.648.361 1.224.867 1.584 1.372.36.506.575 1.084.575 1.733 0 .795-.143 1.445-.503 2.022-.36.578-.792 1.011-1.368 1.3-.575.289-1.151.578-1.87.722-.72.145-1.368.217-2.088.217-.648 0-1.224-.072-1.8-.145-.575-.072-1.079-.288-1.51-.433.36-.505.575-1.083.791-1.588.216-.506.288-.94.288-1.372 0-.578-.288-.867-.72-.867-.288 0-.504.144-.791.433-.288.29-.504.722-.72 1.228-.216.505-.432 1.083-.504 1.66a8.352 8.352 0 0 0-.216 1.878c0 .506.072 1.011.144 1.444.072.434.288.867.504 1.228.216.361.648.65 1.08.866.431.217 1.079.29 1.799.29s1.295-.073 1.943-.217c.648-.145 1.08-.29 1.511-.434.504-.216.936-.433 1.296-.65.288.217.503.578.72.94.143.433.287.794.287 1.227 0 .505-.144 1.01-.432 1.516-.287.506-.72.939-1.439 1.372-.648.434-1.583.795-2.735 1.011-1.151.289-2.519.433-4.246.433-1.152 0-2.231-.144-3.383-.433-1.08-.289-2.087-.722-2.95-1.3-.864-.65-1.584-1.444-2.088-2.383-.431-.794-.647-2.021-.72-3.393z" fill="#F8AB25"/><path d="M143.152 10.346c.287 0 .503-.072.791-.072.432 0 .864.072 1.296.144.431.072.72.217 1.08.433.287.217.503.433.719.722.144.29.288.578.288 1.011 0 .722-.216 1.372-.72 1.95-.432.578-1.008 1.01-1.727 1.372-.72.361-1.44.65-2.231.794-.792.145-1.584.29-2.231.29h-.937c-.144 0-.288-.073-.504-.073a2.299 2.299 0 0 1-.935-.361l-.144-.072a.78.78 0 0 1 .36.072h.72c.36 0 .647 0 1.007-.072.36 0 .72-.073 1.08-.217.36-.144.72-.217 1.079-.289.36-.144.72-.289 1.008-.433.287-.145.575-.361.863-.578a6.4 6.4 0 0 0 .72-.65c.216-.216.36-.505.432-.722.072-.289.144-.577.144-.866 0-.145 0-.29-.072-.434 0-.144-.072-.216-.144-.288-.072-.073-.144-.217-.216-.29-.072-.071-.216-.144-.288-.216l-.432-.217c-.144-.072-.288-.072-.504-.144-.144-.072-.36-.072-.503-.072h-1.295c-.216 0-.504.072-.72.144-.072 0-.144 0-.144.072.504-.216.936-.433 1.512-.577.144 0 .36-.072.504-.072h.215l-.071-.29zm.36 16.175c.287-.145.575-.29.863-.433.72.36 1.08.866 1.08 1.588a2.2 2.2 0 0 1-.792 1.733c-.504.506-1.224.867-2.015 1.156-.864.288-1.8.505-2.88.65a24.448 24.448 0 0 1-3.238.216h-.935c-.864-.072-1.656-.144-2.447-.289-.72-.144-1.44-.433-2.015-.722.215.072.431.145.72.217.503.072.935.216 1.51.216.504.073 1.08.073 1.656.073.504 0 1.08 0 1.583-.073.504 0 1.08-.072 1.584-.144.503-.072 1.007-.144 1.439-.217.432-.072.864-.216 1.295-.36.432-.145.72-.29 1.08-.434.288-.144.576-.361.792-.578.216-.216.36-.433.503-.65.072-.216.144-.505.144-.794 0-.216-.072-.433-.144-.65a.996.996 0 0 1-.215-.289c.072 0 .072 0 .143-.072v-.144h.288zm-34.474-8.304c-.216.866-.504 1.66-.72 2.6-.288.866-.504 1.804-.72 2.671a30.74 30.74 0 0 0-.575 2.744 16.515 16.515 0 0 0-.216 2.6c0 .722.072 1.444.144 2.021-.72.145-1.296.29-1.943.361-.576.073-1.152.073-1.656.073h-.935c-.864-.073-1.512-.29-1.944-.578.432.072.936.144 1.44.144h.72c.287 0 .503 0 .791-.072.288 0 .576-.072.864-.144.144 0 .288-.072.432-.072 0-.145-.072-.361-.072-.578 0-.361-.072-.722-.072-1.083 0-.434 0-.867.072-1.3.072-.433.072-.867.144-1.372.072-.433.144-.867.288-1.372.072-.506.215-.939.287-1.372.072-.433.216-.867.36-1.372.144-.505.288-.939.432-1.372.144-.505.288-.939.432-1.3.072-.216.144-.433.216-.722-.216 0-.432-.072-.648-.072-.432 0-.864-.072-1.295-.145a23.534 23.534 0 0 0-2.447-.144c-.432 0-.864-.072-1.224-.072h-1.151a21.19 21.19 0 0 0-3.167.216c-.936.145-1.8.29-2.519.578h-.072c.432-.144.864-.36 1.296-.505 1.367-.434 3.022-.722 4.965-.795h1.008c.72 0 1.511 0 2.447.073.864.072 1.727.072 2.447.144.936.072 1.8.217 2.59.217zM85 25.365c.36-.144.648-.36.936-.505.287.217.503.578.72.939.143.36.287.794.287 1.227 0 .506-.144 1.011-.432 1.517-.288.505-.72.938-1.439 1.372-.648.433-1.583.794-2.735 1.01-1.151.29-2.519.434-4.246.434h-.792c-.863-.072-1.727-.145-2.519-.361a7.64 7.64 0 0 1-1.799-.65c.144.072.36.072.504.144.504.145 1.08.217 1.583.29.504.071 1.08.071 1.655.071.864 0 1.584 0 2.304-.072.647-.072 1.295-.144 1.799-.289a36.27 36.27 0 0 0 1.44-.433c.431-.144.79-.361 1.079-.505.288-.145.575-.361.791-.578.216-.217.36-.361.504-.578.144-.216.216-.433.288-.65.072-.216.072-.433.072-.65 0-.216 0-.36-.072-.577-.072-.145-.072-.361-.144-.506-.072-.144-.144-.289-.216-.36h.648l-.216-.29zm-4.75 1.3h1.223v-.144c.144 0 .288-.072.36-.072l.864-.217c.288-.072.504-.144.72-.289.144-.072.36-.144.503-.217-.287.073-.503.145-.791.217a8.001 8.001 0 0 1-1.943.217H79.53c.288 0 .576 0 .792-.072-.36-.073-.648-.145-.936-.29-.503-.216-.863-.505-1.08-.866-.287-.36-.431-.794-.503-1.227a8.918 8.918 0 0 1-.144-1.445c0-.433.072-.866.072-1.372-.072 0-.144-.072-.216-.072.144-.216.216-.433.36-.65a9.39 9.39 0 0 1 .504-1.516c.072-.217.144-.361.288-.578v-.289c0-.433.36-.433 0-.505.072 0 .144-.072.216-.072.36 0 .072-.145.215.072.144-.145.288-.289.432-.361l-.072-.072.432-.073v-.36h-1.51c-.288 0-.504.072-.72.216-.144.072-.36.289-.504.505a4.91 4.91 0 0 0-.791 1.372c-.144.29-.216.578-.288.867-.072.289-.144.65-.216.939-.144.65-.216 1.3-.216 1.95 0 .216 0 .505.072.794 0 .289.072.505.144.794.072.289.144.505.216.794.072.217.216.434.36.65.144.217.36.433.575.578.216.144.504.289.72.433.288.145.648.217.936.289.216 0 .503.072.72.072h.863zm18.424-1.516v-.433h-.432l.072-.073c-.935-1.372.144-2.022.72-2.6h.936v-1.082h-1.584c-.935 0-1.799 1.01-2.159 2.021-.072.29-.144.506-.216.795-.072.289 0 .505.072.722.072.289.288.578.504.722l2.087-.072zm-.72 1.877h1.44v.65h.072l-1.08.433v.578l-.503.506-.432.36c-.432.362-.792.65-1.224.867-1.08.65-2.159.939-3.31.939-.216 0-.504 0-.72-.072h-.288c-.144 0-.288-.073-.504-.073a2.429 2.429 0 0 1-.863-.433h.791c.504 0 1.008-.072 1.512-.216a6.82 6.82 0 0 0 1.511-.65c.504-.29.936-.65 1.44-1.083.431-.362.863-.867 1.223-1.372.072-.073.072-.145.144-.217.36-.145.576-.217.792-.217zm19.144-4.982h1.44v6.499h-1.08c0 .36-.072.65-.072.938-.144.867-.288 1.517-.503 2.167-.072.289-.144.577-.288.794h.72v2.022h-1.44c-.144 0-.36 0-.504-.145-.144-.072-.288-.144-.36-.288-.072-.145-.144-.29-.144-.434 0-.144-.072-.288-.072-.505 0-.289 0-.65.072-1.011.072-.361.072-.722.216-1.155.144-.65.288-1.3.504-1.95l.144-.433c.072-.434.144-.65.216-.795.144-.505.216-1.01.36-1.444.144-.433.216-.866.288-1.3.072-.433.144-.794.216-1.155l.287-1.805zm2.591-.795h1.44l.504.217h.575c.432 0 .72 0 1.008-.072.288 0 .576-.072.792-.145l.647-.216c.144-.072.288-.145.432-.289.144-.144.216-.217.288-.361.072-.144.144-.217.216-.361.072-.145.072-.289.144-.433 0-.145.072-.29.072-.506 0-.216 0-.433-.072-.65 0-.072 0-.144-.072-.216h-.216c-.288 0-.648.072-.936.072-.36 0-.72.072-1.151.072h-3.815c-.287 0-.575 0-.863-.072h-.648l.144-.578c.072-.289.072-.505.144-.722.072-.217.072-.361.072-.578.072-.36.072-.65.072-.794 0-.433-.072-.866-.216-1.228a1.97 1.97 0 0 0-.648-.866c-.288-.217-.72-.433-1.223-.578-.504-.144-1.152-.216-1.871-.216-.504 0-.936 0-1.512.072-.144 0-.288 0-.432.072 0-.072 0-.144-.072-.289.864-.144 1.656-.289 2.375-.36h1.008c1.511 0 2.663.288 3.383.866.72.577 1.08 1.372 1.08 2.455 0 .216 0 .505-.073.866a24.37 24.37 0 0 0-.216 1.3c.576 0 1.152.072 1.656.072h.72-.72 1.727c.72 0 1.44 0 2.087-.072h.648c.575-.072 1.007-.144 1.367-.144a5.41 5.41 0 0 1 .216 1.444c0 .361-.072.722-.216 1.083-.144.361-.36.65-.648.939-.288.289-.72.505-1.295.65-.504.144-1.224.216-2.015.216h-.504c.648.506 1.223 1.228 1.655 2.167.432.866.648 2.022.648 3.321 0 1.589-.216 2.96-.648 4.188-.432 1.228-1.007 2.311-1.87 3.178-.865.866-1.872 1.588-3.096 2.022a12.747 12.747 0 0 1-4.246.722h-.863c-.864-.072-1.584-.145-2.232-.361a8.361 8.361 0 0 1-1.08-.434c.36.073.72.145 1.152.217.504.072 1.08.072 1.728.072.791 0 1.511-.072 2.159-.144.648-.072 1.295-.289 1.871-.506.576-.216 1.08-.505 1.583-.794.504-.289.936-.65 1.296-1.083.432-.433.72-.867 1.007-1.372a8.883 8.883 0 0 0 .72-1.66 7.95 7.95 0 0 0 .432-1.878c.072-.65.144-1.372.144-2.167 0-.65-.072-1.227-.144-1.733-.072-.505-.288-1.01-.432-1.372-.216-.433-.432-.794-.72-1.083-.288-.289-.503-.578-.863-.866l-1.44-1.156-.144.072zm15.546 2.961h1.44v-.289c.215-.072.431-.144.575-.289-.144 0-.36.073-.576.073h-.288l.072-.217.144-.361c.072-.217.144-.361.288-.578h1.224v-1.227h-1.512c-.647 0-1.08.289-1.44.722-.43.505-.647 1.227-.79 1.66l-.145.65h.72c.072-.144.216-.144.288-.144zm-1.152.939h1.44l.072.216h1.439c.504 0 .936 0 1.368-.072.503 0 .935-.072 1.439-.216.504-.073.936-.145 1.367-.29.432-.144.864-.288 1.224-.433.36-.144.72-.36 1.007-.505.288-.217.576-.433.792-.65.432-.433.648-1.01.648-1.66 0-.434-.144-.867-.36-1.3-.144-.217-.288-.362-.504-.578a2.585 2.585 0 0 0-.72-.506c-.287-.144-.647-.288-.935-.433-.36-.144-.792-.217-1.224-.361-.431-.072-.935-.144-1.439-.217-.504-.072-1.08-.072-1.655-.072-1.008 0-1.944.072-2.735.145-.792.072-1.584.216-2.231.433-.144.072-.36.072-.504.144.504-.216 1.151-.505 1.8-.65a20.768 20.768 0 0 1 4.101-.577h1.08c1.224 0 2.303.072 3.239.289.935.216 1.727.505 2.303.866.647.361 1.08.794 1.44 1.228.287.505.503 1.01.503 1.516 0 .794-.288 1.444-.792 1.95-.504.505-1.151 1.01-2.015 1.3-.792.36-1.727.577-2.735.794-1.007.144-1.943.289-2.879.289h-1.151c-.36 0-.72-.073-1.08-.145v.145c.072.577.432.938.864 1.155.288.144.648.289 1.008.289-.288 0-.576.072-.864.072h1.655a9.94 9.94 0 0 0 2.16-.217c.503-.144.935-.216 1.367-.36-.288.144-.576.216-.864.36-.288.073-.576.217-.864.29-.287.072-.647.144-.935.216-.72.144-1.511.217-2.303.217-.36 0-.72 0-1.08-.145-.36-.072-.647-.216-1.007-.36-.36-.145-.648-.434-.864-.723-.216-.289-.288-.65-.36-1.01l-.216-.434zM74.78 14.029c.216-.073.432-.217.72-.29 1.295-.505 2.735-.794 4.462-.866h1.08c1.151 0 2.159.072 3.094.289.936.217 1.728.505 2.447.866.648.361 1.224.867 1.584 1.372.36.506.575 1.084.575 1.733 0 .795-.144 1.445-.503 2.022-.36.578-.792 1.011-1.368 1.3-.576.289-1.151.578-1.871.722-.72.145-1.367.217-2.087.217h-1.008a2.58 2.58 0 0 1-.791-.145c-.576-.072-1.08-.288-1.512-.433l.072-.072h.072c.288.072.576.072.864.144h.863c.288 0 .648 0 .936-.072.36 0 .648-.072.936-.144.288-.072.575-.145.863-.29.288-.071.504-.216.792-.36.216-.145.432-.289.648-.506.216-.216.36-.433.504-.65.143-.216.287-.505.36-.794.071-.289.143-.65.143-1.01 0-.29-.072-.506-.144-.723-.072-.216-.216-.433-.36-.722-.36-.433-.791-.866-1.439-1.228-.288-.144-.648-.36-1.007-.505-.432-.144-.792-.289-1.224-.361-.864-.217-1.871-.289-2.95-.289-1.08 0-2.016.072-2.88.217-.72.216-1.295.36-1.87.577z" fill="#C03C23"/><path d="M137.25 15.906a9.757 9.757 0 0 0 1.8-1.155 3.968 3.968 0 0 0 1.079-1.156c.288-.36.432-.722.576-1.083.072-.361.143-.722.143-1.01v-.362c.504-.217.936-.433 1.512-.578.504-.144 1.007-.144 1.511-.144.432 0 .864.072 1.296.144.431.073.72.217 1.08.434.287.216.503.433.719.722.144.289.288.577.288 1.01 0 .723-.216 1.373-.72 1.95-.432.578-1.007 1.011-1.727 1.372-.72.361-1.44.65-2.231.795-.792.144-1.584.288-2.231.288-.576 0-1.008-.072-1.44-.144a2.299 2.299 0 0 1-.935-.361c-.288-.361-.504-.578-.72-.722zm.72 5.849c-1.008 0-1.44 1.227-1.656 1.95 2.591 0 3.455-1.95 1.656-1.95zm.863 5.777a9.94 9.94 0 0 0 2.16-.217c.647-.144 1.223-.289 1.727-.505.575-.217 1.08-.434 1.583-.795.72.361 1.08.867 1.08 1.589a2.2 2.2 0 0 1-.792 1.733c-.504.505-1.224.867-2.015 1.155-.864.29-1.8.506-2.879.65-1.08.145-2.16.217-3.239.217a15.5 15.5 0 0 1-3.31-.361 8.449 8.449 0 0 1-2.591-1.011c-.72-.433-1.296-1.011-1.655-1.661-.432-.722-.576-1.444-.576-2.383 0-1.227.216-2.383.576-3.322.431-1.01 1.007-1.877 1.943-2.6.863-.721 2.015-1.299 3.454-1.66 1.44-.361 3.095-.578 5.182-.578 1.224 0 2.303.073 3.239.29.935.216 1.727.505 2.303.866.647.36 1.08.794 1.44 1.227.287.506.503 1.011.503 1.517 0 .794-.288 1.444-.792 1.95-.504.577-1.151 1.01-2.015 1.3-.792.36-1.727.577-2.735.793-1.007.145-1.943.29-2.879.29-.431 0-.791 0-1.151-.073-.36 0-.72-.072-1.08-.144.072.65.36 1.083.864 1.372.432.216 1.008.36 1.655.36zm-21.447 6.426c.288 0 .576-.216.864-.65.288-.433.504-.938.648-1.66.216-.65.36-1.3.504-2.167.215-1.66.215-4.043-.504-5.56-.144.795-.288 1.589-.576 2.455-.216.867-.36 1.372-.576 2.239-.216.866-.432 1.589-.576 2.383-.143.794-.215 1.516-.215 2.022 0 .289.072.577.143.65 0 .216.144.288.288.288zm3.167-18.34c0 .216 0 .505-.072.866-.072.36-.144.794-.216 1.3.576 0 1.152.072 1.655.072h1.656c.863 0 1.655 0 2.375-.073a24.51 24.51 0 0 0 1.655-.216 5.41 5.41 0 0 1 .216 1.444c0 .361-.072.722-.216 1.083-.144.361-.36.65-.648.939-.288.289-.72.505-1.295.65-.504.144-1.224.216-2.015.216h-.72c.648.506 1.224 1.228 1.655 2.167.432.866.648 2.022.648 3.321 0 1.589-.216 2.96-.648 4.188-.431 1.228-1.007 2.311-1.87 3.178-.865.866-1.872 1.588-3.096 2.022a12.747 12.747 0 0 1-4.246.722c-1.295 0-2.375-.145-3.238-.434-.864-.288-1.512-.65-2.016-1.083-.503-.433-.863-1.01-1.007-1.588-.216-.578-.288-1.228-.288-1.806 0-.65.072-1.372.288-2.31.144-.939.432-1.95.72-3.033.287-1.083.575-2.239.935-3.466.288-1.228.648-2.455.936-3.61.288-1.156.504-2.384.72-3.467.143-1.083.287-2.094.287-3.033v-.577c0-.145 0-.361-.072-.506a15.424 15.424 0 0 1 3.383-.36c1.511 0 2.663.288 3.383.866.791.65 1.151 1.516 1.151 2.527zm-21.879 9.098c.216 0 .432-.073.576-.29.72-.938.792-1.805 1.08-2.815-.144-.073-.216-.073-.36-.073-1.44-.072-2.52 3.178-1.296 3.178zm10.436-6.5c-.216.867-.504 1.661-.72 2.6-.288.867-.504 1.805-.72 2.672a30.74 30.74 0 0 0-.575 2.744 16.515 16.515 0 0 0-.216 2.6c0 .722.072 1.444.144 2.021-.72.145-1.296.29-1.943.361-.576.073-1.152.073-1.656.073-1.44 0-2.519-.29-3.166-.867-.648-.578-.936-1.3-.936-2.31v-.435c-.936 1.228-1.943 2.166-3.023 2.816-1.08.65-2.159.94-3.31.94a4.626 4.626 0 0 1-1.44-.218c-.432-.144-.863-.36-1.151-.65a2.433 2.433 0 0 1-.792-1.227 6.978 6.978 0 0 1-.288-1.95c0-1.3.216-2.527.576-3.682a7.735 7.735 0 0 1 2.015-3.033c.936-.867 2.231-1.589 3.743-2.094 1.583-.506 3.526-.795 5.901-.795.72 0 1.511 0 2.447.073.864.072 1.727.072 2.447.144.864.072 1.8.144 2.663.217zm29.507-2.455l-.431.217c.072.072.216.072.287.145.144.072.288.072.432.144.144.072.36.072.576.072h.72c.36 0 .647 0 1.007-.072.36 0 .72-.072 1.08-.217.36-.072.72-.216 1.08-.289.36-.144.72-.288 1.007-.433.288-.144.576-.36.864-.577.288-.217.503-.434.72-.65.215-.217.36-.506.431-.722.072-.217.144-.578.144-.867 0-.144 0-.289-.072-.433 0-.145-.072-.217-.144-.29-.072-.071-.144-.216-.216-.288-.072-.072-.216-.144-.288-.217l-.431-.216c-.144-.072-.288-.072-.504-.145-.144-.072-.36-.072-.504-.072h-1.296c-.215 0-.503.072-.72.145-.215.072-.503.144-.719.216-.144 0-.216.072-.36.145v.072c0 .144 0 .36-.072.578-.072.216-.072.36-.144.577-.072.217-.144.434-.287.65-.144.217-.216.433-.36.65-.144.217-.36.433-.504.65l-.648.65c-.288.216-.504.433-.863.65l.215-.073zM136.53 21.9c.36-.433.864-.722 1.44-.722.72 0 1.151.29 1.367.65.144.217.144.433.144.722-.072.217-.144.433-.36.65-.504.506-1.44 1.011-2.807 1.011h-.72l.145-.65c.144-.433.36-1.155.791-1.66zm4.606 5.922c-.72.144-1.511.216-2.303.216-.36 0-.72 0-1.08-.144-.36-.072-.647-.217-1.007-.361-.36-.145-.648-.434-.863-.722-.216-.29-.288-.65-.36-1.011l-.072-.722.72.072c.143 0 .36.072.503.072.144 0 .36 0 .504.072h1.152c.503 0 .935 0 1.367-.072.504 0 .936-.072 1.44-.217.503-.072.935-.144 1.367-.288.432-.145.863-.29 1.223-.434.36-.144.72-.36 1.008-.505.288-.145.576-.433.792-.65.431-.433.647-1.011.647-1.66 0-.434-.144-.867-.36-1.3-.144-.217-.287-.362-.503-.578-.216-.145-.432-.361-.72-.506-.288-.144-.648-.289-.936-.433-.36-.145-.791-.217-1.223-.361a65.852 65.852 0 0 0-1.44-.217c-.503-.072-1.08-.072-1.655-.072-1.007 0-1.943.072-2.735.144-.791.073-1.583.217-2.23.434-.649.216-1.296.433-1.8.65-.504.216-1.008.577-1.44.866-.431.361-.72.722-1.079 1.083-.288.361-.504.867-.72 1.3-.144.505-.288.939-.431 1.516-.144.578-.144 1.084-.144 1.661 0 .434.072.795.144 1.156.071.36.215.65.431.938.144.29.432.578.648.867.216.217.504.505.864.65.36.216.72.36 1.08.577l1.295.434c.503.072.935.216 1.511.216.504.073 1.08.073 1.655.073.504 0 1.08 0 1.584-.073.503 0 1.08-.072 1.583-.144a65.852 65.852 0 0 0 1.44-.217c.431-.072.863-.216 1.295-.36.432-.145.72-.29 1.08-.434.287-.144.575-.361.791-.578.216-.216.36-.433.504-.65.072-.216.144-.505.144-.794 0-.217-.072-.433-.144-.65-.072-.072-.144-.216-.288-.289a3.393 3.393 0 0 1-.504.217c-.288.144-.576.217-.863.361-.288.072-.576.217-.864.289-.288.36-.576.505-1.008.578zm-22.454 5.704c-.36.578-.792.867-1.368.867-.144 0-.36 0-.503-.145-.144-.072-.288-.144-.36-.289-.072-.144-.144-.288-.144-.433 0-.144-.072-.289-.072-.505 0-.29 0-.65.072-1.011.072-.361.072-.722.216-1.156.144-.65.288-1.3.504-1.95l.143-.433c.072-.433.144-.65.216-.794.144-.505.216-1.01.36-1.444.144-.433.216-.867.288-1.3.072-.433.144-.794.216-1.155l.288-1.805.792 1.66a7.67 7.67 0 0 1 .647 2.6c.072 1.155.072 2.31-.072 3.25-.072.433-.144.794-.216 1.155-.072.36-.144.722-.287 1.01-.144.29-.216.65-.36.94-.072.433-.144.722-.36.938zm1.223-17.041c.072-.361.072-.65.072-.795a3.38 3.38 0 0 0-.216-1.227 1.97 1.97 0 0 0-.647-.867c-.288-.216-.72-.433-1.224-.577-.504-.145-1.151-.217-1.871-.217-.504 0-.936 0-1.511.072-.432.072-.792.072-1.224.145v.722c0 .433 0 .938-.072 1.516-.072.505-.144 1.083-.216 1.66-.072.579-.216 1.084-.288 1.734-.144.578-.288 1.227-.431 1.805-.288 1.156-.576 2.383-.936 3.61l-.576 2.24-.288 1.227a47.651 47.651 0 0 1-.432 1.588c-.143.506-.215.94-.287 1.445-.072.433-.144.866-.216 1.227-.072.361-.072.722-.072 1.011 0 .289 0 .578.072.867l.216.866c.072.217.215.506.36.722.143.217.36.433.503.65.144.217.432.361.72.506.288.144.648.288 1.007.433.36.144.864.216 1.296.289.504.072 1.08.072 1.727.072.792 0 1.512-.072 2.16-.145.647-.072 1.295-.288 1.87-.505.576-.217 1.08-.505 1.584-.794.504-.29.935-.65 1.295-1.083.432-.434.72-.867 1.008-1.372a8.865 8.865 0 0 0 .72-1.661c.215-.578.36-1.228.431-1.878.072-.65.144-1.372.144-2.166 0-.65-.072-1.228-.144-1.733-.072-.506-.287-1.011-.431-1.372-.216-.433-.432-.794-.72-1.083-.288-.29-.504-.578-.864-.867l-1.44-1.155 1.944.217h.648c.432 0 .72 0 1.007-.073.288 0 .576-.072.792-.144l.648-.217a1.49 1.49 0 0 0 .432-.289c.143-.072.215-.216.287-.36.072-.145.144-.217.216-.362.072-.144.072-.289.144-.433.072-.144.072-.289.072-.505 0-.217 0-.434-.072-.65 0-.073 0-.145-.072-.217h-.216c-.287 0-.647.072-.935.072-.36 0-.72.072-1.152.072h-3.814c-.288 0-.576 0-.864-.072h-.647l.143-.577c.072-.29.072-.506.144-.723.144-.288.216-.505.216-.65zm-20.223 8.232c-.288.36-.648.577-1.08.577-.575 0-.935-.289-1.08-.794-.071-.217-.071-.433-.071-.722 0-.217.072-.506.216-.795.36-1.01 1.223-2.021 2.159-2.021h.288c.144 0 .216.072.288.072l.431.144-.072.361c0 .145-.072.29-.072.506-.144.938-.287 1.733-1.007 2.672zm8.42-5.344c.072-.217.144-.433.216-.722-.216 0-.432-.072-.648-.072-.431 0-.863-.073-1.295-.145a23.534 23.534 0 0 0-2.447-.144c-.432 0-.864-.072-1.223-.072h-1.152c-1.151 0-2.231.072-3.167.216-.935.145-1.799.29-2.519.578-.72.217-1.439.578-2.015.866-.575.29-1.08.723-1.511 1.084a18.66 18.66 0 0 0-1.152 1.3c-.287.505-.575.938-.72 1.516-.143.577-.287 1.083-.431 1.66-.072.578-.144 1.156-.144 1.806 0 .36 0 .722.072 1.01.072.29.072.579.216.795.072.217.144.433.288.578.144.144.216.289.36.433.143.145.287.217.431.289.144.072.288.144.504.217.216.072.432.072.576.144h.648c.503 0 1.007-.072 1.511-.217a6.82 6.82 0 0 0 1.511-.65c.504-.288.936-.65 1.44-1.083.504-.433.935-.938 1.367-1.588.432-.578 1.224-.434 1.08.36v.507c0 .432.072.794.216 1.082.144.29.36.578.575.795.216.216.576.36 1.008.505.504.145 1.08.217 1.727.217h.72c.288 0 .504 0 .792-.072.287 0 .575-.073.863-.145.144 0 .288-.072.432-.072 0-.144-.072-.361-.072-.578 0-.36-.072-.722-.072-1.083 0-.433 0-.866.072-1.3.072-.433.072-.866.144-1.372.072-.433.144-.866.288-1.372.072-.505.216-.938.288-1.372.072-.433.216-.866.36-1.372.144-.505.288-.938.431-1.372.216-.36.36-.794.432-1.155zm-38.432 2.31c-.072.65-.143 1.3-.143 2.023 0 .65.071 1.3.215 1.877.144.578.288 1.083.576 1.516.288.434.504.867.864 1.228.288.361.648.722 1.08.939.431.289.863.505 1.295.722.432.217.935.36 1.44.505.503.145 1.079.217 1.583.29.503.071 1.08.071 1.655.071.863 0 1.583 0 2.303-.072.648-.072 1.295-.144 1.8-.289a36.27 36.27 0 0 0 1.439-.433c.431-.144.791-.361 1.08-.505.287-.145.575-.361.79-.578.217-.217.36-.361.505-.578.143-.216.215-.433.287-.65.072-.216.072-.433.072-.65 0-.216 0-.36-.072-.577-.072-.145-.072-.361-.144-.506a1.511 1.511 0 0 0-.287-.433c-.072 0-.144.072-.216.144-.216.145-.504.217-.72.362-.216.072-.504.144-.72.288-.216.145-.504.145-.863.217a4.234 4.234 0 0 1-1.008.144c-.36 0-.72.073-1.08.073-.431 0-.791 0-1.079-.073-.36-.072-.648-.144-.936-.288a6.325 6.325 0 0 1-.72-.434 2.194 2.194 0 0 1-.575-.577c-.144-.217-.288-.434-.36-.65a11.88 11.88 0 0 1-.216-.795c-.072-.216-.072-.505-.144-.794 0-.289-.072-.505-.072-.794 0-.65.072-1.3.216-1.95.072-.289.144-.65.216-.939.072-.288.216-.577.288-.866a4.91 4.91 0 0 1 .792-1.372c.144-.217.36-.361.503-.506a1.39 1.39 0 0 1 .72-.216c.432 0 .792.144 1.008.433.216.217.288.578.288.939 0 .216 0 .433-.072.722a11.88 11.88 0 0 0-.216.794c-.072.289-.216.578-.36.867a.548.548 0 0 0-.144.289h.072c.216.072.504.144.72.144.287.072.575.072.863.144h.864c.288 0 .648 0 .935-.072.36 0 .648-.072.936-.144.288-.072.576-.145.864-.29.288-.071.503-.216.791-.36.216-.145.432-.289.648-.506.216-.216.36-.433.504-.65.144-.216.288-.505.36-.794.072-.289.144-.65.144-1.01 0-.29-.072-.506-.144-.723-.072-.216-.216-.433-.36-.722-.36-.433-.792-.866-1.44-1.228-.287-.144-.647-.36-1.007-.505-.432-.144-.792-.289-1.224-.361-.863-.217-1.87-.289-2.95-.289s-2.016.072-2.88.217c-.863.144-1.654.36-2.374.65-.72.288-1.368.65-2.015 1.01-.576.362-1.08.795-1.584 1.228-.431.506-.863.939-1.223 1.517-.36.577-.576 1.083-.792 1.733a6.58 6.58 0 0 0-.576 2.094zm-.791 2.023a13.3 13.3 0 0 1 .648-4.116c.431-1.3 1.151-2.456 2.087-3.466.935-1.011 2.23-1.806 3.742-2.383 1.511-.578 3.383-.867 5.542-.867 1.151 0 2.159.072 3.094.289.936.217 1.728.505 2.447.866.648.361 1.224.867 1.584 1.372.36.506.575 1.084.575 1.733 0 .795-.143 1.445-.503 2.022-.36.578-.792 1.011-1.368 1.3-.575.289-1.151.578-1.87.722-.72.145-1.368.217-2.088.217-.648 0-1.224-.072-1.8-.145-.575-.072-1.079-.288-1.51-.433.36-.505.575-1.083.791-1.588.216-.506.288-.94.288-1.372 0-.578-.288-.867-.72-.867-.288 0-.504.144-.791.433-.288.29-.504.722-.72 1.228-.216.505-.432 1.083-.504 1.66a8.352 8.352 0 0 0-.216 1.878c0 .506.072 1.011.144 1.444.072.434.288.867.504 1.228.216.361.648.65 1.08.866.431.217 1.079.29 1.799.29s1.295-.073 1.943-.217c.648-.145 1.08-.29 1.511-.434.504-.216.936-.433 1.296-.65.288.217.503.578.72.94.143.433.287.794.287 1.227 0 .505-.144 1.01-.432 1.516-.287.506-.72.939-1.439 1.372-.648.434-1.583.795-2.735 1.011-1.151.289-2.519.433-4.246.433-1.152 0-2.231-.144-3.383-.433-1.08-.289-2.087-.722-2.95-1.3-.864-.65-1.584-1.444-2.088-2.383-.431-.794-.647-2.021-.72-3.393z" fill="#EB5A4A"/><path d="M84.28 18.794c0-.505-.432-.938-1.007-.938-.576 0-1.008.433-1.008.938 0 .506.432.939 1.008.939.504 0 1.007-.433 1.007-.939m-1.223-3.466c0-.505-.432-.939-1.008-.939-.576 0-1.007.434-1.007.94 0 .505.431.938 1.007.938.576 0 1.008-.433 1.008-.939m-4.03-.361c0-.505-.432-.939-1.008-.939-.576 0-1.008.434-1.008.94 0 .505.432.938 1.008.938.504 0 1.008-.433 1.008-.939m-3.743 1.661c0-.505-.432-.939-1.007-.939-.576 0-1.008.434-1.008.939 0 .505.432.939 1.008.939.503 0 1.007-.434 1.007-.939m-1.871 3.177c0-.505-.432-.938-1.008-.938-.575 0-1.007.433-1.007.938 0 .506.432.939 1.007.939.504 0 1.008-.433 1.008-.939m-.503 3.755c0-.505-.433-.939-1.008-.939-.576 0-1.008.434-1.008.94 0 .505.432.938 1.008.938.503 0 1.007-.433 1.007-.939m1.511 3.394c0-.505-.431-.939-1.007-.939-.576 0-1.008.434-1.008.939 0 .506.432.939 1.008.939.504 0 1.007-.433 1.007-.939m3.815 1.516c0-.505-.432-.938-1.008-.938-.575 0-1.007.433-1.007.938 0 .506.432.94 1.007.94.576 0 1.008-.434 1.008-.94m4.246-.505c0-.505-.432-.939-1.008-.939-.575 0-1.007.434-1.007.939 0 .505.432.939 1.007.939.504-.072 1.008-.434 1.008-.939m20.583.072c0-.505-.431-.939-1.007-.939-.576 0-1.008.434-1.008.94 0 .505.432.938 1.008.938.576 0 1.007-.433 1.007-.939m.504-3.683c0-.505-.432-.938-1.007-.938-.576 0-1.008.433-1.008.938 0 .506.432.94 1.008.94.503 0 1.007-.434 1.007-.94m.792-3.61c0-.505-.432-.939-1.008-.939-.575 0-1.007.434-1.007.939 0 .505.432.939 1.007.939.576 0 1.008-.434 1.008-.939m-7.629-.289c0-.505-.432-.939-1.008-.939-.575 0-1.007.434-1.007.94 0 .505.432.938 1.007.938.576 0 1.008-.433 1.008-.939m3.671-.866c0-.506-.432-.94-1.008-.94-.576 0-1.008.434-1.008.94 0 .505.432.938 1.008.938.576 0 1.008-.433 1.008-.938m-7.989 6.643c0-.506-.432-.939-1.008-.939-.575 0-1.007.433-1.007.939 0 .505.432.939 1.007.939.504 0 1.008-.434 1.008-.94m1.367-3.393c0-.505-.432-.939-1.007-.939-.576 0-1.008.434-1.008.94 0 .505.432.938 1.008.938.504 0 1.007-.433 1.007-.939m-.432 6.427c0-.506-.431-.939-1.007-.939-.576 0-1.008.433-1.008.939 0 .505.432.939 1.008.939.576 0 1.007-.434 1.007-.94m3.527-2.382c0-.506-.432-.939-1.008-.939-.575 0-1.007.433-1.007.939 0 .505.432.939 1.007.939.504 0 1.008-.434 1.008-.94m19.575-12.275c0-.505-.431-.939-1.007-.939-.576 0-1.007.434-1.007.94 0 .505.431.938 1.007.938.576 0 1.008-.433 1.008-.939m-2.015 11.048c0-.505-.432-.938-1.008-.938-.576 0-1.008.433-1.008.938 0 .506.432.939 1.008.939.576 0 1.008-.433 1.008-.939m1.583-7.293c0-.505-.432-.939-1.008-.939-.575 0-1.007.434-1.007.939 0 .506.432.939 1.007.939.576 0 1.008-.433 1.008-.939m-.359 17.186c0-.505-.433-.939-1.008-.939-.576 0-1.008.434-1.008.939 0 .506.432.939 1.008.939.503 0 1.007-.433 1.007-.939m-.504-13.575c0-.506-.432-.94-1.007-.94-.576 0-1.008.434-1.008.94 0 .505.432.938 1.008.938.575 0 1.007-.433 1.007-.938m-1.655 7.293c0-.506-.432-.939-1.008-.939-.575 0-1.007.433-1.007.939 0 .505.432.939 1.007.939.504 0 1.008-.362 1.008-.94m-.648 3.828c0-.506-.432-.939-1.007-.939-.576 0-1.008.433-1.008.939 0 .505.432.939 1.008.939.503 0 1.007-.434 1.007-.94m5.83.651c.576 0 1.007.433 1.007.939 0 .505-.503.938-1.007.938-.576 0-1.008-.433-1.008-.938 0-.073 0-.145.072-.217.432-.072.72-.361.936-.65-.072-.072-.072-.072 0-.072zm3.238-2.311c0-.505-.431-.939-1.007-.939-.576 0-1.008.434-1.008.94 0 .505.432.938 1.008.938.576 0 1.007-.433 1.007-.939m.144-7.293c0-.506-.431-.939-1.007-.939-.576 0-1.008.433-1.008.939 0 .505.432.939 1.008.939.504 0 1.007-.434 1.007-.94m.576 3.683c0-.505-.432-.938-1.007-.938-.576 0-1.008.433-1.008.939 0 .505.432.938 1.008.938.503 0 1.007-.36 1.007-.938m-3.023-7.944c0-.505-.431-.938-1.007-.938-.576 0-1.008.433-1.008.938 0 .506.432.94 1.008.94.576 0 1.007-.434 1.007-.94m4.319.073c0-.506-.432-.94-1.008-.94-.576 0-1.008.434-1.008.94 0 .505.432.938 1.008.938.504-.072 1.008-.433 1.008-.938m13.602-.29c0-.505-.432-.938-1.008-.938-.575 0-1.007.433-1.007.939 0 .505.432.939 1.007.939.576 0 1.008-.434 1.008-.94m-3.455 1.373c0-.506-.431-.939-1.007-.939-.576 0-1.008.433-1.008.939 0 .505.432.939 1.008.939.504 0 1.007-.434 1.007-.94m-1.943 3.322c0-.505-.432-.938-1.007-.938-.576 0-1.008.433-1.008.938 0 .506.432.94 1.008.94.575 0 1.007-.362 1.007-.94m1.008 3.611c0-.505-.432-.939-1.008-.939-.576 0-1.007.434-1.007.939 0 .505.431.939 1.007.939.576 0 1.008-.434 1.008-.939m3.886 1.3c0-.506-.432-.939-1.007-.939-.576 0-1.008.433-1.008.939 0 .505.432.939 1.008.939.503 0 1.007-.362 1.007-.94m4.318-.36c0-.506-.432-.939-1.007-.939-.576 0-1.008.433-1.008.939 0 .505.432.938 1.008.938.503 0 1.007-.433 1.007-.938m.216-9.171c0-.505-.432-.939-1.007-.939-.576 0-1.008.434-1.008.939 0 .506.432.939 1.008.939.503-.072 1.007-.433 1.007-.939m-.288 4.116c0-.505-.432-.939-1.007-.939-.576 0-1.008.434-1.008.939 0 .505.432.939 1.008.939.575 0 1.007-.434 1.007-.939m2.52-2.094c0-.506-.433-.939-1.008-.939-.576 0-1.008.433-1.008.939 0 .505.432.939 1.008.939.575-.073 1.007-.434 1.007-.94m.072-9.242c0-.505-.432-.939-1.007-.939-.576 0-1.008.434-1.008.939 0 .506.432.939 1.008.939.575 0 1.007-.433 1.007-.939m-3.238 1.444c.575 0 1.007.433 1.007.939 0 .505-.504.939-1.007.939-.576 0-1.008-.361-1.008-.867.36-.36.72-.65 1.008-1.01z" fill="#F9C86C"/><path fill="#C03C23" d="M151.212 124.582h9.284v4.405h-9.284z"/><path fill="#FFF" d="M151.716 124.943h8.348v3.611h-8.348z"/><path d="M159.273 128.048v-2.527h-.432v1.516l-.648-1.516h-.432v2.527h.432v-1.516l.648 1.516h.432zm-1.871 0v-.36h-.72v-.723h.648v-.361h-.648v-.722h.72v-.361h-1.224v2.527h1.224zm-2.016-1.733v.217c0 .072-.072.072-.072.144-.072 0-.072.072-.144.072h-.215v-.794h.215c.072 0 .144 0 .144.072.072 0 .072.072.072.145v.144zm.432 0c0-.144 0-.289-.072-.433-.072-.145-.144-.217-.216-.217-.072-.072-.216-.072-.432-.072h-.72v2.527h.433v-1.01h.287c.144 0 .288 0 .432-.073l.216-.216c.072-.217.072-.361.072-.506zm-2.23.506v.649c0 .072-.073.144-.073.144l-.072.072h-.288c-.072 0-.072 0-.072-.072 0 0-.072-.072-.072-.145v-1.3c0-.072.072-.144.072-.144l.072-.072h.288c.072 0 .072 0 .072.072 0 0 .072.072.072.145v.649zm.43 0v-.651c0-.072-.071-.144-.071-.216 0-.072-.072-.144-.144-.144s-.072-.073-.144-.073-.144-.072-.144-.072h-.432c-.072 0-.144.072-.144.072-.072 0-.072.073-.144.073l-.143.144c0 .072-.072.144-.072.217v1.299c0 .073.072.145.072.217 0 .072.071.145.143.145s.072.072.144.072.144.072.144.072h.432c.072 0 .144-.072.144-.072.072 0 .072-.072.144-.072l.144-.145c0-.072.072-.144.072-.217v-.649z" fill="#3E8CC6"/></g></g></svg>