<svg width="265" height="313" viewBox="0 0 265 313" xmlns="http://www.w3.org/2000/svg" xmlns:xlink="http://www.w3.org/1999/xlink"><title>1.12-illustration product</title><defs><rect id="a" width="289" height="325" rx="2.24"/></defs><g transform="translate(-24 -12)" fill="none" fill-rule="evenodd"><mask id="b" fill="#fff"><use xlink:href="#a"/></mask><g mask="url(#b)"><path fill="#F8B947" d="M254.083 287.364h102.81l-15.697 86.368H269.83z"/><path d="M387.63 57.368c-46.131-46.11-120.828-46.11-166.958 0-46.13 46.11-46.13 120.875 0 166.985 46.13 46.11 120.928 46.11 167.058 0 46.03-46.21 46.03-120.875-.1-166.985z" fill="#56B363"/><path d="M420.082 117.957c6.309-1.11 11.154-5.65 12.77-11.452-3.534-4.742-9.742-7.416-16-6.306-6.309 1.11-11.154 5.65-12.77 11.452 3.483 4.792 9.691 7.416 16 6.306zm-65.31-83.795c-43.808-20.886-97.862-13.117-134.15 23.206-36.29 36.323-44.112 90.303-23.217 134.093 43.91 20.885 97.913 13.066 134.151-23.207 36.289-36.222 44.112-90.252 23.217-134.092z" fill="#70BC7D"/><path d="M188.219 163.663c6.309-1.11 12.365 1.514 16 6.307-1.717 5.75-6.512 10.24-12.77 11.451-6.309 1.11-12.365-1.513-16-6.306 1.717-5.801 6.461-10.24 12.77-11.452" fill="#93CA9F"/><path d="M208.76 155.541c6.31-1.11 11.155-5.65 12.77-11.452-3.533-4.742-9.741-7.416-16-6.306-6.308 1.11-11.154 5.65-12.769 11.452 3.533 4.692 9.741 7.416 16 6.306m-16.404-52.921c6.007 2.12 9.943 7.517 10.75 13.47a16.447 16.447 0 0 1-16.705 3.43c-6.006-2.118-9.943-7.516-10.75-13.469 4.24-4.036 10.7-5.55 16.705-3.43zm40.529 14.732c6.006 2.118 9.942 7.516 10.75 13.47a16.447 16.447 0 0 1-16.706 3.43c-6.006-2.119-9.943-7.517-10.75-13.47 4.24-4.036 10.75-5.65 16.706-3.43" fill="#56B363"/><path d="M214.06 105.9c6.006 2.119 12.466.605 16.706-3.43-.808-5.903-4.744-11.25-10.75-13.47-6.006-2.12-12.467-.606-16.706 3.43.807 5.953 4.744 11.35 10.75 13.47m140.107 90.908c4.139 4.843 10.448 6.81 16.302 5.449 2.322-5.449 1.514-12.058-2.523-16.9-4.139-4.844-10.448-6.811-16.302-5.45-2.473 5.45-1.615 12.008 2.523 16.901zM243.636 65.541c4.139 4.843 10.447 6.81 16.302 5.448 2.322-5.448 1.514-12.057-2.524-16.9-4.138-4.843-10.447-6.81-16.302-5.449-2.321 5.449-1.514 12.159 2.524 16.9zm10.548 19.372c4.139 4.843 4.846 11.452 2.524 16.9-5.754 1.312-12.164-.504-16.302-5.448-4.139-4.843-4.845-11.452-2.524-16.9 5.754-1.363 12.164.454 16.302 5.448zm127.742 144.788c4.139 4.843 10.448 6.81 16.302 5.448 2.322-5.448 1.514-12.057-2.523-16.9-4.139-4.843-10.448-6.81-16.302-5.449-2.322 5.449-1.616 12.159 2.523 16.9zm-155.5-177.832c4.138 4.843 4.845 11.452 2.523 16.9-5.754 1.312-12.164-.504-16.302-5.448-4.139-4.843-4.845-11.452-2.524-16.9 5.855-1.261 12.214.605 16.302 5.448zM394.19 175.822c6.006 2.118 9.942 7.516 10.75 13.47a16.447 16.447 0 0 1-16.706 3.43c-6.006-2.119-9.943-7.517-10.75-13.47 4.24-4.036 10.75-5.65 16.706-3.43zM281.287 24.93c1.11 6.306-1.514 12.36-6.309 15.992-5.753-1.715-10.245-6.458-11.457-12.764-1.009-6.306 1.515-12.36 6.31-15.992 5.753 1.715 10.295 6.458 11.456 12.764m7.571 42.427c1.11 6.306-1.514 12.36-6.309 15.992-5.754-1.715-10.246-6.508-11.457-12.763-1.11-6.306 1.514-12.36 6.309-15.993 5.804 1.716 10.346 6.508 11.457 12.764" fill="#93CA9F"/><path d="M215.17 218.552c-4.845 4.136-6.813 10.442-5.45 16.294 5.45 2.321 12.062 1.514 16.907-2.522 4.845-4.137 6.814-10.443 5.451-16.295-5.45-2.32-12.062-1.614-16.908 2.523" fill="#70BC7D"/><g transform="translate(154.504 128.5)"><path fill="#E0B074" d="M20.592 139.743l4.542-1.615-3.987-1.362z"/><path fill="#E1594D" d="M46.787 112.5L60.16 92.675l12.517 12.562-12.517 15.387z"/><path d="M107.15 92.674h-8.025c0 7.063-5.754 12.814-12.87 12.814-7.066 0-12.82-5.751-12.82-12.814H62.432v70.174h47.292v-63.06l-2.574-7.114z" fill="#E1594D"/><path d="M107.15 92.674h-8.681c0 7.87-8.63 12.865-12.164 12.865h-.151v57.36h23.62V98.375l-2.624-5.7z" fill="#CB4C41"/><path d="M84.084 119.462c-.05-1.614-.504-2.976-1.564-4.136-1.615-1.766-4.139-2.321-6.41-1.211-1.716.908-2.725 2.371-3.028 4.338-.303 2.12.303 4.036 2.019 5.5 1.716 1.462 4.138 1.715 6.107.504 1.918-1.21 2.826-2.926 2.876-4.995zm-5.551-9.181h.1c3.332.05 6.007 1.412 7.874 4.137.858 1.26 1.312 2.673 1.413 4.187.101 1.412-.1 2.825-.656 4.137-.555 1.311-1.363 2.522-2.523 3.43-.354.303-.354.303 0 .656 1.968 1.614 3.936 2.623 7.267 2.119.101 0 .152-.05.253-.05.404-.102.454-.051.454.352v1.918c0 .302-.1.454-.404.504-4.492.807-7.873-.605-11.103-3.531-.202-.152-.354-.202-.606-.101-1.413.403-2.826.353-4.24.05a8.665 8.665 0 0 1-4.189-2.22c-1.06-.958-1.817-2.118-2.321-3.531-.455-1.261-.707-2.522-.505-3.784.1-.857.303-1.715.606-2.522a7.25 7.25 0 0 1 2.069-3.128c1.312-1.261 2.877-2.119 4.694-2.421.656-.101 1.312-.202 1.918-.303l-.101.1z" fill="#FFF"/><path d="M92.614 116.183v1.615c0 .908 0 .908.959.908.606 0 1.211-.05 1.766-.303.909-.454 1.515-1.513 1.414-2.472-.152-1.16-.909-2.018-1.969-2.22-.555-.1-1.11-.1-1.716-.1-.403-.051-.454 0-.454.453v2.12zm-.656-5.499c1.11 0 2.22-.1 3.331 0 1.766.202 3.331.908 4.34 2.472.909 1.362 1.01 2.876.657 4.39-.404 1.563-1.414 2.522-2.928 3.127-.252.101-.202.202-.1.353.403.505.857 1.01 1.261 1.514.96 1.21 1.918 2.421 2.927 3.632.404.505.909.959 1.363 1.514.101.1.101.15.152.302-.101.05-.202.101-.303.101h-4.139a.555.555 0 0 1-.505-.303c-1.514-1.866-2.826-3.783-3.936-5.902-.101-.151-.202-.353-.354-.404-.302-.05-.656 0-.959.05-.1 0-.1.304-.1.404 0 1.514.05 2.926.05 4.44 0 .404 0 .858.05 1.261 0 .303-.1.454-.403.454h-3.23c-.202 0-.354 0-.354-.303.253-4.338.101-8.727.101-13.066 0-1.21-.1-2.37-.1-3.582 0-.454.05-.504.504-.504.808.05 1.716.05 2.675.05z" fill="#FFF"/><path d="M62.988 92.674c-.05.303-.101.404-.101.656-1.01 11.553 5.501 22.046 15.494 26.637-.1-1.917-.1-3.834.05-5.802.707-8.374 4.29-15.538 9.59-21.44l-25.033-.05z" fill="#C24036"/><path d="M66.773 92.674c-1.968 10.897 2.826 21.39 11.608 27.142.152-1.917.455-3.784.909-5.752 2.22-9.13 7.722-16.345 14.94-21.39H66.772z" fill="#0498B7"/><path fill="#1B2D45" d="M76.867 92.674h19.18v7.92h-19.18z"/><path d="M81.51 84.25v17.707h9.287V84.199c-1.564.202-3.18.303-4.845.303a25.88 25.88 0 0 1-4.442-.253z" fill="#E7A958"/><path d="M98.822 92.674c0 7.063-5.754 12.865-12.87 12.865-7.066 0-12.87-5.752-12.87-12.865h5.249c0 4.137 3.381 7.568 7.57 7.568 4.19 0 7.571-3.38 7.571-7.568h5.35z" fill="#FFF"/><path d="M74.899 10.897c-9.842 0-17.867 8.021-17.867 17.859 0 9.837 8.025 17.859 17.867 17.859 4.24 0 8.176-1.514 11.255-3.986V14.933c-3.079-2.573-7.016-4.036-11.255-4.036zm32.654 38.997c4.593-3.078 7.622-8.274 7.622-14.227v-6.054l-7.622.656v19.625z" fill="#2C6570"/><path d="M64.754 49.894c-4.593-3.078-7.621-8.274-7.621-14.227v-6.054l7.621.656v19.625zm32.655-38.997c9.842 0 17.866 8.021 17.866 17.859 0 9.837-8.024 17.859-17.866 17.859-4.24 0-8.176-1.514-11.255-3.986V14.933c3.028-2.573 6.965-4.036 11.255-4.036z" fill="#2C6570"/><path d="M110.531 28.756v15.336a4.953 4.953 0 0 1 4.946 4.944 4.953 4.953 0 0 1-4.946 4.944v6.205c0 13.42-11.002 24.367-24.377 24.367-13.375 0-24.378-10.998-24.378-24.367v-31.43h48.755z" fill="#E0B074"/><path d="M86.154 84.552c-13.425 0-24.378-10.998-24.378-24.367V53.98a4.953 4.953 0 0 1-4.946-4.944 4.953 4.953 0 0 1 4.946-4.944V28.756h24.378v55.796z" fill="#E4BB8F"/><path d="M61.726 53.98a4.953 4.953 0 0 1-4.946-4.944 4.953 4.953 0 0 1 4.946-4.944v9.888z" fill="#E4BB8F"/><path d="M97.409 10.897H86.154v9.131h26.85c-3.078-5.448-8.883-9.131-15.595-9.131z" fill="#2C6570"/><path d="M110.531 46.514a2.498 2.498 0 0 1 2.524 2.522 2.498 2.498 0 0 1-2.524 2.523v-5.045z" fill="#B0784A"/><path d="M64.3 37.433c0-4.641 3.482-8.425 7.823-8.677H92.21v-8.677H69.6l-8.833 3.935-1.312 3.935 4.845 9.484z" fill="#2C6570"/><path d="M61.726 46.514a2.498 2.498 0 0 0-2.524 2.522 2.498 2.498 0 0 0 2.524 2.523v-5.045z" fill="#B0784A"/><path d="M73.082 28.756c7.823 0 14.182-6.357 14.182-14.176 0-1.262-.151-2.523-.505-3.683h-7.015a5.212 5.212 0 0 1-5.249-5.247 5.305 5.305 0 0 1 2.725-4.64 14.222 14.222 0 0 0-4.189-.657C65.208.353 58.85 6.71 58.85 14.53c0 7.87 6.36 14.227 14.233 14.227z" fill="#1F3654"/><path d="M86.86 17.91c.253-1.06.404-2.17.404-3.33 0-1.262-.151-2.523-.505-3.683h-7.015a5.212 5.212 0 0 1-5.249-5.247c0-1.967 1.11-3.733 2.725-4.641-3.734 1.413-6.41 4.994-6.41 9.232 0 5.398 4.392 9.838 9.842 9.838 2.373 0 4.543-.808 6.208-2.17z" fill="#2C6570"/><path fill="#1F3654" d="M98.317 28.756H73.082v-8.677h25.235z"/><path fill="#2C6570" d="M98.317 10.897H80.703v9.182h17.614zM60.868 30.824H64.3V44.85c-.707-.454-1.615-.706-2.524-.706-.302 0-.605.05-.908.1v-13.42zm49.663-4.944h-4.795l2.322 9.485V45c.707-.605 1.615-.958 2.524-.958l2.22-12.865-2.27-5.297z"/><path d="M108.008 37.433c0-4.641-3.483-8.425-7.823-8.677V22.5l3.583 1.514 4.24 4.792v8.627z" fill="#1F3654"/><path d="M108.008 28.756H88.576v-8.677h11.609c4.34.201 7.823 4.035 7.823 8.677z" fill="#1F3654"/><path d="M86.154 50.6a2.477 2.477 0 0 1 2.473 2.472c0 .303-.05.555-.101.858h-4.643c-.101-.303-.101-.555-.101-.858-.101-1.362 1.01-2.472 2.372-2.472z" fill="#E1594D"/><path d="M78.634 34.204c-2.726-1.564-7.016.252-8.429 2.724" stroke="#B0784A" stroke-width="2.016"/><path d="M75.202 42.024a3.457 3.457 0 0 0-3.483 3.48 3.457 3.457 0 0 0 3.483 3.482 3.457 3.457 0 0 0 3.482-3.481 3.489 3.489 0 0 0-3.482-3.481z" fill="#1F3654"/><path d="M76.312 44.395c-.656 0-1.11.504-1.11 1.11 0 .656.504 1.11 1.11 1.11.656 0 1.11-.505 1.11-1.11 0-.606-.454-1.11-1.11-1.11z" fill="#FFF"/><path d="M94.179 44.193h3.684c.707 0 1.312.605 1.312 1.312 0 .706-.605 1.311-1.312 1.311h-3.684a1.336 1.336 0 0 1-1.313-1.311c.05-.707.606-1.312 1.313-1.312z" fill="#1F3654"/><path d="M95.239 40.258c4.491-.353 6.914 1.413 7.671 4.339" stroke="#B0784A" stroke-width="2.016"/><path d="M111.49 53.576c-.303.101-.656.101-.959.101v12.26c0 13.47-11.154 24.517-24.63 24.517-13.475 0-24.528-11.048-24.528-24.518v-12.36h50.117z" fill="#2C6570"/><path d="M103.062 64.927c-1.969 7.467-8.833 13.067-16.908 13.067-8.076 0-14.89-5.6-16.908-13.067a16.155 16.155 0 0 1-.555-3.48c0-2.523 2.12-4.642 4.643-4.642h25.64c2.523 0 4.643 2.119 4.643 4.641a23.95 23.95 0 0 1-.555 3.481z" fill="#1F3654"/><path d="M69.297 64.927c1.968 7.467 8.781 13.067 16.857 13.067-6.006-4.39-6.107-17.96 0-21.189h-12.77c-2.523 0-4.643 2.119-4.643 4.641.05 1.211.253 2.422.556 3.481z" fill="#1B2D45"/><path d="M86.154 59.479h-12.82a1.97 1.97 0 0 0-1.968 1.967 1.97 1.97 0 0 0 1.968 1.968h25.64a1.97 1.97 0 0 0 1.968-1.968 1.97 1.97 0 0 0-1.969-1.967h-12.82z" fill="#FFF"/><ellipse fill="#E1594D" cx="86.154" cy="72.192" rx="6.258" ry="2.926"/><path fill="#2C6570" d="M61.423 35.314H64.3v26.334h-2.877z"/><path d="M63.14 50.398h1.11v.101a3.43 3.43 0 0 0 3.23 3.43v1.211h-4.34v-4.742zm47.391-14.983h-2.523v26.334h2.523z" fill="#2C6570"/><path d="M109.118 50.398h-1.11v.101a3.43 3.43 0 0 1-3.23 3.43v1.211h4.34v-4.742zM64.3 44.9c0 4.64 3.482 8.424 7.823 8.676H92.21v2.372l-17.008-.303-6.208.908-5.603 1.766-.201-3.128 1.11-10.292z" fill="#2C6570"/><path d="M108.008 44.9c0 4.64-3.483 8.424-7.823 8.676H80.047v2.372l17.008-.303 6.208.908 5.603 1.766.202-3.128-1.06-10.292z" fill="#2C6570"/><path fill="#CB4C41" d="M120.524 112.5L107.15 92.675l-9.893 12.562 12.517 15.387z"/><path fill="#FFF" d="M43.052 115.981l2.826-4.086 14.283 8.728v5.801z"/><path fill="#CB4C41" d="M12.971 80.415l8.176 11.755-8.883 6.205-3.987 2.775L.05 89.395z"/><path fill="#FFD547" d="M.05 79.76l37.5-13.269 37.5 13.268v49.54l-37.5 13.218L.05 129.3z"/><path fill="#FDC30B" d="M75.05 79.76l-37.5 13.267v49.49l37.5-13.217z"/><path fill="#FFE56B" d="M.05 79.76l37.5 13.267 37.5-13.268-37.5-13.268z"/><path d="M25.185 105.79v2.624c-.858-.303-1.716-.605-2.524-.908v11.149c-.151-.1-.353-.1-.504-.202-.404-.1-.757-.302-1.161-.403-.152-.101-.353-.101-.505-.202V106.7c-.858-.303-1.716-.605-2.523-.908v-2.623a138.22 138.22 0 0 0 7.217 2.623zM5.4 91.918c0 1.06.556 2.069 1.313 2.321.757.303 1.312-.353 1.312-1.362 0-1.06-.555-2.119-1.312-2.371-.707-.252-1.313.353-1.313 1.412zm2.726 3.28c.555.857 1.211 1.412 1.968 1.513v.757c0 .1-.1.1-.151.1-.606-.05-1.161-.352-1.716-.907-.303-.303-.555-.707-.858-1.06-.101-.1-.152-.151-.202-.151-.909-.101-1.666-.706-2.22-1.816-.556-1.11-.657-2.17-.304-3.078.404-.908 1.06-1.21 1.969-.958.959.303 1.817 1.311 2.12 2.522.353 1.261.1 2.422-.657 3.027.101 0 .101 0 .05.05zm13.021 2.118c.354.152.707.303.909-.05.1-.252.1-.656-.05-.958a.997.997 0 0 0-.91-.606c.051.505.051 1.01.051 1.614zm0 2.927l-.908-.303v-5.5h.05c.555.203 1.11.354 1.666.657.807.403 1.262 1.463 1.11 2.421-.1.555-.353.757-.757.858.505.908.909 1.816 1.413 2.775-.1-.05-.303-.101-.403-.101-.505-.101-.909-.505-1.11-1.16-.102-.404-.354-.858-.506-1.262-.1-.303-.201-.353-.403-.353-.152.555-.152 1.261-.152 1.968zm-2.12-.707c-.302-.1-.656-.202-.958-.353-.101 0-.101-.1-.152-.202-.303-.555-.555-1.11-.908-1.715v1.564c-.303-.101-.555-.202-.909-.303V93.28c-.1-.05-.151-.101-.303-.101l.152-.454c0-.05.1-.101.1-.101.304.1.556.202.91.302v3.683c0 .05.05.101.1.101 0-.05.05-.1.101-.151.202-.303.454-.656.656-.959.05-.1.101-.1.152-.1.252.1.504.15.757.252-.05.1-.101.1-.101.15l-.757 1.06c-.101.101-.101.253 0 .454.403.555.807 1.312 1.16 2.12zm-7.822-6.508c.302.101.555.202.858.303v3.733c-.202-.1-.455-.1-.707-.302-.101-.05-.101-.303-.202-.404 0 0-.05 0-.05.05-.303.303-.707.253-1.11-.05-.405-.303-.606-.757-.657-1.312-.05-.555-.05-1.11-.05-1.665v-.353c-.101-.1-.152-.1-.303-.151l.151-.454c0-.05.101-.1.101-.1.303.1.555.2.858.302v2.118c0 .504.202.908.505.958.303.101.505-.1.505-.656.1-.605.1-1.311.1-2.018zm20.49 10.04c.404.151.707-.152.707-.707 0-.555-.303-1.11-.706-1.21-.404-.101-.707.15-.707.706.05.504.303 1.06.707 1.21zm1.565-.454c0 1.059-.706 1.715-1.514 1.412-.858-.303-1.514-1.362-1.514-2.472 0-1.11.707-1.715 1.514-1.412.808.302 1.514 1.412 1.514 2.472zm-8.075-3.38c-.05-.354-.202-.656-.454-.707-.253-.1-.455.101-.505.404.353.05.656.202.959.303zm-.959.454c.101.807.606 1.21 1.514 1.21v.757c0 .05-.05.101-.1.101-.455 0-.91-.1-1.313-.404-.707-.555-1.11-1.614-.959-2.522.101-.908.707-1.312 1.464-1.06.706.303 1.312 1.464 1.261 2.372 0 .15-.1.15-.151.1a16.759 16.759 0 0 0-1.464-.504c-.1 0-.151 0-.252-.05zm4.391.353c-.151-.101-.303-.101-.404-.152v-.908c.101.05.253.101.354.101v-.958c.302.1.555.201.858.302v.959c.201.1.403.151.605.202.101.05.152.1.152.302v.707c-.303-.101-.505-.152-.707-.303v1.513c0 .303.202.505.404.555.1 0 .1.05.202.05v.758c0 .05-.101.1-.101.1-.101 0-.303-.05-.404-.1-.555-.202-.909-.757-.959-1.564-.05-.454 0-.908 0-1.312v-.252zm-2.473.857c.252.202.454.404.707.606.1.1.15.1.201.1.101 0 .152-.1.202-.1a.54.54 0 0 0-.1-.303 5.344 5.344 0 0 0-.505-.605c-.303-.353-.505-.707-.455-1.211 0-.505.202-.858.606-.858.353 0 .707.152 1.11.454.05.05.101.101.101.202v.807c-.05-.1-.1-.1-.1-.1-.202-.102-.404-.303-.556-.404-.1-.05-.202.05-.202.1 0 .051.05.303.101.354.101.202.303.353.455.504.201.303.403.555.454.908.1.707-.101 1.211-.606 1.211-.454 0-.908-.303-1.312-.656-.05-.353-.05-.756-.101-1.009zm-10.296-3.733v1.11c-.353 0-.707-.1-1.06-.303-.707-.504-1.16-1.513-1.11-2.421.05-.908.605-1.463 1.312-1.312.252.101.505.202.706.303.05.05.101.1.101.202v.958c-.302-.303-.504-.555-.807-.504-.101.05-.303.1-.404.252-.202.303-.151.858.101 1.261.252.555.656.706 1.16.454zm-2.423.353c-.303-.1-.555-.202-.858-.302v-3.078c-.1-.05-.151-.1-.303-.1.05-.152.101-.303.152-.505 0-.05.1-.101.1-.05.304.1.556.201.91.302v3.733zm0-4.893c0 .353-.202.555-.454.504-.252-.1-.454-.454-.454-.756 0-.354.202-.555.454-.505.252.05.454.404.454.757zM33.26 98.83v.202c.101.05.152.1.303.1v.909c.101 0 .101.05.202.1v-.907c.101.05.151.1.252.1v-.201c-.302-.152-.504-.202-.757-.303zm1.262 1.312c-.1-.303-.1-.656-.151-.959-.101-.05-.152-.1-.303-.1v1.11c.1 0 .1.05.151.1v-.959c.05.354.101.707.152 1.01.1 0 .1.05.151.1l.151-.908v.958c.051 0 .101.05.152.1v-1.11c-.101-.05-.152-.1-.252-.1.05.202 0 .504-.05.757zM4.34 109.07c.505.353 1.06.706 1.565 1.009.353.202.606.303.808.404.454.15.757.15 1.06 0 .252-.152.353-.454.353-.858 0-.605-.303-1.312-.858-2.018-.404-.504-.707-.858-.909-1.11-.706-.908-1.261-1.614-1.514-2.119-.353-.706-.505-1.513-.505-2.37 0-1.212.303-2.019.909-2.422.606-.404 1.464-.454 2.524-.101a8.266 8.266 0 0 1 2.321 1.311v2.523c-.706-.505-1.615-1.11-2.372-1.312-.757-.202-1.363.202-.555 1.514.303.454.706 1.009 1.262 1.715.656.807 1.11 1.513 1.413 2.119.505.958.706 2.018.706 3.128 0 1.21-.302 2.118-.959 2.572-.656.505-1.514.505-2.674.101-.909-.302-1.716-.807-2.524-1.412 0-.858 0-1.715-.05-2.674zm6.965-8.173l5.906 2.12v2.522c-1.262-.454-2.474-.908-3.735-1.312v2.724c.908.353 1.918.706 2.877 1.01v2.522a48.184 48.184 0 0 0-2.877-1.01v3.33c1.312.454 2.574.908 3.936 1.362v2.523c-2.018-.707-4.088-1.413-6.107-2.12v-13.67z" fill="#FFF"/><path d="M14.435 123.902c1.867.706 1.716.656 3.583 1.312a4.149 4.149 0 0 1 2.12 1.715c.505.757.807 1.665.908 2.472l1.01 8.273c.1.858-.354 1.514-.909 1.817-.555.353-1.312.403-2.12.1a249.022 249.022 0 0 0-5.602-2.017c-1.716-.555-3.33-2.321-3.028-4.137l1.01-7.568c.1-.857.353-1.513.908-1.816.505-.353 1.312-.403 2.12-.151z" fill="#E0B074"/><path fill="#839FA6" d="M83.883 176.772v59.378h-6.864l-9.59-73.352h18.725v13.974z"/><path fill="#638691" d="M88.324 176.772v59.378l7.268-.1 7.268-59.278 2.018-13.974H86.154v13.974z"/><path d="M73.435 136.918c-.505.05-.908.201-1.16.504-.354.404-.404 1.01-.505 1.514l-.909 4.843v.1l-.05.202c0 .404.1.858.403 1.11.303.303.606.505.96.505l12.466 3.834c1.766.353 3.735-.454 4.138-2.069l1.969-6.81c.1-.303.05-.606 0-.908l-4.543-1.413-10.548-1.16c-.404-.05-1.767-.303-2.22-.252z" fill="#EEC281"/><path d="M90.747 141.105c.858-2.573-1.06-3.733-2.877-4.793l-6.31-3.733c-.807-.504-1.866-.202-2.32.605-.505.808-.203 1.867.605 2.321l6.813 4.036 4.089 1.564z" fill="#EEC281"/><ellipse fill="#E1594D" cx="85.851" cy="71.587" rx="6.612" ry="3.077"/><path fill="#EEC281" d="M111.642 118.807l6.157-3.834 1.312 2.22 1.313 2.169 1.261 2.068 1.11 2.068 1.06 2.018.96 2.018.857 1.917.758 1.867.605 1.866.555 1.766.354 1.766.202 1.766.1 1.715-.201 1.715-.404 1.665-.656 1.614-.96 1.514-1.21 1.311-1.414 1.06-1.665.908-1.817.656-1.868.454-2.12.353-2.27.151h-2.423l-2.625-.151-2.826-.252-3.028-.404-3.331-.555-3.483-.757-3.785-.857-4.038-1.01 1.817-7.012 3.886.959 3.634.858 3.331.706 3.08.454 2.775.403 2.524.253 2.27.1h2.02l1.716-.1 1.463-.202 1.211-.303.909-.353.707-.403.454-.354.404-.353.201-.403.202-.505.202-.605v-1.715l-.151-1.11-.253-1.211-.403-1.362-.505-1.514-.656-1.564-.707-1.715-.908-1.766-.96-1.866-1.06-1.917-1.11-1.968-1.261-2.068z"/></g><path d="M24.491 99.947c3.937-.555 7.268-4.39 7.823-7.82.556 3.532 3.937 7.265 7.823 7.82-3.936.555-7.267 4.389-7.823 7.82-.555-3.482-3.936-7.265-7.823-7.82zm123.553 30.572c3.23-.303 6.057-2.624 6.51-4.743.455 2.12 3.231 4.39 6.512 4.743-3.23.302-6.057 2.623-6.511 4.742-.454-2.17-3.28-4.44-6.51-4.742zm-18.775 63.161c2.322-.302 4.34-2.623 4.643-4.742.303 2.12 2.322 4.39 4.644 4.742-2.322.303-4.34 2.624-4.644 4.743-.303-2.12-2.321-4.39-4.643-4.743zm4.29 115.124c2.17-.302 4.038-2.472 4.34-4.389.303 1.968 2.17 4.087 4.34 4.39-2.17.302-4.037 2.471-4.34 4.388-.302-1.967-2.17-4.086-4.34-4.389z" fill="#D7EAF4"/></g></g></svg>