<svg width="64" height="18" viewBox="0 0 64 18" xmlns="http://www.w3.org/2000/svg"><title>Group 3</title><g fill="none" fill-rule="evenodd"><path d="M28.928.064h-6.976v17.84h3.232v-6.172h3.68c3.232 0 5.088-1.8 5.088-4.982V4.854c.032-3.118-1.696-4.79-5.024-4.79zm-3.744 2.957h3.456c1.824 0 2.08.9 2.08 1.672v1.96c0 1.48-.576 2.154-1.856 2.154h-3.68V3.021zm17.728 4.147h-3.68V3.02h7.936V.064H36v17.84h6.976c3.296 0 5.056-1.64 5.056-4.79v-.996C48 9 46.144 7.168 42.912 7.168zM39.2 10.125h3.68c1.28 0 1.856.675 1.856 2.154v1.028c0 .772-.224 1.672-2.08 1.672H39.2v-4.854zm18.496-3.021l5.696-7.04H59.52l-6.496 8.068V.064h-3.168v17.872h3.168v-5.4l2.528-2.893 4.544 8.293h3.616z" fill="#FFF"/><path fill="#6ECB98" d="M16.48.032H0v16.554z"/><path fill="#007481" d="M1.376 17.968h16.48V1.414z"/></g></svg>