<svg width="190" height="49" viewBox="0 0 190 49" xmlns="http://www.w3.org/2000/svg"><title>0.3 QR logo horisontal</title><g fill="none" fill-rule="evenodd"><path fill="#D8352E" d="M.04 0h49.2v49H.04z"/><path fill="#9E2121" d="M.04 3.864V0h.24l.04.598v3.147z"/><path d="M6.2 17.409h38.08v27.368H6.2z"/><g fill="#FFF"><path d="M17 18.365c5.52 0 9.72 4.183 9.72 9.362 0 3.585-1.96 6.175-3.76 7.49.64.517 1.24.995 1.92 1.394 1.64.956 3.16 1.354 4.6 1.354.68 0 1.4-.04 2.08-.239v2.828c-.72.2-1.84.399-3.04.399-2.4 0-4.6-.837-6.64-2.27-.76-.559-1.76-1.355-2.44-1.993-.6.24-1.44.438-2.48.438-5.48 0-9.64-4.222-9.64-9.401.04-5.179 4.24-9.362 9.68-9.362zm0 15.497c3.2 0 5.84-2.749 5.84-6.135 0-3.386-2.64-6.135-5.84-6.135-3.2 0-5.8 2.749-5.8 6.135 0 3.386 2.64 6.135 5.8 6.135z"/><path d="M31.48 32.109c0 1.793.04 3.864.12 4.66h-4.08c.08-.836.12-2.867.12-4.66v-8.685c0-1.792-.04-3.944-.12-4.74h5.44c4.36 0 6.72 2.39 6.72 5.657 0 2.868-1.68 4.302-3.6 4.9 2.08 2.31 4.04 5.457 6.32 7.529h-4.96c-1.16-1.394-3.44-4.661-4.56-6.892-.2.04-.36.04-.52.04h-.88v2.19zm0-4.94h1.44c1.72 0 2.92-1.155 2.92-2.709 0-1.434-1.04-2.749-3.08-2.749h-1.28v5.458z"/></g><path d="M26.68 0H.24C.2 0 .16.478.12.797c-1.08 12.07 5.76 22.946 16.2 27.727-.16-1.992-.12-3.904.04-5.936C17.2 13.744 21 5.697 26.68 0z" fill="#9E2121"/><path d="M2.24 0C.36 11.513 6.32 23.066 16.32 28.563c0-1.991.16-3.943.52-5.975C18.36 13.385 23.12 5.378 29.76 0H2.24z" fill="#B52525"/><path d="M4.24 0c-2.2 11.194 2.84 22.389 12.08 28.484.16-1.992.48-3.904.96-5.896C19.64 12.908 25.56 4.94 33.36.04H4.24V0z" fill="#48A1C7"/><g fill="#000"><path d="M67.64 14.142c5.76 0 10.16 4.422 10.16 9.8 0 3.745-2.04 6.454-3.96 7.808.68.518 1.32 1.036 2 1.435 1.72.995 3.32 1.434 4.84 1.434.72 0 1.44-.08 2.16-.28v2.949c-.72.199-1.92.398-3.16.398-2.52 0-4.84-.836-6.92-2.35-.8-.598-1.84-1.434-2.56-2.112-.6.28-1.52.478-2.56.478-5.76 0-10.12-4.422-10.12-9.88 0-5.457 4.4-9.68 10.12-9.68zm0 16.254c3.36 0 6.08-2.908 6.08-6.374 0-3.466-2.76-6.374-6.08-6.374-3.32 0-6.08 2.908-6.08 6.374 0 3.466 2.72 6.374 6.08 6.374z"/><path d="M85.76 30.675c1.04 0 2.16-.797 2.16-2.749v-4.502c0-.717 0-1.991-.12-2.748h4.04c-.08.796-.12 2.031-.12 2.748v7.171c0 1.394.12 2.231.48 2.908h-3.68c-.2-.318-.32-.996-.4-1.713-.92 1.395-2.12 1.912-3.76 1.912-2.64 0-4.56-1.832-4.56-5.338v-5.537h-1.4c.32-.518.72-1.514.92-2.151h4.36c-.08.796-.12 2.031-.12 2.748v4.462c0 2.112 1.2 2.789 2.2 2.789zm12.4-.08c0 1.036 0 2.31.08 2.829H94.2c.08-.598.12-1.833.12-2.829v-7.848h-1.4c.32-.518.72-1.514.92-2.151h4.36c-.08.597-.08 1.793-.08 2.749.04 0 .04 7.25.04 7.25zm-1.92-16.054c1.2 0 2.12.916 2.12 2.111 0 1.195-.92 2.111-2.12 2.111-1.2 0-2.12-.916-2.12-2.111a2.13 2.13 0 0 1 2.12-2.111zm10.48 15.855c1.4 0 2.16-.518 2.76-1.116v4.064c-1 .12-1.52.319-2.92.319-4.08 0-7-2.948-7-6.574 0-3.665 2.96-6.692 7-6.692 1.04 0 2 .279 2.76.318v4.024c-.68-.598-1.4-1.036-2.72-1.036-1.84 0-3.32 1.594-3.32 3.426.16 1.753 1.6 3.267 3.44 3.267zm8.4-4.263c3.04-4.063 3.44-4.66 3.88-5.537h4.04c-.8.916-1.52 1.793-4.48 5.856 3.84 4.74 4.48 5.537 5.96 6.972h-4.84c-.4-.598-1.2-1.514-4.56-5.578v2.829c0 .996.08 2.151.12 2.749h-4.04c.08-.598.12-1.913.12-2.75V15.338h-1.4c.28-.517.72-1.593.84-2.15h4.44c-.08.676-.12 1.911-.12 2.748.04 0 .04 10.198.04 10.198zm18.96 2.43c0 1.913 0 4.024.12 4.86H130c.08-.836.12-3.027.12-4.86V19.48c0-1.912-.08-4.143-.12-4.94h5.68c4.56 0 7.08 2.51 7.08 5.936 0 2.948-1.72 4.462-3.76 5.14 2.16 2.43 4.24 5.736 6.6 7.887h-5.2c-1.2-1.514-3.64-4.86-4.84-7.25h-1.44c-.04 0-.04 2.31-.04 2.31zm0-5.218h1.52c1.8 0 3.04-1.195 3.04-2.829 0-1.514-1.04-2.908-3.24-2.908H134v5.737h.08z"/><path d="M148.4 27.767c.32 1.633 1.64 2.948 3.64 2.948 1.44 0 2.44-.2 3.48-.837v3.227c-.92.08-2 .597-4.08.597-3.96 0-6.88-2.908-6.88-6.573 0-3.744 2.72-6.653 6.28-6.653 3.84 0 6.16 3.307 6.16 6.374 0 .32 0 .797-.08.996h-8.52v-.08zm-.08-2.55h4.64c-.2-1.036-.84-2.032-2.24-2.032-1.2-.04-2 .757-2.4 2.032zm18.16 4.502c0 2.35-1.64 4.023-4.88 4.023-1.6 0-3.32-.677-4.08-.717v-3.824c.72.916 2.72 1.792 3.84 1.792.8 0 1.24-.398 1.24-.995 0-1.634-4.88-1.793-4.88-5.737 0-2.43 1.72-3.864 4.88-3.864 1.4 0 2.56.478 3.24.518v3.465c-.6-.836-2.24-1.314-3.04-1.314-.92 0-1.24.478-1.24.996.04 1.474 4.92 1.593 4.92 5.657zm6.08-12.549c-.08.677-.08 1.593-.08 2.51v.916h3.44v3.107h-3.44v4.263c0 1.832.8 2.51 1.92 2.51.4 0 1-.08 1.2-.28v3.307c-.52 0-1.24.2-2.24.2-2.44 0-4.64-1.435-4.64-4.94v-5.02h-1.84v-3.107h1.84v-.916c0-.917 0-1.833-.08-2.51h3.88v-.04h.04zm10.52 3.227c3.76 0 6.8 2.948 6.8 6.653 0 3.625-3.12 6.573-6.8 6.573-3.76 0-6.8-2.948-6.8-6.573 0-3.705 3.04-6.653 6.8-6.653zm0 9.92c1.72 0 3.16-1.435 3.16-3.307 0-1.912-1.44-3.347-3.16-3.347-1.8 0-3.16 1.514-3.16 3.347 0 1.872 1.36 3.306 3.16 3.306z"/></g></g></svg>