<svg width="80" height="80" viewBox="0 0 80 80" xmlns="http://www.w3.org/2000/svg" xmlns:xlink="http://www.w3.org/1999/xlink"><title>0.2-QR logo</title><defs><rect id="a" width="80" height="80" rx="4"/><path id="c" d="M0 0h80v80H0z"/><path id="e" d="M0 0h80v80H0z"/><path id="g" d="M0 0h80v80H0z"/></defs><g fill="none" fill-rule="evenodd"><mask id="b" fill="#fff"><use xlink:href="#a"/></mask><use fill="#D8D8D8" xlink:href="#a"/><g mask="url(#b)"><path fill="#D8362E" d="M-4-4h88v88H-4z"/><path fill="#9E2121" d="M0 0v4.918l.03 1.387.498-.203V.942L.475 0z"/><g fill="#FFF"><path d="M27.636 29.966c8.972 0 15.787 6.858 15.787 15.313 0 5.823-3.192 10.093-6.124 12.25a30.188 30.188 0 0 0 3.105 2.286c2.674 1.553 5.133 2.243 7.505 2.243 1.122 0 2.287-.087 3.408-.388v4.615c-1.165.302-2.976.647-4.917.647-3.925 0-7.505-1.38-10.784-3.71-1.25-.905-2.847-2.242-3.968-3.278-.95.389-2.373.69-4.012.69-8.885 0-15.7-6.901-15.7-15.355 0-8.455 6.815-15.313 15.7-15.313zm0 25.32c5.22 0 9.49-4.486 9.49-10.007s-4.27-10.007-9.49-10.007c-5.176 0-9.403 4.486-9.403 10.007 0 5.52 4.227 10.007 9.403 10.007z"/><path d="M51.188 52.44c0 2.932.043 6.297.172 7.634h-6.6c.13-1.337.217-4.702.217-7.635V38.248c0-2.933-.087-6.427-.216-7.721h8.842c7.074 0 10.956 3.882 10.956 9.23 0 4.66-2.717 7.031-5.823 8.023 3.365 3.796 6.6 8.886 10.31 12.294h-8.153c-1.898-2.33-5.65-7.635-7.462-11.301-.302.043-.561.043-.82.043h-1.423v3.623zm0-8.067h2.372c2.804 0 4.745-1.855 4.745-4.443 0-2.329-1.683-4.486-5.004-4.486h-2.113v8.93z"/></g><mask id="d" fill="#fff"><use xlink:href="#c"/></mask><path d="M43.373 0H.37C.307 0 .24.795.196 1.312-1.538 21.02 9.557 38.781 26.568 46.58c-.233-3.24-.213-6.37.083-9.71C27.923 22.418 34.09 9.278 43.373 0" fill="#9E2121" mask="url(#d)"/><mask id="f" fill="#fff"><use xlink:href="#e"/></mask><path d="M3.593 0C.564 18.809 10.248 37.636 26.517 46.637c.013-3.249.282-6.424.826-9.733C29.82 21.865 37.555 8.777 48.353 0H3.594z" fill="#B52525" mask="url(#f)"/><mask id="h" fill="#fff"><use xlink:href="#g"/></mask><path d="M26.547 46.476c.26-3.238.778-6.387 1.572-9.642C31.973 21.022 41.613 8.025 54.237 0H6.886c-3.594 18.307 4.601 36.584 19.661 46.476z" fill="#48A1C7" mask="url(#h)"/></g></g></svg>