<svg width="21" height="17" viewBox="0 0 21 17" xmlns="http://www.w3.org/2000/svg"><title>path22</title><path d="M20.769 2.223a8.361 8.361 0 0 1-2.38.645A4.118 4.118 0 0 0 20.211.602c-.8.47-1.687.81-2.632.994A4.16 4.16 0 0 0 14.555.302c-2.288 0-4.143 1.834-4.143 4.096 0 .32.036.634.107.933a11.81 11.81 0 0 1-8.54-4.279 4.038 4.038 0 0 0-.562 2.059c0 1.42.731 2.674 1.844 3.409a4.158 4.158 0 0 1-1.877-.512v.051c0 1.985 1.428 3.64 3.323 4.016a4.19 4.19 0 0 1-1.871.07 4.143 4.143 0 0 0 3.87 2.845 8.38 8.38 0 0 1-5.146 1.753c-.334 0-.665-.02-.989-.057a11.832 11.832 0 0 0 6.353 1.84c7.62 0 11.788-6.241 11.788-11.654 0-.177-.004-.353-.012-.529a8.384 8.384 0 0 0 2.068-2.12" fill-rule="evenodd"/></svg>