<svg width="36" height="34" viewBox="0 0 36 34" xmlns="http://www.w3.org/2000/svg" xmlns:xlink="http://www.w3.org/1999/xlink"><title>0.4-twitter</title><defs><path id="a" d="M3.933 5.556h19.373v15.241H3.933z"/></defs><g transform="translate(.522)" fill="none" fill-rule="evenodd"><ellipse fill="#DEE0DF" cx="17.359" cy="17" rx="17.359" ry="17"/><g transform="translate(3.858 3.778)"><mask id="b" fill="#fff"><use xlink:href="#a"/></mask><g mask="url(#b)" fill="#000"><path d="M21.424 9.235a6.558 6.558 0 0 1-1.836.487 3.125 3.125 0 0 0 1.405-1.712 6.521 6.521 0 0 1-2.03.751 3.242 3.242 0 0 0-2.333-.977c-1.766 0-3.197 1.385-3.197 3.094 0 .243.028.48.083.706a9.179 9.179 0 0 1-6.59-3.234 3.003 3.003 0 0 0-.432 1.556c0 1.074.564 2.02 1.422 2.576a3.26 3.26 0 0 1-1.448-.387v.038c0 1.5 1.102 2.75 2.564 3.035a3.296 3.296 0 0 1-1.444.053c.407 1.23 1.588 2.124 2.987 2.149a6.553 6.553 0 0 1-3.971 1.325c-.258 0-.513-.015-.763-.044a9.27 9.27 0 0 0 4.901 1.39c5.88 0 9.095-4.715 9.095-8.804 0-.134-.003-.267-.009-.4a6.398 6.398 0 0 0 1.595-1.602"/></g></g></g></svg>