<svg width="23" height="13" viewBox="0 0 23 13" xmlns="http://www.w3.org/2000/svg"><title>path2442</title><path d="M11.24 12.553h1.28s.386-.042.584-.255c.182-.195.176-.562.176-.562s-.025-1.716.772-1.969c.785-.249 1.794 1.66 2.864 2.393.808.555 1.423.433 1.423.433l2.859-.04s1.496-.092.786-1.267c-.058-.096-.413-.87-2.126-2.459-1.793-1.663-1.552-1.394.607-4.271 1.316-1.753 1.841-2.822 1.677-3.28-.157-.437-1.124-.322-1.124-.322l-3.22.02s-.238-.032-.415.074c-.173.103-.284.345-.284.345s-.51 1.356-1.19 2.509c-1.433 2.433-2.006 2.562-2.24 2.41-.546-.352-.41-1.414-.41-2.169 0-2.358.359-3.341-.696-3.596-.35-.084-.608-.14-1.503-.149C9.911.386 8.94.402 8.39.671c-.366.18-.649.579-.477.602.213.028.695.13.95.477.33.449.319 1.456.319 1.456s.19 2.776-.443 3.12c-.434.237-1.03-.245-2.307-2.453-.655-1.13-1.15-2.38-1.15-2.38s-.095-.234-.265-.36C4.81.984 4.522.935 4.522.935l-3.06.02s-.459.013-.628.213c-.15.178-.012.545-.012.545s2.395 5.6 5.107 8.423c2.488 2.588 5.311 2.418 5.311 2.418" fill-rule="evenodd"/></svg>