<svg width="36" height="34" viewBox="0 0 36 34" xmlns="http://www.w3.org/2000/svg"><title>0.3-vk</title><g transform="translate(.76)" fill="none" fill-rule="evenodd"><ellipse fill="#DEE0DF" cx="17.359" cy="17" rx="17.359" ry="17"/><path d="M16.387 21.574h.987s.298-.032.45-.193c.141-.148.136-.425.136-.425s-.019-1.296.596-1.487c.606-.189 1.385 1.253 2.21 1.807.623.42 1.097.328 1.097.328l2.206-.03s1.154-.07.607-.958c-.045-.073-.319-.657-1.64-1.858-1.383-1.257-1.198-1.053.468-3.227 1.015-1.324 1.42-2.132 1.294-2.478-.121-.33-.867-.243-.867-.243l-2.484.015s-.184-.025-.32.055c-.134.079-.22.261-.22.261s-.393 1.025-.917 1.896c-1.106 1.838-1.549 1.936-1.73 1.821-.42-.266-.315-1.068-.315-1.639 0-1.781.276-2.524-.538-2.717-.27-.063-.468-.105-1.159-.112-.886-.01-1.636.002-2.06.206-.283.135-.501.437-.369.455.165.021.536.098.733.36.255.34.246 1.1.246 1.1s.146 2.098-.342 2.358c-.334.179-.794-.186-1.78-1.854-.505-.854-.886-1.798-.886-1.798s-.074-.177-.205-.271c-.16-.115-.381-.151-.381-.151l-2.36.015s-.355.01-.485.16c-.116.135-.01.412-.01.412s1.848 4.232 3.94 6.365c1.92 1.955 4.098 1.827 4.098 1.827" fill="#000"/></g></svg>