<svg width="16" height="13" viewBox="0 0 16 13" xmlns="http://www.w3.org/2000/svg" xmlns:xlink="http://www.w3.org/1999/xlink"><title>audio_repeat</title><defs><path id="a" d="M.129 0h12.32v6.763H.13V0z"/><path id="c" d="M4.865 3.286V.687H.778v2.6h4.087z"/><path id="e" d="M0 .712V3.31h4.087V.71H0z"/></defs><g fill="none" fill-rule="evenodd"><g transform="translate(2)"><mask id="b" fill="#fff"><use xlink:href="#a"/></mask><path d="M12.446 6.763l-1-.035A5.542 5.542 0 0 0 7.568 1.25a5.523 5.523 0 0 0-6.551 2.737l-.888-.46A6.525 6.525 0 0 1 7.865.296a6.545 6.545 0 0 1 4.58 6.468" fill="#FFF" mask="url(#b)"/></g><g transform="translate(11 4)"><mask id="d" fill="#fff"><use xlink:href="#c"/></mask><path fill="#FFF" mask="url(#d)" d="M.778 1.162l.354-.354 1.742 1.744L4.486.687l.38.327L2.9 3.286z"/></g><path d="M7.946 13A6.54 6.54 0 0 1 1.42 6.235l1 .036a5.537 5.537 0 0 0 3.877 5.477 5.518 5.518 0 0 0 6.55-2.736l.889.46A6.519 6.519 0 0 1 7.946 13" fill="#FFF"/><g transform="translate(0 5)"><mask id="f" fill="#fff"><use xlink:href="#e"/></mask><path fill="#FFF" mask="url(#f)" d="M4.087 2.836l-.354.354L1.99 1.446.379 3.31l-.38-.327L1.965.712z"/></g></g></svg>