<svg width="15" height="15" viewBox="0 0 15 15" xmlns="http://www.w3.org/2000/svg" xmlns:xlink="http://www.w3.org/1999/xlink"><title>ig</title><defs><path id="a" d="M0 0v14.522h14.988V0z"/></defs><g fill="none" fill-rule="evenodd"><path d="M10.431 5.17a.719.719 0 0 1-.734-.712.72.72 0 0 1 .734-.711c.4 0 .735.323.735.711.016.388-.317.712-.735.712m-2.937 4.9c-1.586 0-2.87-1.245-2.87-2.782 0-1.536 1.284-2.781 2.87-2.781 1.585 0 2.87 1.245 2.87 2.781 0 1.537-1.285 2.782-2.87 2.782m2.453-7.277H5.04c-1.201 0-2.186.954-2.186 2.118v4.755c0 1.164.985 2.118 2.186 2.118h4.907c1.202 0 2.187-.954 2.187-2.118V4.91c0-1.164-.985-2.118-2.187-2.118" fill="#323232" fill-rule="nonzero"/><path d="M5.541 7.288c0 1.051.885 1.892 1.953 1.892 1.085 0 1.953-.857 1.953-1.892 0-1.05-.868-1.892-1.953-1.892S5.54 6.253 5.54 7.288z" fill="#323232" fill-rule="nonzero"/><mask id="b" fill="#fff"><use xlink:href="#a"/></mask><path d="M13.035 9.65c0 1.65-1.385 2.992-3.088 2.992H5.04c-1.702 0-3.087-1.342-3.087-2.992V4.896c0-1.65 1.385-2.992 3.087-2.992h4.907c1.703 0 3.088 1.342 3.088 2.992V9.65zM10.949.012h-6.91C1.803.012 0 1.758 0 3.925v6.696c0 2.167 1.803 3.913 4.039 3.913h6.91c2.236 0 4.039-1.746 4.039-3.913V3.925c0-2.167-1.803-3.913-4.04-3.913z" fill="#323232" fill-rule="nonzero" mask="url(#b)"/></g></svg>