<svg width="809" height="267" viewBox="136 106 945 373" xmlns="http://www.w3.org/2000/svg"><path d="M140.006 225.884s46.666-20.847 76.087-43.68c29.422-22.831 75.074-71.476 75.074-71.476l-2.03 235.273-94.348-.992 6.087-122.104-57.827 33.752-3.043-30.773zm489.522 0s46.666-20.847 76.088-43.68c29.421-22.831 75.074-71.476 75.074-71.476l-2.03 235.273-94.349-.992 6.087-122.104-57.826 33.752-3.044-30.773zm-165.363 65.022c-28.913 0-49.204-40.702-49.204-72.964s18.26-66.51 44.639-66.51c32.465 0 44.639 33.253 44.639 68.496 0 35.24-11.16 70.978-40.074 70.978m-8.117-159.33c-75.07 0-104.492 49.14-104.492 93.314 0 44.177 36.522 92.322 78.117 92.322 41.593 0 61.884-12.904 61.884-12.904S505.252 460.66 293.22 460.66c-3.044 0 .508 14.89.508 14.89s287.102 11.913 287.102-190.6c0-112.672-49.709-153.374-124.783-153.374m402.758 34.744c-13.458 18.659-29.927 30.774-29.927 30.774l142.028-3.473s-80.652 61.052-74.057 139.475c6.595 78.424 66.449 114.659 111.596 114.659 45.144 0 63.405-15.883 63.405-15.883s-95.87 2.978-95.87-91.33c0-94.309 47.682-168.265 101.957-204.5-161.814-.494-199.35-6.948-199.35-6.948s-1.52 11.913-19.782 37.227z" fill="#245DFF" fill-rule="evenodd"/></svg>