<svg width="76" height="76" viewBox="0 0 76 76" xmlns="http://www.w3.org/2000/svg"><title>vk</title><g fill="#323232" fill-rule="evenodd"><path d="M37.8 1.1C17.5 1.1 1 17.6 1 37.9c0 20.3 16.5 36.8 36.8 36.8 20.3 0 36.8-16.5 36.8-36.8 0-20.3-16.5-36.8-36.8-36.8m0 74.5C17 75.6 0 58.7 0 37.8 0 17 16.9 0 37.8 0c20.8 0 37.8 16.9 37.8 37.8S58.7 75.6 37.8 75.6"/><path d="M35.4 51.3h2.9s.9-.1 1.3-.6c.4-.4.4-1.3.4-1.3s-.1-3.8 1.7-4.4c1.8-.6 4 3.7 6.4 5.3 1.8 1.2 3.2 1 3.2 1l6.4-.1s3.3-.2 1.8-2.8c-.1-.2-.9-1.9-4.7-5.5-4-3.7-3.5-3.1 1.4-9.5 2.9-3.9 4.1-6.3 3.7-7.3-.3-1-2.5-.7-2.5-.7h-7.2s-.5-.1-.9.2c-.4.2-.6.8-.6.8s-1.1 3-2.6 5.6c-3.2 5.4-4.5 5.7-5 5.4-1.2-.8-.9-3.2-.9-4.8 0-5.3.8-7.4-1.6-8-.8-.2-1.4-.3-3.3-.3-2.6 0-4.7 0-5.9.6-.8.4-1.4 1.3-1.1 1.3.5.1 1.5.3 2.1 1.1.7 1 .7 3.2.7 3.2s.4 6.2-1 7c-1 .5-2.3-.5-5.1-5.5-1.5-2.5-2.6-5.3-2.6-5.3s-.2-.5-.6-.8c-.5-.3-1.1-.4-1.1-.4h-6.8s-1 0-1.4.5c-.3.4 0 1.2 0 1.2S17.8 39.7 23.9 46c5.2 5.7 11.5 5.3 11.5 5.3"/></g></svg>