<svg xmlns="http://www.w3.org/2000/svg" viewBox="232.2 391.5 399.7 444.2"><path fill="#FFF" d="M232.2 391.5v239.8c0 56.9 33.7 109.8 97.4 153.5 47.5 32.6 94.7 48.6 96.8 49.1l5.7 1.9 5.7-1.9c1.9-.8 49.1-16.5 96.8-49.1C598.3 741.1 632 688 632 631.3V391.5H232.2z"/><path fill="#303049" d="M396.7 732.1h34.8v10h-11.6v48H408v-48h-11.3v-10zM453.1 732.1h-11.9v58h11.9v-48.2h10.5l4.6-9.8M538.6 726.2l-3-3.2 1.6-1.6s-4.9-5.9-7.6-7.6c-2.7-1.6-11.6-4.6-11.6-4.6L411.3 602.4l9.4-10v-17.5l-7-7.8-5.9-21.3-45-44.8s-2.2-.8-8.9-3.5c-6.5-2.7-10.2-6.2-10.2-6.5 0 0-2.7-6.7-5.1-7.3-2.4-.5-10.5-2.4-13.5-3.2-3-.8-4.9.3-5.4 1.3-.5 1.3-.8 1.1-1.6 1.6s-8.9 1.6-9.7 2.4c-.5.8-.5 2.4 1.1 4.3 1.6 1.6 2.7 3.2 2.2 5.1-.5 2.2.5 4 .5 4L287 474.3l-4.3-2.2s-1.3-1.1-6.5 3.5L264.8 487c-4.6 5.1-3.5 6.5-3.5 6.5l2.2 4.3 20.5 20.5-4.9 4.9-2.2 10.5 2.4 2.4-.5 12.1 8.1 8.1h-54.2v10H288l20.8 20.2 10.5-10.5s-8.6 10.2-8.1 18.3c.5 5.7 8.1 12.7 8.1 12.7l4.3-4.3 15.6 15.6-8.4 26.4 15.9 15.9 59.9 15.1s2.4.5 3 .5c1.1 0 1.9-1.1 1.9-1.1l9.4-9.4s1.3-1.1 1.3-2.7c0-1.9-1.1-3-1.1-3L390 628.8c-1.1-1.1-1.1-2.7.3-3.8l.8-.8.5-.5 3.5-3.5 2.7 2.7 103 103s3 8.9 4.6 11.6c1.6 2.7 7.6 7.6 7.6 7.6l1.6-1.6 3 3c5.4 5.4 14.3 4.9 20-1.1 5.9-4.9 6.1-13.8 1-19.2zm-6.5 15.1c-2.4 2.4-6.5 2.4-9.2 0-2.4-2.4-2.4-6.5 0-9.2 2.4-2.4 6.5-2.4 9.2 0 2.7 2.5 2.7 6.8 0 9.2z"/><path fill="#303049" d="M631.9 557.4h-55.3l8.1-8.1-.5-12.1 2.4-2.4-2.2-10.5-4.9-4.9 20.5-20.5 2.2-4.3s1.1-1.3-3.5-6.5l-11.3-11.3c-5.1-4.6-6.5-3.5-6.5-3.5l-4.3 2.2-25.1 25.1s1.1-2.2.5-4c-.5-2.2.8-3.5 2.2-5.1 1.6-1.6 1.6-3.5 1.1-4.3-.5-.8-8.9-1.9-9.7-2.4-.8-.5-1.1-.5-1.6-1.6-.5-1.3-2.4-2.2-5.4-1.3s-11.1 2.7-13.5 3.2-5.1 7.3-5.1 7.3c0 .5-3.5 3.8-10.2 6.5-6.5 2.7-8.9 3.5-8.9 3.5l-45.3 44.2-5.9 21.3-7 7.8V593l9.4 10-106.9 106.8s-8.9 3-11.6 4.6-7.6 7.6-7.6 7.6l1.6 1.6-3 3c-5.4 5.4-4.9 14.3 1.1 20 5.7 5.7 14.8 6.2 20 1.1l3-3 1.6 1.6s5.9-4.9 7.6-7.6c1.6-2.7 4.6-11.6 4.6-11.6l103-103 2.7-2.7 3.5 3.5.5.5.8.8c1.1 1.1 1.1 3 .3 3.8L442 661.2s-1.3 1.1-1.1 3c0 1.6 1.3 2.7 1.3 2.7l9.4 9.4s1.1 1.1 1.9 1.1c.8 0 3-.5 3-.5l59.9-15.1 15.9-15.9-8.4-26.4 15.6-15.6 4.3 4.3s7.8-7 8.1-12.7c.5-8.1-8.1-18.3-8.1-18.3l10.5 10.5 20.8-20.2h56.4v-10h.4zM339.8 741.3c-2.4 2.4-6.5 2.4-9.2 0-2.4-2.4-2.4-6.5 0-9.2 2.4-2.4 6.5-2.4 9.2 0s2.7 6.8 0 9.2z"/><g><path fill="#303049" d="M420.36 420.914l11.666-11.667 11.667 11.667-11.667 11.667zM420.277 461.143l11.667-11.667 11.667 11.667-11.666 11.667zM420.266 501.3l11.667-11.667L443.6 501.3l-11.667 11.668zM472.115 449.463l11.667 11.668-11.667 11.668-11.667-11.667zM391.73 449.557l11.666 11.667-11.667 11.667-11.668-11.666zM452.3 481.3h16.5v16.5h-16.5zM395.4 424.4h16.5v16.5h-16.5z"/><g><path fill="#303049" d="M395.4 481.3h16.5v16.5h-16.5zM452.3 424.4h16.5v16.5h-16.5z"/></g></g></svg>