<svg xmlns="http://www.w3.org/2000/svg" xmlns:xlink="http://www.w3.org/1999/xlink" viewBox="0 0 1076.5 1076.5"><defs><path id="a" d="M0 0h1076.5v1076.5H0z"/></defs><clipPath id="b"><use xlink:href="#a" overflow="visible"/></clipPath><path clip-path="url(#b)" fill="#2F2F43" d="M882.5 701.1h-3V489.3c0-44.9-17.5-87.1-49.3-118.8-31.7-31.6-73.9-49.1-118.9-49.1-.4.1-1.1.4-2.3.4h-2.5v-23.5c-.2-44.7-17.7-86.8-49.4-118.4-31.7-31.7-73.8-49.1-118.5-49.1h-.3v-3h.3c45.5 0 88.4 17.7 120.6 50 32.2 32.2 50.1 75 50.3 120.6v20.5c.4 0 .7-.1.9-.2.2-.1.5-.2.8-.2 45.8 0 88.8 17.8 121.1 50 32.4 32.3 50.2 75.2 50.2 120.9v211.7"/><path clip-path="url(#b)" fill="#2F2F43" d="M856.4 727.5h-3V489.1c0-78.2-63.8-141.9-142-141.9h-26l-5 .1v-50.2c0-37.6-15.2-73.2-41.8-99.7-26.6-26.6-62.2-40.6-99.8-41.6h-.4v-3h.4c38.4 1 74.7 15.4 101.9 42.5 27.2 27.1 42.7 63.4 42.7 101.8v47.1h28c79.9 0 144.9 65 144.9 144.9v238.4z"/><path clip-path="url(#b)" fill="#2F2F43" d="M830 753.6h-3V489.4c0-64-51.9-116-115.8-116h-52l-4.9.1V372c0-43.1-.2-73.5-.2-73.8-.2-30.7-12.4-59.4-34.1-81-21.8-21.5-50.8-33.4-81.5-33.4h-.2v-3h.2c31.6 0 61.2 12.2 83.5 34.2 22.3 22.1 34.8 51.6 35 83.1v72.3h54.2c65.5 0 118.8 53.4 118.8 119v264.2M194 703.7l-.1-214.4c0-45.7 17.8-88.7 50.1-120.9s75.3-50 121.1-50c.3 0 .6.1.8.2.2.1.4.1.8.2v-20.4c.2-45.6 18.1-88.4 50.3-120.6 32.3-32.2 75.1-50 120.6-50h.7v3h-.7c-44.7 0-86.8 17.4-118.5 49.1-31.7 31.6-49.2 73.7-49.4 118.4v23.5h-2.5c-1.2 0-1.9-.2-2.3-.4-44.9 0-87.1 17.5-118.8 49.1-31.8 31.7-49.3 73.9-49.3 118.8l.1 214.4H194z"/><path clip-path="url(#b)" fill="#2F2F43" d="M220.4 729.5V489.1c0-79.9 64.9-144.9 144.8-144.9H393.4v-47.1c0-38.4 15.3-74.7 42.5-101.8 27.2-27.1 63.2-41.5 101.7-42.5h.9v3h-.9c-37.6 1-72.9 15.1-99.5 41.6-26.6 26.6-41.6 62.1-41.6 99.7v50.2l-5.2-.1h-26c-78.2 0-141.8 63.6-141.8 141.9v240.5l-3.1-.1z"/><path clip-path="url(#b)" fill="#2F2F43" d="M246.5 756.2l-.1-266.8c0-65.6 53.3-119 118.7-119H419.2v-72.3c.2-31.5 12.6-61 35-83.1 22.3-22.1 52-34.2 83.5-34.2h.6v3h-.6c-30.8 0-59.7 11.8-81.4 33.3-21.8 21.5-33.8 50.3-34 81 0 .1.1 31 .1 73.8v1.5l-5.1-.1H365.2c-63.8 0-115.7 52.1-115.7 116l.1 266.8-3.1.1z"/><path clip-path="url(#b)" fill="#2F2F43" d="M521 405.5l-1.4-1.8c-23.1-30.6-56.1-50.2-93.1-55.2l.4-3c37 5 70.3 24.4 93.8 54.7 4.2-6.9 8.9-13.6 14.1-19.9-28.6-33.8-66-54.1-108.2-58.6l.3-3c43.4 4.6 81.8 25.6 111 60.6l.8 1-.8 1c-5.8 7-11.1 14.5-15.7 22.4l-1.2 1.8zM495.9 1005.8c0-6.3.2-101.7.2-202.8 0-89.6.3-185.6.3-235.2l-1-15h3l1 15c0 49.6-.2 145.6-.3 235.2 0 101-.1 196.5-.1 202.8h-3.1zM502.3 455.1l-2.9-.6c1.7-8.1 3.9-16.2 6.7-23.9-13.7-23.2-34.2-41-57.9-50.1-7.5-2.9-13.5-5.1-21.7-6.4l.5-3c8.5 1.3 14.6 3.5 22.3 6.5 24.5 9.5 45.7 28 59.7 52l.4.6-.2.7c-2.9 7.9-5.2 16-6.9 24.2M553.7 403.7l-2.4-1.8c23.3-30.8 58.5-51.4 96.5-56.4l.4 3c-37.2 4.8-71.7 25-94.5 55.2"/><path clip-path="url(#b)" fill="#2F2F43" d="M537.8 381.2l-2.3-1.9c28.6-34.4 68.7-55.9 112.9-60.6l.3 3c-43.4 4.6-82.8 25.8-110.9 59.5M524.4 1031.8h-3V487.7c0-20.4 4.3-40.2 12.9-58.9l2.7 1.2c-8.4 18.3-12.6 37.7-12.6 57.7v544.1zM509.1 431l-2.8-1c3.5-9.6 8-19 13.2-27.9l2.6 1.5c-5.1 8.7-9.5 17.9-13 27.4M500.1 468.5l-3-.4c.6-4.5 1.3-9.1 2.2-13.6l2.9.6c-.8 4.4-1.5 8.9-2.1 13.4M625.6 380.3l-1.1-2.8c7.7-2.9 15.7-5.1 23.8-6.3l.5 3c-7.9 1.2-15.7 3.2-23.2 6.1M548.4 487.8h3v544h-3zM537.5 430l-2.7-1.2c3.9-8.5 9.3-17.3 16.6-26.9l2.4 1.8c-7.2 9.4-12.5 18-16.3 26.3M551.4 487.7h-3c.3-20.4 5.8-40.5 16-58l2.6 1.5c-10 17.1-15.4 36.6-15.6 56.5M573.5 469.9c-.6-4.9-1.3-9.7-2.3-14.5l2.9-.6c1 4.9 1.8 9.9 2.3 14.8l-2.9.3z"/><path clip-path="url(#b)" fill="#2F2F43" d="M571.2 455.4c-1.7-8.3-4-16.5-6.9-24.4l-.2-.7.4-.6c14.1-24.2 35.4-42.8 60.2-52.2l1.1 2.8c-23.9 9.1-44.5 27-58.3 50.3 2.8 7.8 5.1 16 6.8 24.2l-3.1.6zM274.3 783.1V487.2c0-50.8 41.3-92.1 92-92.1h.5c42.4 0 82 16.4 111.7 46.4 29.6 29.9 45.9 70.2 45.9 112.2h-3c0-41-16-80.8-45-110.1-29.1-29.4-68-45.6-109.5-45.6l-.5.1c-49.1 0-89.1 40-89.1 89.1v295.9h-3z"/><path clip-path="url(#b)" fill="#2F2F43" d="M498.9 553.8h-3c0-71-57.5-129.1-129.5-129.1v-3c36 0 68.7 13.7 93.7 38.7 24.9 24.9 38.8 58.4 38.8 93.4"/><path clip-path="url(#b)" fill="#2F2F43" d="M473.4 979.8h-3V554c0-57.3-47-103.9-104-103.9v-3c59 0 107 48 107 106.9v425.8z"/><path clip-path="url(#b)" fill="#2F2F43" d="M449.8 956.2h-3c0-.9-.2-398.2-.2-402.2 0-44.1-35.2-80-80.2-80v-3c46 0 83.2 37.2 83.2 83 0 4 .2 401.9.2 402.2M804.4 778.8h-3V487.3c0-49.1-40-89.1-89.1-89.1h-.5c-42.9 0-83.2 16.1-113.5 45.6-30.3 29.4-46.9 69.1-46.9 110.1h-3c0-42 17-82.3 47.8-112.3 30.9-30 71.9-46.5 115.6-46.5l.5.1c50.8 0 92 41.4 92 92.1.1 2.8.1 291 .1 291.5"/><path clip-path="url(#b)" fill="#2F2F43" d="M577.4 1005.8h-3v-62.9-387l.2-2c0-35.4 14-68.6 39.9-93.6s60.9-38.8 96.9-38.8v3c-35 0-69.5 13.5-94.8 37.9-25.3 24.4-39.1 56.9-39.1 91.5l.1.1-.1 2v386.8l-.1 63z"/><path clip-path="url(#b)" fill="#2F2F43" d="M602.4 979.8h-3V554c0-59 50-106.9 111-106.9v3c-60 0-108 46.6-108 103.9v425.8z"/><path clip-path="url(#b)" fill="#2F2F43" d="M623.6 956.2c0-.2-.2-398.2-.2-402.2 0-45.8 40-83 88-83v3c-47 0-85 35.9-85 80l.1 402.2h-2.9z"/><path clip-path="url(#b)" fill="#2F2F43" d="M538.2 1076.5L0 538.2 538.2 0l538.2 538.2-538.2 538.3zM4.2 538.2l534 534 534-534-534-534-534 534z"/><path clip-path="url(#b)" fill="#2F2F43" d="M372.1 641.7l19.7 29.3c5.4 8.1 9.5 13.2 12.1 15.4 2.6 2.1 6 3.3 10 3.5v2.5h-39.3V690c2.6 0 4.5-.3 5.8-.8.9-.4 1.7-1 2.3-1.9.6-.8.9-1.7.9-2.5 0-1-.2-2.1-.6-3.1-.3-.8-1.6-2.7-3.7-5.9l-15.5-23.5-19.2 24.6c-2 2.6-3.2 4.4-3.6 5.2-.4.9-.6 1.8-.6 2.7 0 1.4.6 2.6 1.8 3.6 1.2.9 3.5 1.5 7 1.6v2.5h-32.5V690c2.3-.2 4.3-.7 5.9-1.4 2.8-1.2 5.4-2.7 8-4.7 2.5-2 5.4-5 8.6-9.1l21.6-27.3-18-26.4c-4.9-7.2-9.1-11.9-12.5-14.1-3.4-2.2-7.4-3.4-11.8-3.5V601h42.4v2.5c-3.6.1-6.1.7-7.4 1.8-1.3 1-2 2.2-2 3.4 0 1.7 1.1 4.1 3.2 7.3l14.1 21 16.3-20.6c1.9-2.4 3-4.1 3.5-5s.6-1.8.6-2.8c0-.9-.3-1.8-.8-2.5-.7-.9-1.5-1.6-2.6-2-1-.4-3.2-.6-6.4-.6V601h32.5v2.5c-2.6.1-4.7.5-6.3 1.2-2.4 1-4.7 2.4-6.7 4.2-2 1.8-4.9 5-8.6 9.7l-18.2 23.1zM733.8 690v2.5h-39.2V690h3.2c3.8 0 6.5-1.1 8.2-3.3 1.1-1.4 1.6-4.9 1.6-10.4v-59.2c0-4.6-.3-7.7-.9-9.2-.5-1.1-1.4-2.1-2.8-2.9-2-1.1-4.1-1.6-6.2-1.6h-3.2v-2.5h39.2v2.5h-3.3c-3.7 0-6.5 1.1-8.2 3.3-1.1 1.4-1.7 4.9-1.7 10.4v59.2c0 4.6.3 7.7.9 9.2.5 1.1 1.4 2.1 2.8 2.9 1.9 1.1 4 1.6 6.1 1.6h3.5zM725.5 560.3c0 6.2-5.1 11.3-11.3 11.3-6.2 0-11.3-5.1-11.3-11.3 0-6.2 5.1-11.3 11.3-11.3 6.3 0 11.3 5.1 11.3 11.3"/></svg>