<svg width="16" height="17" viewBox="0 0 16 17" xmlns="http://www.w3.org/2000/svg" style="background:#fff"><title>noun_592798_cc</title><path d="M8.032 16.07c2.051 0 4.126-.777 5.681-2.357a8.073 8.073 0 0 0 2.051-3.488L16 9.423l-1.58-.448-.235.802a6.535 6.535 0 0 1-1.627 2.781 6.402 6.402 0 0 1-9.052 0 6.402 6.402 0 0 1 0-9.052 6.402 6.402 0 0 1 9.1.048l-1.65-.024-.024 1.65 4.314.047.212-4.455-1.65-.07-.071 1.65c-3.135-3.136-8.25-3.136-11.386 0-3.135 3.135-3.135 8.25 0 11.385a8.03 8.03 0 0 0 5.681 2.334z" fill="#FFF" fill-rule="evenodd"/></svg>