<svg width="18" height="11" viewBox="0 0 18 11" xmlns="http://www.w3.org/2000/svg"><title>noun_253_cc copy 2</title><path d="M16.05 0a1.984 1.984 0 0 0-1.635 3.107l-.758.759a1.975 1.975 0 0 0-2.248 0l-.759-.759a1.984 1.984 0 1 0-3.268 0l-.758.759a1.975 1.975 0 0 0-2.248 0l-.759-.759a1.984 1.984 0 1 0-.51.51l.76.76a1.984 1.984 0 0 0 2.758 2.758l.758.758a1.984 1.984 0 1 0 3.268 0l.758-.759a1.984 1.984 0 0 0 2.758-2.758l.758-.758A1.984 1.984 0 1 0 16.05 0zm-5.151 6.624l-.759.758a1.975 1.975 0 0 0-2.247 0l-.76-.758a1.974 1.974 0 0 0 0-2.248l.76-.758a1.975 1.975 0 0 0 2.247 0l.759.758a1.975 1.975 0 0 0 0 2.248z" fill="#FFF" fill-rule="evenodd"/></svg>