<svg width="56" height="58" viewBox="0 0 56 58" xmlns="http://www.w3.org/2000/svg" xmlns:xlink="http://www.w3.org/1999/xlink"><title>Page 1</title><defs><path id="a" d="M0 .195h55.809v56.961H0"/></defs><g fill="none" fill-rule="evenodd"><path d="M27.913 18.156l6.39-.27s1.67 0 2.901-1.166c1.231-1.167 2.96-2.094 3.606-3.47.644-1.377 1.29-1.855 1.29-2.334 0-.479.41-.748.234-1.825-.176-1.077-.586-1.226-.586-1.226s-.03.748-.176 1.017l-.147.269s-.791-1.466-3.165-2.483c-2.375-1.017-5.482-1.586-5.482-1.586s3.576 1.736 4.778 2.723c1.202.987 2.462 2.483 2.433 3.111-.03.628-.645 1.675-1.67 2.333-1.027.658-1.378 1.825-1.965 2.005-.586.18-.762 0-.762 0s.059-.628-1.67-1.915c-1.73-1.286-1.73-1.944-1.73-1.944s.823-.404 1.106.224c.186.412.073.684.073.684s1.487-.9 1.25-2.438c-.236-1.538-1.976-2.161-2.929-2.377-.952-.216-2.435-.252-2.788-.432-.353-.18-.459-.433-.459-.433s.21.518.55.738c.67.432 2.732.892 3.51 1.424.603.413 1.058 1.008.74 1.369-.317.36-.64-.368-1.694-.72-1.278-.429-3.101-.34-3.647-.302-.545-.039-2.369-.127-3.647.301-1.053.353-1.376 1.08-1.694.72-.317-.36.137-.955.741-1.368.778-.532 2.839-.992 3.51-1.424.34-.22.55-.738.55-.738s-.107.253-.46.433c-.353.18-1.835.216-2.788.432-.953.216-2.693.84-2.93 2.377-.236 1.538 1.251 2.438 1.251 2.438s-.112-.272.074-.684c.282-.628 1.105-.224 1.105-.224s0 .658-1.73 1.944c-1.728 1.287-1.67 1.915-1.67 1.915s-.176.18-.762 0c-.586-.18-.938-1.347-1.964-2.005-1.026-.658-1.641-1.705-1.67-2.333-.03-.628 1.23-2.124 2.432-3.111 1.202-.987 4.778-2.723 4.778-2.723s-3.107.569-5.481 1.586c-2.374 1.017-3.166 2.483-3.166 2.483l-.146-.27c-.147-.268-.176-1.016-.176-1.016s-.41.15-.586 1.226c-.176 1.077.234 1.346.234 1.825 0 .479.645.957 1.29 2.333.645 1.377 2.374 2.304 3.605 3.47 1.231 1.167 2.902 1.167 2.902 1.167l6.39.27.008-.444.009.444zm2.631 1.605s-1.98.403-2.64.404c-.66 0-2.64-.394-2.64-.394-.063.505-.082 1.207.136 1.875.303.927 1.76 2.154 2.504 2.707.745-.553 2.202-1.78 2.504-2.707.22-.672.2-1.379.136-1.885" fill="#FFF"/><path d="M41.676 35.298c-.058-1.795-1.817-4.249-1.817-4.249s.938-.298.938-1.435-1.348-2.992-1.759-3.53c-.41-.54-.938-2.274-.703-3.351.234-1.077 1.172-.18 1.172-.18s2.658 1.28 3.049 2.813c.137.54-.079 2.748-.078 4.37 0 1.416.713 2.183.713 2.183s.738-5.644.68-7.14c-.06-1.496-1.08-2.285-3.484-4.35-2.404-2.064-6.683-1.226-7.973-1.047-.306.043-.723.124-1.18.224.081.588.113 1.437-.158 2.267-.411 1.259-2.256 2.691-2.818 3.104l-.272 14.964h-.163l-.273-14.964c-.561-.413-2.406-1.845-2.817-3.104-.27-.826-.24-1.671-.16-2.259a17.615 17.615 0 0 0-1.22-.232c-1.29-.18-5.57-1.017-7.973 1.047-2.404 2.065-3.425 2.854-3.484 4.35-.058 1.496.68 7.14.68 7.14s.712-.767.712-2.184c.001-1.62-.215-3.83-.077-4.37.39-1.533 3.048-2.812 3.048-2.812s.938-.897 1.173.18c.234 1.077-.293 2.812-.704 3.35-.41.539-1.758 2.394-1.758 3.53 0 1.138.938 1.436.938 1.436s-1.76 2.454-1.818 4.249c-.059 1.795-.644 4.068-1.114 5.085-.469 1.018-1.055 2.095-.586 3.53.47 1.437 1.407 2.633 1.759 3.83.352 1.196 2.462 4.188 6.39 5.085 3.927.898 6.272.838 6.272.838s-2.99-1.555-3.4-2.273c-.41-.718-1.641-1.077-2.286-1.077s-3.048-.36-4.162-1.676c-1.114-1.316-2.287-5.145-2.287-5.145s.763.837 1.349 1.077c.586.239 1.055.239 1.055.239s-1.759-1.496-2.052-2.992c-.293-1.495.059-3.41.762-4.427.704-1.017 1.7-1.436 1.7-1.436s.704 5.205 4.221 8.017c3.34 2.67 5.91 2.913 6.16 2.93v.002h.025v-.002c.25-.017 2.82-.26 6.16-2.93 3.517-2.812 4.22-8.017 4.22-8.017s.997.419 1.7 1.436c.704 1.017 1.055 2.932.762 4.427-.293 1.496-2.052 2.992-2.052 2.992s.47 0 1.056-.24c.586-.239 1.348-1.076 1.348-1.076s-1.172 3.829-2.286 5.145c-1.114 1.317-3.517 1.676-4.162 1.676s-1.876.359-2.287 1.077c-.41.718-3.4 2.273-3.4 2.273s2.345.06 6.273-.838c3.928-.897 6.038-3.889 6.39-5.085.351-1.197 1.29-2.393 1.758-3.83.47-1.435-.117-2.512-.586-3.53-.469-1.017-1.055-3.29-1.114-5.085" fill="#FFF"/><mask id="b" fill="#fff"><use xlink:href="#a"/></mask><path d="M27.904 55.812c-13.385 0-24.237-12.15-24.237-27.136C3.667 13.689 14.52 1.54 27.904 1.54c13.386 0 24.237 12.15 24.237 27.136 0 14.987-10.851 27.136-24.237 27.136m0-55.616C12.494.196 0 12.946 0 28.676s12.493 28.48 27.904 28.48 27.904-12.75 27.904-28.48S43.315.196 27.904.196" fill="#FFF" mask="url(#b)"/></g></svg>