<svg width="60" height="60" viewBox="0 0 60 60" xmlns="http://www.w3.org/2000/svg" xmlns:xlink="http://www.w3.org/1999/xlink"><title>Page 1</title><defs><path id="a" d="M0 .038h59.943v59.883H0V.038v59.883h59.943V.038H0z"/></defs><g fill="none" fill-rule="evenodd"><g transform="translate(0 .143)"><mask id="b" fill="#fff"><use xlink:href="#a"/></mask><path d="M30.002.302C13.91.215.253 13.282.252 29.977c0 16.485 13.307 29.47 29.279 29.693 16.587.23 29.911-13.018 30.18-29.15C59.994 13.574 46.214.224 30.001.302m29.942 29.681c.112 16.22-13.218 30.146-30.367 29.936C13.106 59.716-.039 46.243 0 29.888.04 13.468 13.522-.182 30.405.04 46.83.258 60.038 13.73 59.943 29.983" fill="#FFF" mask="url(#b)"/></g><path d="M50.495 14.291l.008.038c.469-.07.944-.113 1.405-.22.365-.083.466-.305.38-.676a2.702 2.702 0 0 0-.817-1.396c-.426-.395-1.207-.46-1.527-.068a5.457 5.457 0 0 0-.8 1.33c-.201.48.05.842.568.94.255.05.521.037.783.052m-41.097.02c.417-.035.707-.031.983-.092.483-.105.709-.45.514-.9a6.56 6.56 0 0 0-.823-1.356c-.117-.152-.421-.235-.634-.225-.846.037-1.722 1.036-1.717 1.892.002.28.16.43.395.477.465.093.936.151 1.282.205m25.29-5.206c-.332.163-.603.26-.836.414-1.53 1.007-2.31 2.511-2.771 4.22a.895.895 0 0 0-.012.423c.03.124.106.278.207.327.069.034.252-.06.32-.148.394-.505.768-1.025 1.15-1.54.368-.493.727-.993 1.108-1.476.31-.392.664-.748.96-1.149.124-.168.21-.41.201-.615-.007-.148-.199-.288-.327-.456m-5.666 5.007c-.029-.157-.038-.228-.055-.297-.324-1.326-.867-2.544-1.844-3.525-.453-.454-.93-.898-1.577-1.07-.364-.098-.627.146-.545.509.036.156.114.316.213.442.28.356.582.693.87 1.041.348.421.707.834 1.033 1.272.43.581.824 1.19 1.257 1.77.089.12.316.254.417.216.122-.046.178-.268.23-.358m10.123-4.251c-.287-.202-.574-.114-.86-.036-2.184.602-3.575 2.182-4.836 3.919a.76.76 0 0 0-.135.29c-.03.15-.025.307-.034.461.145-.005.303.023.435-.022.45-.153.89-.34 1.337-.5 2.008-.713 3.296-2.143 4.093-4.112M21.317 9.72c-.125.105-.542-.067-.36.31.314.65.66 1.3 1.092 1.876 1.108 1.48 2.785 2.052 4.443 2.629.257.09.4-.072.296-.333-.104-.262-.227-.53-.4-.75-.398-.503-.842-.97-1.248-1.468-.882-1.085-2.055-1.71-3.35-2.145-.146-.049-.299-.076-.473-.119m19.74-5.006c-.196.063-.598.156-.972.317-1.264.545-1.714 1.717-2.155 2.88-.167.44.047.668.496.515 1.506-.513 3.001-1.056 4.5-1.59.098-.036.19-.1.278-.159.657-.439.666-.971.005-1.401-.582-.38-1.243-.52-2.152-.562m-21.959.021c-.952 0-1.776.219-2.224.506-.723.464-.74 1.02 0 1.446.43.247.905.418 1.373.586a126 126 0 0 0 3.3 1.136c.156.051.45.04.507-.05.087-.14.082-.397.013-.562-.228-.546-.451-1.107-.77-1.602-.578-.898-1.432-1.393-2.199-1.46m14.81 2.292l.12.05c-.083.337-.187.672-.239 1.014-.025.172-.008.465.085.511a.73.73 0 0 0 .59-.012c.61-.321 1.22-.656 1.786-1.047a4.712 4.712 0 0 0 1.874-2.54c.314-1.022-.22-1.981-1.246-2.235a28.534 28.534 0 0 0-7.68-.83c-2.033.057-4.03.333-6.005.8-.821.195-1.408.93-1.362 1.772.043.794.458 1.439.918 2.055.702.94 1.738 1.431 2.724 1.978.19.106.465.06.7.085.02-.224.069-.451.048-.672-.02-.221-.114-.435-.169-.654-.02-.082-.022-.17-.033-.254l.088-.034c.478.84.917 1.705 1.443 2.514.528.813.966 1.7 1.718 2.382.098-.206.166-.395.17-.586.01-.702-.023-1.405-.001-2.107.04-1.345-.245-2.596-.997-3.726l-.017-.031c-.244-.476-.497-.948-.724-1.432-.046-.097.01-.241.018-.363.114.042.263.053.333.133.194.223.352.478.53.715.336.445.65.911 1.025 1.32.292.318.516.303.836.004.24-.226.45-.49.645-.758.259-.356.476-.742.736-1.097.11-.15.283-.256.428-.382l.142.075c-.05.2-.067.418-.158.6-.308.616-.64 1.222-.968 1.83-.402.743-.658 1.516-.638 2.38.023.987-.018 1.975-.012 2.962.001.145.112.29.172.435.123-.1.278-.18.363-.307.475-.699.948-1.4 1.392-2.12.317-.514.586-1.058.88-1.587.158-.282.324-.561.486-.841m-13.771 5.827l-.003-.175c.18-.015.36-.037.541-.044.528-.017.739-.28.594-.791a8.587 8.587 0 0 0-.356-1.009c-.528-1.247-1.439-2.01-2.78-2.33-.837-.2-1.635-.564-2.45-.853-.123-.043-.248-.098-.375-.11-1.257-.119-2.43.058-3.382.987-.11.108-.225.212-.347.308-.572.451-.735 1.059-.667 1.75.112 1.126.663 2.025 1.489 2.763 1.53 1.368 3.308 2.275 5.291 2.785.308.08.636.139.95.122.18-.01.423-.154.502-.307.067-.131-.007-.402-.112-.54-.184-.242-.472-.407-.659-.648a6.667 6.667 0 0 1-.627-1.014c-.051-.098.029-.264.048-.4l.12-.032c.213.183.462.338.634.554.54.68 1.11 1.348 1.556 2.088.386.64.861 1.153 1.513 1.467.682.33 1.4.59 2.117.842 1.367.481 2.568 1.173 3.43 2.388.307.433.7.812 1.092 1.175.142.13.396.138.6.202.053-.182.167-.37.15-.545-.077-.768-.202-1.532-.29-2.299-.244-2.117-1.34-3.56-3.317-4.397-.938-.397-1.835-.91-2.704-1.447-.396-.245-.76-.395-1.221-.391-.446.003-.892-.063-1.337-.099M39.9 12.68l.007.108c-.13.035-.262.103-.391.098-1.11-.047-2.055.321-2.978.941-.773.52-1.686.827-2.516 1.268-1.143.607-2.066 1.464-2.38 2.75-.294 1.207-.44 2.452-.627 3.684-.023.157.065.42.182.482.12.062.345-.045.51-.114.103-.044.188-.145.267-.233.42-.471.86-.927 1.248-1.423a4.925 4.925 0 0 1 2.03-1.533c.813-.337 1.656-.601 2.47-.935.917-.377 1.681-.914 2.216-1.815.488-.822 1.147-1.545 1.756-2.29.117-.142.354-.186.535-.275-.01.224.027.464-.041.669-.069.205-.227.388-.374.557-.148.169-.339.3-.496.461-.24.246-.61.445-.44.884.114.296.475.388 1.018.274a12.56 12.56 0 0 0 5.584-2.744c.83-.7 1.435-1.557 1.613-2.66.093-.58.109-1.184-.297-1.634-.723-.801-1.528-1.542-2.677-1.636-.572-.047-1.22-.107-1.72.105-.861.363-1.727.667-2.633.876-1.17.27-2.01.961-2.523 2.033a9.55 9.55 0 0 0-.472 1.268c-.157.5.06.772.592.79.179.006.358.029.537.044M9.537 44.683c-.336.669-.063 1.2.248 1.716.259.427.52.858.822 1.255.611.803 1.397 1.357 2.413 1.537.127.022.26.003.395.003-.28-.494-.584-.922-.775-1.394-.245-.606-.063-1.22.367-1.433-.008.11-.002.2-.022.282-.186.757.033 1.415.59 1.915.391.351.858.639 1.331.876.824.412 1.656.783 2.18 1.608.24.38.583.306.784-.105a35.52 35.52 0 0 1 .878-1.672c.3-.54.65-1.056.933-1.605.352-.681.201-1.261-.397-1.74l-.286-.232.05-.09c.192.08.429.113.565.248.282.28.547.593.75.934.14.234.229.27.494.192.657-.195 1.325-.402 2.003-.471.89-.091 1.74.118 2.377.818.12.133.144.354.212.535-.178-.05-.356-.1-.533-.153-.033-.01-.059-.04-.089-.06-1.828-1.2-3.769-.788-4.95 1.054-.06.092-.092.2-.146.321.369 0 .69-.036 1 .01.291.045.57.178.854.272l-.023.124c-1.087-.155-1.925.159-2.357 1.224-.291.72-.334 1.712-.056 1.991.39-.92 1.118-1.382 2.066-1.54-.634.26-1.093.717-1.396 1.314-.119.233-.202.526-.18.781.173 1.905 1.548 3.418 3.424 3.75.583.103 1.184.11 1.778.132 1.452.056 2.354-.688 2.821-2.01.19-.536.367-1.082.488-1.637.455-2.091.574-4.221.607-6.35.05-3.217.037-6.434.046-9.65.01-3.525-.016-7.048-.354-10.563-.158-1.632-.621-3.12-1.73-4.366-.294-.329-.573-.67-.87-.996-1.073-1.176-2.262-2.175-3.837-2.632a62.295 62.295 0 0 1-3.021-.968 119.7 119.7 0 0 1-3.455-1.262c-.935-.355-1.833-.827-2.79-1.093-1.547-.428-3.127-.208-4.684.032-1.119.173-2.037.789-2.883 1.5a2.585 2.585 0 0 0-.652.822C2.781 21.514 1.87 25.329 1.75 29.33c-.082 2.73.201 5.425.942 8.053 2.392 8.488 7.63 14.592 15.569 18.407.51.245 1.04.445 1.562.666a.39.39 0 0 0-.163-.242c-.882-.645-1.674-1.39-2.316-2.269a9.732 9.732 0 0 1-1.016-1.745c-.167-.373-.31-.74-.675-.923-.732-.369-1.469-.738-2.234-1.026-.547-.206-1.081-.102-1.459.433-.099.14-.258.247-.409.338-.08.049-.2.031-.302.044l-.038-.095c.23-.196.488-.368.679-.597.118-.142.234-.412.176-.551-.214-.507-1.268-.832-1.77-.602-.183.084-.375.144-.562.215l-.078-.14c.151-.107.292-.232.455-.317.59-.308.603-.36.247-.932-.327-.525-.675-1.043-.94-1.598-.17-.354-.243-.767-.288-1.161-.025-.223.046-.492.407-.606m39.31 6.41a27.578 27.578 0 0 0 6.476-8.506c2.46-5.015 3.344-10.306 2.692-15.855-.379-3.222-1.308-6.278-2.743-9.184-.052-.105-.11-.22-.198-.293-1.023-.86-2.105-1.607-3.495-1.73-.653-.057-1.304-.142-1.957-.175-1.14-.057-2.245.07-3.315.538a70.963 70.963 0 0 1-4.213 1.681c-1.037.377-2.127.608-3.167.98-1.385.495-2.82.92-3.854 2.079-.254.284-.55.53-.809.81-.95 1.023-1.932 2.048-2.288 3.444-.24.94-.402 1.914-.46 2.881-.142 2.375-.265 4.755-.286 7.134-.032 3.859.023 7.718.044 11.577.01 2.025.127 4.044.439 6.047.175 1.13.417 2.248 1.003 3.254.39.668.925 1.176 1.732 1.234a13.29 13.29 0 0 0 2.067.009c1.858-.158 3.07-1.19 3.7-2.911.395-1.079.189-1.806-.678-2.552-.214-.184-.477-.31-.752-.484.987.187 1.72.658 2.168 1.573.217-.693.118-1.344-.122-1.979-.416-1.1-1.293-1.384-2.388-1.275.567-.425 1.196-.422 1.883-.332-.062-.15-.08-.23-.124-.294-1.131-1.693-2.932-2.445-4.925-1.157-.13.084-.253.183-.391.25-.074.035-.175.015-.263.02-.004-.09-.044-.204-.004-.267.112-.179.234-.365.394-.498.432-.36.947-.539 1.505-.6.938-.102 1.827.093 2.679.466.241.106.343.059.47-.171.169-.308.376-.61.625-.855.172-.17.444-.239.67-.353l.053.103c-.08.069-.159.137-.24.204-.634.528-.766 1.027-.413 1.763.205.428.475.824.704 1.241a95.76 95.76 0 0 1 1.112 2.071c.194.377.507.41.785.071.21-.256.397-.554.662-.735a10.69 10.69 0 0 1 1.516-.86c.56-.262 1.075-.572 1.471-1.048.398-.477.615-1.013.46-1.652-.03-.124-.005-.26-.005-.391l.1-.024c.092.172.226.334.267.517.21.922-.278 1.61-.912 2.317.201.017.304.045.399.03 1.073-.181 1.973-.697 2.584-1.582.594-.86 1.484-1.648 1.038-2.961.337.213.415.495.364.77-.071.392-.17.795-.346 1.15-.259.52-.595 1.001-.902 1.497-.325.524-.297.61.246.889.173.089.324.221.485.334l-.067.12c-.129-.034-.28-.036-.383-.108-.56-.388-1.053-.203-1.548.136-.631.432-.64.616-.047 1.123.186.158.342.35.51.526-.361.02-.611-.18-.804-.444-.305-.416-.712-.562-1.192-.453a6.96 6.96 0 0 0-2.695 1.255c-.185.14-.293.396-.403.615-.179.358-.29.756-.502 1.091-.722 1.136-1.642 2.098-2.707 2.92-.096.075-.19.151-.347.276 1.81-.352 6.531-3.25 8.642-5.268M29.997.946C46.018.85 59.32 14.028 59.22 30.318c-.097 15.85-13.027 29.003-29.251 29.005C13.904 59.325.514 46.238.748 29.68.977 13.56 14.233.843 29.998.946" fill="#FFF"/><path d="M19.269 28.946l.746.657c-.11-.446-.386-.593-.746-.657zm-2.371.2l-.023-.147-.894.236.025.094.892-.184zm4.372 2.084c-.297-.344-.598-.402-.833-.196l.833.196zm3.314 4.845c-.292-.033-.537-.06-.834-.095.334.384.482.397.834.095zM20.37 38.88c-.027-.527-.21-.724-.657-.706l.657.706zm1.078.106l.079-.07-.575-.594c.014.436.152.586.496.664zm-7.196-2.76l-1.414.9c.56-.158 1.063-.407 1.414-.9zm-2.565-7.916c.559.317 1.144.5 1.792.38l-1.792-.38zm-.028-6.582l-.135.112 1.044 1.174.129-.114-1.038-1.172zm7.06 9.648l-1.74-.316c.632.476 1.392.596 1.74.316zm-4.583-3.085l-2.254-.45c.383.424 1.682.754 2.254.45zm3.896-.877c-.912-.554-1.944.089-2.932-.13l-.004.13h2.936zm-.514-.387c-.951-.705-2.18-.237-3.176-.78.94.744 2.163.315 3.176.78zm-6.896-6.677l-.099.003c-.61 1.24-.166 3.055.761 3.546-.387-.498-.668-1.034-.663-1.68.005-.623.001-1.246.001-1.869zm-1.799 6.23l-.084.085c.074.367.024.415-.365.394-.592-.032-1.186-.089-1.777-.077-.587.012-1.274.331-1.504.62 1.057-.413 1.129-.417 2.29-.331.461.034.925.048 1.388.04.218-.004.476-.103.441-.36-.018-.139-.252-.249-.389-.371zm8.425 2.894c.172.506.514.737 1.025.758.128.005.256.108.375.18.105.065.198.149.333.252-.268-1.328-.59-1.542-1.733-1.19zM6.994 34.039l.054.096c.714-.298 1.428-.277 2.169-.103.618.146 1.194-.064 1.718-.4-.172-.017-.334.015-.498.027-.625.046-1.229.108-1.855-.156-.632-.266-1.323-.182-2.072.108h1.246l-.762.428zM2.635 30.08c.137-.982.278-1.861.376-2.746.106-.948.672-1.486 1.51-1.81.122-.046.245-.086.387-.137l-.43-.658c.795.195 1.59.368 2.371.588.75.21 1.289-.075 1.762-.62.794-.911 1.122-1.97 1.164-3.172.025-.729.216-1.453.34-2.178.019-.115.068-.229.12-.334.13-.26.21-.591.585-.595.397-.005.623.256.78.586.734 1.545 1.463 3.093 2.2 4.638.107.224.213.464.38.641.151.16.379.255.583.36.252.129.541.2.768.362 1.488 1.054 2.98 2.101 4.43 3.207.389.297.69.755.927 1.195.345.64.752 1.195 1.31 1.67 1.275 1.09 2.692 1.967 4.127 2.82.282.169.54.355.525.742-.009.233-.09.376-.343.329-.366-.07-.486.105-.452.435.022.208-.086.286-.266.356a1.79 1.79 0 0 0-.524.314c-.204.18-.362.412-.565.594-.278.25-.573.236-.886.023-.077-.053-.2-.051-.301-.054-.237-.008-.473-.003-.79-.003.299-.414.273-.677-.15-.98-.416-.297-.71-.1-1.067.074-.01-.164-.008-.271-.023-.375-.07-.469-.282-.57-.701-.359-.174.088-.364.144-.598.234.047-.18.107-.294.098-.402-.01-.135-.038-.322-.13-.386-.148-.106-.336-.225-.545-.034-.16.147-.363.247-.6.404-.011-.191-.017-.305-.025-.42-.014-.194.034-.403-.237-.495-.255-.086-.464-.138-.655.125-.1.136-.26.228-.426.368l-.092-.785c-.283.18-.524.284-.698.455-.432.425-.529 1.312-.235 1.838.232.415.362.481.832.403.171-.029.34-.076.557-.125l-.256.694c.51.147.972-.058 1.485-.177l-.174.863 1.32-.269-.142.539c.546.402.906-.122 1.403-.31l-.038.712h.785c-.021.158-.012.293-.06.404-.16.382-.308.777-.52 1.13-.44.729-1.19.935-1.947.544-.805-.414-1.587-.872-2.395-1.28-.266-.134-.582-.25-.872-.243-1.666.044-3.331.127-4.997.196-.07.003-.14 0-.26 0 .185-.49.519-.727.977-.829.51-.114 1.008-.26 1.458-.684-.59.13-1.115.223-1.624.37-.216.063-.412.223-.595.368-.138.109-.227.278-.359.396-.939.84-1.883 1.674-2.827 2.51-.023.02-.062.025-.134.052a73.2 73.2 0 0 0 .23-.61 30.574 30.574 0 0 0-.084-.073c-1.004.324-1.558 1.162-2.137 2.013-.42-.546-.472-1.134-.325-1.743.211-.869.78-1.511 1.41-2.108.105-.101.213-.201.287-.335-.803.387-1.311 1.094-1.901 1.761-.437-.628-1.103-.846-1.819-1.064.391-.302.624-.668.52-1.122-.094-.408-.282-.793-.43-1.194 1.145.441 2.022.004 2.768-.899.476-.575 1.14-.838 1.87-.95l-.014-.105c-.27.023-.573-.025-.801.084-.497.239-1.033.482-1.411.863-.468.471-.994.615-1.599.654a3.96 3.96 0 0 1-.393.004c-.56-.015-.917-.344-.97-.895-.04-.409.008-.85-.472-1.077-.025-.012.014-.323.09-.362.451-.23.916-.58 1.386-.595 1.056-.036 2.039-.33 3.04-.581.178-.045.366-.048.544-.146-.353.018-.708.02-1.059.058-.85.094-1.709.152-2.543.327-.495.104-.956.39-1.421.616-.278.135-.529.246-.746-.08-.005-.008-.003-.022 0 .011.27-.226.55-.41.766-.65.947-1.058 2.17-1.449 3.538-1.53a67.986 67.986 0 0 0 3.06-.228c.417-.044.834-.182 1.143-.524-1.262.479-2.578.397-3.879.365-1.113-.027-2.115.27-3.076.782-.344.184-.684.378-1.1.607.055-.338.133-.61.134-.881 0-.272-.076-.544-.14-.95.734-1.021 1.932-1.64 3.18-2.193-.013-.034-.024-.07-.036-.104-.203.05-.432.057-.604.16-.704.418-1.39.869-2.084 1.304-.163.103-.335.193-.543.311zm15.155-6.884c.647-1.444 2.503-2.242 4.113-1.787-.337 1.584-2.207 2.406-4.113 1.787m7.47-.226c-.392 1.244-1.775 1.865-3.19 1.452.492-1.33 1.938-2.151 3.19-1.452m-9.651-2.745c.853-.77 2.393-.926 3.195-.325-.638.902-2.261 1.067-3.195.325m27.571 8.781l-.019.14c.29.06.578.122.868.183l.024-.102-.873-.22m-3.997.631c.08.034.11.05.113.047.21-.292.42-.587.628-.882l-.08-.058-.661.893m-.416 1.603l.889-.224c-.374-.175-.615-.118-.89.224m-3.276 4.832c.272.314.516.292.741-.084l-.74.084m2.963 2.913c.457-.044.644-.242.624-.665-.189.2-.378.401-.624.665m1.232-.11l.656-.74c-.496.057-.658.243-.656.74m6.064-2.683l-.074.116 1.382.881.067-.104-1.375-.893m2.698-14.278l-.11-.095c-.358.328-.725.649-.94 1.097l.09.079.96-1.081m-1.884 6.78c.658.118 1.243-.077 1.801-.394l-1.8.394m-3.495 2.363l-1.756.31c.289.298 1.076.184 1.756-.31m5.024-3.187l-2.185.41c.553.27 1.613.073 2.185-.41m-6.142-.39l2.954-.085c-.49-.085-.97-.126-1.446-.189a2.466 2.466 0 0 0-1.508.274m3.627-1.118c-.57.066-1.176.13-1.781.21-.673.087-1.02.217-1.255.467.973-.477 2.152-.051 3.036-.677m3.885-6.088c-.027.712-.075 1.344-.068 1.976.006.514-.155.951-.448 1.357-.058.081-.11.168-.189.291 1.062-.595 1.278-2.59.705-3.624m1.82 6.26l-.468.403c.136.125.255.32.412.357.258.061.54.026.812.022.651-.008 1.304-.048 1.953-.02.29.012.574.155.86.239a2.624 2.624 0 0 0-.779-.416c-.778-.265-1.568-.192-2.363-.071-.413.062-.448.013-.426-.515m-8.475 2.931c-1.228-.307-1.478-.143-1.756 1.191.13-.091.215-.16.308-.216.129-.077.26-.2.396-.206.52-.023.86-.267 1.052-.769m6.312 4.152c.628.42 1.303.568 2.028.359.476-.137.94-.104 1.408.021.145.04.29.076.436.114l.037-.077-.671-.388c.055-.023.106-.062.157-.063.294-.006.587-.003.835-.003-.377-.248-1.452-.271-1.978-.079a3.566 3.566 0 0 1-1.066.197c-.393.017-.79-.05-1.186-.08m6.467-8.923l-.454.686c.156.06.295.116.435.168.87.329 1.376.933 1.48 1.876.093.86.223 1.717.345 2.636-.17-.087-.335-.157-.483-.252-.66-.424-1.307-.87-1.978-1.276-.222-.134-.502-.17-.783-.194 1.206.621 2.408 1.226 3.241 2.36-.397.553-.158 1.122-.06 1.751-.146-.08-.253-.137-.358-.197-.922-.529-1.848-1.07-2.931-1.164-.758-.067-1.525-.034-2.288-.04-.846-.006-1.685-.056-2.478-.403l-.044.094c.229.114.447.29.688.331.842.145 1.688.29 2.538.347.866.056 1.738-.004 2.58.286.747.258 1.4.641 1.936 1.233.218.24.493.431.774.673-.076.175-.244.264-.5.173-.045-.016-.095-.027-.131-.055-.716-.573-1.55-.712-2.441-.74-.554-.019-1.1-.188-1.655-.251-.348-.04-.703-.008-.968-.008.772.185 1.62.407 2.478.583.416.085.864.029 1.271.135.394.102.774.301 1.124.515.277.169.257.339-.015.508-.265.166-.288.416-.298.682-.03.862-.384 1.197-1.248 1.185-.096-.002-.192 0-.286-.009-.557-.055-1.047-.203-1.45-.657-.456-.515-1.05-.858-1.762-.93-.159-.015-.32-.002-.57-.002.51.2.942.323 1.325.533.285.155.536.398.753.646.7.802 1.524 1.157 2.578.794.03-.01.065-.007.122-.012-.41.765-.854 1.516.017 2.295-.666.244-1.36.42-1.776 1.083-.596-.66-1.104-1.385-1.955-1.744.102.095.206.189.307.285.692.656 1.295 1.367 1.48 2.343.097.515-.024 1.044-.376 1.515-.584-.817-1.12-1.684-2.25-2.03l.282.757-.039.04c-.374-.358-.745-.72-1.124-1.071-.314-.291-.638-.57-.958-.853-.355-.316-.739-.606-1.057-.955-.305-.333-.637-.553-1.086-.622-.393-.06-.78-.16-1.178-.214.368.372.844.507 1.33.617.455.103.802.327.978.84-.32-.03-.6-.07-.88-.078-1.5-.05-3-.1-4.501-.13a1.32 1.32 0 0 0-.61.161c-.834.438-1.652.903-2.482 1.346-.79.423-1.588.21-2.022-.572-.25-.449-.429-.938-.67-1.476h.898v-.731c.45.198.804.7 1.38.327l-.164-.559 1.334.288-.15-.82 1.494.226-.285-.782c.186.042.319.078.454.103.568.106.837-.051 1.021-.594.273-.8-.115-1.72-.831-1.97-.044-.015-.092-.017-.184-.034l-.117.674c-.16-.134-.306-.22-.401-.343-.177-.232-.364-.221-.622-.143-.277.084-.25.278-.264.474-.009.128-.002.258-.002.467-.209-.128-.411-.205-.549-.346-.232-.237-.484-.187-.66-.017-.1.096-.054.35-.064.533-.003.052.03.106.073.25-.27-.11-.48-.179-.672-.278-.327-.169-.554-.073-.613.286-.023.138-.023.279-.036.452-.118-.04-.216-.068-.312-.105-.127-.048-.292-.18-.372-.14-.272.139-.566.298-.746.53-.084.11.074.405.133.662-.183 0-.38.004-.579 0-.195-.006-.354-.014-.55.128-.146.106-.487.039-.693-.056-.203-.093-.351-.312-.51-.488-.206-.227-.367-.492-.734-.508-.073-.004-.19-.218-.193-.337-.006-.287-.064-.458-.404-.425-.336.033-.515-.189-.378-.505.083-.193.25-.379.426-.498.464-.313.972-.562 1.428-.884 1.03-.729 2.068-1.451 3.043-2.25.4-.326.707-.809.943-1.278a4.282 4.282 0 0 1 1.397-1.632c1.218-.857 2.413-1.745 3.623-2.614.414-.297.823-.588 1.354-.692.214-.042.451-.291.56-.505.824-1.634 1.81-3.19 2.393-4.942.048-.144.124-.286.216-.407.377-.494.933-.469 1.13.11.241.714.385 1.466.514 2.212.1.572.024 1.184.179 1.735.292 1.035.79 2.005 1.817 2.477.36.165.887.04 1.317-.047.684-.138 1.35-.357 2.04-.546m-17.47-3.271c1.56-.498 3.638.402 4.101 1.757-1.69.632-3.633-.08-4.101-1.757m-.124 2.988c-1.437.43-2.756-.161-3.222-1.424 1.229-.737 2.624.059 3.222 1.424m6.435-4.185c-.968.732-2.414.586-3.213-.308.746-.618 2.314-.476 3.213.308m.586-7.854c-1.734.248-3.675-.498-4.11-1.917 1.847-.437 3.9.52 4.11 1.917m-9.205 3.086c.819-.661 1.982-.582 2.657.163-.68.737-2.032.536-2.657-.163m8.62-6.212c.968-.586 2.523-.375 3.203.44-1.144.324-2.185.145-3.203-.44m-11.04 7.489c.544-.226 1.196.082 1.52.697-.664.188-1.228-.064-1.52-.697m-18.37-4.379c.303-1.422 2.044-2.236 4.103-1.919-.177 1.228-2.6 2.36-4.103 1.92m9.23 3.107c-.776.76-2.002.829-2.682.168.624-.758 1.817-.84 2.681-.168M12.404 9.69c.712-.82 2.115-1.01 3.218-.459-1.014.602-2.052.773-3.218.46m12.738 7.737c.29-.609.982-.927 1.501-.691-.248.613-.86.894-1.501.69M36.578 4.35c-.622 1.122-1.888 1.382-2.81.596.424-1.05 1.81-1.353 2.81-.596m-10.291.603c-1.057.756-2.276.487-2.825-.604.964-.751 2.324-.469 2.825.604" fill="#FFF"/></g></svg>