<?xml version="1.0" encoding="utf-8"?>
<!-- Generator: Adobe Illustrator 18.0.0, SVG Export Plug-In . SVG Version: 6.00 Build 0)  -->
<!DOCTYPE svg PUBLIC "-//W3C//DTD SVG 1.1//EN" "http://www.w3.org/Graphics/SVG/1.1/DTD/svg11.dtd">
<svg version="1.1" id="Слой_1" xmlns="http://www.w3.org/2000/svg" xmlns:xlink="http://www.w3.org/1999/xlink" x="0px" y="0px"
	 viewBox="0 346 612 99.9" enable-background="new 0 346 612 99.9" xml:space="preserve">
<g>
	<g>
		<defs>
			<rect id="SVGID_1_" y="346" width="612" height="99.9"/>
		</defs>
		<clipPath id="SVGID_2_">
			<use xlink:href="#SVGID_1_"  overflow="visible"/>
		</clipPath>
		<path clip-path="url(#SVGID_2_)" fill="#0066FF" d="M571.3,435.9c23.4,0,40.7-19.8,40.7-39.9c0-22-17.3-39.9-40.2-39.9H471.1
			c-21.2,0-38.5,16.2-39.9,36.8h-20.1L364.2,346l-46.9,46.9h-22.6v-36.8h-79.8v36.8h-24c-1.7-21.8-19.8-38.8-41.9-38.8
			s-40.5,17-41.9,38.8H83.4V372l-41.6-24L0,372v48l41.9,24l41.6-24v-20.9h23.7c1.7,21.5,19.8,38.8,41.9,38.8s40.2-17.3,41.9-38.8h24
			v36.8h79.8v-36.8h22.6l46.9,46.9l46.9-46.9h20.1c1.4,20.7,18.7,36.8,39.9,36.8H571.3z M478,379.8h25.4v5.6h-9.8v26.8h-5.9v-26.8
			H478L478,379.8L478,379.8z M529.4,379.8v5.6h-14v7.8h13.7v5.6h-13.7v7.8H530v5.6h-20.4v-32.4H529.4z M559.8,379.8l-8.4,14.8
			l10,17.6h-6.7l-6.7-11.7l-6.7,11.7H535l10-17.6l-8.7-14.8h6.7l5,9.2l5.3-9.2C553.4,379.8,559.8,379.8,559.8,379.8z M30.7,380.4
			h23.4v32.1H48V386H36.6v26.5h-5.9V380.4z M245.9,379.8h19.8v32.4h-6.1v-26.5h-8.1l-0.3,15.9c-0.3,9.5-5,10.6-11.2,10.6v-5.9
			c2.8,0,5.3-0.3,5.3-4.5L245.9,379.8z M357.2,380.4v21.2l11.7-21.2h6.4v32.1h-6.1v-21.2l-11.7,21.2h-6.4v-32.1H357.2z M139.8,396
			c0,7.5,4.5,10.9,9.2,10.9c4.7,0,9.2-3.3,9.2-10.9s-4.5-10.9-9.2-10.9C144.3,385.1,139.8,388.5,139.8,396 M164.1,396
			c0,11.2-7,16.5-15.1,16.5S134,407.2,134,396s7-16.5,15.1-16.5S164.1,384.8,164.1,396"/>
	</g>
</g>
</svg>
