<svg width="76" height="76" viewBox="0 0 76 76" xmlns="http://www.w3.org/2000/svg"><title>fb</title><g fill="#323232" fill-rule="evenodd"><path d="M37.8 1.1C17.5 1.1 1 17.6 1 37.9c0 20.3 16.5 36.8 36.8 36.8 20.3 0 36.8-16.5 36.8-36.8C74.5 17.6 58 1.1 37.8 1.1m0 74.5C17 75.6 0 58.7 0 37.8S16.9 0 37.8 0c20.8 0 37.8 16.9 37.8 37.8s-17 37.8-37.8 37.8"/><path d="M31.9 49.1V38.6c0-.6-.2-.8-.7-.7h-3.3c-.4 0-.6-.1-.6-.6v-6.5c0-.4.1-.6.5-.5h3.3c.6 0 .8-.2.8-.8v-5c0-2 .6-3.9 1.8-5.6 1.5-2.1 3.7-3 6.2-3.1 2.6-.1 5.1-.1 7.7-.1.4 0 .5.1.5.5v6.6c0 .4-.1.5-.5.5h-3.7c-1.6 0-2.6.9-2.7 2.5-.1 1.3 0 2.6-.1 3.9 0 .5.3.4.6.4h5.6c.6 0 .7.1.7.7l-.6 6.6c0 .5-.3.6-.7.6h-4.4c-1.1 0-1-.2-1 .9v20.5c0 .7-.2.9-.9.9h-7.6c-.7 0-.8-.2-.8-.9-.1-3.4-.1-6.8-.1-10.3"/></g></svg>