<svg width="17" height="15" viewBox="0 0 17 15" xmlns="http://www.w3.org/2000/svg"><title>tg</title><path d="M2.441 6.662l2.732 1.045c.196.075.343.24.397.442l.346 1.313a.652.652 0 0 1 .196-.402l6.837-6.578L2.44 6.662zm3.593 3.245l.492 1.869 1.063-.765-1.39-.943a.635.635 0 0 1-.165-.16zm3.065.556l3.682 2.498 1.987-10.423L7.593 9.44l1.489 1.01.017.012zm4.136 4.243a.648.648 0 0 1-.365-.113L8.736 11.79l-2.217 1.596a.652.652 0 0 1-1.01-.362l-1.113-4.22-3.978-1.52A.65.65 0 0 1 .41 6.07L15.535.052a.643.643 0 0 1 .294-.05.648.648 0 0 1 .599.78l-2.554 13.395a.65.65 0 0 1-.639.529z" fill="#323232" opacity=".725"/></svg>