<svg xmlns="http://www.w3.org/2000/svg" xmlns:xlink="http://www.w3.org/1999/xlink" height="126" viewBox="0 0 26 126" width="26"><svg height="15" viewBox="0 0 18 15" width="18" x="4" y="4"><title>audio_mute</title><g fill="#FFF" fill-rule="evenodd"><path d="M4.941 5.313H0v4.999h4.941L9 13.374v-12zM14.854 0l-.707.707c3.664 3.665 3.664 9.628 0 13.293l.706.707c4.056-4.055 4.056-10.652 0-14.707"/><path d="M12.854 2l-.707.707a6.579 6.579 0 0 1 0 9.293l.706.707a7.521 7.521 0 0 0 2.219-5.353A7.522 7.522 0 0 0 12.854 2"/></g></svg><svg height="18" viewBox="0 0 13 18" width="13" x="4" y="23"><title>Page 1</title><path d="M6.072 7.623a2.267 2.267 0 0 1-2.269-2.265 2.267 2.267 0 0 1 4.536 0 2.265 2.265 0 0 1-2.267 2.265m0-7.622A6.068 6.068 0 0 0 0 6.066C0 9.023 1.676 12.96 6.072 17.35c4.396-4.39 6.072-8.327 6.072-11.284A6.068 6.068 0 0 0 6.072 0" fill="#FFF" fill-rule="evenodd"/></svg><svg height="13" viewBox="0 0 16 13" width="16" x="4" y="45"><title>audio_repeat</title><defs><path id="a" d="M.129 0h12.32v6.763H.13V0z"/><path id="c" d="M4.865 3.286V.687H.778v2.6h4.087z"/><path id="e" d="M0 .712V3.31h4.087V.71H0z"/></defs><g fill="none" fill-rule="evenodd"><g transform="translate(2)"><mask id="b" fill="#fff"><use xlink:href="#a"/></mask><path d="M12.446 6.763l-1-.035A5.542 5.542 0 0 0 7.568 1.25a5.523 5.523 0 0 0-6.551 2.737l-.888-.46A6.525 6.525 0 0 1 7.865.296a6.545 6.545 0 0 1 4.58 6.468" fill="#FFF" mask="url(#b)"/></g><g transform="translate(11 4)"><mask id="d" fill="#fff"><use xlink:href="#c"/></mask><path fill="#FFF" mask="url(#d)" d="M.778 1.162l.354-.354 1.742 1.744L4.486.687l.38.327L2.9 3.286z"/></g><path d="M7.946 13A6.54 6.54 0 0 1 1.42 6.235l1 .036a5.537 5.537 0 0 0 3.877 5.477 5.518 5.518 0 0 0 6.55-2.736l.889.46A6.519 6.519 0 0 1 7.946 13" fill="#FFF"/><g transform="translate(0 5)"><mask id="f" fill="#fff"><use xlink:href="#e"/></mask><path fill="#FFF" mask="url(#f)" d="M4.087 2.836l-.354.354L1.99 1.446.379 3.31l-.38-.327L1.965.712z"/></g></g></svg><svg height="12" viewBox="0 0 12 12" width="12" x="4" y="62"><title>audio_next</title><path d="M0 0v12l10.392-6zm10.392 12h1V.034h-1z" fill="#FFF" fill-rule="evenodd"/></svg><svg height="12" viewBox="0 0 12 12" width="12" x="4" y="78"><title>audio_prev</title><path d="M11.392 0L1 6l10.392 6zM0 11.966h1V.001H0z" fill="#FFF" fill-rule="evenodd"/></svg><svg height="12" viewBox="0 0 11 12" width="11" x="4" y="94"><title>audio_play</title><path d="M0 0v12l10.392-6.001z" fill="#FFF" fill-rule="evenodd"/></svg><svg height="12" viewBox="0 0 9 12" width="9" x="4" y="110"><title>audio_pause</title><path d="M0 12h3.04V.061H0zm6.08 0h3.04V.061H6.08z" fill="#FFF" fill-rule="evenodd"/></svg></svg>